<svg version="1.2" xmlns="http://www.w3.org/2000/svg" viewBox="0 0 1024 1024" width="500" height="500">
	<style>
		.s0 { fill: #c67d56 } 
		.s1 { fill: #4ba91c } 
		.s2 { fill: #7ac1f0 } 
		.s3 { fill: #3a911e } 
		.s4 { fill: #3b9320 } 
		.s5 { fill: #008643 } 
		.s6 { fill: #99d1ed } 
		.s7 { fill: #4a1f19 } 
		.s8 { fill: #b95e33 } 
		.s9 { fill: #4a1e19 } 
		.s10 { fill: #3b9220 } 
		.s11 { fill: #399220 } 
		.s12 { fill: #1e1109 } 
		.s13 { fill: #a64211 } 
		.s14 { fill: #4a1e18 } 
		.s15 { fill: #358419 } 
		.s16 { fill: #a64110 } 
		.s17 { fill: #328f1a } 
		.s18 { fill: #2f8113 } 
		.s19 { fill: #319219 } 
		.s20 { fill: #30911b } 
		.s21 { fill: #2c8913 } 
		.s22 { fill: #2e8119 } 
		.s23 { fill: #b25a2a } 
	</style>
	<g id="Layer 1">
		<path class="s0" d="m552.3 66.59c6.21 4.97 10.9 11.63 12.7 19.41q1.02-0.01 2.08-0.02 9.84-0.09 19.67-0.14 5.06-0.02 10.11-0.07c15.01-0.14 29.47-0.14 44.14 3.23q1.49 0.34 3.03 0.68 3.73 0.91 7.41 2.01 1.29 0.38 2.63 0.77c20.59 6.25 40.24 15.89 56.93 29.54q0.77 0.62 1.57 1.27c27.5 22.26 48.56 51.21 59.93 84.92q0.45 1.32 0.91 2.69c0.96 3.02 1.78 6.05 2.59 9.12q0.51 1.9 1.04 3.85c3.59 14.67 3.38 29.27 3.17 44.26q-0.09 6.97-0.1 13.95c-0.05 13.2-0.13 26.41-0.3 39.62q-0.14 10.99-0.14 21.99 0.01 5.79-0.11 11.59c-1.29 16.37-1.29 16.37 4.28 30.79 3.06 2.7 6.42 4.34 10.16 5.95q2.1 1.4 4.1 2.93 1.76 1.19 3.53 2.38c0.97 0.67 0.97 0.67 1.96 1.34q5.71 3.9 11.48 7.73 1.27 0.85 2.58 1.73 2.47 1.66 4.97 3.3c5.42 3.65 10.24 7.16 12.38 13.59 0.71 8.06-1.53 14.57-6.25 21.13q-0.86 0.92-1.75 1.87c1.42 3.23 3.15 5.32 5.63 7.81 13.52 14.9 17.26 33.11 16.54 52.64-1.31 19.66-11.95 36.86-25.86 50.24-8.32 7.22-19.02 14.31-30.31 14.31q0.03 0.96 0.07 1.96c0.65 33.72-10.33 63.74-33.41 88.42-18.1 18.65-44.69 32.14-70.96 32.69q-1.8 0.01-3.66 0.01c-18.52-0.16-18.52-0.16-34.2 8.57-3.77 2.77-7.98 4.77-12.15 6.85q-1.37 0.68-2.78 1.39c-10.94 5.31-22.39 9.25-33.91 13.11q0 1.77 0 3.6-0.01 6.73-0.1 13.47-0.02 2.89-0.02 5.78c0.02 22.88-6.83 39.66-22.97 56.33-18.08 17.92-40.44 24.08-65.2 24.14-12.39-0.13-23.66-2.53-34.71-8.32-1.3-0.65-1.3-0.65-2.63-1.3-19.33-9.96-34.12-26.58-41.03-47.29-2.31-8.82-1.65-18.05-1.53-27.1q0.03-2.81 0.04-5.63 0.05-6.84 0.15-13.68-1.32-0.19-2.69-0.38c-5.04-0.94-9.53-2.95-14.25-4.93q-1.56-0.66-3.17-1.33c-7.6-3.25-15-6.79-22.33-10.61-1.39-0.72-1.39-0.72-2.81-1.46-7.16-3.81-7.16-3.81-9.81-5.96-7.22-5.83-15.12-5.12-23.94-5.02-15.35 0.08-30.21-0.82-44.69-6.5q-1.17-0.45-2.38-0.91c-11.54-4.55-21.5-10.82-30.93-18.9-0.92-0.72-0.92-0.72-1.85-1.45-5.57-4.43-9.82-9.94-14.15-15.55q-0.91-1.17-1.85-2.37c-16.62-22.45-22.17-50.19-23.15-77.63-1.27-0.48-1.27-0.48-2.57-0.96-19.47-7.74-33.85-20.41-43.04-39.37-1.23-2.87-2.37-5.72-3.39-8.67-0.55-1.5-0.55-1.5-1.11-3.03-5.02-18.19-0.88-38.91 8.17-54.92 2.48-3.89 5.24-7.43 8.24-10.93 1.58-1.98 2.67-3.82 3.7-6.12q-0.68-0.71-1.39-1.43c-5.78-6.23-9.71-12.09-10.11-20.76 0.25-4.71 1.21-7.28 4.5-10.81 8.86-7.27 19.3-12.93 29-19q2.25-1.41 4.5-2.82 3.94-2.47 7.89-4.93 0.81-0.53 1.66-1.08c1.95-1.17 1.95-1.17 4.02-2.05 2.41-1.14 4.07-2.19 5.93-4.12 1.2-4.08 1.05-8.08 0.97-12.31q0.01-1.86 0.02-3.78 0.02-5.14-0.04-10.28-0.03-5.4 0-10.8 0.02-10.26-0.04-20.52-0.07-14.96-0.05-29.92 0-1.1 0-2.23 0.01-2.21 0.01-4.43 0-6.4-0.03-12.8c-0.1-18.26 0.15-36.02 4.79-53.8 0.38-1.52 0.38-1.52 0.78-3.06 7.29-27.24 21.08-51.87 39.59-73.07q0.66-0.76 1.35-1.55c28.46-32.53 67.82-52.48 110.65-57.45 4.61-0.29 9.22-0.37 13.84-0.41 1.86-0.03 1.86-0.03 3.77-0.06q5.88-0.09 11.77-0.16 4.02-0.05 8.04-0.11 9.79-0.14 19.58-0.26c0.5-1.03 0.5-1.03 1-2.07q0.66-1.35 1.34-2.73 0.65-1.33 1.32-2.7c4.66-8.69 13.22-15.12 22.34-18.5q1.2-0.47 2.44-0.96c18.17-6.06 41.36-2.17 56.86 8.55z"/>
		<path class="s1" d="m552.3 66.59c6.21 4.97 10.9 11.63 12.7 19.41q1.02-0.01 2.08-0.02 9.84-0.09 19.67-0.14 5.06-0.02 10.11-0.07c15.01-0.14 29.47-0.14 44.14 3.23q1.49 0.34 3.03 0.68 3.73 0.91 7.41 2.01 1.29 0.38 2.63 0.77c20.59 6.25 40.24 15.89 56.93 29.54q0.77 0.62 1.57 1.27c27.5 22.26 48.56 51.21 59.93 84.92q0.45 1.32 0.91 2.69c0.96 3.02 1.78 6.05 2.59 9.12q0.51 1.9 1.04 3.85c3.59 14.67 3.38 29.27 3.17 44.26q-0.09 6.97-0.1 13.95c-0.05 13.2-0.13 26.41-0.3 39.62q-0.14 10.99-0.14 21.99 0.01 5.79-0.11 11.59c-1.29 16.37-1.29 16.37 4.28 30.79 3.06 2.7 6.42 4.34 10.16 5.95q2.1 1.4 4.1 2.93 1.76 1.19 3.53 2.38c0.97 0.67 0.97 0.67 1.96 1.34q5.71 3.9 11.48 7.73 1.27 0.85 2.58 1.73 2.47 1.66 4.97 3.3c5.42 3.65 10.24 7.16 12.38 13.59 0.71 8.14-1.5 15.28-6.75 21.63q-1.11 1.16-2.25 2.37-0.73-0.53-1.48-1.07c-14.19-9.88-27.41-14.16-44.52-15.93-0.06 1.82-0.06 1.82-0.11 3.67-1.52 41.24-1.52 41.24-10.7 50.02-4.01 1.65-5.88 2.09-10.19 1.31-25.99-12.7-40.6-45.1-53.75-69.13q-0.7-1.27-1.42-2.58c-3.75-6.96-7.14-14.07-10.54-21.2q-0.76-1.6-1.55-3.24-1.87-3.92-3.74-7.85-25.95-0.46-51.9-0.67-12.05-0.1-24.09-0.31-10.51-0.2-21.02-0.24-5.56-0.02-11.12-0.15c-15.88-1.32-15.88-1.32-29.85 4.22-2.67 3.07-4.35 6.45-6.02 10.15-1.58 2.04-1.58 2.04-3.07 3.58q-1.23 1.31-2.49 2.67-2.71 2.89-5.44 5.75-1.1 1.2-2.24 2.43c-9.38 9.9-20.4 18.47-34.38 19.01-5.27-0.14-8.48-0.64-12.38-4.44-3.62-4.79-5.13-8.23-5.13-14.19q0-1.54-0.01-3.12 0.01-1.6 0.02-3.25-0.01-1.57-0.02-3.18c0.01-1.55 0.01-1.55 0.01-3.14q0-1.39 0-2.83c0.18-4.44 0.69-8.87 1.13-13.29-66.33 0.49-66.33 0.49-134 1-6.27 12.21-12.54 24.42-19 37-14.35 25.31-14.35 25.31-22 36-1.07 1.5-1.07 1.5-2.16 3.02-16.44 22.43-16.44 22.43-29.84 26.98-5.09 0-6.98-0.1-10.81-3.5-9.63-13.78-8.73-35.43-9.19-51.5-15.56 2.01-28.13 5.34-40.7 15.36-2.19 1.56-3.67 2.22-6.3 2.64-6.36-6.56-11.06-12.8-11.5-22.19 0.25-4.71 1.21-7.28 4.5-10.81 8.86-7.27 19.3-12.93 29-19q2.25-1.41 4.5-2.82 3.94-2.47 7.89-4.93 0.81-0.53 1.66-1.08c1.95-1.17 1.95-1.17 4.02-2.05 2.41-1.14 4.07-2.19 5.93-4.12 1.2-4.08 1.05-8.08 0.97-12.31q0.01-1.86 0.02-3.78 0.02-5.14-0.04-10.28-0.03-5.4 0-10.8 0.02-10.26-0.04-20.52-0.07-14.96-0.05-29.92c0-1.1 0-1.1 0-2.23q0.01-2.21 0.01-4.43 0-6.4-0.03-12.8c-0.1-18.26 0.15-36.02 4.79-53.8 0.38-1.52 0.38-1.52 0.78-3.06 7.29-27.24 21.08-51.87 39.59-73.07q0.66-0.76 1.35-1.55c28.46-32.53 67.82-52.48 110.65-57.45 4.61-0.29 9.22-0.37 13.84-0.41 1.86-0.03 1.86-0.03 3.77-0.06q5.88-0.09 11.77-0.16 4.02-0.05 8.04-0.11 9.79-0.14 19.58-0.26c0.5-1.03 0.5-1.03 1-2.07q0.66-1.35 1.34-2.73 0.65-1.33 1.32-2.7c4.66-8.69 13.22-15.12 22.34-18.5q1.2-0.47 2.44-0.96c18.17-6.06 41.36-2.17 56.86 8.55z"/>
		<path class="s2" d="m433 726q0.49 0 1 0 0.01 1.68 0.01 3.42 0.04 6.39 0.14 12.79 0.04 2.75 0.05 5.49c0.08 22.45 5.9 40.18 21.89 56.51 18.76 18.36 41.2 24.25 66.63 24.01 7.09-0.17 13.49-1.1 20.28-3.22q1.44-0.45 2.93-0.91c2.74-0.94 5.4-1.97 8.07-3.09 1.21-0.5 1.21-0.5 2.45-1.02 19.01-8.68 33.73-25.47 41.49-44.67 2.17-6.39 2.65-12.48 2.61-19.18 0.04-5.05 0.85-7.57 4.45-11.13 2.92-2.19 5.97-2.47 9.59-2.39 10.88 1.75 20.85 8.63 28.41 16.39q0.62 1.27 1.27 2.58c1.5 2.66 1.5 2.66 4.26 3.02q1.5-0.02 3.04-0.03 1.66 0.01 3.38 0.02 1.78-0.01 3.61-0.03c25.56 0.37 47.76 7.24 66.04 25.91 12.8 13.95 20.4 32.27 20.55 51.13 0.01 1.02 0.01 1.02 0.02 2.06q0.05 5.17-0.11 10.34c-0.11 7.29-0.11 7.29 2.84 13.75 2.26 2.25 4.61 4.25 7.1 6.25q2.34 2.67 4.56 5.44 1.12 1.4 2.27 2.84 1.07 1.34 2.17 2.72 0.95 1.11 1.92 2.25c27.42 32.58 41.55 75.74 51.77 116.44q0.26 1.02 0.52 2.07c1.58 6.29 2.79 11.71 2.79 18.24-205.59 0-411.18 0-623 0 4.73-23.67 4.73-23.67 7.12-32.44 0.44-1.6 0.44-1.6 0.89-3.24 5.47-19.62 12.11-38.96 20.99-57.32q0.48-1.01 0.98-2.05c10.48-22.04 23.72-41.65 41.02-58.95q0.14-4.02 0.14-8.03 0.03-2.55 0.06-5.09 0.05-4 0.05-7.99c0.03-23.57 6.71-44.25 23.3-61.46 11.19-11.01 26.06-18.58 41.45-21.43q1.16-0.26 2.36-0.53c2.57-0.46 4.86-0.56 7.47-0.52q1.39 0.02 2.82 0.04 1.49 0.02 3.02 0.05 3.2 0 6.39 0 5.02 0 10.03 0.09c12.78 0.92 12.78 0.92 24.29-3.31 2.22-2.5 3.88-4.97 5.62-7.82 7.55-6.87 16.21-11.36 26.48-11.3 4.13 0.49 6.6 2.38 9.52 5.3 0.33-7.26 0.66-14.52 1-22z"/>
		<path class="s3" d="m566 86q11.68-0.11 23.36-0.16 3.97-0.03 7.93-0.07c14.87-0.14 29.17-0.09 43.71 3.23 1.5 0.34 1.5 0.34 3.03 0.68q3.73 0.91 7.41 2.01 1.29 0.38 2.63 0.77c20.59 6.25 40.24 15.89 56.93 29.54q0.77 0.62 1.57 1.27c27.5 22.26 48.56 51.21 59.93 84.92q0.45 1.32 0.91 2.69c0.96 3.02 1.78 6.05 2.59 9.12q0.51 1.9 1.04 3.85c3.59 14.67 3.38 29.27 3.17 44.26q-0.09 6.97-0.1 13.95c-0.05 13.2-0.13 26.41-0.3 39.62q-0.14 10.99-0.14 21.99 0.01 5.79-0.11 11.59c-1.29 16.37-1.29 16.37 4.28 30.79 3.06 2.7 6.42 4.34 10.16 5.95q2.1 1.4 4.1 2.93 1.76 1.19 3.53 2.38c0.97 0.67 0.97 0.67 1.96 1.34q5.71 3.9 11.48 7.73 1.27 0.85 2.58 1.73 2.47 1.66 4.97 3.3c5.42 3.65 10.24 7.16 12.38 13.59 0.71 8.14-1.5 15.28-6.75 21.63-1.11 1.17-1.11 1.17-2.25 2.37q-0.73-0.53-1.48-1.07c-14.19-9.88-27.41-14.16-44.52-15.93q-0.06 1.81-0.11 3.67c-1.52 41.24-1.52 41.24-10.7 50.02-4.01 1.65-5.88 2.09-10.19 1.31-25.99-12.7-40.6-45.1-53.75-69.13q-0.7-1.27-1.42-2.58c-3.75-6.96-7.14-14.07-10.54-21.2q-0.76-1.6-1.55-3.24-1.87-3.92-3.74-7.85-25.95-0.46-51.9-0.67-12.05-0.1-24.09-0.31-10.51-0.2-21.02-0.24-5.56-0.02-11.12-0.15c-15.88-1.32-15.88-1.32-29.85 4.22-2.67 3.07-4.35 6.45-6.02 10.15-1.58 2.04-1.58 2.04-3.07 3.58q-1.23 1.31-2.49 2.67-2.71 2.89-5.44 5.75c-1.11 1.2-1.11 1.2-2.24 2.43-9.38 9.9-20.4 18.47-34.38 19.01-5.27-0.14-8.48-0.64-12.38-4.44-3.6-4.77-5.13-8.22-5.13-14.16q0-1.52-0.01-3.1 0.01-1.59 0.02-3.24-0.01-1.55-0.02-3.15 0.01-1.54 0.01-3.13 0-1.39 0-2.82c0.18-4.81 0.69-9.6 1.13-14.4-23.43 0-46.86 0-71 0 0-19.14 0-38.28 0-58 70.95 0 141.9 0 215 0 0 50 0 50-2 58 19.47 0 38.94 0 59 0q-0.13-31.39-0.29-62.77-0.07-14.58-0.13-29.16-0.05-12.71-0.12-25.43-0.04-6.72-0.06-13.44c0.35-30.9 0.35-30.9-4.59-61.26-0.32-1.23-0.32-1.23-0.65-2.49-5.22-19.21-13.63-37.88-26.16-53.45q-0.62-0.78-1.26-1.58c-16.56-20.64-41.78-39.87-68.85-43.72-4.29-0.44-8.57-0.63-12.89-0.7q0-0.49 0-1z"/>
		<path class="s4" d="m552.3 66.59c5.2 4.16 9.01 9.32 11.7 15.41q0 1.97 0 4c-1.73 0.01-1.73 0.01-3.49 0.02q-16.43 0.12-32.87 0.27-8.44 0.07-16.89 0.13-8.18 0.06-16.36 0.14-3.09 0.03-6.18 0.04c-10.92 0.07-21.78 0.38-32.66 1.26q-1.41 0.11-2.85 0.22c-8.38 0.75-15.17 3.11-22.7 6.92q-1.89 0.91-3.79 1.82c-8.9 4.4-16.61 9.82-24.21 16.18-1.42 1.17-1.42 1.17-2.87 2.37-20.93 18.08-35.04 44.17-42.13 70.63q-0.44 1.6-0.89 3.25c-3.73 14.69-4.41 29.77-4.43 44.85q-0.01 2.43-0.03 4.85-0.04 6.5-0.05 12.99-0.03 6.82-0.07 13.65-0.07 12.87-0.12 25.75-0.06 14.68-0.14 29.35-0.15 30.16-0.27 60.31-2.46 0-5 0-0.39 1.26-0.79 2.56c-1.28 3.63-2.87 6.99-4.63 10.4q-0.5 0.98-1.02 2-1.65 3.21-3.31 6.41-0.56 1.1-1.14 2.22c-9.11 17.62-18.55 35.26-30.11 51.41-1.07 1.5-1.07 1.5-2.16 3.02-16.44 22.43-16.44 22.43-29.84 26.98-5.09 0-6.98-0.1-10.81-3.5-9.63-13.78-8.73-35.43-9.19-51.5-15.56 2.01-28.13 5.34-40.7 15.36-2.19 1.56-3.67 2.22-6.3 2.64-6.36-6.56-11.06-12.8-11.5-22.19 0.25-4.71 1.21-7.28 4.5-10.81 8.86-7.27 19.3-12.93 29-19q2.25-1.41 4.5-2.82 3.94-2.47 7.89-4.93 0.81-0.53 1.66-1.08c1.95-1.17 1.95-1.17 4.02-2.05 2.41-1.14 4.07-2.19 5.93-4.12 1.2-4.08 1.05-8.08 0.97-12.31q0.01-1.86 0.02-3.78 0.02-5.14-0.04-10.28-0.03-5.4 0-10.8 0.02-10.26-0.04-20.52-0.07-14.96-0.05-29.92c0-1.1 0-1.1 0-2.23q0.01-2.21 0.01-4.43 0-6.4-0.03-12.8c-0.1-18.26 0.15-36.02 4.79-53.8 0.38-1.52 0.38-1.52 0.78-3.06 7.29-27.24 21.08-51.87 39.59-73.07q0.66-0.76 1.35-1.55c28.46-32.53 67.82-52.48 110.65-57.45 4.61-0.29 9.22-0.37 13.84-0.41 1.86-0.03 1.86-0.03 3.77-0.06q5.88-0.09 11.77-0.16 4.02-0.05 8.04-0.11 9.79-0.14 19.58-0.26c0.5-1.03 0.5-1.03 1-2.07q0.66-1.35 1.34-2.73 0.65-1.33 1.32-2.7c4.66-8.69 13.22-15.12 22.34-18.5q1.2-0.47 2.44-0.96c18.17-6.06 41.36-2.17 56.86 8.55z"/>
		<path class="s2" d="m299.95 845.49c2.78 2.05 5.3 4.33 7.8 6.7q1.61 1.5 3.23 3 0.77 0.73 1.57 1.47 2.75 2.53 5.58 4.96c5.55 4.83 10.99 9.78 16.45 14.71 3.72 3.35 7.44 6.7 11.23 9.98 4.17 3.63 8.21 7.39 12.26 11.14q7.41 6.84 14.93 13.55 8.11 7.26 16.13 14.62c3.25 3 6.52 5.98 9.87 8.88 4.91 4.26 9.68 8.69 14.47 13.09 5.44 5 10.88 10 16.47 14.85 3.95 3.43 7.8 6.97 11.64 10.52q4.06 3.74 8.23 7.35c4.69 4.06 9.18 8.33 13.7 12.57 3.74 3.5 7.51 6.94 11.4 10.28 3.51 3.09 6.93 6.3 10.35 9.48 2.97 2.75 5.96 5.44 9.05 8.05q1.33 1.14 2.69 2.31 0 0.49 0 1c-98.67 0-197.34 0-299 0 4.73-23.67 4.73-23.67 7.13-32.44 0.43-1.6 0.43-1.6 0.88-3.24 5.47-19.62 12.11-38.96 20.99-57.32q0.48-1.01 0.98-2.05c9.73-20.46 21.73-38.78 37.43-55.18 2.58-2.69 2.58-2.69 4.72-5.44 1.67-2.08 3.29-3.73 5.31-5.46q1.02-0.87 2.08-1.77 1.22-1.03 2.48-2.1 1.62-1.39 3.23-2.79 1.73-1.48 3.46-2.96c0.82-0.71 0.82-0.71 1.65-1.43 8.39-7.14 8.39-7.14 11.61-6.33z"/>
		<path class="s5" d="m346.33 765.71c1.67 0 1.67 0 3.38 0.01q5.27 0.03 10.54 0.09 3.6 0.03 7.21 0.04 8.77 0.05 17.54 0.15c-1.31 4-2.78 7.82-4.44 11.69-3.1 7.92-4.18 16.03-5.25 24.43-0.31 1.88-0.31 1.88-1.31 4.88 0.93 0.73 0.93 0.73 1.88 1.48 5.77 4.62 11.25 9.44 16.62 14.52 5.07 4.79 10.24 9.31 15.69 13.66 3.39 2.83 6.6 5.82 9.81 8.84 4.06 3.82 8.14 7.51 12.5 11 5 4 9.64 8.3 14.29 12.69 4.45 4.17 9.07 8.02 13.83 11.83 2.7 2.25 5.1 4.67 7.53 7.19 2.2 2.13 4.53 4.01 6.91 5.91 5.84 4.7 11.27 9.76 16.73 14.88 4.69 4.39 9.53 8.57 14.42 12.73 6.54 5.59 13 11.22 19.34 17.04q4.17 3.78 8.43 7.46 3.45 3.04 6.83 6.14c3.42 3.1 6.91 6.05 10.5 8.94 5.45 4.41 10.57 9.13 15.69 13.9 2.96 2.76 5.98 5.44 9.04 8.08q3.51 3.08 6.96 6.21 5.43 4.9 10.95 9.7 3.46 3.06 6.86 6.17c4.44 4.02 9.04 7.79 13.74 11.49 2.51 2.19 4.41 4.52 6.45 7.14q-23.47 0.5-46.94 0.73-10.9 0.09-21.8 0.33-9.51 0.21-19.03 0.26-5.02 0.02-10.05 0.16c-23.1 0.63-23.1 0.63-31.25-6.41-2.38-2.38-4.56-4.84-6.64-7.49-1.62-1.98-3.43-3.59-5.41-5.21-4.08-3.51-8.02-7.17-11.96-10.83q-4.92-4.56-9.92-9.04-5.86-5.26-11.62-10.63c-4.07-3.76-8.17-7.47-12.36-11.1-3.5-3.07-6.93-6.23-10.38-9.38q-3.19-2.89-6.45-5.7c-4.45-3.87-8.74-7.91-13.05-11.93q-5.45-5.08-11.09-9.96c-3.21-2.82-6.34-5.72-9.48-8.61q-7.25-6.64-14.57-13.19-8.04-7.2-16-14.5c-7.22-6.63-14.49-13.2-21.88-19.63-2.51-2.21-4.97-4.48-7.43-6.75-4.59-4.19-9.32-8.15-14.18-12.01-2.66-2.24-5.09-4.62-7.51-7.11-4.71 1.54-8.07 4.13-11.87 7.19q-0.93 0.73-1.88 1.49c-3.87 3.1-7.49 6.3-10.82 9.98-1.66 1.56-3.38 2.36-5.43 3.34q-0.19-7.44-0.27-14.87-0.04-2.52-0.11-5.04c-0.57-22.51 6.14-42.4 21.48-59.16 6.67-6.92 14.41-11.92 22.9-16.31q0.92-0.48 1.87-0.97c9.74-4.77 19.72-6.1 30.46-5.94z"/>
		<path class="s6" d="m433 726q0.49 0 1 0 0.01 1.68 0.01 3.42 0.04 6.39 0.14 12.79 0.04 2.75 0.05 5.49c0.08 22.45 5.9 40.18 21.89 56.51 18.76 18.36 41.2 24.25 66.63 24.01 7.09-0.17 13.49-1.1 20.28-3.22q1.44-0.45 2.93-0.91c2.74-0.94 5.4-1.97 8.07-3.09 1.21-0.5 1.21-0.5 2.45-1.02 19.01-8.68 33.73-25.47 41.49-44.67 2.17-6.39 2.65-12.48 2.61-19.18 0.04-5.05 0.85-7.57 4.45-11.13 2.92-2.19 5.97-2.47 9.59-2.39 10.88 1.75 20.85 8.63 28.41 16.39q0.6 1.27 1.23 2.57c1.57 2.71 1.57 2.71 4.59 3.09 1.67 0.02 1.67 0.02 3.38 0.05 1.81 0.04 1.81 0.04 3.66 0.08q1.89 0.01 3.83 0.02 1.9 0.04 3.86 0.08 4.72 0.09 9.45 0.11 0 0.49 0 1c-8.25 0-16.5 0-25 0q1.35 2.55 2.75 5.19c10.32 20.8 10.57 43.99 3.25 65.81q-0.39 1.18-0.79 2.39c-6.86 20.22-17.47 37.58-30.21 54.61q-0.63 0.85-1.27 1.72c-4.53 6.05-8.79 11.08-15.73 14.28q-1.01 0.47-2.04 0.96c-7.87 3.13-17.07 3.59-24.96 0.35-3.72-1.77-6.12-4.39-9-7.31q-2.75-2.73-5.49-5.46-2.38-2.36-4.76-4.73-1.62-1.62-3.24-3.23c-5.53-5.48-10.98-10.96-16.03-16.88-2.21-2.54-4.58-4.85-6.98-7.2-3.86-3.82-7.55-7.7-11.06-11.84-1.42-1.63-2.9-3.15-4.44-4.66-8.96 3.98-15.05 13.56-21 21q-2.18 2.69-4.37 5.38-1.09 1.33-2.21 2.71-2.69 3.23-5.47 6.39-0.76 0.87-1.55 1.77-1.5 1.72-3.03 3.42c-1.55 1.72-1.55 1.72-3.37 4.33q0.49 1.48 1 3c-4.33-1.69-7.27-4.9-10.56-8.06-4.2-3.98-8.42-7.83-12.94-11.44-5-4-9.65-8.31-14.31-12.7-3.46-3.25-6.98-6.33-10.69-9.3-5.01-4-9.65-8.31-14.31-12.71-3.44-3.22-6.94-6.29-10.63-9.23-5.25-4.2-10.1-8.76-14.98-13.38-5.32-5-10.84-9.67-16.58-14.18 2.46-14.87 5.54-27.01 12-41-15.18 0-30.36 0-46 0q0-0.49 0-1 0.87 0.01 1.76 0.03 9.13 0.13 18.25 0.09 3.4 0 6.8 0.06c12.94 0.91 12.94 0.91 24.59-3.36 2.22-2.5 3.87-4.97 5.6-7.82 7.54-6.87 16.22-11.36 26.48-11.3 4.13 0.49 6.6 2.38 9.52 5.3 0.33-7.26 0.66-14.52 1-22z"/>
		<path class="s7" d="m511.28 238.74q3.68 0.01 7.35-0.01c14.32-0.02 28.42 0.84 42.18 5.08 1.33 0.4 1.33 0.4 2.69 0.81 20.96 6.39 38.14 16.76 49.12 36.26 6.77 12.94 10.38 25.53 10.38 40.12-70.62 0-141.24 0-214 0 1.17-14.08 1.17-14.08 3.13-20.37q0.32-1.07 0.66-2.17c3.66-11.48 9.12-21.48 17.21-30.46 0.79-0.92 0.79-0.92 1.61-1.85 20.06-21.7 51.44-27.56 79.67-27.41z"/>
		<path class="s8" d="m434 726q1.85 0.5 3.76 1.02c8.8 2.36 17.55 4.68 26.55 6.17q1.45 0.24 2.94 0.48 4.37 0.7 8.75 1.33 1.22 0.18 2.47 0.36c37.35 5.17 75.05 1.68 111.55-6.74 3.31-0.69 6.63-1.17 9.98-1.62q0.15 8.86 0.22 17.71 0.03 3.01 0.08 6.01c0.37 21.87-4.97 37.04-20.01 53.08-16.12 16.48-37.07 25.1-59.98 25.49-14.86 0.1-27.93-1.28-41.31-8.29q-1.3-0.64-2.63-1.3c-19.33-9.96-34.12-26.58-41.03-47.29-2.31-8.82-1.65-18.05-1.53-27.1q0.03-2.81 0.04-5.63 0.05-6.84 0.15-13.68z"/>
		<path class="s9" d="m261.54 381.43q1.37 0 2.78 0 4.51 0.01 9.02 0.08 3.15 0.02 6.29 0.02 8.25 0.04 16.49 0.13 8.43 0.07 16.86 0.1 16.51 0.08 33.02 0.24c-0.82 1.64-0.82 1.64-1.66 3.31q-1.08 2.17-2.17 4.34-0.54 1.07-1.09 2.18-2.92 5.83-5.78 11.7c-8.82 18.12-18.55 36.06-30.3 52.47q-1.07 1.49-2.16 3.02c-16.44 22.43-16.44 22.43-29.84 26.98-5.09 0-6.98-0.1-10.81-3.5-9.63-13.78-8.73-35.43-9.19-51.5-15.56 2.01-28.13 5.34-40.7 15.36-2.19 1.56-3.67 2.22-6.3 2.64-6.36-6.56-11.06-12.8-11.5-22.19 0.25-4.71 1.21-7.28 4.5-10.81 8.86-7.27 19.3-12.93 29-19q2.25-1.41 4.5-2.82c7.37-4.61 7.37-4.61 9.58-5.96q1.89-1.2 3.69-2.51c5.31-3.75 9.36-4.41 15.77-4.28z"/>
		<path class="s9" d="m688 382q17.85-0.35 35.7-0.52 8.3-0.07 16.59-0.23 8.01-0.16 16.02-0.2 3.05-0.03 6.09-0.11c12.12-0.31 19.97 0.22 29.12 8.62q1.22 1.2 2.48 2.44 2.01 1.52 4.1 2.93c0.88 0.59 0.88 0.59 1.77 1.2 0.87 0.59 0.87 0.59 1.75 1.18q0.97 0.66 1.97 1.34 5.71 3.9 11.48 7.73c1.27 0.85 1.27 0.85 2.58 1.73q2.47 1.66 4.97 3.3c5.42 3.65 10.24 7.16 12.38 13.59 0.71 8.14-1.5 15.28-6.75 21.63-1.11 1.17-1.11 1.17-2.25 2.37q-0.73-0.53-1.48-1.07c-14.19-9.88-27.41-14.16-44.52-15.93q-0.06 1.81-0.11 3.67c-1.52 41.24-1.52 41.24-10.7 50.02-4.01 1.65-5.88 2.09-10.19 1.31-34.94-17.07-56.39-70.48-71-104q0-0.49 0-1z"/>
		<path class="s10" d="m272 572q2.46 0 5 0c2.44 4.42 3.87 8.78 5.24 13.6 0.76 2.62 0.76 2.62 2.45 5.78 1.31 2.62 1.31 2.62 1.31 6.62q0.99 0 2 0 0.65 1.85 1.31 3.75c0.94 2.54 1.74 4.31 3.38 6.5 1.31 1.75 1.31 1.75 1.31 5.75q0.99 0 2 0c1.69 2.48 1.69 2.48 3.56 5.75 0.93 1.6 0.93 1.6 1.88 3.23 1.26 2.44 2.09 4.35 2.56 7.02q0.99 0 2 0 1.55 2.47 3 5 2.72 3.74 5.53 7.41c1.7 2.25 3.4 4.5 5.04 6.8 3.65 5.11 7.91 9.36 12.45 13.69 1.98 2.1 1.98 2.1 1.98 4.1q0.99 0 2 0c2.63 2.38 2.63 2.38 5 5q0 0.98 0 2 0.77 0.34 1.56 0.69c4.16 2.24 8.03 4.86 11.33 8.25 3.04 2.97 6.53 5.13 10.06 7.47q1.01 0.79 2.05 1.59 0 0.99 0 2 1.97 0.99 4 2c-34.94 0.6-65.35-2.29-93-26-0.92-0.72-0.92-0.72-1.85-1.45-5.57-4.43-9.82-9.94-14.15-15.55q-0.91-1.17-1.85-2.37c-17.2-23.23-21.68-49.42-21.15-77.63 11.22 0.33 22.44 0.66 34 1q0-0.99 0-2z"/>
		<path class="s10" d="m758 572q1.54 0.23 3.13 0.46c6.26 0.79 12.56 0.9 18.87 1.1 1.88 0.07 1.88 0.07 3.79 0.13q4.61 0.16 9.21 0.31c0.41 34.99-10.3 65.65-34.88 90.97-14.01 13.9-31.2 22.87-50.12 28.03q-1.84 0.51-3.75 1.03c-12.89 2.95-26.11 2.25-39.25 1.97q0-0.99 0-2c6.75-4 6.75-4 9-4q0-0.99 0-2c1.61-1.44 1.61-1.44 3.75-3q1.04-0.77 2.11-1.56c1.99-1.34 3.97-2.42 6.14-3.44q0-0.98 0-2 0.99 0 2 0 0-0.98 0-2c2.64-1.78 4.97-2.99 8-4q0-0.98 0-2 0.99 0 2 0 0-0.98 0-2 0.99 0 2 0 0.99-1.97 2-4 0.99 0 2 0 0-0.98 0-2 1.69-1.7 3.43-3.36c2.61-2.73 4.78-5.81 7.02-8.85q0.76-0.88 1.55-1.79 0.99 0 2 0 0-0.98 0-2 0.99 0 2 0 0-1.97 0-4 0.99 0 2 0 0.4-1.08 0.81-2.2c1.18-2.77 2.53-5.11 4.19-7.61q0.77-1.18 1.56-2.4 0.71-0.88 1.44-1.79 0.99 0 2 0 0.22-0.92 0.44-1.88c0.56-2.12 0.56-2.12 1.56-4.12q0.99 0 2 0 0-1.97 0-4 0.99 0 2 0c0.14-0.77 0.14-0.77 0.28-1.55 1.01-3.44 2.65-6.52 4.28-9.7q0.49-0.97 1-1.97 1.22-2.39 2.44-4.78 0.99 0 2 0 0.22-1.39 0.44-2.81c0.56-3.19 0.56-3.19 1.56-6.19q0.99 0 2 0c0.19-1.67 0.19-1.67 0.37-3.38 0.63-3.62 0.63-3.62 2.63-5.62q0.9-2.53 1.62-5.13 0.39-1.35 0.79-2.75 0.29-1.05 0.59-2.12z"/>
		<path class="s9" d="m424.77 385.7q2.43-0.01 4.85-0.06c17.85-0.32 17.85-0.32 25.4 6.07q0.67 0.82 1.36 1.67c0.69 0.81 0.69 0.81 1.39 1.64 3.53 5.69 3.57 11.37 3.54 17.86q0.03 1.28 0.05 2.6c0.01 6.52-0.72 12.35-5.04 17.54q-0.87 0.67-1.76 1.36-0.86 0.68-1.74 1.39c-4.29 2.9-7.23 3.48-12.46 3.47q-0.99 0.01-2 0.01-3.27 0-6.54-0.02-2.29 0-4.58 0-4.81 0-9.63-0.02-6.1-0.03-12.2-0.02-4.75-0.01-9.49-0.02-2.25 0-4.49 0c-30.92-0.04-30.92-0.04-38.43-4.17-3.38-3.47-5.15-6.18-5.31-11 0.15-8.86 4.02-15.67 10.06-21.96 17.36-15.69 44.81-16.22 67.02-16.34z"/>
		<path class="s9" d="m597.43 385.6c1.17 0 1.17 0 2.36-0.01q3.76-0.01 7.52 0.03 1.28 0.01 2.59 0.02c12.22 0.07 24.2 0.32 36.1 3.36q1.05 0.26 2.13 0.52c14.26 3.6 26.29 9.87 34.25 22.7 2.76 5.46 3.61 10.73 2.62 16.78-1.93 4.41-3.24 5.66-7.65 7.63-4.15 1.46-8.14 1.84-12.52 1.88-1.16 0.03-1.16 0.03-2.35 0.06q-3.83 0.07-7.67 0.12-2.69 0.04-5.39 0.09-7.2 0.11-14.4 0.18-4.61 0.06-9.21 0.14-7.7 0.12-15.4 0.18-2.95 0.03-5.91 0.08-4.16 0.06-8.32 0.07c-1.22 0.02-1.22 0.02-2.46 0.05-7.19-0.03-12.38-2.19-17.53-7.23-6.22-9.24-6.43-19.25-4.76-30.04 1.56-5.61 4.76-9.92 9.57-13.21 5.7-2.48 10.25-3.45 16.43-3.4z"/>
		<path class="s11" d="m346.33 765.71c1.67 0 1.67 0 3.38 0.01q5.27 0.03 10.54 0.09 3.6 0.03 7.21 0.04 8.77 0.05 17.54 0.15c-1.31 4-2.78 7.82-4.44 11.69-2.59 6.56-3.66 13.04-4.48 20.04-0.27 2.1-0.67 4.19-1.08 6.27q-1.48 0.98-3 2-2.34-1.95-4.69-3.91c-4.99-2.36-9.84-1.43-14.84 0.34q-2.49 0.99-4.97 2.01-2.77 1.1-5.55 2.2-1.44 0.57-2.93 1.17c-5.2 2.05-10.46 3.99-15.71 5.94-6.46 2.4-12.88 4.85-19.23 7.52-2.08 0.73-2.08 0.73-5.08 0.73q0 0.98 0 2c-0.99 0.49-0.99 0.49-2 1q-0.04 3.34-0.06 6.69-0.02 1.85-0.04 3.76c0.09 3.03 0.24 5.65 1.1 8.55q0.99 0.49 2 1-0.78 0.49-1.58 1c-9.29 6-17.59 13.13-25.74 20.57-1.68 1.43-1.68 1.43-2.68 1.43q-0.19-7.44-0.27-14.87-0.04-2.52-0.11-5.04c-0.57-22.51 6.14-42.4 21.48-59.16 6.67-6.92 14.41-11.92 22.9-16.31q0.92-0.48 1.87-0.97c9.74-4.77 19.72-6.1 30.46-5.94z"/>
		<path class="s12" d="m438.08 456.82q0.95 0.58 1.92 1.18 0.93 0.51 1.89 1.03c5.7 3.47 9.77 9.47 11.67 15.86 0.45 2.14 0.59 4.08 0.62 6.26 0.02 1.21 0.02 1.21 0.04 2.45q0.01 1.29 0.02 2.63 0.01 1.34 0.02 2.73 0.02 2.87 0.04 5.74 0.01 2.91 0.06 5.82c0.35 22.93 0.35 22.93-6.8 31.36q-1.26 1.04-2.56 2.12-1.05 1.02-2.12 2.06c-7.9 5.33-16.47 7.15-25.88 5.94-8.39-1.97-15.44-6.89-20.38-13.98-5.03-9.3-4.97-19.45-4.94-29.73q0-3.43-0.04-6.85c-0.05-11.47 1.06-20.9 9.36-29.44 10.4-8.41 24.75-11.87 37.08-5.18z"/>
		<path class="s12" d="m628.91 460.13c5.99 4.4 9.13 11.93 11.09 18.87 0.2 2.81 0.3 5.52 0.3 8.33q0.01 1.18 0.01 2.39 0.01 2.5 0.01 4.99 0 3.78 0.04 7.55c0.05 12.14-0.58 22.51-9.36 31.74-7.88 7.1-15.97 8.59-26.37 8.34-8.52-0.8-14.97-5.03-20.63-11.34-3.72-5.47-6.08-10.52-6.18-17.18q-0.02-1.22-0.04-2.47-0.01-1.3-0.02-2.65-0.01-1.35-0.02-2.75-0.02-2.88-0.04-5.76-0.01-2.93-0.06-5.86-0.06-4.25-0.07-8.5-0.02-1.29-0.05-2.62c0.03-7.77 2.69-13.91 7.87-19.76 13.21-11.87 28.69-12.07 43.52-3.32z"/>
		<path class="s11" d="m648 766c26.22-0.67 49.82 0.45 70.55 18.67 13.26 12.61 24.97 30.03 25.56 48.95 0 1.96 0 1.96-0.01 3.97q0 1.04-0.01 2.12-0.01 3.33-0.03 6.66-0.01 2.28-0.01 4.55-0.02 5.54-0.05 11.08c-2.73-1.27-4.9-2.61-7.14-4.62-0.88-0.77-0.88-0.77-1.78-1.57-0.94-0.83-0.94-0.83-1.89-1.69-16.04-14.08-32.73-26.38-51.19-37.12q-0.92-0.54-1.87-1.09-2.72-1.59-5.44-3.16-1.7-0.99-3.44-2c-3.15-1.79-3.15-1.79-6.31-2.9-2.76-1.04-4.76-1.86-6.94-3.85-0.75-3.1-0.75-5.92-0.74-9.11-0.32-4.79-1.58-8.87-3.13-13.39q-0.39-1.14-0.79-2.32c-1.41-4.04-3.06-7.53-5.34-11.18q0-0.99 0-2z"/>
		<path class="s13" d="m435 582c3.26 1.56 5.5 3.54 8.13 5.99 16.68 15.5 33.61 21.57 56.06 20.76q1.84-0.09 3.73-0.18c10.14-0.24 10.14-0.24 14.38 3.26 2.89 2.93 3.62 5.35 4.01 9.48-0.38 4.48-1.34 6.34-4.31 9.69-14.73 8.21-35.53 4.32-51 0-13.61-4.29-24.87-11.17-36-20-1.08-0.84-1.08-0.84-2.17-1.7-4.87-3.96-8.63-7.98-9.77-14.36-0.07-4.27 0.31-5.68 2.94-8.94q0.77-1.14 1.56-2.31c3.92-2.72 7.83-2.39 12.44-1.69z"/>
		<path class="s14" d="m480 382c24.42 0 48.84 0 74 0-11.18 16.76-28.41 40.29-48.84 46.63-6.43 1.09-12.72 1.48-18.72-1.26-4.01-3.9-7.26-8.01-7.57-13.76q0-1.38 0-2.8 0-1.54-0.01-3.12 0.01-1.6 0.02-3.25-0.01-1.57-0.02-3.18 0.01-1.54 0.01-3.14 0-1.39 0-2.83c0.18-4.44 0.69-8.87 1.13-13.29z"/>
		<path class="s15" d="m552.3 66.59c5.2 4.16 9.01 9.32 11.7 15.41q0 1.97 0 4c-1.72 0.01-1.72 0.01-3.47 0.02q-16.37 0.12-32.73 0.27-8.41 0.07-16.82 0.13c-32.09 0.18-32.09 0.18-64.1 2.18-6.05 0.54-11.95 0.47-18 0.02-1.47-0.08-1.47-0.08-2.97-0.17q-3.46-0.2-6.91-0.45 0-0.99 0-2c15.84-0.33 31.68-0.66 48-1 1.65-3.3 3.3-6.6 5-10 5.74-7.23 12.29-12.77 21-16q1.2-0.47 2.44-0.96c18.17-6.06 41.36-2.17 56.86 8.55z"/>
		<path class="s16" d="m499.91 553.84c12.86 4.82 28.56 3.07 41.09-1.84q1.54-0.81 3.13-1.64c3.96-1.88 6.76-1.78 10.87-0.36 3.22 2.74 3.9 4.31 4.5 8.5-0.6 4.17-1.62 5.48-4.5 8.5-17.3 10.02-38.3 11.31-57.48 6.98-7.64-2.13-14.52-4.69-20.52-9.98-1.55-3.1-1.29-5.58-1-9 6.19-9.81 15.13-4.74 23.91-1.16z"/>
		<path class="s17" d="m238 573c11.55 0.33 23.1 0.66 35 1q0 0.99 0 2c-11.02 0.83-21.95 1.12-33 1q0.03 1.13 0.07 2.3 0.03 1.48 0.05 3.01 0.04 1.47 0.08 2.99c-0.2 2.7-0.2 2.7-2.2 5.7 0-5.94 0-11.88 0-18z"/>
		<path class="s18" d="m566 86q11.04-0.07 22.09-0.1 5.13-0.02 10.26-0.05 5.89-0.04 11.79-0.05 1.83-0.01 3.72-0.03 1.7 0 3.45 0c1.51 0 1.51 0 3.05-0.01 2.64 0.24 2.64 0.24 6.64 2.24-17.33 0.5-17.33 0.5-35 1q0.99 0.98 2 2-2.41-0.47-4.81-0.94-1.34-0.26-2.71-0.52c-2.48-0.54-2.48-0.54-5.48-1.54q-3.84-0.34-7.69-0.56-1.05-0.07-2.12-0.13-2.6-0.16-5.19-0.31 0-0.49 0-1z"/>
		<path class="s19" d="m682 376q0.49 1.48 1 3c31.68 0 63.36 0 96 0q0 0.49 0 1c-48.51 0.5-48.51 0.5-98 1q0.49-2.46 1-5z"/>
		<path class="s20" d="m762 574c9.9 0.33 19.8 0.66 30 1 0 5.61 0 11.22 0 17q-0.49 0-1 0c0-4.95 0-9.9 0-15-9.57 0-19.14 0-29 0q0 0.99 0 2 1.48 0 3 0 0 0.99 0 2-1.97 0-4 0c0.33-2.31 0.66-4.62 1-7z"/>
		<path class="s21" d="m677 689q0 0.99 0 2c-1.98 0.99-1.98 0.99-4 2q1.15 0.07 2.34 0.15 1.49 0.11 3.04 0.23c1.49 0.1 1.49 0.1 3.02 0.21 2.6 0.41 2.6 0.41 4.6 2.41-6.93 0-13.86 0-21 0q0-0.99 0-2 2.15-1.26 4.31-2.5 1.2-0.69 2.43-1.41c2.26-1.09 2.26-1.09 5.26-1.09z"/>
		<path class="s22" d="m784 621c1.45 4.34-0.55 7.1-2.44 11q-0.53 1.13-1.09 2.29c-3.16 6.46-6.93 12.12-11.47 17.71-0.59-1.9-0.59-1.9-1-4 1.44-1.63 1.44-1.63 3-3q0-0.99 0-2 1.48 0 3 0 0.49-2.46 1-5 0.99 0 2 0c0.34-1.14 0.34-1.14 0.69-2.31 1.79-5.04 4.05-9.84 6.31-14.69z"/>
		<path class="s23" d="m827 552c0 3 0 3-1.83 5.01q-1.19 1.04-2.42 2.12-1.18 1.05-2.39 2.13c-2.24 1.65-3.65 2.33-6.36 2.74q0-1.48 0-3 1.97-0.49 4-1-0.31-0.89-0.62-1.81c-0.38-2.19-0.38-2.19 1.62-5.19q0.99 0 2 0 0.49 1.97 1 4 0-0.99 0-2c2.5-1.62 2.5-1.62 5-3z"/>
	</g>
</svg>