<svg version="1.2" xmlns="http://www.w3.org/2000/svg" viewBox="0 0 1024 1024" width="500" height="500">
	<style>
		.s0 { fill: #fec2a4 } 
		.s1 { fill: #fecc3e } 
		.s2 { fill: #eb3a3b } 
		.s3 { fill: #cc2c31 } 
		.s4 { fill: #338c4f } 
		.s5 { fill: #5d3326 } 
		.s6 { fill: #fea378 } 
		.s7 { fill: #261b18 } 
		.s8 { fill: #df6944 } 
		.s9 { fill: #532d21 } 
		.s10 { fill: #feb51d } 
		.s11 { fill: #fe915c } 
		.s12 { fill: #c9292e } 
		.s13 { fill: #572d22 } 
		.s14 { fill: #562c21 } 
		.s15 { fill: #feae87 } 
		.s16 { fill: #efc6a7 } 
	</style>
	<g id="Layer 1">
		<path class="s0" d="m531 68c5.49 4.99 9.03 9.84 11 17q0 1.48 0 3 0.85-0.02 1.73-0.04c29.98-0.35 61.48 5.92 89.27 17.04q1.14 0.44 2.32 0.89c20.04 7.74 38.57 18.13 55.68 31.11 1.43 1.07 1.43 1.07 2.89 2.16 37.75 29.43 58.98 71.44 66.61 117.97 0.23 1.35 0.23 1.35 0.46 2.73 1.94 11.7 3.33 23.37 4.17 35.2 0.12 1.76 0.12 1.76 0.25 3.56q0.59 8.63 1.03 17.28 0.19 3.18 0.38 6.36 0.05 1.42 0.1 2.89c0.39 6.15 1.92 9.92 5.66 14.83 4.61 6.41 5.42 14.34 4.45 22.02q-1.46 2.52-3 5c0.32 4.16 0.98 8.07 1.97 12.11 4.2 17.44 3.41 35.08 3.03 52.89q1.15 0.21 2.34 0.43c9.73 2.08 17.74 9.02 23.34 16.95 7.33 11.66 10.69 23.35 10.57 37.06q0.01 1.31 0.02 2.66c-0.04 15.25-4.82 28.92-14.27 40.9q-0.67 0.91-1.36 1.86c-10.05 12.91-27.64 21.75-43.64 24.14-5.66 0.55-11.32 0.8-17 1q-0.6 1.34-1.21 2.72c-7.82 17.25-16.94 35.62-31.18 48.54-1.88 2.03-3.29 4.25-4.77 6.58-7.77 12.22-17.25 23.28-27.84 33.16q-0.84 0.79-1.7 1.61c-6.97 6.35-14.68 11.85-22.3 17.39q-0.87 0.64-1.76 1.29c-8.58 6.25-17.77 11.26-27.18 16.15q-1.73 0.9-3.52 1.83c-15.12 7.73-15.12 7.73-20.54 7.73q0.46 1.59 0.93 3.22c1.42 5.69 1.77 11.45 2.2 17.28q0.12 1.65 0.26 3.36 0.31 4.07 0.61 8.14 0.88 0.1 1.78 0.2c55.56 6.28 109.09 29.13 148.22 69.8q1.2 1.2 2.43 2.43c26.36 26.39 44.09 60.74 56.57 95.57q0.58 1.61 1.18 3.27c7.91 22.21 13.94 44.91 19.82 67.73q0.27 0.98 0.54 1.99c1.05 4.61 1.15 8.49-0.79 12.76-4.33 3.54-9.43 4.75-14.75 6.25 0 2.6 0.26 4.52 0.84 7.02q0.26 1.16 0.53 2.35 0.28 1.2 0.57 2.44c2.09 9.12 3.06 16.59 3.06 26.19-205.59 0-411.18 0-623 0 2.63-30.26 2.63-30.26 6-37q-1.46-0.47-2.96-0.95-1.93-0.65-3.85-1.3c-0.97-0.31-0.97-0.31-1.95-0.62-3.91-1.34-6.35-2.38-8.24-6.13-1.17-4.82-0.76-8.34 0.37-13.14q0.24-1.02 0.48-2.06 0.78-3.31 1.59-6.61 0.27-1.13 0.55-2.3c3.1-12.91 6.78-25.54 11.07-38.11q1.34-3.99 2.58-8c12.4-39.51 31.53-77.76 60.36-107.78q0.8-0.84 1.63-1.71c7.72-8.08 15.75-15.35 24.71-22.04q2.39-1.81 4.75-3.65c7.01-5.39 14.27-10.16 21.91-14.6q1.02-0.59 2.07-1.21c26.39-15.29 53.23-23.95 83.76-26.53 3.21-0.38 6.1-1.28 9.17-2.26q2-0.52 4-1c1.42-5.68 1.34-11.52 1.52-17.34 0.23-5.78 1.08-11.04 2.48-16.66q-0.89-0.24-1.82-0.48c-6.63-1.86-12.61-4.4-18.74-7.52q-1.42-0.72-2.89-1.46c-29.02-14.93-54.04-35.66-72.81-62.33-4.98-7.04-10.4-13.68-16.24-20.02-10.83-12.3-19.59-28.65-24.5-44.19q-1.23-0.04-2.5-0.08c-21.94-1.08-41.73-8.29-57-24.58-4.88-5.7-8.66-11.4-11.5-18.34-0.59-1.27-0.59-1.27-1.19-2.57-5.55-14.16-5.22-34.23-0.13-48.5 5.92-13.14 14-23.72 27.32-29.93q3.49-1.03 7-2-0.01-1.69-0.02-3.43-0.02-6.45-0.04-12.9 0-2.85-0.01-5.7c-0.08-23.25-0.08-23.25 1.15-33.88 0.47-5.38-0.96-8-3.92-12.24-2.65-4.23-1.92-9.12-1.16-13.85 2.15-6.39 5.92-12.5 11-17q0.99 0 2 0 0.06-1.46 0.12-2.96c2.64-63.48 10.95-126.49 55.88-175.04q1.04-1.14 2.11-2.32c36.57-38.53 97.35-62.2 149.95-63.99q5.98-0.07 11.94 0.31 0.17-1.58 0.34-3.21c1.29-7.36 6.11-12.99 11.87-17.58 12.38-8.38 32.57-7.6 44.79 0.79z"/>
		<path class="s1" d="m612 728c45.68-2.44 98.12 30.6 131 60 2.74 2.6 5.38 5.28 8 8 1.2 1.2 1.2 1.2 2.43 2.43 26.36 26.39 44.09 60.74 56.57 95.57 0.58 1.62 0.58 1.62 1.18 3.27 7.91 22.21 13.94 44.91 19.82 67.73q0.27 0.98 0.54 1.99c1.05 4.61 1.15 8.49-0.79 12.76-4.33 3.54-9.43 4.75-14.75 6.25 0 2.6 0.26 4.52 0.84 7.02q0.26 1.16 0.53 2.35c0.28 1.21 0.28 1.21 0.57 2.44 2.09 9.12 3.06 16.59 3.06 26.19-205.59 0-411.18 0-623 0 2.63-30.26 2.63-30.26 6-37q-1.46-0.47-2.96-0.95-1.93-0.65-3.85-1.3c-0.97-0.31-0.97-0.31-1.95-0.62-3.91-1.34-6.35-2.38-8.24-6.13-1.17-4.82-0.76-8.34 0.37-13.14q0.24-1.02 0.48-2.06 0.78-3.31 1.59-6.61 0.27-1.13 0.55-2.3c3.1-12.91 6.78-25.54 11.07-38.11q1.34-3.99 2.58-8c12.4-39.51 31.53-77.76 60.36-107.78 0.8-0.85 0.8-0.85 1.63-1.71 7.72-8.08 15.75-15.35 24.71-22.04q2.39-1.81 4.75-3.65c7.01-5.39 14.27-10.16 21.91-14.6 1.03-0.6 1.03-0.6 2.07-1.21 26.67-15.44 54.73-25.94 85.93-24.79q0.74 1.57 1.5 3.18c3.82 7.95 7.61 15.18 13.5 21.82q1.04 1.22 2.12 2.48c19.65 22.51 45.42 32.46 74.88 34.52 34.86 1.24 66.71-3.83 93.68-27.34 11.23-10.54 18.01-23.75 21.32-38.66z"/>
		<path class="s2" d="m531 68c5.49 4.99 9.03 9.84 11 17q0 1.48 0 3 0.85-0.02 1.73-0.04c29.98-0.35 61.48 5.92 89.27 17.04q1.14 0.44 2.32 0.89c20.04 7.74 38.57 18.13 55.68 31.11 1.43 1.07 1.43 1.07 2.89 2.16 37.75 29.43 58.98 71.44 66.61 117.97 0.23 1.35 0.23 1.35 0.46 2.73 1.94 11.7 3.33 23.37 4.17 35.2 0.12 1.76 0.12 1.76 0.25 3.56q0.59 8.63 1.03 17.28 0.19 3.18 0.38 6.36 0.05 1.42 0.1 2.89c0.39 6.15 1.92 9.92 5.66 14.83 4.61 6.41 5.42 14.34 4.45 22.02q-1.46 2.52-3 5c0.42 5.22 1.43 10.24 2.51 15.36 3.47 16.62 2.53 31.89 0.49 48.64-1.78-0.25-1.78-0.25-3.59-0.5-3.66-0.45-7.22-0.6-10.91-0.56-1.56 0.01-1.56 0.01-3.16 0.02q-1.15 0.02-2.34 0.04-0.22 0.82-0.46 1.66c-7.66 27.6-7.66 27.6-17.54 34.34-4.02 2.01-8.64 1.59-13 1-6.2-2.64-8.94-8.84-11.46-14.73-5.85-15.54-9.41-32-12.54-48.27q-0.56-2.84-1.12-5.69-0.22-1.09-0.44-2.22c-0.71-3.39-1.57-6.74-2.44-10.09q-0.99 0.99-2 2c-9.44 1.11-19.34-2.63-28.12-5.81-3.29-1.16-5.5-1.39-8.88-0.19q0.49 0.8 1 1.62c1.3 3.1 1.48 5.05 1 8.38-2.92 3.48-5.88 6.72-10.54 7.34-6.54 0.08-12.4-0.61-18.71-2.22-14.13-3.57-27.62-4.4-42.2-3.96-7.02 0.14-11.4-0.51-16.92-5.16-2.51-4.62-2.46-8.86-1.63-14 2.16-5.42 4.91-8.19 10-11q-1.12-0.81-2.27-1.65c-9.85-7.26-18.93-14.87-26.73-24.35 0.43 1.15 0.43 1.15 0.88 2.32 3.17 9.15 5.71 19.69 1.69 28.97-2.79 4.81-2.79 4.81-5.57 6.71-14.21 2.06-27.93-7.02-38.86-15.12-4.32-3.39-8.35-6.9-12.14-10.88q-0.87-0.8-1.76-1.62c-11.67-10.99-19.77-25.84-26.24-40.38q0-0.99 0-2-6.6 0.8-13.19 1.69-1.86 0.22-3.77 0.45c-7.09 0.87-7.09 0.87-13.19 4.28q-0.91 1.27-1.85 2.58c-6.73 7.14-14.18 13.12-22 19-1.04 0.78-1.04 0.78-2.1 1.58-25.17 18.83-55.09 39.08-87.9 37.42q-0.17 1.03-0.34 2.09c-3.16 19.35-6.58 38.95-11.66 57.91q-0.32 1.21-0.66 2.45c-6.41 23.62-6.41 23.62-14.03 31.24-4.93 1.95-9.1 2.46-14.31 1.31-9.49-5.09-13.15-15.1-16.25-24.84-2.75-9.27-2.75-9.27-2.75-13.16q-3.31 0.21-6.62 0.44-1.84 0.12-3.73 0.24c-3.27 0.29-6.43 0.73-9.65 1.32-1.25-3.86-1.14-7.73-1.13-11.75q0-1.13-0.01-2.3 0-2.43 0.01-4.87 0.01-3.79 0-7.58c0.01-9.76 0.11-19.5 1.21-29.21 0.46-5.38-0.84-8.05-3.92-12.45-2.66-4.21-1.92-9.11-1.16-13.84 2.15-6.39 5.92-12.5 11-17q0.99 0 2 0 0.06-1.46 0.12-2.96c2.64-63.48 10.95-126.49 55.88-175.04q1.04-1.14 2.11-2.32c36.57-38.53 97.35-62.2 149.95-63.99q5.98-0.07 11.94 0.31 0.17-1.58 0.34-3.21c1.29-7.36 6.11-12.99 11.87-17.58 12.38-8.38 32.57-7.6 44.79 0.79z"/>
		<path class="s1" d="m612 728c45.68-2.44 98.12 30.6 131 60 2.74 2.6 5.38 5.28 8 8 1.2 1.2 1.2 1.2 2.43 2.43 26.36 26.39 44.09 60.74 56.57 95.57q0.58 1.61 1.18 3.27c7.91 22.21 13.94 44.91 19.82 67.73q0.27 0.98 0.54 1.99c1.05 4.61 1.15 8.49-0.79 12.76-4.33 3.54-9.43 4.75-14.75 6.25 0 2.6 0.26 4.52 0.84 7.02 0.26 1.16 0.26 1.16 0.53 2.35 0.28 1.21 0.28 1.21 0.57 2.44 1.61 7.03 3.11 13.64 3.08 20.88q0 1.49-0.01 3.01 0 1.13-0.01 2.3-34.13 0.92-68.28 1.35c-10.57 0.13-21.14 0.31-31.71 0.61q-13.83 0.4-27.68 0.49c-4.87 0.03-9.74 0.11-14.62 0.3-33.07 1.25-33.07 1.25-45.64-10.15-4.99-4.85-9.38-10.16-13.66-15.64-3.12-3.83-6.6-6.86-10.41-9.96q-2.19-2.07-4.32-4.2-1.11-1.11-2.25-2.26-1.16-1.16-2.35-2.36-1.22-1.23-2.48-2.49-3.9-3.9-7.79-7.81-2.63-2.64-5.25-5.27-4.82-4.83-9.63-9.67-6.55-6.57-13.13-13.11-3.24-3.22-6.47-6.45-1.7-1.69-3.4-3.37c-5.62-5.58-11.17-11.14-16.32-17.17-3.03-3.45-6.33-6.63-9.61-9.84-4.6-4.52-9.03-9.09-13.24-13.98-3.09-3.54-6.34-6.93-9.57-10.33-8.57-9.08-17-18.15-24.84-27.87-2.53-3.03-5.16-5.93-7.85-8.82-4.18-4.5-8.15-9.12-12-13.9q-3.73-4.61-7.51-9.17-19.45-23.52-38.01-47.76-3.62-4.72-7.3-9.39c-6.01-7.65-11.92-15.35-17.55-23.28q-0.78-1.08-1.57-2.19c-3.56-5.06-3.56-5.06-3.56-7.31 4.86-0.97 9.45-1.12 14.38-1.06q1.09 0 2.23 0.01 2.69 0.02 5.39 0.05 0.74 1.57 1.5 3.18c3.82 7.95 7.61 15.18 13.5 21.82q1.04 1.22 2.12 2.48c19.65 22.51 45.42 32.46 74.88 34.52 34.86 1.24 66.71-3.83 93.68-27.34 11.23-10.54 18.01-23.75 21.32-38.66z"/>
		<path class="s3" d="m510.56 237.81q1.52 0 3.08 0.01c15.21 0.03 30.26 0.23 45.36 2.18q1.67 0.21 3.4 0.42c22.67 2.95 44.61 8.43 66.6 14.58q1.04 0.29 2.11 0.59c26.97 7.57 52.12 18.4 76.89 31.41q1.05 0.55 2.12 1.11c20.13 10.67 38.38 25.27 54.88 40.89q0.99-1.48 2-3 0.13 0.85 0.26 1.72c0.76 4.18 1.54 7.4 4.18 10.78 4.92 6.35 6.06 13.15 5.87 21.07-0.39 3.02-1.72 4.87-3.31 7.43 0.42 5.22 1.43 10.24 2.51 15.36 3.47 16.62 2.53 31.89 0.49 48.64q-1.77-0.24-3.59-0.5c-3.66-0.45-7.22-0.6-10.91-0.56q-1.55 0.01-3.16 0.02-1.15 0.02-2.34 0.04-0.22 0.82-0.46 1.66c-7.66 27.6-7.66 27.6-17.54 34.34-4.02 2.01-8.64 1.59-13 1-6.2-2.64-8.94-8.84-11.46-14.73-5.85-15.54-9.41-32-12.54-48.27q-0.56-2.84-1.12-5.69-0.22-1.09-0.44-2.22c-0.71-3.39-1.57-6.74-2.44-10.09q-0.99 0.99-2 2c-9.44 1.11-19.34-2.63-28.13-5.81-3.28-1.16-5.49-1.39-8.87-0.19q0.49 0.8 1 1.62c1.3 3.1 1.48 5.05 1 8.38-2.92 3.48-5.88 6.72-10.54 7.34-6.54 0.08-12.4-0.61-18.71-2.22-14.13-3.57-27.62-4.4-42.2-3.96-7.02 0.14-11.4-0.51-16.92-5.16-2.51-4.62-2.46-8.86-1.63-14 2.16-5.42 4.91-8.19 10-11-1.13-0.82-1.13-0.82-2.27-1.65-9.85-7.26-18.93-14.87-26.73-24.35 0.43 1.15 0.43 1.15 0.88 2.32 3.17 9.15 5.71 19.69 1.69 28.97-2.79 4.81-2.79 4.81-5.57 6.71-14.21 2.06-27.93-7.02-38.86-15.12-4.32-3.39-8.35-6.9-12.14-10.88q-0.87-0.8-1.76-1.63c-11.67-10.98-19.77-25.83-26.24-40.37q0-0.99 0-2-6.6 0.8-13.19 1.69-1.86 0.22-3.77 0.45c-7.09 0.87-7.09 0.87-13.19 4.28q-0.91 1.27-1.85 2.58c-6.73 7.14-14.18 13.12-22 19q-1.04 0.78-2.1 1.58c-25.17 18.83-55.09 39.08-87.9 37.42-0.17 1.04-0.17 1.04-0.34 2.09-3.16 19.35-6.58 38.95-11.66 57.91q-0.32 1.21-0.66 2.45c-6.41 23.62-6.41 23.62-14.03 31.24-4.93 1.95-9.1 2.46-14.31 1.31-9.49-5.09-13.15-15.1-16.25-24.84-2.75-9.27-2.75-9.27-2.75-13.16q-3.31 0.21-6.62 0.44-1.84 0.12-3.73 0.24c-3.27 0.29-6.43 0.73-9.65 1.32-1.25-3.86-1.14-7.73-1.13-11.75q0-1.13-0.01-2.3 0-2.43 0.01-4.87 0.01-3.79 0-7.58c0.01-9.76 0.11-19.5 1.21-29.21 0.46-5.38-0.84-8.05-3.92-12.45-2.66-4.21-1.92-9.11-1.16-13.84 2.11-6.29 5.85-12.69 11-17q1.01-0.21 2.06-0.43c2.11-0.37 2.11-0.37 2.96-2.38q0.48-1.08 0.98-2.19c6.6-7.79 14.9-13.88 23-20q0.91-0.7 1.85-1.42c18.74-14.27 39.33-25.71 61.15-34.58q1.36-0.56 2.77-1.13c22.94-9.27 46.44-17.07 70.64-22.31q2.84-0.62 5.67-1.27c8.75-1.96 17.5-3.38 26.37-4.6q3.43-0.47 6.85-0.97c18.06-2.55 36.04-2.93 54.26-2.91z"/>
		<path class="s4" d="m383 733c1.69 2.28 3.26 4.57 4.81 6.94 5.52 8.21 11.41 16.06 17.48 23.86q2.62 3.37 5.23 6.75 8.97 11.61 18.16 23.05 4.21 5.25 8.36 10.56c10.14 13 20.71 25.65 31.48 38.13q2.28 2.64 4.54 5.3c5.4 6.34 10.85 12.59 16.49 18.71q2.92 3.22 5.76 6.51c3.69 4.23 7.52 8.31 11.38 12.38q7.29 7.68 14.44 15.5c4.8 5.25 9.8 10.31 14.89 15.29 2.89 2.85 5.65 5.75 8.3 8.83 4.2 4.86 8.74 9.36 13.3 13.88 1.25 1.24 1.25 1.24 2.53 2.51q2.32 2.31 4.65 4.62 6.7 6.66 13.35 13.36 5.01 5.03 10.02 10.05 2.64 2.64 5.27 5.28 3.82 3.84 7.64 7.67 1.16 1.16 2.35 2.36c4.11 4.11 8.31 8.04 12.71 11.83 2.82 2.47 5.47 5.09 8.11 7.75 0.82 0.81 0.82 0.81 1.65 1.64q1.69 1.7 3.38 3.39 2.61 2.62 5.22 5.22 1.66 1.65 3.31 3.31 0.78 0.78 1.58 1.57c3.61 3.64 3.61 3.64 3.61 4.75-102.62 10.28-102.62 10.28-128.67-10.58-6.3-5.36-11.94-11.15-17.33-17.42-0.86-1-0.86-1-1.73-2.02-6.56-7.7-12.51-15.72-18.21-24.07-3.9-5.5-8.41-10.41-13.22-15.13q-1.06-1.05-2.16-2.14-1.07-1.05-2.18-2.14c-4.79-4.71-9.42-9.46-13.8-14.55-2.81-3.23-5.76-6.33-8.7-9.45-4.2-4.48-8.36-8.97-12.37-13.62-4.18-4.82-8.49-9.53-12.78-14.25-5.9-6.5-11.61-13.14-17.3-19.82q-2.27-2.65-4.56-5.29c-16.73-19.33-32.21-39.67-46.99-60.52q-0.74-1.04-1.49-2.11c-8.61-12.19-16.59-24.58-23.14-38.02q-0.53-1.06-1.07-2.15c-1.39-2.95-2.32-5.23-2.2-8.52 3.78-9.25 20.82-14.92 29.6-18.73 11.4-4.73 25.81-10.47 38.3-10.47z"/>
		<path class="s5" d="m619 318q1.12 0.3 2.28 0.6c30.59 8.15 59.89 21.14 88.41 34.71 23.21 11.85 23.21 11.85 48.31 17.69q1.85 0.15 3.75 0.31c4.18-0.4 7.38-1.68 11.25-3.31 5.68 21.72 6.71 40.75 4 63q-1.77-0.24-3.59-0.5c-3.66-0.45-7.22-0.6-10.91-0.56q-1.55 0.01-3.16 0.02-1.15 0.02-2.34 0.04c-0.23 0.82-0.23 0.82-0.46 1.66-7.66 27.6-7.66 27.6-17.54 34.34-4.02 2.01-8.64 1.59-13 1-6.2-2.64-8.94-8.84-11.46-14.73-5.85-15.54-9.41-32-12.54-48.27q-0.56-2.84-1.12-5.69c-0.22-1.1-0.22-1.1-0.44-2.22-0.71-3.39-1.57-6.74-2.44-10.09q-0.99 0.99-2 2c-9.44 1.11-19.34-2.63-28.13-5.81-3.28-1.16-5.49-1.39-8.87-0.19q0.49 0.8 1 1.62c1.3 3.1 1.48 5.05 1 8.38-2.92 3.48-5.88 6.72-10.54 7.34-6.54 0.08-12.4-0.61-18.71-2.22-14.13-3.57-27.62-4.4-42.2-3.96-7.02 0.14-11.4-0.51-16.92-5.16-2.51-4.62-2.46-8.86-1.63-14 2.16-5.42 4.91-8.19 10-11q-1.12-0.81-2.27-1.65c-9.85-7.26-18.93-14.87-26.73-24.35q0.43 1.14 0.88 2.32c3.17 9.15 5.71 19.69 1.69 28.97-2.79 4.81-2.79 4.81-5.57 6.71-14.21 2.06-27.93-7.02-38.86-15.12-4.32-3.39-8.35-6.9-12.14-10.88q-0.87-0.8-1.76-1.62c-9.28-8.74-15.4-19.34-21.3-30.5q-0.73-1.39-1.49-2.81-0.67-1.3-1.36-2.64-0.6-1.17-1.22-2.37c-0.87-2.06-0.87-2.06-0.87-5.06 50.84-4.89 99.8 0.94 149 14z"/>
		<path class="s6" d="m421 694c0.99 0.33 0.99 0.33 2 0.66 42.04 13.47 88.31 18.87 132 10.34q1.49-0.27 3.02-0.55c11.1-2.04 21.89-4.29 32.37-8.53 2.61-0.92 2.61-0.92 6.61-0.92 2.18 6.4 2.64 12.72 3.13 19.44q0.12 1.66 0.26 3.37 0.31 4.09 0.61 8.19 0.93 0.09 1.9 0.18 1.22 0.13 2.48 0.26 1.21 0.12 2.46 0.24c2.16 0.32 2.16 0.32 4.16 1.32-1.25 16.87-11.94 31.73-24.36 42.65-12.24 10.07-26.4 16.41-41.64 20.35q-1.74 0.51-3.53 1.04c-31.06 8.59-69.63 3.77-97.7-12-17.67-10.35-33.23-27.43-39.77-47.04-3.3-0.33-6.6-0.66-10-1q0-0.49 0-1 0.96-0.07 1.94-0.15c5.29-0.46 10.01-1.23 15.06-2.85q2-0.52 4-1c1.44-5.7 1.31-11.58 1.43-17.43 0.21-5.81 1.25-10.23 3.57-15.57z"/>
		<path class="s5" d="m442 309c-25.41 30.27-66.46 57.4-106 63-3.36 0.19-6.64 0.17-10 0q-0.17 1.03-0.34 2.09c-3.16 19.35-6.58 38.95-11.66 57.91q-0.32 1.21-0.66 2.45c-6.41 23.62-6.41 23.62-14.03 31.24-4.93 1.95-9.1 2.46-14.31 1.31-9.49-5.09-13.15-15.1-16.25-24.84-2.75-9.27-2.75-9.27-2.75-13.16q-3.31 0.21-6.63 0.44c-1.84 0.12-1.84 0.12-3.72 0.24-3.27 0.29-6.43 0.73-9.65 1.32-1.26-3.88-1.14-7.78-1.13-11.82q0-1.14-0.01-2.32 0-3.71 0.02-7.42c0-1.26 0-1.26 0-2.53 0.01-12 0.2-23.95 1.12-35.91 1.49-0.5 1.49-0.5 3-1q0.99 0.49 2 1c22.8 2.14 44.51-10.04 64.28-20.11 36.27-18.48 74.77-32.59 114.59-41.02q1.5-0.31 3.05-0.64c6.82-1.36 6.82-1.36 9.08-0.23z"/>
		<path class="s0" d="m610 727c0.99 0.5 0.99 0.5 2 1-1.25 16.87-11.94 31.73-24.36 42.65-12.24 10.07-26.4 16.41-41.64 20.35q-1.74 0.51-3.53 1.04c-31.06 8.59-69.63 3.77-97.7-12-17.67-10.35-33.23-27.43-39.77-47.04-3.3-0.33-6.6-0.66-10-1q0-0.49 0-1 0.96-0.07 1.94-0.15c6.1-0.53 11.61-1.61 17.4-3.69 3.88-0.23 5.71 1.85 8.47 4.28 22.82 18.56 52.28 20.99 80.69 20.87q1.3 0 2.64 0c30.33-0.1 65.62-2.3 89.49-23.31 4.7-3.85 8.67-3.55 14.37-2z"/>
		<path class="s7" d="m621 436c6.5 5.67 10.02 11.4 11 20 0.16 3.77 0.19 7.54 0.19 11.31q0.02 1.49 0.03 3.02c0.03 11.13-1.67 19.64-9.35 27.98-8.1 4.76-16.75 5.64-25.87 3.69-6.92-2.19-11.01-5.39-14.84-11.52-3.25-6.95-3.47-13.16-3.41-20.73q-0.01-1.45-0.02-2.95c0.02-9.63 0.3-20.43 7.27-27.8 10.86-8.06 22.84-9.81 35-3z"/>
		<path class="s7" d="m434.88 437.69c6.81 6.51 9.05 15.75 9.42 24.92q0.03 2.35 0.01 4.7c0 1.24 0 1.24-0.01 2.5-0.2 10.96-2.09 19.86-9.92 27.88-6.84 5.27-14.84 5.93-23.19 5.01-6.88-1.51-12.29-4.79-16.19-10.7-4.41-7.79-4.4-15.39-4.44-24.13q-0.05-1.87-0.1-3.8c-0.05-8.92 1.08-17.7 6.98-24.81 10.35-9.16 26.43-10.22 37.44-1.57z"/>
		<path class="s8" d="m460 571c2.68 2.03 5.04 4.28 7.46 6.61 12.28 11.54 27.15 14.76 43.54 14.64q1.52 0.01 3.08 0.02c15.94-0.04 29.77-4.77 41.92-15.27 6.87-5.78 6.87-5.78 11.19-6.63 3.65 0.82 5.31 1.84 7.81 4.63 1.34 4.18 1.28 6.28-0.31 10.37-6.92 10.41-17.54 15.9-28.69 20.63q-1.8 0.79-3.65 1.61c-9.68 3.77-19.66 3.89-29.91 3.95q-1.04 0.02-2.1 0.03c-21.91 0.19-41.92-6.54-58.21-21.44-4.99-5.03-4.99-5.03-5.57-9.59 0.51-4.11 1.54-5.66 4.44-8.56 3.15-1.57 5.65-1.96 9-1z"/>
		<path class="s9" d="m414.56 361.75q1.56-0.01 3.16-0.03c20.76 0.09 20.76 0.09 27.28 6.28 3.17 4.19 4.33 7.93 4.06 13.19-0.54 3.57-1.07 4.82-3.31 7.81-4.39 3.19-7.82 4.26-13.22 4.09q-1.58-0.03-3.2-0.07-1.67-0.04-3.39-0.08c-14.33-0.18-28.06 0.92-41.71 5.49-5.64 1.45-11.22 1.3-16.67-0.68-2.62-1.79-4.66-3.19-6.56-5.75-0.74-7.16 2.83-11.51 7-17 5.75-6.83 12.46-9.04 21-11q1.4-0.34 2.85-0.68c7.53-1.47 15.06-1.52 22.71-1.57z"/>
		<path class="s0" d="m815 987c2.41 5.61 3.57 11.4 4.69 17.38 0.19 1.02 0.19 1.02 0.4 2.06 1.06 6.07 0.91 11.16 0.91 17.56-28.71 0-57.42 0-87 0-0.33-5.94-0.66-11.88-1-18q2.35-0.51 4.78-1.03c12.93-2.82 25.82-5.77 38.66-8.97q1.01-0.25 2.04-0.51c9.35-2.33 18.62-4.86 27.77-7.85 5.44-1.74 5.44-1.74 8.75-0.64z"/>
		<path class="s0" d="m204 987c6.64 0.6 12.64 2.24 19 4.19 17.44 5.21 35.05 9.51 52.87 13.25q1.35 0.29 2.75 0.58 1.19 0.25 2.42 0.5c1.96 0.48 1.96 0.48 3.96 1.48q0.04 2.56 0.06 5.13 0.02 1.41 0.04 2.88c-0.1 2.99-0.1 2.99-1.1 8.99-28.38 0-56.76 0-86 0 2.63-30.26 2.63-30.26 6-37z"/>
		<path class="s10" d="m718 901c2.95 2.08 4.68 3.83 5.64 7.37 0.46 3.03 0.76 6.05 1.02 9.11q0.17 1.71 0.35 3.47 0.55 5.62 1.05 11.24 0.38 3.86 0.76 7.73 0.94 9.71 1.84 19.42 0.77 8.25 1.57 16.5 0.8 8.2 1.57 16.41 0.11 1.21 0.22 2.46 0.21 2.22 0.41 4.44 0.46 5.08 1.11 10.15c0.61 4.94 0.52 9.72 0.46 14.7-4.95 0-9.9 0-15 0-1.1-2.2-1.28-3.75-1.54-6.2q-0.14-1.31-0.28-2.66-0.15-1.45-0.3-2.94-0.16-1.52-0.33-3.08-0.53-5.08-1.05-10.15-0.37-3.53-0.74-7.05-0.77-7.4-1.54-14.81-0.97-9.47-1.97-18.93-0.76-7.29-1.51-14.58-0.37-3.49-0.73-6.97-0.52-4.9-1.02-9.8c-0.15-1.42-0.15-1.42-0.3-2.88-1.67-16.51-1.67-16.51 1.44-21.08 3.42-2.23 4.87-2.7 8.87-1.87z"/>
		<path class="s10" d="m308 902c1.7 1.11 1.7 1.11 3 3 1.18 10.82-0.42 22.05-1.63 32.81q-0.4 3.74-0.8 7.48-0.29 2.73-0.58 5.46-1.33 12.37-2.56 24.74-0.2 2.02-0.4 4.03-0.81 8.06-1.62 16.11-0.57 5.67-1.14 11.35-0.17 1.7-0.34 3.45-0.16 1.58-0.33 3.21-0.14 1.37-0.28 2.78c-0.32 2.55-0.82 5.07-1.32 7.58-5.28 0-10.56 0-16 0 0.64-10.29 1.48-20.53 2.52-30.79q0.23-2.22 0.45-4.45 0.46-4.63 0.93-9.26 0.59-5.8 1.17-11.6 1.12-11.24 2.27-22.48 0.65-6.32 1.28-12.65 0.49-4.78 0.98-9.57 0.17-1.7 0.34-3.45c1.45-13.84 1.45-13.84 4.75-17.75 3.42-1.48 5.75-0.91 9.31 0z"/>
		<path class="s11" d="m521.56 502.5c6.79 4.3 11.14 10.2 13.07 17.98 0.78 5.3 0.43 9.62-2.19 14.33-8.23 7.38-17.84 7.72-28.44 7.19-7.07-0.85-13.42-3.22-18-9-2.01-6.29-2.19-14.21 0.44-20.31 6.76-11.63 23.01-15.62 35.12-10.19z"/>
		<path class="s12" d="m531 68c5.49 4.99 9.03 9.84 11 17q0 1.48 0 3c-22.44 0-44.88 0-68 0 1.31-9.17 4.97-15.02 12.21-20.79 12.38-8.38 32.57-7.6 44.79 0.79z"/>
		<path class="s13" d="m294 555q0.31 0.97 0.62 1.97c5.32 16.63 11.35 31.95 19.89 47.2 1.57 2.83 2.49 4.54 2.49 7.83-13.91-14.49-30.52-35.6-34-56 3.73-0.69 7.21-1.05 11-1z"/>
		<path class="s14" d="m729 555c2.97 0.33 5.94 0.66 9 1-1.83 6.86-4.2 13-7.56 19.25q-0.65 1.22-1.32 2.47c-5.56 10.19-11.66 20.29-21.12 27.28 1.29-3.34 2.72-6.55 4.32-9.75 6.5-13.15 11.95-26.37 16.68-40.25z"/>
		<path class="s15" d="m421 694q2.46 0.49 5 1c-0.99 0.5-0.99 0.5-2 1-1.87 6.79-2.56 13.56-3.13 20.56q-0.12 1.51-0.26 3.06-0.31 3.69-0.61 7.38-0.49 0-1 0-0.38-6-0.69-12-0.11-1.68-0.22-3.41c-0.33-6.71 0.01-11.5 2.91-17.59z"/>
		<path class="s16" d="m312 434q1.48 0 3 0c-0.46 3.47-0.89 6.67-2 10q-0.99 0-2 0-0.18 1.66-0.38 3.38c-0.62 3.62-0.62 3.62-2.62 5.62 0.74-6.48 2.35-12.69 4-19z"/>
	</g>
</svg>