<svg version="1.2" xmlns="http://www.w3.org/2000/svg" viewBox="0 0 1024 1024" width="500" height="500">
	<style>
		.s0 { fill: #fefefe } 
		.s1 { fill: #fec6a8 } 
		.s2 { fill: #519967 } 
		.s3 { fill: #593828 } 
		.s4 { fill: #e53d37 } 
		.s5 { fill: #509966 } 
		.s6 { fill: #fdc6a8 } 
		.s7 { fill: #fca381 } 
		.s8 { fill: #30241e } 
		.s9 { fill: #31251e } 
		.s10 { fill: #e37a56 } 
		.s11 { fill: #573626 } 
		.s12 { fill: #563626 } 
		.s13 { fill: #f78c5d } 
		.s14 { fill: #b72a26 } 
		.s15 { fill: #b72825 } 
		.s16 { fill: #f2262b } 
		.s17 { fill: #e83632 } 
		.s18 { fill: #f6212b } 
	</style>
	<g id="Layer 1">
		<path class="s0" d="m0 0c337.92 0 675.84 0 1024 0 0 337.92 0 675.84 0 1024-337.92 0-675.84 0-1024 0 0-337.92 0-675.84 0-1024z"/>
		<path class="s1" d="m502.13 64.75q1.45 0 2.96 0c15.5 0.01 30.6 0.6 45.91 3.25q1.5 0.26 3.06 0.52c20.47 3.6 39.69 9.45 57.94 19.48q1.56 0.83 3.16 1.68c12.74 7.03 27.59 17.32 34.5 30.49 3.42 4.13 6.97 4.4 12.09 5.33q2.86 0.61 5.71 1.23c1.42 0.31 1.42 0.31 2.86 0.63 18.24 4.34 34.04 14.02 47.68 26.64q1.21 1.09 2.45 2.21c28.09 26.46 42.37 71.34 43.63 109.07 0.17 6.57 0.22 13.15 0.23 19.72q0.01 1.54 0.01 3.12c0.01 25.44-1.55 51.23-8.32 75.88q1.91 0.46 3.88 0.94c9.84 3.31 17.17 12.22 22.12 21.06 6.88 15.77 7.68 35.1 2.38 51.52-7.51 18.9-18.22 35.01-37.63 43.42q-2.86 1.08-5.75 2.06-1.06 0.37-2.14 0.74c-8.31 2.47-16.7 1.72-24.86-0.74q-2.52 6.69-4.98 13.4c-14.11 38.34-32.91 71.66-68.02 94.6q-0.89 0.58-1.8 1.18c-7.43 4.82-15.16 8.92-23.14 12.76q-1.16 0.56-2.36 1.14c-4.84 2.27-9.48 3.78-14.7 4.92-0.07 16.54-0.07 16.54 5.86 31.06 4.67 3.03 9.69 4.16 15.14 4.94q0.19-0.95 0.39-1.92c0.61-2.08 0.61-2.08 2.32-3.31 16.79-5.64 42.4 4.05 57.29 11.23 8.12 4.48 8.12 4.48 10.7 8.92 3.1 4.14 6.44 5.42 11.11 7.39 46.42 20.86 76.38 60.64 94.48 107.37 9.72 25.9 16.94 52.48 23.86 79.24q1.75 6.77 3.66 13.49c1.02 3.71 1.65 7.16 1.69 11.03q0.05 1.44 0.09 2.93c-0.59 2.63-0.59 2.63-2.45 4.74-4.42 2.66-9 4.19-13.89 5.77-1.6 0.52-1.6 0.52-3.23 1.05-17.91 5.7-36.22 9.4-54.64 12.95q-1.22 0.23-2.47 0.47-3.5 0.68-7.01 1.33c-1.04 0.2-1.04 0.2-2.1 0.41-4.32 0.79-8.42 1.03-12.8 0.91 0.02 0.98 0.02 0.98 0.03 1.98 0.31 21.96 0.13 45.19-7.14 66.23-2.71 8.48-0.76 18.4 0.4 27.08 0.77 6.05 0.71 11.45 0.71 17.71-139.26 0-278.52 0-422 0 0.65-11.05 1.43-21.52 3.33-32.33 1.13-7.63-0.34-12.66-3.33-19.67-5.75-19.58-5.35-40.8-5-61-0.89-0.08-0.89-0.08-1.79-0.16-25.72-2.43-50.73-8.44-75.52-15.53-1.45-0.41-1.45-0.41-2.93-0.82-13.14-3.87-13.14-3.87-17.76-8.49-1.91-10.06 2.19-20.84 4.81-30.44q0.75-2.8 1.5-5.6c14-51.96 28.99-105.97 67.34-145.56q1.84-1.91 3.65-3.85c13.96-14.58 32.7-26.7 51.49-34.05 3.26-1.52 4.08-2.14 5.71-5.19 6.93-9.99 22.39-14.19 33.5-17.31 1.68-0.48 1.68-0.48 3.39-0.97 6.9-1.73 13.58-2.33 20.67-2.4q1.21-0.03 2.46-0.05c4.6 0.04 7.78 0.37 11.48 3.42q0 0.99 0 2 0.8-0.27 1.62-0.55c5.76-1.94 11.55-3.73 17.38-5.45q0.04-0.83 0.08-1.69 0.17-3.88 0.36-7.75 0.06-1.31 0.12-2.66c0.27-5.67 0.76-11.26 1.44-16.9q-0.92-0.25-1.86-0.51c-6.1-1.74-11.75-3.92-17.45-6.68q-1.23-0.59-2.49-1.19c-44.22-21.6-72.94-58.98-89.2-104.62q-1.89-5.8-3.38-11.72c-0.4-2.23-0.4-2.23-1.62-3.28-1.67 0.46-1.67 0.46-3.38 0.94-12.96 3.34-25.52-0.46-36.87-7.06-16.42-11.19-27.13-27.71-31.63-47.07-2.35-13.57-2.48-26.93 2.88-39.81 0.53-1.32 0.53-1.32 1.06-2.66 4.67-10.47 12.55-18.51 22.94-23.34q0.99 0 2 0c-0.36-1.41-0.36-1.41-0.73-2.84-15.25-60.74-13.57-126.71 18.6-181.91 7.59-12.67 16.36-24.2 26.13-35.25q0.7-0.8 1.43-1.62c5.51-6.22 11.11-12.13 17.57-17.38q0.75-0.63 1.53-1.28c39.8-33.31 89.04-52.36 140.47-57.72 1.26-0.14 1.26-0.14 2.56-0.29 10.16-1 20.36-0.95 30.56-0.96z"/>
		<path class="s2" d="m388.06 640.63q1.21-0.03 2.46-0.05c4.6 0.04 7.78 0.37 11.48 3.42q0 0.99 0 2c3.46-0.49 3.46-0.49 7-1q0.47 1.37 0.96 2.79c8.24 22.77 24.73 38.67 46.41 49.02 26.51 12.03 57.37 14.84 85.63 8.19q1.86-0.4 3.77-0.81c22.87-5.39 44.74-18.73 58.23-38.19 5.87-9.99 5.87-9.99 9-21 2.31 0.66 4.62 1.32 7 2q0.12-0.92 0.25-1.88c0.75-2.12 0.75-2.12 2.44-3.23 15.52-5.96 40.4 3.66 54.51 9.76 10.46 5.04 10.46 5.04 13.5 10.27 3.1 4.14 6.44 5.42 11.11 7.39 46.42 20.86 76.38 60.64 94.48 107.37 9.72 25.9 16.94 52.48 23.86 79.24q1.75 6.77 3.66 13.49c1.02 3.71 1.65 7.16 1.69 11.03q0.05 1.44 0.09 2.93c-0.59 2.63-0.59 2.63-2.45 4.74-4.42 2.66-9 4.19-13.89 5.77-1.6 0.52-1.6 0.52-3.23 1.05-17.91 5.7-36.22 9.4-54.64 12.95q-1.22 0.23-2.47 0.47-3.5 0.68-7.01 1.33c-1.04 0.2-1.04 0.2-2.1 0.41-4.32 0.79-8.42 1.03-12.8 0.91 0.02 0.98 0.02 0.98 0.03 1.98 0.31 21.96 0.13 45.19-7.14 66.23-2.71 8.48-0.76 18.4 0.4 27.08 0.77 6.05 0.71 11.45 0.71 17.71-139.26 0-278.52 0-422 0 0.65-11.05 1.43-21.52 3.33-32.33 1.13-7.63-0.34-12.66-3.33-19.67-5.75-19.58-5.35-40.8-5-61-0.89-0.08-0.89-0.08-1.79-0.16-25.72-2.43-50.73-8.44-75.52-15.53q-1.44-0.4-2.93-0.82c-13.14-3.87-13.14-3.87-17.76-8.49-1.91-10.06 2.19-20.84 4.81-30.44q0.75-2.8 1.5-5.6c14-51.96 28.99-105.97 67.34-145.56q1.84-1.91 3.65-3.85c13.96-14.58 32.7-26.7 51.49-34.05 3.26-1.52 4.08-2.14 5.71-5.19 6.93-9.99 22.39-14.19 33.5-17.31q1.67-0.48 3.39-0.97c6.9-1.73 13.58-2.33 20.67-2.41z"/>
		<path class="s3" d="m502.13 64.75q1.45 0 2.96 0c15.5 0.01 30.6 0.6 45.91 3.25q1.5 0.26 3.06 0.52c20.47 3.6 39.69 9.45 57.94 19.48q1.56 0.83 3.16 1.68c12.74 7.03 27.59 17.32 34.5 30.49 3.42 4.13 6.97 4.4 12.09 5.33q2.86 0.61 5.71 1.23c1.42 0.31 1.42 0.31 2.86 0.63 18.24 4.34 34.04 14.02 47.68 26.64q1.21 1.09 2.45 2.21c28.09 26.46 42.37 71.34 43.63 109.07 0.17 6.57 0.22 13.15 0.23 19.72q0.01 1.54 0.01 3.12c0.01 14.07-0.5 27.96-2.13 41.94q-0.13 1.08-0.25 2.18c-2.93 24.75-2.93 24.75-6.94 30.76-2.03 0.5-2.03 0.5-4.51 0.7q-1.34 0.14-2.73 0.27c-1.43 0.14-1.43 0.14-2.88 0.28-9.73 1.03-9.73 1.03-17.39 6.66q-0.73 1.03-1.49 2.09-0.92 1.2-1.87 2.43c-3.41 4.65-6.38 9.51-9.13 14.57-7.51-13.89-8.66-32.99-11.25-48.5q-0.19-1.1-0.38-2.24c-1.39-8.32-2.6-16.65-3.54-25.04q-0.13-1.12-0.26-2.27c-0.39-3.67-0.67-7.26-0.57-10.95q-1.75-0.49-3.56-1c-30.87-10.39-58.14-39.23-72.55-67.92-2.19-4.58-4.04-9.27-5.83-14.02-0.44-1.17-0.44-1.17-0.89-2.36-1.77-4.93-2.7-9.49-3.17-14.7q-0.98 0-2 0-0.35 1.03-0.71 2.08c-1.55 3.52-3.61 6.51-5.85 9.61q-0.67 0.92-1.36 1.87c-4.02 5.49-8.37 10.53-13.08 15.44q-0.72 0.78-1.47 1.58c-20.43 21.93-53.57 45.01-84.33 47.76-10.37 0.27-10.37 0.27-15.2-3.34-2.53-3.8-2.73-6.61-2-11 1.47-4.03 3.37-7.81 5.31-11.62q0.75-1.51 1.52-3.07 2.06-4.16 4.17-8.31 0.93-1.85 1.86-3.71 0.56-1.13 1.14-2.29-0.8 0.74-1.61 1.51c-5.51 5.03-11.22 9.35-17.45 13.43q-1.38 0.9-2.79 1.83c-22.05 14.38-46.72 29.14-73.65 29.61q-1.24 0.05-2.51 0.11c-4.21 0.06-7.09-0.09-10.46-2.76-4.68-5.05-4.95-8.59-4.87-15.34 0.48-4.84 1.88-9.2 3.47-13.77 0.98-2.48 0.98-2.48 0.87-4.62q-0.76 0.99-1.55 2.02c-17.59 22.31-45.01 41.99-73.45 46.98q0.03 1.25 0.07 2.54c0.27 17.8-2.22 35.17-4.94 52.71q-0.19 1.19-0.38 2.43c-1.74 11.25-3.99 22.28-6.75 33.32-2.67-2.56-4.41-5.19-6.31-8.37-4.23-6.74-7.85-10.46-15.69-12.63-3.28-0.5-6.57-0.82-9.87-1.12-1.32-0.13-1.32-0.13-2.67-0.27q-3.23-0.31-6.46-0.61c-16.51-58.93-14.52-124.99 15.38-179.41 8.11-14.32 17.73-27.27 28.62-39.59q0.7-0.8 1.43-1.62c5.51-6.22 11.11-12.13 17.57-17.38q0.75-0.63 1.53-1.28c39.8-33.31 89.04-52.36 140.47-57.72 1.26-0.14 1.26-0.14 2.56-0.29 10.16-1 20.36-0.95 30.57-0.96z"/>
		<path class="s4" d="m674.25 650.38c13.01 5.62 13.01 5.62 16.45 11.54 3.1 4.14 6.44 5.42 11.11 7.39 46.42 20.86 76.38 60.64 94.48 107.37 9.72 25.9 16.94 52.48 23.86 79.24q1.75 6.77 3.66 13.49c1.02 3.71 1.65 7.16 1.69 11.03 0.05 1.45 0.05 1.45 0.09 2.93-0.59 2.63-0.59 2.63-2.45 4.74-4.42 2.66-9 4.19-13.89 5.77q-1.59 0.51-3.23 1.05c-17.91 5.7-36.22 9.4-54.65 12.95q-1.21 0.23-2.46 0.47-3.5 0.68-7.01 1.33-1.04 0.2-2.1 0.41c-4.32 0.79-8.42 1.03-12.8 0.91q0.02 0.97 0.03 1.98c0.31 21.96 0.13 45.19-7.14 66.23-2.71 8.48-0.76 18.4 0.4 27.08 0.77 6.05 0.71 11.45 0.71 17.71-7.92 0-15.84 0-24 0-3.54-15.22-6.71-30.45-9.56-45.81q-0.64-3.39-1.27-6.78-6.08-32.56-12.06-65.14-3.97-21.65-8.11-43.27-0.57-2.99-1.15-5.99-1.54-8.05-3.09-16.11-0.94-4.86-1.87-9.72-1.61-8.33-3.21-16.66-0.69-3.58-1.38-7.16-5.51-28.68-11.29-57.31-0.88-4.35-1.75-8.71c-3.25-16.24-6.65-32.43-10.42-48.55q-0.24-1.03-0.49-2.09c-3-12.88-6.69-25.49-10.74-38.08-0.7-2.99-0.86-5.56-0.61-8.62 11.97-10.35 41.76 1.46 54.25 6.38z"/>
		<path class="s4" d="m388.06 640.63q1.21-0.03 2.46-0.05c4.67 0.04 7.63 0.49 11.48 3.42-0.68 4.58-1.74 8.97-3 13.41q-0.62 2.22-1.24 4.44-0.32 1.16-0.65 2.35c-5.39 19.47-9.95 39.04-14.11 58.8q-0.3 1.43-0.61 2.9c-6.42 30.42-12.6 60.88-18.65 91.37q-1.91 9.61-3.86 19.2c-3.92 19.35-7.6 38.73-11.09 58.16-1.85 10.27-3.77 20.52-5.87 30.74-2.01 9.92-3.83 19.87-5.67 29.82-4.24 22.97-8.73 45.89-13.25 68.81-8.25 0-16.5 0-25 0 0.35-7.77 0.71-15.39 1.87-23.09q0.23-1.55 0.47-3.15 0.46-3.07 1-6.12c1.13-7.61-0.36-12.65-3.34-19.64-5.75-19.58-5.35-40.8-5-61-0.89-0.08-0.89-0.08-1.79-0.16-25.72-2.43-50.73-8.44-75.52-15.53q-1.44-0.4-2.93-0.82c-13.14-3.87-13.14-3.87-17.76-8.49-1.91-10.06 2.19-20.84 4.81-30.44q0.75-2.8 1.5-5.6c14-51.96 28.99-105.97 67.34-145.56q1.84-1.91 3.65-3.85c13.96-14.58 32.7-26.7 51.49-34.05 3.26-1.52 4.08-2.14 5.71-5.19 6.93-9.99 22.39-14.19 33.5-17.31q1.67-0.48 3.39-0.97c6.9-1.73 13.58-2.33 20.67-2.4z"/>
		<path class="s5" d="m692 665c48.56 20.77 81.33 55.78 101.56 104.75 11.2 28.01 19.05 57.01 26.59 86.17q1.75 6.77 3.66 13.49c1.02 3.71 1.65 7.16 1.69 11.03 0.05 1.45 0.05 1.45 0.09 2.93-0.59 2.63-0.59 2.63-2.45 4.74-4.42 2.66-9 4.19-13.89 5.76q-1.59 0.52-3.23 1.06c-17.91 5.7-36.22 9.4-54.65 12.94q-1.21 0.24-2.46 0.48-3.5 0.68-7.01 1.33c-1.04 0.2-1.04 0.2-2.1 0.41-4.32 0.79-8.42 1.03-12.8 0.91q-0.03-0.88-0.06-1.78c-1.24-37.92-1.24-37.92-3.66-75.78q-0.37-4.63-0.71-9.26c-3.85-51.66-13.19-103.03-28.75-152.49q-1.02-3.31-1.82-6.69z"/>
		<path class="s5" d="m328 666c-1.48 4.99-2.98 9.97-4.58 14.92-8.67 27.12-13.79 54.92-18.1 83.01q-0.45 2.91-0.9 5.81c-3.31 21.54-5.29 43.21-7.2 64.9q-0.23 2.43-0.48 4.86c-0.77 7.78-1.05 15.55-1.28 23.36q-0.06 2.09-0.13 4.19-0.16 5.45-0.33 10.91-0.16 5.59-0.34 11.18-0.33 10.93-0.66 21.86c-26.36-2.55-51.88-8.42-77.31-15.69q-1.44-0.4-2.93-0.82c-13.14-3.87-13.14-3.87-17.76-8.49-1.91-10.06 2.19-20.84 4.81-30.44q0.75-2.8 1.5-5.6c14-51.96 28.99-105.97 67.34-145.56q1.84-1.91 3.65-3.85c11.52-12.03 37.16-34.55 54.7-34.55z"/>
		<path class="s1" d="m214 894c1.05 0.28 1.05 0.28 2.11 0.56 25.81 6.85 51.54 12.25 77.89 16.44 0.07 1.64 0.07 1.64 0.14 3.31q0.26 6.21 0.55 12.42 0.12 2.66 0.23 5.32c0.7 16.99 3.13 32.66 8.08 48.95 3.49 13.97-2.17 28.72-4 43-34.32 0-68.64 0-104 0 5.04-41.55 5.04-41.55 6.31-51.31q0.15-1.12 0.3-2.28c1.79-13.65 3.86-27.25 6.01-40.85q0.22-1.38 0.45-2.8c1.74-10.97 3.64-21.88 5.93-32.76z"/>
		<path class="s1" d="m806 894c1.94 3.38 2.62 6.57 3.3 10.39 0.17 0.97 0.17 0.97 0.34 1.95q0.57 3.24 1.11 6.47 0.19 1.13 0.39 2.3c3.48 20.54 5.98 41.22 8.49 61.9q0.74 6.02 1.49 12.04 0.88 7.1 1.75 14.2 0.17 1.32 0.34 2.69 0.45 3.72 0.91 7.45 0.13 1.09 0.27 2.22c0.34 2.82 0.61 5.55 0.61 8.39-34.32 0-68.64 0-104 0-4.15-40.14-4.15-40.14-0.63-51.5 4.24-14.11 5.1-28.19 5.75-42.81q0.13-2.73 0.27-5.46 0.31-6.62 0.61-13.23c1.33-0.23 1.33-0.23 2.69-0.46 25.72-4.37 51.26-9.14 76.31-16.54z"/>
		<path class="s6" d="m424 642q3.01 2.04 5.94 4.19c17.38 12.33 36.37 17.35 57.06 20.81 1.61 0.29 1.61 0.29 3.25 0.59 34.63 3.76 74.52-0.88 103.19-22.09q1.2-0.97 2.43-1.97c2.94-2.11 4.83-2.7 8.42-2.23q1.15 0.29 2.33 0.58 1.16 0.27 2.36 0.55c2.02 0.57 2.02 0.57 4.02 1.57-0.24 14.45-10.17 26.22-20 36-24.54 23.08-57.09 29.91-89.85 29.14-28.92-1.25-57.85-12.53-77.97-33.64-8.11-9.3-14.01-19.29-16.18-31.5q2.33-1.09 4.69-2.12 1.3-0.59 2.63-1.2c3.43-0.87 4.6-0.35 7.68 1.32z"/>
		<path class="s7" d="m424 612q1.67 0.56 3.38 1.14c55.44 18.27 109.63 16.97 165.27 0.54q3.16-0.91 6.35-1.68 0.18 1.39 0.37 2.82 0.66 5.05 1.35 10.1 0.4 2.95 0.79 5.9 0.24 1.72 0.49 3.49c0.22 1.57 0.22 1.57 0.44 3.18 0.36 2.67 0.36 2.67 2.56 4.51-1.21-0.22-1.21-0.22-2.44-0.44-3.84 0.47-4.44 0.92-7.25 3.31-11.55 9.58-25.89 15.47-40.31 19.13q-1.73 0.44-3.51 0.89c-24.65 5.73-51.74 6.73-76.49 1.11q-1-0.22-2.03-0.45-20.01-4.61-37.97-14.55-0.94-0.45-1.9-0.91c-4.66-2.24-9.32-4.57-12.1-9.09-1.53-6.93-0.15-14.1 1-21q0.27-2.04 0.53-4.08c0.47-2.92 0.47-2.92 1.47-3.92z"/>
		<path class="s8" d="m618.31 367.56c7.66 4.48 11.84 11.95 14.22 20.31 2.7 12.28 0.61 24.68-5.4 35.5-4.25 5.25-8.88 9.03-15.74 10-7.96 0.2-12.22-1.64-18.07-6.87-8.24-8.53-9.65-20.62-9.53-31.93 0.58-9.9 4.58-18.16 11.77-25.01 6.89-4.41 15.16-5.4 22.75-2z"/>
		<path class="s9" d="m422.75 367.19c8.1 4.52 11.11 9.11 14.25 17.81 2.86 10.24 2.7 25.09-1.67 34.77-3.82 6.41-7.9 11.25-15.33 13.23-7.16 0.85-13.1 0.35-19-4-7.12-6.08-9.79-14.97-11-24-0.81-12.25 1.05-23.26 9-33 7.38-6.4 14.54-7.73 23.75-4.81z"/>
		<path class="s10" d="m453.87 497.43c3.94 1.06 6.86 3.88 10.05 6.34 18.85 13.64 43.09 17.2 65.75 13.62 11.84-2.4 22.69-8.1 31.83-15.89 3.17-2.68 4.22-3.45 8.44-4.19 3.06 0.69 3.06 0.69 5 1.81 1.61 2.84 1.5 4.66 1.06 7.88-6.53 12.79-21.56 19.04-34.54 23.29-26.52 8.27-53.75 4.22-78.21-8.04-5.99-3.38-14.1-8.95-17.25-15.25-0.25-3.5-0.25-3.5 0-7 2.86-1.9 4.46-2.67 7.87-2.57z"/>
		<path class="s11" d="m653.29 320.31c3.38 3.34 5.41 6.06 6.27 10.75-0.79 4.13-2.15 5.52-5.56 7.94-6.63 0.68-10.87-0.9-16.75-3.81-15.5-7.21-31.28-10.21-47.92-4.87-3.7 1.08-6.49 1.14-10.33 0.68-2.81-1.79-4.51-3.02-6-6-0.42-3.7-0.15-5.7 1.5-9.06 5.99-7.04 13.88-9.83 22.96-10.78 19.75-1.27 40.3 1.85 55.83 15.15z"/>
		<path class="s12" d="m446.55 311.69c3.36 3.04 4.33 5.33 4.89 9.81-0.53 4.19-1.42 5.59-4.44 8.5-3.14 0.56-3.14 0.56-6.69 0.44-1.88-0.07-1.88-0.07-3.81-0.13-2.74-0.24-5.11-0.59-7.75-1.31-15.33-3.93-31.49-0.5-45.19 6.75-5.28 2.77-8.64 4.46-14.56 3.25-2.5-1.5-2.5-1.5-4-4-1-4.47-0.87-6.52 1.46-10.46 15.99-19.88 58.71-28.47 80.09-12.85z"/>
		<path class="s13" d="m520.55 431.65c5.47 2.48 9.77 7 12.45 12.35q0.22 3.37 0.25 6.75 0.04 1.81 0.08 3.67c-0.5 5.46-2.28 8.57-6.2 12.33-7.47 5.37-15.31 4.96-24.13 4.25-6.02-1.56-9.52-4.99-13-10-2.51-4.43-2.66-9.04-2-14 2.13-7.01 6.76-11.26 12.77-15.14 5.74-2.21 13.86-1.72 19.78-0.21z"/>
		<path class="s14" d="m304 983q0.37 0.84 0.75 1.7c4.33 7.98 11.6 13.64 19.06 18.51 2.19 1.79 2.19 1.79 3.09 3.53 0.15 3.44-0.6 6.67-1.34 10.01-0.51 2.39-1.03 4.78-1.56 7.25-8.25 0-16.5 0-25 0 0.43-9.73 1.18-19.28 2.5-28.94q0.19-1.44 0.4-2.92c0.97-6.87 0.97-6.87 2.1-9.14z"/>
		<path class="s15" d="m716 984c2.6 2.6 2.45 4.09 2.85 7.71q0.19 1.74 0.39 3.53c0.19 1.83 0.19 1.83 0.38 3.7q0.21 1.77 0.41 3.59c0.79 7.29 0.97 14.06 0.97 21.47-7.92 0-15.84 0-24 0-3.58-14.76-3.58-14.76-3-18 2.13-1.74 2.13-1.74 5-3.31 7.96-4.73 14.02-9.75 17-18.69z"/>
		<path class="s16" d="m392 675c1.42 3.83 0.57 6.63-0.43 10.52q-0.48 1.86-0.97 3.78-0.52 1.98-1.04 3.95-0.51 2-1.02 3.99-1.26 4.88-2.54 9.76-0.49 0-1 0c0.62-6.44 1.64-12.68 3-19q-0.99 0.99-2 2c0.33-2.64 0.66-5.28 1-8q1.48-0.49 3-1c1.23-3.01 1.23-3.01 2-6z"/>
		<path class="s17" d="m630 681c3.01 3.01 2.6 5.82 3 10q1.48 0.49 3 1 0 1.48 0 3 0.99-0.49 2-1c0.66 2.64 1.32 5.28 2 8q-1.97-0.49-4-1-0.49 1.97-1 4-1.26-4.87-2.5-9.75-0.36-1.37-0.72-2.79-0.34-1.33-0.69-2.69-0.31-1.22-0.63-2.48c-0.46-2.29-0.46-2.29-0.46-6.29z"/>
		<path class="s18" d="m328 983q1.48 0 3 0c-0.48 8.24-1.98 16-4 24-1.65-4.49-0.42-8.94 0.33-13.51 0.53-3.48 0.72-6.13-0.33-9.49q0.49-0.49 1-1z"/>
	</g>
</svg>