<svg version="1.2" xmlns="http://www.w3.org/2000/svg" viewBox="0 0 1024 1024" width="500" height="500">
	<style>
		.s0 { fill: #fecab1 } 
		.s1 { fill: #954c28 } 
		.s2 { fill: #c47eeb } 
		.s3 { fill: #f14141 } 
		.s4 { fill: #f14242 } 
		.s5 { fill: #fec8af } 
		.s6 { fill: #fec6ab } 
		.s7 { fill: #faa68d } 
		.s8 { fill: #412720 } 
		.s9 { fill: #412721 } 
		.s10 { fill: #f48063 } 
		.s11 { fill: #fd8f71 } 
		.s12 { fill: #924927 } 
		.s13 { fill: #924926 } 
		.s14 { fill: #d13a3c } 
		.s15 { fill: #d13637 } 
		.s16 { fill: #c7262a } 
		.s17 { fill: #fbd79a } 
		.s18 { fill: #fcd29d } 
		.s19 { fill: #ef373b } 
		.s20 { fill: #bc86f3 } 
		.s21 { fill: #f1e4e2 } 
		.s22 { fill: #c67bdf } 
		.s23 { fill: #f93525 } 
	</style>
	<g id="Layer 1">
		<path class="s0" d="m534 72q1.86 0.29 3.79 0.59c36.78 6.32 75.68 19.63 106.21 41.41 1.59 1.12 1.59 1.12 3.21 2.27 14.68 10.7 28.26 22.77 39.49 37.09q1.37 1.72 2.75 3.44c18.34 22.65 31.62 48.58 41.93 75.76q0.56 1.48 1.15 3c7.59 20.79 11.36 42.96 15.65 64.61 2.27 11.4 4.58 22.74 7.89 33.89q0.34 1.16 0.69 2.35c5.01 16.18 15.01 29.98 24.4 43.86 16.97 25.17 30.36 53.03 25.18 84.18-2.84 14.34-9.12 27.63-15.86 40.5-3.09 6.37-4.59 12.02-3.48 19.05 2.73 7.51 7.28 14.02 11.67 20.64 5.62 8.65 9.55 18.43 12.33 28.36q0.31 1.07 0.62 2.17c4.71 19.37 0.25 39.13-9.56 56.09-9.91 16.2-24.1 24.71-42.08 29.29-5.42 1.24-10.74 1.61-16.29 1.64q-1.81 0.02-3.68 0.04c-3.01-0.23-3.01-0.23-5.01-2.23-0.23-1.95-0.23-1.95-0.19-4.25q0.01-1.12 0.02-2.27c0.17-2.48 0.17-2.48 0.68-5.28 0.57-3.71 0.6-7.33 0.55-11.08 0-1.03 0-1.03-0.01-2.08q-0.02-2.52-0.05-5.04-0.22 0.9-0.45 1.84c-4.52 16.9-15.43 27.19-29.84 36.09q-2.13 1.35-4.19 2.81c-6.45 4.28-12.99 3.74-20.52 3.26q0.36 0.74 0.74 1.5c3.16 6.72 5.15 13.59 7.07 20.75q0.26 0.94 0.52 1.91 1.86 6.91 3.67 13.84 0.45 1.72 0.92 3.49c8.06 30.91 14.27 62.61 16.91 94.46q0.26 3.15 0.54 6.29c2.48 28.45 3.07 56.71 2.95 85.25q-0.01 6.58 0 13.16 0 6.46-0.01 12.93-0.01 3.02-0.01 6.04c0 10.5-0.29 20.9-1.22 31.36q-0.12 1.35-0.24 2.75c-0.56 5.75-1.68 11.14-3.23 16.71-1.89 7.96-0.42 16.29 0.68 24.28 0.69 5.24 0.71 9.89 0.71 15.28-133.98 0-267.96 0-406 0 0-8.3 0.02-16.18 0.56-24.39 0.62-9.87 0.38-17.85-2.43-27.34-5.7-20.11-4.55-42.1-4.17-62.81q0.06-3.78 0.12-7.56c1.21-76.64 6.16-155.96 31.92-228.9q-0.99 0.49-2 1c-14.28 2.01-24.49-4.04-35.94-11.88-11.44-8.8-17.58-18.2-21.06-32.12 0 10.23 0 20.46 0 31-8.34 4.17-21.56-0.02-29.96-2.6-17.18-5.75-31.65-17.17-40.04-33.4-8.51-19.08-10.13-40.16-3-60 0.53-1.51 0.53-1.51 1.06-3.05 3.28-8.57 8.1-16.2 12.94-23.95 7.11-11.11 7.11-11.11 8-24-1.59-4.22-3.63-8.18-5.69-12.19q-1.66-3.35-3.32-6.72-0.78-1.58-1.59-3.21c-2.52-5.18-4.68-10.38-6.4-15.88-0.47-1.47-0.47-1.47-0.95-2.97-7.18-26.9-0.34-54.23 13.08-77.86 2.21-3.77 4.54-7.47 6.87-11.17 19.08-30.43 29.72-60.68 35.75-96.1 9.15-53.56 28.19-102.23 66.25-141.9 1.36-1.43 1.36-1.43 2.75-2.88 6.06-6.19 12.36-11.86 19.25-17.12 0.94-0.72 0.94-0.72 1.9-1.46 24.4-18.6 52.58-33.7 81.9-42.85q3.09-0.98 6.15-2.04c30.4-10.08 65.49-12.7 97.05-7.65z"/>
		<path class="s1" d="m534 72q1.86 0.29 3.79 0.59c36.78 6.32 75.68 19.63 106.21 41.41 1.59 1.12 1.59 1.12 3.21 2.27 14.68 10.7 28.26 22.77 39.49 37.09q1.37 1.72 2.75 3.44c18.34 22.65 31.62 48.58 41.93 75.76q0.56 1.48 1.15 3c7.59 20.79 11.36 42.96 15.65 64.61 2.27 11.4 4.58 22.74 7.89 33.89q0.34 1.16 0.69 2.35c5.01 16.18 15.01 29.98 24.4 43.86 16.97 25.17 30.36 53.03 25.18 84.18-2.84 14.34-9.12 27.63-15.86 40.5-3.09 6.37-4.59 12.02-3.48 19.05 2.73 7.51 7.28 14.02 11.67 20.64 5.62 8.65 9.55 18.43 12.33 28.36q0.31 1.07 0.62 2.17c4.71 19.37 0.25 39.13-9.56 56.09-9.91 16.2-24.1 24.71-42.08 29.29-5.42 1.24-10.74 1.61-16.29 1.64q-1.81 0.02-3.68 0.04c-3.01-0.23-3.01-0.23-5.01-2.23-0.23-1.95-0.23-1.95-0.19-4.25q0.01-1.12 0.02-2.27c0.17-2.48 0.17-2.48 0.68-5.28 0.57-3.71 0.6-7.33 0.55-11.08 0-1.03 0-1.03-0.01-2.08q-0.02-2.52-0.05-5.04-0.22 0.9-0.45 1.84c-4.52 16.9-15.43 27.19-29.84 36.09q-2.13 1.35-4.19 2.81c-6.45 4.28-12.99 3.74-20.52 3.26q0.36 0.74 0.74 1.5c3.16 6.72 5.15 13.59 7.07 20.75q0.26 0.94 0.52 1.91 1.86 6.91 3.67 13.84 0.45 1.72 0.92 3.49c8.06 30.91 14.27 62.61 16.91 94.46q0.26 3.15 0.54 6.29c2.48 28.45 3.07 56.71 2.95 85.25q-0.01 6.58 0 13.16 0 6.46-0.01 12.93-0.01 3.02-0.01 6.04c0 10.5-0.29 20.9-1.22 31.36q-0.12 1.35-0.24 2.75c-0.56 5.75-1.68 11.14-3.23 16.71-1.89 7.96-0.42 16.29 0.68 24.28 0.69 5.24 0.71 9.89 0.71 15.28-7.59 0-15.18 0-23 0-0.33-3.3-0.66-6.6-1-10-0.85-2.65-1.71-5.1-2.79-7.64-3.12-7.89-5.51-15.85-7.6-24.08q-0.29-1.09-0.57-2.22c-4.93-19.34-8.09-38.99-11.26-58.68q-1.17-7.19-2.36-14.38-1.62-9.85-3.24-19.7c-4.09-25.01-8.31-49.94-13.55-74.74q-0.72-3.42-1.44-6.85-4.34-20.67-9-41.27c-2.49-11.06-4.73-22.14-6.83-33.28-2.48-13.06-5.29-26.05-8.11-39.05q-2.86-13.1-5.52-26.25c-0.26-1.29-0.26-1.29-0.53-2.61-1.2-6.01-1.2-6.01-1.2-8.25-1.06-0.18-1.06-0.18-2.13-0.36-3.1-0.69-5.82-1.73-8.74-2.95q-1.48-0.61-3-1.24-1.54-0.71-3.13-1.45-1.78-0.79-3.61-1.6c-3.17-1.84-3.33-2.2-4.46-5.99q-0.18-2.14-0.27-4.28-0.08-1.13-0.17-2.3-0.25-3.63-0.43-7.27-0.16-2.44-0.34-4.87c-0.4-5.9-0.8-11.78-0.72-17.69q2.5-1.25 5-2.5 1.64-0.82 3.33-1.67 3.72-1.86 7.47-3.66c14.19-6.86 27.33-14.72 39.2-25.17 1.28-1.11 1.28-1.11 2.58-2.25q3.75-3.33 7.42-6.75c1.13-1.04 1.13-1.04 2.27-2.11 23.62-22.71 36.92-53.23 46.73-83.89q1.61 0.07 3.26 0.14c17.02 0.51 30.85-3.93 43.51-15.69 7.71-8.47 12.85-18.56 16.23-29.45q0.54-1.74 1.11-3.53c1.43-5.96 1.26-12.05 1.27-18.16q0.03-1.77 0.07-3.6c0.04-13.79-3.79-26.03-12.89-36.52-9.21-7.87-17.28-10.38-29.56-9.46-10.23 1.39-16.94 8.52-23 16.27-2.42-3.64-2.96-7.1-3.73-11.31q-0.24-1.25-0.49-2.53-0.51-2.68-1.01-5.37-1.31-6.99-2.66-13.97c-0.27-1.39-0.27-1.39-0.54-2.81-2.27-11.72-4.87-23.37-7.57-35.01-1.16-0.26-1.16-0.26-2.35-0.53-6.23-1.47-11.91-3.11-17.59-6.1q-1-0.51-2.03-1.04c-40.38-21.28-64.17-56.45-78.5-98.52-0.53-1.81-0.53-1.81-0.53-3.81q-0.99 0-2 0-0.2 0.91-0.41 1.84c-4.71 19.17-14.66 36.4-27.59 51.16-0.97 1.17-0.97 1.17-1.96 2.36-5.08 6-10.81 10.87-17.04 15.64q-1.16 0.91-2.36 1.84c-13.27 9.84-30.86 18.75-47.64 18.16-0.69-1.64-0.69-1.64-1-4 1.18-2.73 1.18-2.73 3.01-5.84q0.48-0.84 0.98-1.71 1.55-2.7 3.14-5.39c5.14-8.79 9.51-17.4 12.87-27.06-0.82 1.34-0.82 1.34-1.65 2.71-14.84 23.97-35.46 36.94-62.35 44.29q-0.95 0.27-1.93 0.54c-3.81 0.84-7.68 0.69-11.57 0.71-1.28 0.03-1.28 0.03-2.59 0.06-6.31 0.04-6.31 0.04-9.5-1.83q-0.7-0.73-1.41-1.48c0.45-6.69 3.07-12.03 6-18q-0.69 0.71-1.41 1.43c-15.86 15.19-38.89 23.38-59.59 29.57q-1.04 0.32-2.12 0.64c-9.43 2.8-18.01 3.92-27.88 3.36q-0.19 1.92-0.38 3.9c-0.55 4.97-1.49 9.8-2.55 14.68q-0.28 1.34-0.57 2.71-0.9 4.26-1.81 8.52-1.19 5.57-2.37 11.15-0.28 1.35-0.58 2.75c-1.99 9.42-3.88 18.85-5.74 28.29-3.96-0.79-5.05-1.98-7.37-5.31-3.99-5.37-8.26-8.58-14.63-10.69-11.28-0.97-19.33-0.31-28.12 7.06-8.26 7.83-15.28 19.78-16.04 31.41-0.52 17.04-0.52 17.04 3.16 33.53q0.42 1.25 0.84 2.54c5.51 15.31 15.97 27.65 30.16 35.46q1.26 0.83 2.56 1.68c5.23 2 10.27 1.63 15.82 1.51 1.67-0.02 1.67-0.02 3.38-0.04q4.12-0.06 8.24-0.15 0.43 1.32 0.88 2.68c7.57 23.29 7.57 23.29 18.12 45.32q0.95 1.78 1.88 3.56c7.35 13.73 17.45 25.21 28.12 36.44q0.86 0.94 1.75 1.91c15.67 16.58 36.97 28.87 57.72 37.83q1.09 0.47 2.21 0.96 2.66 1.15 5.32 2.3-0.49 7.93-1.16 15.85-0.21 2.69-0.38 5.39c-0.91 14.91-0.91 14.91-4.71 19.45-2.53 1.79-4.91 3.08-7.75 4.31q-2.14 1.2-4.25 2.44c-3.3 1.74-6.05 1.61-9.75 1.56-2.62 10.28-5.1 20.56-7.31 30.94q-0.22 1.03-0.45 2.09c-2.51 11.84-4.63 23.72-6.61 35.66q-3.68 22.09-8 44.06-0.29 1.42-0.57 2.89-3.48 17.52-7.01 35.03-3.05 15.16-6.05 30.33-0.22 1.09-0.44 2.21c-6.31 32.1-11.03 64.56-15.13 97.01-1.56 12.17-3.8 24.11-6.37 36.09q-0.24 1.15-0.49 2.34c-2.47 11.51-5.18 23.15-9.69 34.06-1.27 3.3-1.34 6.62-1.5 10.1-0.13 2.37-0.25 4.75-0.38 7.19-7.92 0-15.84 0-24 0-0.07-7.03-0.09-13.98 0.36-21 0.69-10.97 0.91-20.15-2.23-30.73-5.7-20.11-4.55-42.1-4.17-62.81q0.06-3.78 0.12-7.56c1.21-76.64 6.16-155.96 31.92-228.9q-0.99 0.49-2 1c-14.28 2.01-24.49-4.04-35.94-11.88-11.44-8.8-17.58-18.2-21.06-32.12 0 10.23 0 20.46 0 31-8.34 4.17-21.56-0.02-29.96-2.6-17.18-5.75-31.65-17.17-40.04-33.4-8.51-19.08-10.13-40.16-3-60 0.53-1.51 0.53-1.51 1.06-3.05 3.28-8.57 8.1-16.2 12.94-23.95 7.11-11.11 7.11-11.11 8-24-1.59-4.22-3.63-8.18-5.69-12.19q-1.66-3.35-3.32-6.72-0.78-1.58-1.59-3.21c-2.52-5.18-4.68-10.38-6.4-15.88-0.47-1.47-0.47-1.47-0.95-2.97-7.18-26.9-0.34-54.23 13.08-77.86 2.21-3.77 4.54-7.47 6.87-11.17 19.08-30.43 29.72-60.68 35.75-96.1 9.15-53.56 28.19-102.23 66.25-141.9 1.36-1.43 1.36-1.43 2.75-2.88 6.06-6.19 12.36-11.86 19.25-17.12 0.94-0.72 0.94-0.72 1.9-1.46 24.4-18.6 52.58-33.7 81.9-42.85q3.09-0.98 6.15-2.04c30.4-10.08 65.49-12.7 97.05-7.65z"/>
		<path class="s2" d="m399 654q1.97 0 4 0 0.33 1.53 0.68 3.11c1.2 4.17 3.56 7.04 6.45 10.2q1.5 1.71 3 3.41 0.73 0.83 1.49 1.68c1.91 2.21 3.67 4.53 5.44 6.85 17.19 21.5 43.36 30.95 69.83 34.34 6.98 0.76 13.97 0.76 20.98 0.72q1.12 0 2.26 0c10.88-0.04 21.31-0.44 31.87-3.31q1.56-0.42 3.18-0.84c12.35-3.72 23.1-9.71 32.82-18.16 1.52-1.14 1.52-1.14 3.06-2.31 4.51-4.13 8.17-8.9 11.94-13.69q1.42-1.79 2.85-3.58 1.45-1.84 2.9-3.67 0.67-0.84 1.36-1.71c3.08-3.94 6.01-7.96 8.89-12.04 2.36 2.36 2.44 3.39 3.01 6.62q0.26 1.46 0.54 2.97 0.28 1.62 0.57 3.28c2.02 11.01 4.35 21.91 6.82 32.82 2.54 11.24 4.93 22.48 7.06 33.81 2.07 10.97 4.36 21.86 6.81 32.75 8.97 39.85 17.03 79.81 23.49 120.14q2.79 17.47 5.68 34.93 0.57 3.49 1.14 6.98c3.25 19.97 7.04 39.79 12.38 59.32q0.44 1.63 0.89 3.31c1.82 6.62 3.84 12.94 6.76 19.16 0.85 2.91 0.85 2.91 0.85 12.91-118.47 0-236.94 0-359 0 0-16.67 0-16.67 2.56-22.5 3.19-7.99 5.19-16.19 7.07-24.56q0.41-1.81 0.83-3.67c4.58-20.75 7.41-41.83 10.32-62.86 4.5-32.49 10.07-64.69 16.64-96.82q2.32-11.34 4.61-22.68 0.25-1.23 0.5-2.49c4.96-24.54 9.47-49.16 13.65-73.84 2.1-12.33 4.32-24.61 7.01-36.83q0.33-1.54 0.68-3.13c1.6-7.04 3.74-13.81 6.13-20.62z"/>
		<path class="s3" d="m645 655c32.77 11.54 32.77 11.54 37.24 20.48 4.1 12.02 7.51 24.24 10.76 36.52q0.43 1.61 0.87 3.28c8.09 30.98 14.31 62.75 16.96 94.67q0.26 3.15 0.54 6.29c2.48 28.45 3.07 56.71 2.95 85.25q-0.01 6.58 0 13.16 0 6.46-0.01 12.93-0.01 3.02-0.01 6.04c0 10.5-0.29 20.9-1.22 31.36q-0.12 1.35-0.24 2.75c-0.56 5.75-1.68 11.14-3.23 16.71-1.89 7.96-0.42 16.29 0.68 24.28 0.69 5.24 0.71 9.89 0.71 15.28-7.59 0-15.18 0-23 0-0.5-4.95-0.5-4.95-1-10-0.85-2.65-1.71-5.1-2.79-7.64-3.12-7.89-5.51-15.85-7.6-24.08-0.29-1.1-0.29-1.1-0.57-2.22-4.93-19.34-8.09-38.99-11.26-58.68q-1.17-7.19-2.36-14.38-1.62-9.85-3.24-19.7c-4.09-25.01-8.31-49.94-13.56-74.74q-0.71-3.42-1.43-6.85-4.34-20.67-9-41.27c-2.49-11.06-4.73-22.14-6.83-33.28-2.48-13.06-5.29-26.05-8.11-39.05q-2.86-13.1-5.52-26.25-0.26-1.29-0.53-2.61c-1.2-6.01-1.2-6.01-1.2-8.25q-1.48-0.49-3-1 1.48 0 3 0 0-0.99 0-2c9.02-4.51 22.94 0.01 32 3z"/>
		<path class="s4" d="m387.5 647.71c4.12-0.26 6.06 0.03 9.69 2.16 2.03 3.51 1.95 3.91 1.1 7.63-0.3 1.34-0.3 1.34-0.61 2.7q-1.32 5.45-2.68 10.88c-2.65 10.56-4.9 21.15-6.81 31.86q-0.18 1.01-0.37 2.04-1.65 9.32-3.28 18.64-1.79 10.22-3.6 20.44-0.28 1.54-0.56 3.13c-3.27 18.31-6.9 36.55-10.64 54.77-8.99 43.88-16.69 87.81-22.31 132.26-1.56 12.17-3.8 24.11-6.37 36.09q-0.24 1.15-0.49 2.34c-2.47 11.51-5.18 23.15-9.69 34.06-1.27 3.3-1.34 6.62-1.51 10.1-0.12 2.37-0.24 4.75-0.37 7.19-7.92 0-15.84 0-24 0-0.07-7.03-0.09-13.98 0.36-21 0.69-10.97 0.91-20.15-2.24-30.73-5.69-20.11-4.54-42.1-4.16-62.81q0.06-3.78 0.12-7.56c1.12-70.85 8.13-139.14 25.44-207.96q0.65-2.65 1.27-5.3c2.34-9.9 4.57-17.06 13.67-22.73q1.77-0.96 3.54-1.91 2.03-1.17 4.07-2.35c12.79-7.23 25.76-12.25 40.43-13.94z"/>
		<path class="s2" d="m682 676c38.9 18.76 69 44.29 89 83q0.58 1.11 1.18 2.26c7.75 15.06 13.55 30.8 19.13 46.76q1.02 2.92 2.07 5.84c6.19 17.32 11.31 34.8 15.81 52.64q0.36 1.43 0.74 2.9 1.04 4.13 2.05 8.26 0.31 1.21 0.62 2.45c1.46 6.11 2.93 12.83 0.03 18.64-8.49 7.27-19.64 9.44-30.19 12.13q-2.52 0.65-5.05 1.3-16.61 4.26-33.39 7.82c-0.99 0.21-0.99 0.21-2.01 0.43-8.97 1.9-17.91 3.35-26.99 4.57 0 4.95 0 9.9 0 15q-0.49 0-1 0-0.01-1.43-0.01-2.9c-0.17-68.65-0.17-68.65-4.99-137.1-0.12-1.12-0.12-1.12-0.24-2.26-0.93-8.64-2.19-17.19-3.76-25.74-0.35-1.92-0.35-1.92-0.7-3.88-3.18-17.52-7.07-34.84-11.36-52.12q-0.3-1.22-0.61-2.47c-2.48-9.98-5.25-19.8-8.45-29.57-1.88-5.77-1.88-5.77-1.88-7.96z"/>
		<path class="s2" d="m329 675c1.14 3.37 0.85 5.39-0.19 8.77-0.42 1.43-0.42 1.43-0.85 2.89q-0.48 1.55-0.96 3.15c-14.25 49.15-22.31 100.15-25 151.19q-0.08 1.4-0.16 2.84c-0.56 10.18-0.86 20.36-1.09 30.55q-0.03 1.39-0.06 2.84-0.16 7.08-0.3 14.16c-0.22 10.89-0.66 21.74-1.39 32.61-7.03 0.14-13.39-1.04-20.25-2.44-0.96-0.19-0.96-0.19-1.95-0.39-20.38-4.13-40.83-9.02-60.61-15.48q-1.01-0.33-2.04-0.66c-5.46-1.89-9.91-4.18-13.15-9.03-1.79-10.86 2.06-22.09 4.75-32.5 0.37-1.44 0.37-1.44 0.74-2.91 4.89-19.21 10.83-37.94 17.51-56.59q0.62-1.75 1.26-3.54c9.06-25.39 19.56-50.41 36.74-71.46q0.64-0.79 1.3-1.6c14.35-17.64 30.56-30.38 49.7-42.4q1.14-0.72 2.32-1.46 6.83-4.29 13.68-8.54z"/>
		<path class="s5" d="m217 906c6.6 1.26 13.11 2.73 19.62 4.43q2.74 0.7 5.49 1.4 1.41 0.37 2.86 0.74c17.91 4.58 35.74 8.65 54.03 11.43 0.07 1.11 0.07 1.11 0.14 2.24 1.16 18.71 1.16 18.71 3.3 37.32q0.16 1.2 0.33 2.43c0.64 4.25 1.58 8.22 2.84 12.33 1.72 6.09 1.55 11.66 1.14 17.93q-0.08 1.52-0.16 3.08c-0.44 8.23-1.04 16.45-1.59 24.67-34.65 0-69.3 0-105 0 1.13-16.88 1.13-16.88 2.04-22.82 0.15-0.98 0.15-0.98 0.31-1.98q0.48-3.17 0.98-6.33 0.35-2.27 0.7-4.55 0.92-5.96 1.85-11.92 0.73-4.73 1.46-9.47 4.69-30.49 9.66-60.93z"/>
		<path class="s5" d="m796 906c1.67 3 2.42 5.6 2.93 8.98q0.23 1.5 0.46 3.04 0.24 1.62 0.49 3.3c0.27 1.72 0.27 1.72 0.53 3.48q0.87 5.66 1.71 11.32 1.05 6.9 2.11 13.8 0.46 3.03 0.92 6.06 2.05 13.4 4.22 26.78 0.28 1.72 0.57 3.49 1.07 6.62 2.15 13.24 0.75 4.51 1.48 9.03 0.21 1.31 0.44 2.66 0.2 1.22 0.4 2.47 0.17 1.04 0.35 2.12c0.29 2.73 0.24 5.49 0.24 8.23-34.32 0-68.64 0-104 0-4.03-34.9-4.03-34.9-1.57-42.93 1.66-6.06 2.3-11.93 2.74-18.18q0.12-1.63 0.25-3.31 0.4-5.16 0.77-10.33 0.26-3.53 0.53-7.06 0.66-8.6 1.28-17.19 1.01-0.19 2.04-0.39c26.59-5.08 52.81-11.63 78.96-18.61z"/>
		<path class="s6" d="m587 626q0.49 0 1 0-0.04 1.93-0.09 3.91c-0.18 8.94-0.18 8.94 3.54 16.63 3.58 2.37 7.5 3.68 11.6 4.86 3.1 0.95 5.99 2.28 8.95 3.6-4.19 7.22-9.25 13.67-14.49 20.14q-1.5 1.84-2.98 3.7c-17.23 21.54-38.92 33.09-66.53 36.16-5.52 0.29-11.03 0.34-16.56 0.31q-1.12 0-2.26 0c-32.88-0.14-62.78-8.32-86.76-31.86-3.8-3.89-7.11-8.14-10.42-12.45q-1.28-1.59-2.55-3.18-1.26-1.6-2.51-3.19-1.13-1.43-2.29-2.9c-1.77-2.93-2.03-4.38-1.65-7.73q1.3-0.68 2.63-1.39 1.72-0.92 3.5-1.86 1.69-0.9 3.44-1.83c7.12-3.6 7.12-3.6 11.43-9.92q0.95 0.51 1.92 1.03c14.68 7.63 29.87 13.6 46.08 16.97q1.5 0.32 3.05 0.64c12.02 2.36 24.01 2.55 36.21 2.55q4 0 8 0.03c9.1 0.04 17.82-0.18 26.74-2.22q1.11-0.25 2.25-0.5 3.02-0.74 6-1.62 1.06-0.32 2.15-0.64c7.31-2.27 14.12-5.54 20.8-9.27 1.8-0.97 1.8-0.97 3.78-1.83 2.21-0.96 2.21-0.96 5.02-3.14 0.72-2.94 0.98-4.83 0.94-7.75q0.02-1.04 0.05-2.11 0.04-2.57 0.01-5.14z"/>
		<path class="s7" d="m426 606c5.5 0.59 10.66 1.92 15.99 3.37 45.87 12.48 91.45 11.89 136.84-2.82 2.17-0.55 2.17-0.55 6.17-0.55 3.29 5.3 2.75 11.77 2.92 17.82 0.08 2.1 0.24 4.19 0.41 6.29 0.11 4.05 0.01 7.05-1.33 10.89-4.25 3.8-8.79 5.78-14 8q-2.29 1.3-4.56 2.62c-13.3 6.53-28.62 9.53-43.34 9.55-1.25 0-1.25 0-2.53 0.01q-2.63 0.01-5.27 0.01-3.95 0-7.89 0.03c-28.69 0.1-53.55-5.79-79.41-18.22q-0.97-0.46-1.96-0.94c-3.86-1.88-3.86-1.88-5.04-3.06q0.07-2.38 0.31-4.75 0.15-1.59 0.3-3.22 0.19-2.01 0.39-4.03 0.26-2.73 0.52-5.47 0.73-7.77 1.48-15.53z"/>
		<path class="s8" d="m611.25 363.25c6.79 2.92 10.44 7.3 13.75 13.75 2.64 6.8 3.52 13.18 3.44 20.44q-0.01 1.37-0.02 2.78c-0.23 9.85-2.61 19.02-9.83 26.18-5.49 4.85-10.49 6.2-17.68 6.03-6.06-0.9-10.69-3.97-14.76-8.48-7.79-10.8-8.36-23.08-7.15-35.95 1.61-8.6 4.23-16.25 11.23-21.75 7.16-4.79 12.87-5.73 21.02-3z"/>
		<path class="s9" d="m424.71 365.4c3.78 2.64 6.06 5.59 8.29 9.6q0.62 1.06 1.25 2.15c4.97 10.66 4.78 27.11 1.25 38.23-3.04 6.6-7.66 11.85-13.81 15.68-6.57 1.67-12.94 2.4-19-1.12-8.39-6.16-12.24-13.71-14.28-23.87-1.61-11.96-0.26-22.77 5.4-33.51 8.78-10.28 18.48-14.05 30.9-7.16z"/>
		<path class="s10" d="m458 497c2.54 1.29 4.72 2.55 7.06 4.13 13.98 8.89 27.03 13.23 43.63 13.25 1.78 0.03 1.78 0.03 3.6 0.07 14.82 0.05 27.73-4.76 39.4-13.76 5.63-4.23 5.63-4.23 9.31-4.32 3 0.63 3 0.63 6 2.63-0.47 7.47-3.52 12.91-8.94 18.06-18.63 14.74-41.96 15.72-64.68 13.71-15.13-1.83-31.14-7.54-41.53-19.18-2.83-3.99-4.28-6.6-3.85-11.59 2.36-4.02 5.74-3.37 10-3z"/>
		<path class="s11" d="m522.78 436.17c4.74 3.58 6.9 7.58 7.72 13.42 0.2 12.51 0.2 12.51-4.72 17.83-6.76 6-12.87 9.18-22.13 8.95-8.04-1.13-14.71-6.1-19.65-12.37-3.09-4.91-2.46-10.41-2-16 2.05-7.34 6.78-12 13.13-15.94 9.6-3.46 19.39-1.32 27.65 4.11z"/>
		<path class="s12" d="m443.13 312.44c1.87 2.56 1.87 2.56 2.43 5.56-0.68 3.66-1.99 5.35-4.56 8-4.29 2.15-9.17 1.23-13.62 0.02-17.25-4.48-33.93-0.06-49.56 7.25-3.92 1.57-6.78 1.12-10.63-0.33-2.19-1.94-2.19-1.94-3.38-5.19 0.22-4.41 1-5.83 3.99-8.92 7.41-6.17 16.04-10.88 25.2-13.83q1.01-0.33 2.05-0.68c15.73-4.33 35.19-1.93 48.08 8.12z"/>
		<path class="s13" d="m632.75 311.31q3.16 2.3 6.25 4.69c1.29 0.94 1.29 0.94 2.6 1.89 3.64 2.85 5.2 4.18 6.21 8.8-0.81 3.31-0.81 3.31-2.87 5.75-3.76 2-5.69 1.96-9.94 1.56-3.3-1.21-6.38-2.77-9.5-4.38-8.24-4.16-15.42-7.01-24.75-7-1.12 0-1.12 0-2.25 0-5.58 0.11-10.05 1.29-15.2 3.47-3.32 1.31-5.8 1.54-9.3 0.91-3.6-2.53-4.78-4.09-5.81-8.38 1.23-5.5 4.17-7.63 8.81-10.62 16.6-9.97 40.32-7.21 55.75 3.31z"/>
		<path class="s14" d="m307 984q0.99 0.49 2 1 0.4 1.57 0.81 3.19c1.39 4.46 3.14 6.36 6.19 9.81q0 0.99 0 2 0.99 0 2 0 0 0.99 0 2 0.8 0.37 1.62 0.75 1.17 0.62 2.38 1.25 1.52 0.77 3.09 1.56c2.91 2.44 2.91 2.44 3.71 6.33q0.09 2.18 0.07 4.36c0.05 2.56 0.09 5.12 0.13 7.75-7.92 0-15.84 0-24 0-0.28-13.42 0.81-26.64 2-40z"/>
		<path class="s15" d="m708 982q0.49 0 1 0-0.03 1.43-0.07 2.9c-0.13 8.14 0.22 16.01 1.36 24.07 0.71 5.17 0.71 9.68 0.71 15.03-7.59 0-15.18 0-23 0 0-3.3 0-6.6 0-10 1.58-0.12 1.58-0.12 3.19-0.25 4.3-0.85 5.85-1.55 8.81-4.75 5.06-7.84 6.18-18.01 8-27z"/>
		<path class="s16" d="m307 984q0.99 0.49 2 1 1.09 3.47 2 7 0.49 1.48 1 3-1.48 0-3 0c-0.66 7.26-1.32 14.52-2 22q-0.49 0-1 0-0.04-5.72-0.06-11.44-0.02-1.59-0.03-3.24c-0.02-6.2 0.27-12.17 1.09-18.32z"/>
		<path class="s17" d="m421 680c3 1 3 1 5.31 3.94 7.59 9.15 19.01 15.25 29.69 20.06-3 1-3 1-6.12-0.27q-1.89-0.97-3.76-1.98-0.98-0.53-2-1.08c-8.59-4.81-16.49-11.39-23.12-18.67q0-0.99 0-2z"/>
		<path class="s18" d="m538 712c-6.6 3.81-14 3.12-21.38 3.06q-1.52 0-3.09-0.01-3.77-0.02-7.53-0.05 0.49-0.99 1-2c21.72-1.19 21.72-1.19 31-1z"/>
		<path class="s19" d="m332 672q1.97 0 4 0-0.49 1.97-1 4-1.97 0-4 0-0.07 0.93-0.15 1.9-0.11 1.22-0.23 2.48-0.1 1.21-0.21 2.46c-0.41 2.16-0.41 2.16-2.41 4.16 0.5-5.66 1.55-9.88 4-15z"/>
		<path class="s20" d="m683 679q0.99 0 2 0 0 1.48 0 3 0.99 0 2 0c0.81 3.94 1 6 0 10-1.32-4.29-2.64-8.58-4-13z"/>
		<path class="s21" d="m680 673c3.96 0.33 7.92 0.66 12 1q0 0.49 0 1-1.17 0.18-2.38 0.38c-2.76 0.41-2.76 0.41-4.62 2.62-1.65-1.65-3.3-3.3-5-5z"/>
		<path class="s22" d="m677 983c1.43 2.35 2.09 3.48 1.63 6.25q-0.31 0.86-0.63 1.75-0.99 0-2 0c-0.33-2.31-0.66-4.62-1-7q0.99-0.49 2-1z"/>
		<path class="s23" d="m390 681q0.99 0 2 0c-0.66 3.3-1.32 6.6-2 10q-0.49 0-1 0c-0.33-2.31-0.66-4.62-1-7q0.99 0 2 0 0-1.48 0-3z"/>
	</g>
</svg>