<svg version="1.2" xmlns="http://www.w3.org/2000/svg" viewBox="0 0 1024 1024" width="500" height="500">
	<style>
		.s0 { fill: #fed9c4 } 
		.s1 { fill: #f6383b } 
		.s2 { fill: #fed435 } 
		.s3 { fill: #60311f } 
		.s4 { fill: #613220 } 
		.s5 { fill: #db2e34 } 
		.s6 { fill: #2f8954 } 
		.s7 { fill: #fed8c5 } 
		.s8 { fill: #feb88e } 
		.s9 { fill: #fed8c4 } 
		.s10 { fill: #fed8c3 } 
		.s11 { fill: #1b1618 } 
		.s12 { fill: #df7445 } 
		.s13 { fill: #feba1d } 
		.s14 { fill: #fea25d } 
		.s15 { fill: #5e2f1e } 
		.s16 { fill: #5d2f1e } 
		.s17 { fill: #d92a30 } 
	</style>
	<g id="Layer 1">
		<path class="s0" d="m530.7 66.98c5.29 4.49 8.87 8.5 11.3 15.02q0 1.97 0 4 1.08-0.02 2.2-0.04c52.72-0.53 109.99 19.04 148.5 55.61q1.99 1.99 3.92 4.04c1.35 1.51 1.35 1.51 3.38 2.39q0 0.99 0 2 0.98 0 2 0 2.15 2.36 4.12 4.87 1.21 1.52 2.45 3.08 1.2 1.5 2.43 3.05 1.01 1.2 2.05 2.43c32.91 39.25 41.82 95.66 44.36 145.08q0.11 1.83 0.21 3.71 0.19 3.49 0.29 6.99c0.34 6.29 1.08 9.85 5.61 14.32 2.05 2.03 3.14 4.31 4.35 6.91q0.62 1.29 1.25 2.62 0.43 0.95 0.88 1.94c0.84-0.24 0.84-0.24 1.69-0.48 9.84-2.21 19.34 0.14 28.01 4.99 11.71 7.71 19.72 18.63 22.92 32.37 0.65 3.64 0.72 7.24 0.69 10.93q0 1.17 0 2.38c-0.1 5.43-0.81 10.28-2.56 15.45-0.88 2.76-1.32 5.5-1.75 8.36q1.35 0.15 2.75 0.3c12.76 1.56 22.32 5.1 31.25 14.7q0.72 0.75 1.47 1.52c10.13 11.02 12.21 23.53 11.83 37.97-0.61 12-5.72 23.13-14.37 31.52q-2.44 2.03-4.93 3.99 0 0.99 0 2 1.03 0.49 2.09 1c11.03 5.58 20.44 13.86 24.55 25.86 4.49 14.68 4.87 28.03-2.45 42.01-6.19 10.42-14.7 18.15-26.58 21.71-5.81 0.94-11.75 0.63-17.61 0.42 0.93 1.73 0.93 1.73 1.87 3.5 5.38 10.94 5.82 23.28 2.17 34.91-5.46 13.59-14.91 22.64-28.05 28.78-13.28 5.41-28.92 3.98-41.99-1.19-0.02 0.98-0.02 0.98-0.04 1.98-0.61 11.63-4.88 21.59-12.96 30.02-11.03 9.9-23.34 12.96-37.92 12.19-12.21-1.12-21-8.17-28.64-17.26-1.89-2.53-3.2-5.02-4.44-7.93-1.59 2.38-2.88 4.66-4.19 7.19-7.33 13.13-17.66 18.68-31.81 22.81q1.5 0.31 3.05 0.63c25.51 5.49 48.59 16.5 69.95 31.37q0.84 0.58 1.7 1.18c7 4.93 13.34 10.42 19.57 16.28 2.18 2.02 4.38 3.95 6.67 5.85 10.3 8.98 19.03 19.69 27.06 30.69q0.71 0.95 1.43 1.93c7.32 9.9 13.73 20.05 19.45 30.95q1.54 2.91 3.13 5.79c15.86 29.56 31.54 71.41 32.24 105.02q0.04 1.11 0.08 2.26c-0.43 2.67-1.27 3.33-3.33 5.05-3.59 1.51-7.38 2.45-11.13 3.5q-1.76 0.5-3.58 1.02c-20.53 5.7-41.46 10.03-62.29 14.48q-1.3 0.29-2.64 0.59c-4.91 1.05-9.34 1.63-14.36 1.41q0.17 1.47 0.35 2.99 0.66 5.6 1.3 11.19 0.28 2.41 0.57 4.81 0.41 3.49 0.81 6.99 0.12 1.03 0.25 2.1c0.79 6.97 1.22 13.89 1.72 20.92-146.52 0-293.04 0-444 0 0-6.98 0.1-13.52 0.87-20.39q0.14-1.23 0.27-2.51 0.43-3.89 0.86-7.79 0.29-2.67 0.58-5.34 0.7-6.49 1.42-12.97-0.98-0.15-1.98-0.3c-9.54-1.5-18.92-3.57-28.33-5.7q-1.28-0.29-2.6-0.59c-12.76-2.89-25.5-5.89-38.2-9.08q-2.56-0.64-5.13-1.27-3.58-0.88-7.15-1.8-1.04-0.25-2.12-0.51c-4.31-1.13-7.37-2.53-10.49-5.75-2.43-7.94 1.62-18.54 3.5-26.44q0.27-1.14 0.54-2.33c15.96-68.11 47.17-132.22 106.46-172.51q2.6-1.79 5.12-3.69c19.14-14.04 43.99-27.95 68.38-27.03q0-0.99 0-2-1.66-0.09-3.38-0.19c-9.93-1.31-18.1-7.47-24.62-14.81-1.82-2.84-3.38-5.68-4.84-8.71-1.07-2.41-1.07-2.41-3.16-4.29q-0.6 1.06-1.21 2.16c-6.3 10.61-14.36 17.01-26.02 20.92-11.83 2.88-23.59 1.5-34.19-4.44-10.82-6.77-18.64-16.07-21.58-28.64-0.48-3.33-0.8-6.64-1-10q-0.87 0.31-1.76 0.62-1.16 0.4-2.37 0.82c-1.14 0.4-1.14 0.4-2.32 0.81-13.77 4.06-28.74 2.8-41.41-3.72-11.79-6.89-18.87-16.49-23.45-29.16-2.29-10.97-1.32-22.18 3.31-32.37q0.98-1.48 2-3-1.43 0.07-2.89 0.14c-12.99 0.36-22.33-2.1-32.11-11.14-9.14-8.7-13.83-20.07-14.33-32.6-0.28-14.26 4.19-25.54 13.33-36.4 5.04-4.88 10.64-8.11 17-11q-1.26-1.45-2.56-2.94c-10.57-12.39-18.49-24.53-17.72-41.66 1.76-15.06 6.86-27.15 18.28-37.4 9.68-6.89 18.33-9.09 30-10 1.3-2.85 1.3-2.85 0.26-5.02q-1.13-2.21-2.25-4.43c-4.33-10.94-3.17-25.57 1.11-36.37 5.18-11.44 13.28-20.99 24.88-26.18 8.12-3.05 16.53-4.39 25-2q0.14-1.08 0.29-2.19c0.82-3.25 2.16-5.07 4.15-7.75 5.29-8.2 5.34-16.55 5.93-26.02 3.47-54.84 13.52-113.68 52.63-155.04q1.63-1.93 3.25-3.88c34.92-39.82 91.63-59.95 143.24-64 4.5-0.21 9-0.2 13.51-0.12q0.09-1.48 0.19-3c1.02-6.93 5.43-12.39 10.79-16.68 13.12-8.54 31.03-8.67 43.72 0.66z"/>
		<path class="s1" d="m530.7 66.98c5.29 4.49 8.87 8.5 11.3 15.02q0 1.97 0 4 1.08-0.02 2.2-0.04c52.72-0.53 109.99 19.04 148.5 55.61q1.99 1.99 3.92 4.04c1.35 1.51 1.35 1.51 3.38 2.39q0 0.99 0 2 0.98 0 2 0 2.15 2.36 4.12 4.87 1.21 1.52 2.45 3.08 1.2 1.5 2.43 3.05 1.01 1.2 2.05 2.43c32.91 39.25 41.82 95.66 44.36 145.08q0.11 1.83 0.21 3.71 0.19 3.49 0.29 6.99c0.34 6.29 1.08 9.85 5.61 14.32 2.05 2.03 3.14 4.31 4.35 6.91q0.62 1.29 1.25 2.62 0.43 0.95 0.88 1.94c0.84-0.24 0.84-0.24 1.69-0.48 9.84-2.21 19.34 0.14 28.01 4.99 11.71 7.71 19.72 18.63 22.92 32.37 0.65 3.64 0.72 7.24 0.69 10.93q0 1.17 0 2.38c-0.1 5.43-0.81 10.28-2.56 15.45-0.88 2.76-1.32 5.5-1.75 8.36q1.35 0.15 2.75 0.3c12.76 1.56 22.32 5.1 31.25 14.7q0.72 0.75 1.47 1.52c10.13 11.02 12.21 23.53 11.83 37.97-0.61 12-5.72 23.13-14.37 31.52q-2.44 2.03-4.93 3.99 0 0.99 0 2 1.03 0.49 2.09 1c11.03 5.58 20.44 13.86 24.55 25.86 4.49 14.68 4.87 28.03-2.45 42.01-6.19 10.42-14.7 18.15-26.58 21.71-5.81 0.94-11.75 0.63-17.61 0.42 0.93 1.73 0.93 1.73 1.87 3.5 5.38 10.94 5.82 23.28 2.17 34.91-5.46 13.59-14.91 22.64-28.05 28.78-13.28 5.41-28.92 3.98-41.99-1.19-0.02 0.98-0.02 0.98-0.04 1.98-0.61 11.63-4.88 21.59-12.96 30.02-11.03 9.9-23.34 12.96-37.92 12.19-12.21-1.12-21-8.17-28.64-17.26-1.89-2.53-3.2-5.02-4.44-7.93-1.59 2.38-2.88 4.66-4.19 7.19-6.24 11.18-14.8 17.58-27 21.36-8.16 1.3-16.31 0.19-24.44-0.93-1.47-0.18-1.47-0.18-2.98-0.38-5.59-0.74-10.95-1.75-16.39-3.24-3.42-10.63-4.53-19.88-4-31 1.35-0.51 1.35-0.51 2.72-1.03 49.08-18.94 92.57-53.48 114.32-102.3 4.87-11.31 8.76-22.79 11.96-34.67q0.8 0.11 1.62 0.22c17.83 2.11 35.14 1.46 50.38-9.22 14.6-11.69 24.38-26.19 27-45 1.52-17.23-1.52-33.02-12.63-46.69-10.97-11.78-26.05-13.65-41.37-14.31q-0.22 0.85-0.45 1.72c-2.09 7.21-5.16 12-11.43 16.22-7.94 2.7-14.79 0.67-22.12-2.94-11.82-7.42-20.03-19.34-23.75-32.69-1.3-6.05-1.53-11.94-1.56-18.12-0.01-1.33-0.01-1.33-0.02-2.68 0.06-5.48 0.79-10.24 2.33-15.51q-1.88 0.49-3.81 1c-14.31 3.07-28.27-0.32-40.54-8.1-8.46-6.07-16.19-14.8-18.34-25.27q-0.15-1.29-0.31-2.63-0.67 0.58-1.36 1.17c-10.23 8.29-20.81 10.08-33.64 8.83-12.31-2.56-25.47-9.84-32.64-20.42-2.98-5.51-4.06-10.34-4.36-16.58q-0.38 0.92-0.78 1.87c-5.64 12.48-15.26 19.83-27.68 25.19-13.48 4.66-29 3.93-42.03-1.74-10.87-5.71-19.09-13.62-23.8-25.03-1.17-3.75-1.46-7.38-1.71-11.29q-0.97 0.22-1.98 0.44-1.3 0.27-2.65 0.56-1.28 0.28-2.6 0.56c-2.96 0.47-5.77 0.51-8.77 0.44q-0.2 1.05-0.41 2.13c-3.27 14.99-10 27.98-22.9 36.68-13.3 7.97-28.11 10.49-43.25 6.88-4.1-1.1-7.68-2.72-11.44-4.69q-0.22 1.34-0.45 2.71c-2.23 12.02-6.64 21.72-16.55 29.29-9.67 5.73-18.61 9.41-30 9 0.21 0.81 0.21 0.81 0.43 1.64 1.36 5.61 1.92 10.85 1.88 16.61q-0.01 1.23-0.01 2.5c-0.25 12.27-2.78 22.96-11.12 32.28-6.36 6.07-13.4 9.1-22.18 9.53-6.14-0.23-11.05-1.89-16-5.56-3.23-4.36-3.09-7.71-3-13-16.45 0.27-30.25 1.14-42.94 12.78-10.94 11.53-13.79 27.99-13.4 43.4 1.55 17.24 8.33 33.09 21.34 44.82 7 5.41 14.72 9 23 12q0.99 0.37 2.01 0.75c9.98 3.11 21.77 1.44 31.99 0.25 1.43 3.7 2.81 7.38 4 11.17 15.81 50.18 51.3 89.56 97 114.83 9.13 4.73 18.43 9.23 28 13q-0.23 7.02-1 14-0.11 1.07-0.23 2.17c-0.62 4.98-1.51 9.32-3.77 13.83-4.11 2.78-8.14 3.37-13 4-1.64 0.32-1.64 0.32-3.32 0.65-13.92 2.58-27.11 2.3-39.49-5.34-8.09-5.92-13.23-13.19-17.19-22.31-1.89 2.34-3.77 4.67-5.51 7.12-6.76 9.31-15.16 14.59-26.49 16.88-14.08 1.59-25.74-1.11-37-10-10.12-8.67-14.86-18.94-15.89-32.13-0.05-0.93-0.05-0.93-0.11-1.87q-0.87 0.31-1.76 0.62-1.16 0.4-2.37 0.82c-1.14 0.4-1.14 0.4-2.32 0.81-13.77 4.06-28.74 2.8-41.41-3.72-11.79-6.89-18.87-16.49-23.45-29.16-2.29-10.97-1.32-22.18 3.31-32.37q0.98-1.48 2-3-1.43 0.07-2.89 0.14c-12.99 0.36-22.33-2.1-32.11-11.14-9.14-8.7-13.83-20.07-14.33-32.6-0.28-14.26 4.19-25.54 13.33-36.4 5.04-4.88 10.64-8.11 17-11q-1.26-1.45-2.56-2.94c-10.57-12.39-18.49-24.53-17.72-41.66 1.76-15.06 6.86-27.15 18.28-37.4 9.68-6.89 18.33-9.09 30-10 1.3-2.85 1.3-2.85 0.26-5.02q-1.13-2.21-2.25-4.43c-4.33-10.94-3.17-25.57 1.11-36.37 5.18-11.44 13.28-20.99 24.88-26.18 8.12-3.05 16.53-4.39 25-2q0.14-1.08 0.29-2.19c0.82-3.25 2.16-5.07 4.15-7.75 5.29-8.2 5.34-16.55 5.93-26.02 3.47-54.84 13.52-113.68 52.63-155.04q1.63-1.93 3.25-3.88c34.92-39.82 91.63-59.95 143.24-64 4.5-0.21 9-0.2 13.51-0.12q0.09-1.48 0.19-3c1.02-6.93 5.43-12.39 10.79-16.68 13.12-8.54 31.03-8.67 43.72 0.66z"/>
		<path class="s2" d="m614 713c36.5 2.52 70.07 15.16 100 36q0.84 0.58 1.7 1.18c7 4.93 13.34 10.42 19.57 16.28 2.18 2.02 4.38 3.95 6.67 5.85 10.3 8.98 19.03 19.69 27.06 30.69 0.71 0.96 0.71 0.96 1.43 1.93 7.32 9.9 13.73 20.05 19.45 30.95q1.54 2.91 3.13 5.79c15.86 29.56 31.54 71.41 32.24 105.02q0.04 1.11 0.08 2.26c-0.43 2.67-1.27 3.33-3.33 5.05-3.59 1.51-7.38 2.45-11.13 3.5q-1.76 0.5-3.58 1.02c-20.53 5.7-41.46 10.03-62.29 14.48q-1.3 0.29-2.64 0.59c-4.91 1.05-9.34 1.63-14.36 1.41q0.17 1.47 0.35 2.99 0.66 5.6 1.3 11.19 0.28 2.41 0.57 4.81 0.41 3.49 0.81 6.99c0.12 1.04 0.12 1.04 0.25 2.1 0.79 6.97 1.22 13.89 1.72 20.92-146.52 0-293.04 0-444 0 0-6.98 0.1-13.52 0.87-20.39q0.14-1.23 0.27-2.51 0.43-3.89 0.86-7.79 0.29-2.67 0.58-5.34 0.7-6.49 1.42-12.97c-0.98-0.15-0.98-0.15-1.98-0.3-9.54-1.5-18.92-3.57-28.33-5.7q-1.28-0.29-2.6-0.59c-12.76-2.89-25.5-5.89-38.2-9.08q-2.56-0.64-5.13-1.27-3.58-0.88-7.15-1.8-1.04-0.25-2.12-0.51c-4.31-1.13-7.37-2.53-10.49-5.75-2.43-7.94 1.62-18.54 3.5-26.44q0.27-1.14 0.54-2.33c15.96-68.11 47.17-132.22 106.46-172.51q2.6-1.79 5.13-3.69c20.58-15.11 43.13-24.87 68.37-28.03q1.24-0.16 2.51-0.32c14.73-1.82 14.73-1.82 21.49-1.68q0.31 1.09 0.63 2.2c6.3 20.58 20.16 35.86 39 45.96 9.09 4.66 18.53 8.15 28.37 10.84q0.97 0.27 1.97 0.54c32.92 8.49 73.75 3.51 103.03-13.54 3.81-2.5 7.43-5.17 11-8q0.94-0.7 1.92-1.42c12.34-9.63 18.61-24.06 23.08-38.58z"/>
		<path class="s3" d="m506.93 297.68q5.4 0 10.81-0.04c15.95-0.04 31.47 1.12 47.26 3.36q1.1 0.15 2.23 0.31 5.78 0.82 11.52 1.88 1.7 0.31 3.45 0.63c38.46 7.29 73.69 21.53 108.88 38.16 33.82 19.11 33.82 19.11 70.3 21.9 3.98-2.85 6.21-5.58 7.08-10.49q0.39-3.69 0.54-7.39c8.41-3.76 16.63-2.45 25.08 0.68 13.01 5.89 21.7 16.18 26.92 29.32 1.71 5.72 2.35 10.86 2.31 16.81q0 1.17 0 2.38c-0.1 5.43-0.81 10.28-2.56 15.45-0.88 2.76-1.32 5.5-1.75 8.36q1.35 0.15 2.75 0.3c12.76 1.56 22.32 5.1 31.25 14.7q0.72 0.75 1.47 1.52c10.13 11.02 12.21 23.53 11.83 37.97-0.61 12-5.72 23.13-14.37 31.52q-2.44 2.03-4.93 3.99 0 0.99 0 2 1.03 0.49 2.09 1c11.03 5.58 20.44 13.86 24.55 25.86 4.49 14.68 4.87 28.03-2.45 42.02-6.19 10.41-14.7 18.14-26.58 21.7-5.81 0.94-11.75 0.63-17.61 0.42q0.92 1.72 1.88 3.5c5.37 10.94 5.81 23.28 2.16 34.91-5.46 13.59-14.91 22.64-28.05 28.78-13.28 5.41-28.92 3.98-41.99-1.19q-0.02 0.98-0.04 1.98c-0.61 11.63-4.88 21.59-12.96 30.02-11.03 9.9-23.34 12.96-37.92 12.19-12.21-1.12-21-8.17-28.64-17.26-1.89-2.53-3.2-5.02-4.44-7.93-1.59 2.38-2.88 4.66-4.19 7.19-6.24 11.18-14.8 17.58-27 21.36-8.16 1.3-16.31 0.19-24.43-0.92q-1.47-0.19-2.99-0.39c-5.59-0.74-10.95-1.75-16.39-3.24-3.42-10.63-4.53-19.88-4-31q1.34-0.51 2.72-1.03c49.08-18.94 92.57-53.48 114.32-102.3 4.87-11.31 8.76-22.79 11.96-34.67q0.8 0.11 1.63 0.22c17.82 2.11 35.13 1.46 50.37-9.22 14.6-11.69 24.38-26.19 27-45 1.52-17.23-1.52-33.02-12.62-46.69-10.98-11.78-26.06-13.65-41.38-14.31q-0.22 0.85-0.45 1.72c-2.09 7.21-5.16 12-11.42 16.22-7.95 2.7-14.8 0.67-22.13-2.94-11.82-7.42-20.03-19.34-23.75-32.69-1.3-6.05-1.53-11.94-1.56-18.12q-0.01-1.32-0.02-2.68c0.06-5.48 0.79-10.24 2.33-15.51-1.89 0.5-1.89 0.5-3.81 1-14.31 3.07-28.27-0.32-40.54-8.1-8.46-6.07-16.19-14.8-18.34-25.27-0.15-1.3-0.15-1.3-0.31-2.63q-0.67 0.58-1.36 1.17c-10.23 8.29-20.81 10.08-33.64 8.83-12.31-2.56-25.47-9.84-32.64-20.42-2.98-5.51-4.06-10.34-4.36-16.58q-0.38 0.92-0.78 1.87c-5.64 12.48-15.26 19.83-27.68 25.19-13.48 4.66-29 3.93-42.03-1.74-10.97-5.76-18.66-13.55-23.78-24.79-0.7-2.44-1.01-4.67-1.28-7.19q-0.12-1.21-0.26-2.46-0.09-0.93-0.19-1.88c14.32-1.92 28.49-2.34 42.93-2.32z"/>
		<path class="s2" d="m313 747c0.64 1.46 0.64 1.46 1.29 2.95 7.99 17.78 18.11 34.39 29.42 50.25q1.88 2.64 3.74 5.3c10.1 14.38 20.96 28.17 32.11 41.75q1.91 2.33 3.8 4.67c8.56 10.58 17.53 20.82 26.68 30.9q2.66 2.97 5.27 5.99c4.56 5.22 9.27 10.29 13.99 15.36q1.72 1.85 3.44 3.71c7.94 8.58 16.02 16.99 24.36 25.19q1 0.98 2.02 1.99 0.87 0.85 1.76 1.73c1.83 1.9 3.55 3.85 5.27 5.86 3.71 4.25 7.62 8.25 11.62 12.22 1.11 1.11 1.11 1.11 2.25 2.24q2.4 2.39 4.8 4.78 3.79 3.77 7.57 7.55 8.02 8 16.05 16 9.34 9.3 18.67 18.61 3.74 3.73 7.48 7.45 2.27 2.27 4.54 4.54 1.05 1.03 2.12 2.1 0.94 0.94 1.91 1.91 0.82 0.82 1.67 1.66c1.17 1.29 1.17 1.29 1.17 2.29-84.81 0-169.62 0-257 0 0-6.98 0.1-13.52 0.87-20.39q0.14-1.23 0.27-2.51 0.43-3.89 0.86-7.79 0.29-2.67 0.58-5.34 0.7-6.49 1.42-12.97c-0.98-0.15-0.98-0.15-1.98-0.3-9.54-1.5-18.92-3.57-28.33-5.7q-1.28-0.29-2.6-0.59c-12.76-2.89-25.5-5.89-38.2-9.08q-2.56-0.64-5.13-1.27-3.58-0.88-7.15-1.8-1.04-0.25-2.12-0.51c-4.31-1.13-7.37-2.53-10.49-5.75-2.43-7.94 1.62-18.54 3.5-26.44q0.27-1.14 0.54-2.33c15.17-64.73 44.02-126.94 98.96-167.23q1.47-1.1 2.99-2.23c6.57-4.77 6.57-4.77 10.01-4.77z"/>
		<path class="s4" d="m448 303c-3.83 15.42-9.65 28.65-23.31 37.81-13.3 7.97-28.11 10.49-43.25 6.88-4.1-1.1-7.68-2.72-11.44-4.69q-0.22 1.34-0.45 2.71c-2.23 12.02-6.64 21.72-16.55 29.29-9.67 5.73-18.61 9.41-30 9q0.21 0.81 0.43 1.64c1.36 5.61 1.92 10.85 1.88 16.61q-0.01 1.23-0.01 2.5c-0.25 12.27-2.78 22.96-11.12 32.28-6.36 6.07-13.4 9.1-22.18 9.53-6.14-0.23-11.05-1.89-16-5.56-3.23-4.36-3.09-7.71-3-13-16.45 0.27-30.25 1.14-42.94 12.78-10.94 11.53-13.79 27.99-13.4 43.4 1.55 17.24 8.33 33.09 21.34 44.82 7 5.41 14.72 9 23 12q0.99 0.37 2.01 0.75c9.98 3.11 21.77 1.44 31.99 0.25 1.43 3.7 2.81 7.38 4 11.17 15.81 50.18 51.3 89.56 97 114.83 9.13 4.73 18.43 9.23 28 13q-0.23 7.02-1 14c-0.11 1.07-0.11 1.07-0.23 2.17-0.62 4.98-1.51 9.32-3.77 13.83-4.11 2.78-8.14 3.37-13 4-1.64 0.32-1.64 0.32-3.32 0.65-13.92 2.58-27.11 2.3-39.49-5.34-8.09-5.92-13.23-13.19-17.19-22.31-1.89 2.34-3.77 4.67-5.51 7.13-6.76 9.3-15.16 14.58-26.49 16.87-14.08 1.59-25.74-1.11-37-10-10.12-8.67-14.86-18.94-15.89-32.13q-0.05-0.92-0.11-1.87-0.87 0.31-1.76 0.62-1.16 0.4-2.37 0.82c-1.14 0.4-1.14 0.4-2.32 0.81-13.77 4.06-28.74 2.8-41.41-3.72-11.79-6.89-18.87-16.49-23.45-29.15-2.29-10.98-1.32-22.19 3.31-32.38q0.99-1.48 2-3-1.43 0.07-2.89 0.14c-12.99 0.36-22.33-2.1-32.11-11.14-9.14-8.7-13.83-20.07-14.33-32.6-0.28-14.26 4.19-25.54 13.33-36.4 5.04-4.88 10.64-8.11 17-11q-1.26-1.45-2.56-2.94c-10.57-12.39-18.49-24.53-17.72-41.66 1.76-15.06 6.86-27.15 18.28-37.4 9.68-6.89 18.33-9.09 30-10 1.3-2.85 1.3-2.85 0.26-5.02q-1.13-2.21-2.25-4.43c-4.33-10.94-3.17-25.57 1.11-36.37 5.18-11.44 13.28-20.99 24.88-26.18 7.65-2.88 16.06-4.65 24-2 0.13 1.19 0.13 1.19 0.26 2.41 0.9 6.74 1.63 10.97 6.74 15.59 5.85 3.51 12.16 2.58 18.62 1.27 16.22-4.14 31.38-11.92 46.42-19.09 89.91-42.85 89.91-42.85 123.96-42.18z"/>
		<path class="s5" d="m678 272q1.5 0.72 3.05 1.47c21.73 10.57 43.22 22.92 61.28 39.13 1.92 1.72 3.82 3.34 5.84 4.92q1.52 1.19 3.08 2.42 1.33 1.03 2.7 2.09c2.23 2.15 2.35 3.09 3.05 5.97q1.97 1.06 4 2c1.63 1.77 1.63 1.77 3.12 3.81q0.75 1 1.51 2.02c4.05 6.41 4.13 12.76 3.37 20.17-1.48 4.05-4.36 6.77-8 9-21.06 7.02-49.37-12.38-67.89-21.24-39.39-18.85-79.27-33.6-122.48-41.01q-1.31-0.23-2.66-0.46c-18.78-3.03-37.41-3.66-56.41-3.6-1.85 0-1.85 0-3.75 0-18.13 0.04-35.86 0.54-53.81 3.31q-1.44 0.2-2.92 0.41c-44.26 6.16-85.58 24.22-125.59 43.32-9.75 4.65-19.52 9.13-29.55 13.14q-1.44 0.58-2.92 1.18c-9.61 3.75-19.57 7.45-30.02 5.95-4.82-2.37-8.66-5.76-10.75-10.81q-0.12-1.08-0.25-2.19-0.22-1.72-0.44-3.5c0.08-7.01 4.13-14.04 8.83-19.04 1.29-1.22 1.29-1.22 2.61-2.46 1.24-1.28 1.24-1.28 2.51-2.58 6.16-6.29 12.55-11.98 19.49-17.42 1.44-1.17 1.44-1.17 2.91-2.36 62.87-49.98 151.38-73.35 390.09-33.64z"/>
		<path class="s6" d="m375.25 717.54c2.06-0.29 2.06-0.29 5.75 0.46 1.79 2.09 2.93 4.29 4.21 6.73 2.13 3.9 4.59 7.46 7.17 11.08q0.75 1.07 1.54 2.17c6.18 8.65 12.67 17.08 19.15 25.5q2.69 3.51 5.35 7.04c7.12 9.4 14.49 18.56 22.04 27.63q3.1 3.75 6.17 7.54c3.9 4.78 7.91 9.45 11.94 14.12q4.47 5.2 8.74 10.57c4.47 5.51 9.31 10.65 14.2 15.79q5.56 5.85 10.86 11.96c3.85 4.41 7.87 8.68 11.87 12.97q1.66 1.79 3.31 3.58c13.08 14.19 26.77 27.79 40.43 41.43q5.06 5.05 10.11 10.12 3.95 3.95 7.9 7.89 1.86 1.86 3.73 3.73c5.7 5.72 11.4 11.39 17.55 16.64 2.92 2.55 5.63 5.31 8.36 8.07q0.88 0.89 1.79 1.81 3.73 3.76 7.45 7.52c8.91 9.02 8.91 9.02 18.31 17.51 4.38 3.85 8.38 8.12 12.46 12.28 4.08 4.12 8.24 8.04 12.63 11.82 1.95 1.69 3.8 3.47 5.61 5.31q0.82 0.84 1.67 1.71c0.72 0.73 0.72 0.73 1.45 1.48q0.99 0.99 2 2c-94.93 14.21-94.93 14.21-126.39-8.02-12.83-9.68-23.99-21.07-34.73-32.98q-1.32-1.46-2.68-2.96c-10.11-11.29-19.74-22.91-28.97-34.93q-6.95-9-15.04-16.98-1.27-1.26-2.57-2.55-1.29-1.27-2.62-2.58c-5.35-5.27-10.62-10.53-15.48-16.26-1.6-1.83-3.28-3.54-5.02-5.24-2.99-2.95-5.75-6.03-8.49-9.21q-2.94-3.33-5.96-6.57c-4.84-5.21-9.42-10.54-13.88-16.08-2.11-2.56-4.3-5.01-6.54-7.45-3.99-4.38-7.65-8.94-11.27-13.61q-4.44-5.71-9.05-11.3c-19.77-24.02-37.54-49.91-52.25-77.34q-0.56-1.05-1.14-2.13c-2.03-3.86-3.67-7.61-4.92-11.81 6.86-5.84 14.18-10.04 22.19-14.12q1.68-0.89 3.42-1.81c12.33-6.36 24.17-9.75 37.64-12.53z"/>
		<path class="s7" d="m420 711q0 0.99 0 2c0.85 0.39 0.85 0.39 1.71 0.79 2.48 1.31 4.6 2.85 6.85 4.52 31.04 21.76 81.22 21.81 117.44 15.69 17.28-3.2 37.68-7.62 50.5-20.44 2.14-1.95 3.08-2.53 6.01-2.75 3.93 0.37 7.67 1.2 11.49 2.19-2.3 11.86-6.45 20.52-14 30q-0.89 1.15-1.8 2.34c-16.17 19.7-42.87 29.02-67.34 32.29-7.2 0.69-14.38 0.72-21.61 0.68q-1.19 0-2.41-0.01c-27.7-0.13-55.21-5.78-76.84-24.3q-1.21-0.99-2.46-2.02c-10.22-8.71-20.28-20.43-22.35-34.17q-0.09-1.38-0.19-2.81 1.87-0.72 3.75-1.44 1.04-0.4 2.11-0.81c3.18-1.12 5.75-1.75 9.14-1.75z"/>
		<path class="s8" d="m597 681c0.06 1.67 0.06 1.67 0.11 3.37 0.35 8.28 0.9 15.8 3.89 23.63q0.49 1.48 1 3c-32.44 26.2-76.68 28.82-116.87 25.7-22.54-2.45-48.21-7.34-65.13-23.7-1.61-4.04-0.7-7.19 0.37-11.31 1.23-4.92 2.14-9.65 2.63-14.69q0.49 0 1 0 0.49-2.46 1-5c5.18 1.36 10.34 2.78 15.45 4.39 12.05 3.8 24.05 6.69 36.55 8.61 1.15 0.18 1.15 0.18 2.32 0.36 25.32 3.69 51.7 2.9 76.68-2.36q1.16-0.23 2.36-0.47c12.04-2.4 26.98-11.53 38.64-11.53z"/>
		<path class="s9" d="m208 955q12.85 2.98 25.66 6.11 1.08 0.27 2.2 0.54 2.23 0.55 4.47 1.1c17.51 4.29 35.07 8.35 52.67 12.25 0 16.39-2.33 32.7-4 49-29.37 0-58.74 0-89 0 0.6-8.95 1.21-17.84 2.12-26.75q0.16-1.54 0.32-3.12 0.33-3.22 0.66-6.44 0.51-4.92 1-9.83 0.32-3.15 0.65-6.3c0.14-1.46 0.14-1.46 0.29-2.95 0.5-4.79 1.18-9.09 2.96-13.61z"/>
		<path class="s10" d="m814 956c1.98 15.08 3.94 30.15 5.75 45.25q0.19 1.53 0.39 3.11 0.17 1.46 0.34 2.97 0.15 1.24 0.31 2.53c0.32 4.7 0.21 9.42 0.21 14.14-29.04 0-58.08 0-88 0-5.06-40.51-5.06-40.51-5-49q1.1-0.2 2.24-0.41c16.36-3 32.59-6.36 48.76-10.21q1.18-0.28 2.39-0.57c9.3-2.22 18.55-4.55 27.77-7.09 2.84-0.72 2.84-0.72 4.84-0.72z"/>
		<path class="s11" d="m430.91 429.25c7.58 5.91 9.59 13.03 10.77 22.33 1.07 11.52 1.41 24.96-5.24 34.98-4.51 5.14-9.88 7.91-16.62 8.92-7.66 0.34-13.51-1.08-19.82-5.48-6.84-6.48-8.7-15.64-9.2-24.69-0.29-23.98-0.29-23.98 7.2-32.31 9.27-9.31 21.7-11.11 32.91-3.75z"/>
		<path class="s11" d="m620.98 429.22c7.06 5.42 9.38 13.17 10.7 21.7 1.28 12.43 1.17 25.72-6.15 36.39-3.99 4.41-9.39 7.38-15.32 7.96-7.79 0.24-13.92-0.36-20.21-5.27-7.68-8.69-8.36-17.51-8.38-28.69q-0.03-1.81-0.07-3.68c-0.03-10.27 1.6-19.59 8.87-27.26 8.74-7.57 21.1-6.97 30.56-1.15z"/>
		<path class="s12" d="m458.62 553.19c4.16 1.42 6.29 4.8 9 8.13 8.1 9.11 21.39 14.47 33.38 15.68 18.96 1.11 36.63-0.5 51.94-13 2.32-2.1 4.08-4.37 5.93-6.88 1.77-2.13 2.66-3 5.36-3.7 3.94-0.18 6.07 0.06 9.27 2.45 2.73 3.87 2.9 6.38 2.5 11.13-5.44 11.92-22.23 20.49-33.87 25.26-9.79 3.4-19.28 4.21-29.57 4.11q-1.8 0.02-3.66 0.04c-22.7-0.07-42.52-8.75-58.9-24.41-2.69-3.81-3.62-6.46-3.4-11.06 0.4-1.94 0.4-1.94 2.34-4.94 3.48-2.27 5.55-3.03 9.68-2.81z"/>
		<path class="s13" d="m314 875c2.88 1.75 2.88 1.75 5 5 0.81 8.04-0.33 16.19-1.35 24.16-1.46 11.96-2.65 23.92-3.73 35.92q-0.78 8.68-1.58 17.36-0.16 1.77-0.33 3.59-1.86 20.18-3.82 40.34c-0.17 1.73-0.17 1.73-0.34 3.49q-0.92 9.57-1.85 19.14c-5.61 0-11.22 0-17 0-0.1-7.49 0.24-14.72 1.07-22.16q0.17-1.6 0.34-3.25 0.57-5.33 1.15-10.65 0.84-7.76 1.65-15.52c0.11-1.02 0.11-1.02 0.22-2.06 1.16-10.96 2.19-21.93 3.16-32.9q0.34-3.83 0.68-7.67 0.23-2.53 0.46-5.07 0.11-1.24 0.23-2.52 0.67-7.48 1.3-14.96 0.4-4.7 0.83-9.39 0.2-2.19 0.37-4.38 0.25-3.02 0.54-6.03c0.14-1.69 0.14-1.69 0.29-3.42 0.84-3.57 2.19-5.39 4.71-8.02 2.89-1.44 4.8-1.38 8-1z"/>
		<path class="s13" d="m710 874.44c3.66 0.68 5.35 1.99 8 4.56 1.26 2.53 1.36 4.63 1.64 7.45q0.17 1.7 0.35 3.46 0.19 1.86 0.37 3.78 0.3 2.96 0.6 5.93 0.31 3.11 0.62 6.22 0.8 7.94 1.63 15.87 0.79 7.7 1.58 15.41 0.4 3.94 0.81 7.89 0.6 5.81 1.19 11.61 0.18 1.76 0.37 3.56 0.17 1.62 0.34 3.3 0.14 1.41 0.29 2.87c0.2 2.57 0.25 5.08 0.21 7.65q1.97 0.49 4 1-1.97 0-4 0 0.17 1.47 0.35 2.99 0.66 5.6 1.3 11.19 0.28 2.41 0.57 4.81c1.17 10 2.14 19.96 2.78 30.01-5.61 0-11.22 0-17 0q-2.16-20.61-4.3-41.23-0.62-5.99-1.24-11.98-1.68-16.13-3.34-32.26-0.78-7.52-1.56-15.05-0.75-7.21-1.49-14.42-0.27-2.69-0.56-5.38-0.38-3.73-0.76-7.46-0.12-1.07-0.23-2.17c-1.3-12.94-1.3-12.94 1.61-17.05 2.87-2 2.87-2 5.87-2.56z"/>
		<path class="s14" d="m526.82 495.13c4.9 3.73 7.99 8.85 9.18 14.87 0.5 4.98 0.58 8.84-1.69 13.38-5.46 6.19-10.85 9.24-19.07 9.94-9.44 0.38-16.67-0.55-24.12-6.69-3.93-4.87-5.77-8.95-5.53-15.2 1.18-7.01 4.91-12.96 10.53-17.25 10.23-6.44 20.6-5.32 30.7 0.95z"/>
		<path class="s15" d="m413.31 366.69q1.47-0.03 2.98-0.05c9.05-0.01 17.59 1.48 24.71 7.36 2.59 3.41 2.51 6.84 2 11-1.99 2.85-3.5 4.56-6.9 5.56-3.13 0.48-5.69 0.51-8.82-0.03-14.66-2.36-27.1 0.31-40.59 6.22-4.94 2.11-8.35 3.11-13.69 2.25-2.5-1.62-2.5-1.62-4-4-0.81-3.95 0.03-6.51 1.94-9.94 5.85-8.57 14.49-12.72 24.06-16.06q1.56-0.55 3.16-1.12c5.1-1.17 9.94-1.21 15.15-1.19z"/>
		<path class="s16" d="m643 377c8.02 6.05 8.02 6.05 10 11 0.31 3.53 0.34 6.12-0.94 9.44-3.38 2.56-6.96 2.04-11.06 1.56-3.54-1.04-6.87-2.45-10.25-3.94q-2.6-1.11-5.2-2.21-1.13-0.49-2.29-1c-3.91-1.47-7.62-1.98-11.77-1.98q-1.25-0.01-2.53-0.01-1.31 0.01-2.65 0.02c-1.34-0.01-1.34-0.01-2.71-0.01-4.56 0.02-8.96 0.2-13.47 0.88-3.64 0.47-4.14 0.25-7.69-1.56-3.02-2.71-3.36-3.4-3.75-7.44 0.38-4.59 1.21-6.35 4.31-9.75 17.97-10.53 43.42-5.99 60 5z"/>
		<path class="s17" d="m530.7 66.98c5.27 4.47 8.97 8.48 11.3 15.02-0.42 2.23-0.42 2.23-1 4q-1.11-0.11-2.26-0.21c-9.15-0.8-18.25-0.95-27.43-0.92-1.11 0.01-1.11 0.01-2.25 0.01-11.04 0.01-22.05 0.24-33.06 1.12 0.97-8.56 4.24-14.29 10.98-19.68 13.12-8.54 31.03-8.67 43.72 0.66z"/>
	</g>
</svg>