<svg version="1.2" xmlns="http://www.w3.org/2000/svg" viewBox="0 0 1024 1024" width="500" height="500">
	<style>
		.s0 { fill: #fec4a3 } 
		.s1 { fill: #7dbcf3 } 
		.s2 { fill: #fecb30 } 
		.s3 { fill: #e99a01 } 
		.s4 { fill: #20211f } 
		.s5 { fill: #20201f } 
		.s6 { fill: #7cbcf3 } 
		.s7 { fill: #309d4b } 
		.s8 { fill: #feb41c } 
		.s9 { fill: #99d2fa } 
		.s10 { fill: #201f1e } 
		.s11 { fill: #fe9b7a } 
		.s12 { fill: #1d1c1c } 
		.s13 { fill: #d66b5a } 
		.s14 { fill: #e89802 } 
		.s15 { fill: #fea973 } 
		.s16 { fill: #4b8ccc } 
		.s17 { fill: #4b8ccb } 
		.s18 { fill: #fcab0e } 
		.s19 { fill: #eed2b1 } 
		.s20 { fill: #efefee } 
		.s21 { fill: #131313 } 
		.s22 { fill: #101019 } 
		.s23 { fill: #1b1817 } 
		.s24 { fill: #febc96 } 
	</style>
	<g id="Layer 1">
		<path class="s0" d="m539.29 74.44c5.13 4.68 8.65 9.93 10.71 16.56q0.04 2.5 0 5 0.99-0.02 2-0.05c57.81-1.17 116.29 10.64 159.75 51.01 2.28 2.12 2.28 2.12 5.04 4.18q1.09 0.91 2.21 1.86 0 0.99 0 2 0.83 0.34 1.69 0.69c15.81 8.96 27.26 32.24 34.31 48.31q0.51 1.15 1.03 2.33c14.76 34.04 17.69 70.05 18.2 106.78 0.03 1.88 0.03 1.88 0.06 3.79q0.14 9.48 0.19 18.97 0.04 3.55 0.08 7.09 0 1.61 0 3.27c0.08 6.5 1.03 11.75 3.44 17.77q0.5 1.45 1.01 2.94 0.44 1.26 0.89 2.56c4.15 12.06 7.78 23.96 10.1 36.5q0.21 1.08 0.42 2.19c1.82 9.71 3.06 19.42 3.93 29.26 0.11 1.2 0.11 1.2 0.22 2.42q0.09 1.05 0.18 2.13c0.26 2.11 0.54 3.99 1.25 6q2.4 1.39 4.84 2.7c13.56 8.18 20.87 21.55 25.16 36.3 4.42 19.46 0.71 40.47-9.81 57.27-3.37 4.92-7.82 11.05-13.19 13.73 0.54 8.75 1.77 17.22 3.5 25.81q0.39 1.93 0.79 3.92c2.76 13.44 6.65 26.51 10.62 39.63 20.12 67.06 20.12 67.06 20.29 93.63 0.01 1.1 0.01 1.1 0.02 2.23q0.03 3.55 0.03 7.09 0 1.21 0 2.44c-0.02 26.63-4.59 52.96-23.25 73.25q-1.04 1.16-2.12 2.36c-6.69 7.09-16.86 16.01-27.08 16.81-1.94 0.02-3.87-0.07-5.8-0.17-1.36-4.09-0.18-7.26 0.81-11.31 4.63-20.01 5.12-38.21 2.26-58.51-0.72-5.12-1.24-10-1.07-15.18q-0.98 0-2 0 0.07 1.42 0.13 2.88c0 4.85-1.11 9.37-2.25 14.06q-0.34 1.38-0.69 2.8c-6.34 25.11-17.79 45.28-40.19 59.26-8.78 5-8.78 5-12 5q0 0.99 0 2 0.8 0.36 1.63 0.72c3.01 1.63 5.67 3.63 8.37 5.72q0.85 0.65 1.72 1.33c5.05 3.95 9.77 8.2 14.44 12.58 2.59 2.42 5.24 4.76 7.9 7.09 38.7 34.78 58.49 85.92 70.88 135.25 0.28 1.1 0.28 1.1 0.56 2.23 2.04 8.16 3.78 16.31 5.12 24.62 0.2 1.23 0.2 1.23 0.41 2.48q0.49 2.99 0.97 5.98-72.38 0.35-144.77 0.51-8.54 0.02-17.09 0.04-1.69 0-3.44 0.01-27.54 0.07-55.09 0.21-28.27 0.14-56.53 0.17-17.44 0.02-34.89 0.14-11.95 0.08-23.91 0.06-6.9-0.02-13.8 0.05-6.33 0.07-12.65 0.02-2.28-0.01-4.56 0.04c-11.37 0.22-11.37 0.22-16.12-3.46-2.27-2.49-4.22-5.03-6.15-7.79q-1.37-1.49-2.82-2.88c-4.3-4.18-8.37-8.45-12.29-12.98-3.21-3.63-6.55-7.13-9.89-10.64-4.57-4.81-9.06-9.66-13.41-14.67-2.16-2.48-4.37-4.91-6.59-7.33q-5.19-5.68-10.23-11.48-3.04-3.45-6.14-6.83c-3.95-4.37-7.68-8.89-11.38-13.47-2.19-2.64-4.44-5.19-6.75-7.72-3.86-4.25-7.51-8.63-11.12-13.09q-3.17-3.86-6.42-7.65c-5.9-6.9-11.52-13.99-16.96-21.26q-0.78-1.03-1.57-2.1c-11.44-15.31-22.75-30.74-32.87-46.96q-0.71-1.13-1.45-2.29c-1.12-1.84-2.13-3.74-3.11-5.65q0.49-1.48 1-3-1.32-0.4-2.67-0.81c-9.5-3.4-17.23-10.21-24.33-17.19q-0.93-0.92-1.9-1.86c-15.69-16.61-21.36-40.32-25.1-62.14q-0.49 0-1 0c-4.45 25.57-3.43 52.39 5 77 0.74 2.22 0.74 2.22 1 4-2 2-2 2-5.87 2.5-12.95-0.39-23.87-11.09-32.45-19.87-21.07-24.46-24.54-60.56-22.5-91.4 2.26-27.62 10.53-54.76 18.31-81.22 12.3-36.92 12.3-36.92 15.51-75.01-1.38-2.03-1.38-2.03-3.44-3.56-8.55-7.84-14.45-18.32-17.56-29.44q-0.53-1.77-1.08-3.59c-4.15-16.95-1.49-36.38 7.14-51.34 5.92-9.36 12.87-17.04 22.94-22.07 0.5-2.01 0.5-2.01 0.71-4.47q0.16-1.42 0.33-2.88c0.16-1.56 0.16-1.56 0.34-3.15q0.38-3.31 0.78-6.62 0.2-1.7 0.41-3.46c7.67-61.66 7.67-61.66 18.43-72.42q0.16-2.37 0.17-4.75 0.02-1.52 0.04-3.08 0.02-1.67 0.04-3.39 0.04-3.58 0.09-7.16 0.02-1.87 0.05-3.8c0.79-62.23 3.92-124.79 48.61-172.82q0.87-0.93 1.76-1.9c38.7-41.1 91.75-59.74 147.45-61.98 9.59-0.29 19.19-0.2 28.79-0.12q0.17-1.81 0.34-3.68c1.05-8.31 6.21-14.71 12.6-19.86 15.11-10.73 35.98-9.78 50.35 1.98z"/>
		<path class="s1" d="m801 559q0.49 0 1 0c0.26 1.45 0.26 1.45 0.52 2.94 3.78 21.39 8.29 42.21 14.48 63.06q2.32 7.9 4.63 15.81c0.28 0.98 0.28 0.98 0.57 1.98 15.85 54.31 15.85 54.31 16 78.2 0.01 1.1 0.01 1.1 0.02 2.23q0.03 3.55 0.03 7.09 0 1.21 0 2.44c-0.02 26.63-4.59 52.96-23.25 73.25q-1.04 1.16-2.12 2.36c-6.69 7.09-16.86 16.01-27.08 16.81-1.94 0.02-3.87-0.07-5.8-0.17-1.36-4.09-0.18-7.26 0.81-11.31 4.63-20.01 5.12-38.21 2.26-58.51-0.72-5.12-1.24-10-1.07-15.18q-0.99 0-2 0 0.07 1.42 0.13 2.88c0 4.85-1.11 9.37-2.26 14.06q-0.33 1.38-0.68 2.8c-6.34 25.11-17.79 45.28-40.19 59.26-8.78 5-8.78 5-12 5q0 0.99 0 2c0.8 0.36 0.8 0.36 1.62 0.72 3.02 1.63 5.68 3.63 8.38 5.72 0.85 0.66 0.85 0.66 1.72 1.33 5.05 3.95 9.77 8.2 14.44 12.58 2.59 2.42 5.24 4.76 7.9 7.09 38.7 34.78 58.49 85.92 70.88 135.25 0.28 1.1 0.28 1.1 0.56 2.23 2.04 8.16 3.78 16.31 5.12 24.62q0.2 1.22 0.41 2.48 0.49 2.99 0.97 5.98-72.38 0.35-144.77 0.51-8.54 0.02-17.09 0.04-1.69 0-3.44 0.01-27.54 0.07-55.09 0.21-28.27 0.14-56.53 0.17-17.44 0.02-34.89 0.14-11.95 0.08-23.91 0.06-6.9-0.02-13.8 0.05-6.33 0.07-12.65 0.02-2.28-0.01-4.56 0.04c-11.37 0.22-11.37 0.22-16.12-3.46-2.27-2.49-4.22-5.03-6.15-7.79q-1.37-1.49-2.82-2.88c-4.3-4.18-8.37-8.45-12.29-12.98-3.21-3.63-6.55-7.13-9.89-10.64-4.57-4.81-9.06-9.66-13.41-14.67-2.16-2.48-4.37-4.91-6.59-7.33q-5.19-5.68-10.23-11.48-3.04-3.45-6.14-6.83c-3.95-4.37-7.68-8.89-11.38-13.47-2.19-2.64-4.44-5.19-6.75-7.72-3.86-4.25-7.51-8.63-11.12-13.09q-3.17-3.86-6.42-7.65c-5.9-6.9-11.52-13.99-16.96-21.26q-0.78-1.03-1.57-2.1c-11.44-15.31-22.75-30.74-32.87-46.96-0.72-1.14-0.72-1.14-1.45-2.29-1.12-1.84-2.13-3.74-3.11-5.65q0.49-1.48 1-3-1.32-0.4-2.67-0.81c-9.5-3.4-17.23-10.21-24.33-17.19-0.94-0.92-0.94-0.92-1.9-1.86-15.69-16.61-21.36-40.32-25.1-62.14q-0.49 0-1 0c-4.45 25.57-3.43 52.39 5 77 0.74 2.22 0.74 2.22 1 4-2 2-2 2-5.87 2.5-12.95-0.39-23.87-11.09-32.45-19.87-21.07-24.46-24.54-60.56-22.5-91.4 2.26-27.62 10.53-54.77 18.31-81.23 7.08-24.1 12.33-48.23 16.51-73 3.47 1.34 6.4 2.82 9.5 4.88 12.66 7.76 28.54 10.07 43.07 7.48q4.25-1.07 8.43-2.36 2-0.51 4-1c0.38 1.11 0.38 1.11 0.76 2.24 9.49 27.76 20.85 53.62 39.24 76.76q0.95 1.25 1.93 2.54c26.89 34.52 63.51 54.36 104.07 68.46q-0.1 0.94-0.21 1.9c-0.78 7.85-1.07 15.65-1.16 23.54-0.06 1.85-0.06 1.85-0.12 3.73-0.14 14.69 5.54 24.51 15.48 34.91 16.85 16.09 41.05 24.55 64.07 24.42q1.75-0.01 3.54-0.02c25.83-0.51 49.45-10.96 67.4-29.48 10.55-12.18 11.7-24.61 11-40q-0.06-1.31-0.12-2.66-0.37-8.18-0.88-16.34 0.84-0.29 1.7-0.59c22.55-8.03 43.79-17.4 63.3-31.41q0.82-0.58 1.66-1.19c17.92-12.92 32.92-28.59 45.34-46.81q1.09-1.58 2.21-3.2c13.93-20.84 24-43.71 30.79-67.8 5.59 1.83 5.59 1.83 8.11 2.85 13.75 5.11 29.74 3.02 42.89-2.85 4.99-2.45 10.05-5.05 14-9z"/>
		<path class="s2" d="m539.29 74.44c5.13 4.68 8.65 9.93 10.71 16.56q0.04 2.5 0 5 0.99-0.02 2-0.05c57.81-1.17 116.29 10.64 159.75 51.01 2.28 2.12 2.28 2.12 5.04 4.18q1.09 0.91 2.21 1.86 0 0.99 0 2c0.84 0.34 0.84 0.34 1.69 0.69 15.81 8.96 27.26 32.24 34.31 48.31q0.51 1.15 1.03 2.33c14.76 34.04 17.69 70.05 18.2 106.78 0.03 1.88 0.03 1.88 0.06 3.79q0.14 9.48 0.19 18.97 0.04 3.55 0.08 7.09 0 1.61 0 3.27c0.08 6.5 1.03 11.75 3.44 17.77q0.5 1.45 1.01 2.94 0.44 1.26 0.89 2.56c4.16 12.06 7.76 23.96 10.1 36.5 0.21 1.06 0.21 1.06 0.42 2.14 2.47 12.87 3.61 25.81 4.58 38.86q-1.62-0.43-3.3-0.87c-11.57-2.97-21.81-3.96-33.7-2.13-0.06 1.25-0.06 1.25-0.11 2.54-0.97 17.17-4.92 33.73-11.89 49.46-4.79 0.5-7.85 0.64-11.75-2.37-7.48-7.58-8.26-18.35-9.5-28.44q-0.26-1.94-0.52-3.93c-1.34-10.26-1.34-10.26-1.23-15.26q-1.05-0.17-2.13-0.35c-5.59-1.27-10.72-3.93-15.93-6.27q-0.94-0.43-1.91-0.86c-10.02-4.5-19.8-9.38-29.47-14.58-0.89-0.48-0.89-0.48-1.79-0.97-5.75-3.1-11.43-6.2-16.77-9.97q-0.06 1.08-0.12 2.19c-1.19 3.81-3.49 5.88-6.88 7.81-6.46 2.42-12.56 2.2-19.4 2.05q-1.77-0.03-3.6-0.06-3.77-0.07-7.53-0.16-5.74-0.12-11.47-0.2-3.67-0.07-7.34-0.15-1.69-0.02-3.43-0.05c-15.5-0.38-15.5-0.38-20.39-4.05q-0.66-0.9-1.34-1.82-0.69-0.89-1.41-1.81c-2.67-4.28-2.68-8.87-2.09-13.75 2.9-5.8 7.17-9.91 13.25-12.25 12.9-2.58 24.83-1.64 37.75 0.25q1.98 0.28 3.96 0.57 1.5 0.21 3.04 0.43-1.34-0.94-2.71-1.91c-7.29-5.14-14.42-10.39-21.29-16.09q-0.74-0.61-1.49-1.24c-10.85-9-21.23-18.42-31.26-28.32-0.93-0.91-0.93-0.91-1.88-1.85q-2.24-2.25-4.37-4.59 0-0.99 0-2-0.98 0-2 0-1.06-1.45-2.15-2.95c-2.18-2.69-2.68-3.01-6.27-3.85q-2.06-0.08-4.11-0.07-1.15-0.03-2.33-0.06-4.07-0.07-8.14-0.07-3.26-0.04-6.52-0.08-9.1-0.07-18.2-0.05-5.66 0.01-11.32-0.01c-10.44 0-20.87 0.01-31.3 0.52q-1.03 0.05-2.1 0.09c-5.73 0.35-10.85 0.99-15.2 4.9q-1.32 1.52-2.61 3.07-1.55 1.76-3.11 3.51-0.85 0.96-1.72 1.95c-9.87 10.83-20.34 21.11-31.92 30.1q-2.98 2.49-5.94 5c-5.86 4.9-11.9 9.48-18.06 14q1.19-0.2 2.42-0.4c12.24-1.97 24.18-2.89 36.58-2.6q1.59 0.03 3.24 0.05c6.87 0.31 12.28 1.63 17.76 5.95 4.21 4.79 4.3 9.43 4.21 15.6-0.39 4.39-2.36 6.52-5.33 9.59-7.43 4.68-16.45 4.12-24.95 4.11-1.85 0.01-1.85 0.01-3.73 0.01q-3.9 0.01-7.79 0.01-5.94 0-11.88 0.04-3.8 0-7.6 0-1.75 0.02-3.56 0.03c-13.55-0.07-13.55-0.07-18.92-4.74-2.79-3.08-3.8-5.63-4.45-9.65q-1.29 0.89-2.61 1.8c-15.73 10.72-32.26 19.83-49.15 28.57q-1.31 0.7-2.66 1.42c-2.58 1.21-2.58 1.21-5.16 1.84-2.83 0.75-4.32 1.3-6.42 3.37-1.8 5.65-2.29 11.36-2.81 17.25q-0.48 4.73-1.02 9.45-0.13 1.12-0.26 2.27c-1.01 8.11-3.59 13.77-10.03 18.91-2.96 1.77-5.45 1.98-8.88 2.12-5.13-11.48-8.62-22.99-10.75-35.37q-0.19-1.1-0.39-2.24c-0.78-4.85-0.97-9.48-0.86-14.39-10.14-3.24-20.49-2.98-30.6 0.25-2.45 0.77-4.88 1.26-7.4 1.75 2.15-26.87 6.26-52.09 14.25-77.86q0.36-1.16 0.73-2.36c1.02-2.78 1.02-2.78 2-4.68 3.25-6.43 3.59-11.97 3.56-19.1q0.02-1.71 0.03-3.47 0.04-3.66 0.04-7.32c0.02-6.34 0.11-12.67 0.19-19.01q0.02-1.85 0.04-3.76c0.67-54.39 9.82-108.24 48.16-149.44q0.87-0.93 1.76-1.9c38.7-41.1 91.75-59.74 147.45-61.98 9.59-0.29 19.19-0.2 28.79-0.12q0.17-1.81 0.34-3.68c1.05-8.31 6.21-14.71 12.6-19.86 15.11-10.73 35.98-9.78 50.35 1.98z"/>
		<path class="s3" d="m607.44 276q1.84 0.35 3.75 0.72c57.11 11.35 119.96 35.2 162.62 75.97 2.98 4.51 4.18 9.13 5.61 14.31q0.95 3.24 2.02 6.44c3.54 10.74 6.41 21.46 8.56 32.56q0.21 1.07 0.43 2.17c2.47 12.85 3.6 25.78 4.57 38.83q-1.62-0.43-3.3-0.88c-11.57-2.96-21.81-3.95-33.7-2.12-0.06 1.25-0.06 1.25-0.11 2.54-0.97 17.17-4.92 33.73-11.89 49.46-4.79 0.5-7.85 0.64-11.75-2.38-7.48-7.57-8.26-18.34-9.5-28.43-0.26-1.95-0.26-1.95-0.52-3.93-1.34-10.26-1.34-10.26-1.23-15.26-1.06-0.17-1.06-0.17-2.13-0.35-5.59-1.27-10.72-3.93-15.93-6.28q-0.94-0.42-1.91-0.85c-10.02-4.5-19.8-9.38-29.47-14.58-0.89-0.48-0.89-0.48-1.79-0.97-5.75-3.1-11.43-6.2-16.77-9.97q-0.06 1.08-0.13 2.19c-1.18 3.81-3.48 5.88-6.87 7.81-6.46 2.42-12.56 2.2-19.4 2.05q-1.77-0.03-3.6-0.06-3.77-0.07-7.53-0.16-5.74-0.12-11.47-0.2-3.67-0.07-7.34-0.15-1.69-0.02-3.43-0.05c-15.5-0.38-15.5-0.38-20.39-4.05q-0.66-0.9-1.34-1.82-0.69-0.89-1.41-1.81c-2.67-4.28-2.68-8.87-2.09-13.75 2.9-5.8 7.17-9.91 13.25-12.25 12.9-2.58 24.83-1.64 37.75 0.25q1.98 0.28 3.96 0.57 1.5 0.21 3.04 0.43-1.34-0.94-2.71-1.91c-7.29-5.14-14.42-10.39-21.29-16.09q-0.74-0.61-1.49-1.24c-10.85-9-21.23-18.42-31.26-28.32q-0.93-0.91-1.88-1.85-2.24-2.25-4.37-4.59 0-0.99 0-2-0.99 0-2 0-1.06-1.45-2.15-2.95c-2.18-2.69-2.68-3.01-6.27-3.85q-2.06-0.08-4.11-0.07-1.15-0.03-2.33-0.06-4.07-0.07-8.14-0.07-3.26-0.04-6.52-0.08-9.1-0.07-18.2-0.05-5.66 0.01-11.32-0.01c-10.44 0-20.87 0.01-31.3 0.52-1.04 0.05-1.04 0.05-2.1 0.09-5.73 0.35-10.85 0.99-15.2 4.9q-1.32 1.52-2.61 3.07-1.55 1.76-3.11 3.51-0.85 0.96-1.72 1.95c-9.87 10.83-20.34 21.11-31.92 30.1q-2.98 2.49-5.94 5c-5.86 4.9-11.9 9.48-18.06 14q1.19-0.2 2.42-0.4c12.24-1.97 24.18-2.89 36.58-2.6 1.6 0.03 1.6 0.03 3.24 0.05 6.87 0.31 12.28 1.63 17.76 5.95 4.21 4.79 4.3 9.43 4.21 15.6-0.39 4.39-2.36 6.52-5.34 9.59-7.42 4.68-16.44 4.12-24.94 4.11q-1.84 0.01-3.73 0.01-3.9 0.01-7.79 0.01-5.94 0-11.88 0.04-3.8 0-7.6 0-1.75 0.02-3.56 0.03c-13.55-0.07-13.55-0.07-18.92-4.74-2.79-3.08-3.8-5.63-4.45-9.65q-1.29 0.89-2.61 1.8c-15.73 10.72-32.26 19.83-49.15 28.57q-1.31 0.7-2.66 1.42c-2.58 1.21-2.58 1.21-5.16 1.84-2.83 0.75-4.32 1.3-6.42 3.37-1.8 5.65-2.29 11.36-2.81 17.25q-0.48 4.73-1.02 9.45-0.13 1.12-0.26 2.27c-1.01 8.11-3.59 13.77-10.03 18.91-2.96 1.77-5.45 1.98-8.88 2.12-5.13-11.48-8.62-22.99-10.75-35.38q-0.19-1.09-0.39-2.23c-0.78-4.85-0.97-9.48-0.86-14.39-10.14-3.24-20.49-2.98-30.6 0.25-2.45 0.77-4.88 1.26-7.4 1.75 6.43-80.59 6.43-80.59 25-97q1.61-1.64 3.2-3.3c3.52-3.52 7.22-6.48 11.3-9.32 1.08-0.76 1.08-0.76 2.18-1.53 14.55-9.99 30.37-18.32 46.32-25.85q1.06-0.51 2.15-1.03c22.49-10.67 45.91-19.21 69.85-25.97 1.14-0.34 1.14-0.34 2.31-0.68 69.17-20.26 145.82-19.79 216.13-6.32z"/>
		<path class="s4" d="m221 560c3.47 1.34 6.4 2.82 9.5 4.88 12.66 7.76 28.54 10.07 43.07 7.48q4.25-1.07 8.43-2.36 2-0.51 4-1c0.38 1.11 0.38 1.11 0.76 2.24 9.49 27.76 20.85 53.62 39.24 76.76q0.95 1.25 1.93 2.54c26.9 34.54 63.51 54.32 104.07 68.46-0.66 6.6-1.32 13.2-2 20-2.56 0.56-5.12 1.11-7.75 1.69-16.29 3.76-28.86 10.03-38.25 24.31-4.19 7.28-8.11 14.76-11.53 22.43-1.63 2.86-2.68 3.67-5.66 4.95-1.07 0.47-1.07 0.47-2.17 0.96-0.81 0.32-0.81 0.32-1.64 0.66 13.23 20.2 27.61 39.4 43 58q1.03 1.27 2.09 2.58c5.39 6.66 10.96 13.14 16.59 19.59q3.2 3.68 6.36 7.41c5.67 6.68 11.46 13.2 17.45 19.59q4.93 5.26 9.65 10.72c3.05 3.45 6.19 6.82 9.33 10.2q4.44 4.79 8.78 9.66c8.92 9.95 18.05 19.81 27.66 29.1 1.76 1.81 3.38 3.65 5.02 5.57 4.85 5.57 10.1 10.74 15.33 15.94q1.62 1.62 3.24 3.23 4.23 4.22 8.46 8.44 4.31 4.29 8.61 8.59 7.57 7.55 15.14 15.09 3.15 3.14 6.29 6.29-21.08 0.35-42.17 0.52-9.79 0.07-19.58 0.23-9.45 0.16-18.91 0.2-3.6 0.03-7.2 0.11c-19.84 0.43-19.84 0.43-24.57-3.25-2.27-2.5-3.91-4.88-5.57-7.81-1.4-1.6-1.4-1.6-2.82-2.88-4.3-4.18-8.37-8.45-12.29-12.98-3.21-3.63-6.55-7.13-9.89-10.64-4.57-4.81-9.06-9.66-13.41-14.67-2.16-2.48-4.37-4.91-6.59-7.33q-5.19-5.68-10.23-11.48-3.04-3.45-6.14-6.83c-3.95-4.37-7.68-8.89-11.38-13.47-2.19-2.64-4.44-5.19-6.75-7.72-3.86-4.25-7.51-8.63-11.12-13.09q-3.17-3.86-6.42-7.65c-5.9-6.9-11.52-13.99-16.96-21.26q-0.78-1.03-1.57-2.1c-11.44-15.31-22.75-30.74-32.87-46.96-0.72-1.14-0.72-1.14-1.45-2.29-1.12-1.84-2.13-3.74-3.11-5.65q0.49-1.48 1-3-1.32-0.4-2.67-0.81c-9.5-3.4-17.23-10.21-24.33-17.19-0.94-0.92-0.94-0.92-1.9-1.86-15.69-16.61-21.36-40.32-25.1-62.14q-0.49 0-1 0c-4.45 25.57-3.43 52.39 5 77 0.74 2.22 0.74 2.22 1 4-2 2-2 2-5.87 2.5-12.95-0.39-23.87-11.09-32.45-19.87-21.07-24.46-24.54-60.56-22.5-91.4 2.26-27.62 10.53-54.77 18.31-81.23 7.08-24.1 12.33-48.23 16.51-73z"/>
		<path class="s5" d="m801 559q0.49 0 1 0 0.25 1.45 0.52 2.94c3.78 21.39 8.29 42.21 14.48 63.06q2.32 7.9 4.63 15.81 0.28 0.98 0.57 1.98c15.85 54.31 15.85 54.31 16 78.2q0.01 1.1 0.02 2.23 0.03 3.55 0.03 7.09 0 1.21 0 2.44c-0.02 26.63-4.59 52.96-23.25 73.25-1.05 1.17-1.05 1.17-2.12 2.36-6.69 7.09-16.86 16.01-27.08 16.81-1.94 0.02-3.87-0.07-5.8-0.17-1.36-4.09-0.18-7.26 0.81-11.31 4.63-20.01 5.12-38.21 2.26-58.51-0.72-5.12-1.24-10-1.07-15.18q-0.99 0-2 0 0.07 1.42 0.13 2.88c0 4.85-1.11 9.37-2.26 14.06q-0.33 1.38-0.68 2.8c-6.75 26.72-19.28 46.52-43.1 61.03-4.89 2.67-7.53 3.8-13.09 2.23-2.23-1.35-4.28-2.72-6.38-4.25-13.69-9.51-28.6-17.25-43.93-23.75q-1.3-0.56-2.65-1.14c-3.45-1.46-6.78-2.79-10.4-3.78-3.97-1.19-6.77-2.85-9.19-6.26q-0.64-1.22-1.3-2.48-0.72-1.35-1.47-2.74c-1.38-2.75-2.68-5.52-3.98-8.3-6.13-12.81-15.61-21.08-28.7-26.3-4.1-1.25-8.25-2.21-12.43-3.14-3.57-0.86-3.57-0.86-8.57-2.86-0.5-9.4-0.5-9.4-1-19q2.09-0.74 4.25-1.5c21.64-7.94 41.95-17 60.75-30.5q0.82-0.58 1.66-1.19c17.92-12.92 32.92-28.59 45.34-46.81q1.09-1.58 2.21-3.2c13.93-20.84 24-43.71 30.79-67.8 5.59 1.83 5.59 1.83 8.11 2.85 13.75 5.11 29.74 3.02 42.89-2.85 4.99-2.45 10.05-5.05 14-9z"/>
		<path class="s6" d="m296 827c1.74 2.55 3.29 5.07 4.81 7.75 8.08 13.69 17.3 26.63 26.92 39.27q2.58 3.38 5.1 6.8c5.65 7.64 11.46 15.04 17.66 22.24q3.27 3.84 6.38 7.81c4.42 5.57 9.1 10.91 13.77 16.26q4 4.6 7.94 9.25c5.43 6.39 11.03 12.59 16.74 18.73q4.07 4.4 7.98 8.94c2.76 3.16 5.58 6.27 8.39 9.39q3.35 3.71 6.68 7.43c7.53 8.37 15.15 16.64 22.82 24.88q0.89 0.95 1.8 1.94c3.78 4.04 7.63 7.99 11.65 11.79 1.36 1.52 1.36 1.52 2.36 4.52-88.77 0-177.54 0-269 0 4.65-26.76 4.65-26.76 7.31-37q0.45-1.75 0.91-3.55 1.37-5.23 2.78-10.45 0.41-1.5 0.82-3.05c9.07-32.91 23.1-66.8 44.18-93.95q0.91-1.2 1.85-2.43c5.63-7.24 11.83-13.94 18.15-20.57q0.71-0.74 1.44-1.51c5.69-5.93 11.61-11.36 18.04-16.47 2.25-1.8 4.39-3.66 6.52-5.58 3-2.44 3-2.44 6-2.44z"/>
		<path class="s7" d="m361 790c1.79 2.31 3.15 4.41 4.56 6.94q1.32 2.22 2.65 4.44 0.68 1.14 1.38 2.32c10.51 17.14 23.62 32.84 36.41 48.3 1.03 1.28 1.03 1.28 2.09 2.58 5.39 6.66 10.96 13.14 16.59 19.59q3.2 3.68 6.36 7.41c5.67 6.68 11.46 13.2 17.45 19.59q4.93 5.26 9.65 10.72c3.05 3.45 6.19 6.82 9.33 10.2q4.44 4.79 8.78 9.66c8.92 9.95 18.05 19.81 27.66 29.1 1.76 1.81 3.38 3.65 5.02 5.57 4.85 5.57 10.1 10.74 15.33 15.94q1.62 1.62 3.24 3.23 4.23 4.22 8.46 8.44 4.31 4.29 8.61 8.59 7.57 7.55 15.14 15.09 3.15 3.14 6.29 6.29-21.08 0.35-42.17 0.52-9.79 0.07-19.58 0.23-9.45 0.16-18.91 0.2-3.6 0.03-7.2 0.11c-19.84 0.43-19.84 0.43-24.57-3.25-2.27-2.5-3.91-4.88-5.57-7.81-1.4-1.6-1.4-1.6-2.82-2.88-4.3-4.18-8.37-8.45-12.29-12.98-3.21-3.63-6.55-7.13-9.89-10.64-4.57-4.81-9.06-9.66-13.41-14.67-2.16-2.48-4.37-4.91-6.59-7.33q-5.19-5.68-10.23-11.48-3.04-3.45-6.14-6.83c-3.95-4.37-7.68-8.89-11.38-13.47-2.19-2.64-4.44-5.19-6.75-7.72-3.86-4.25-7.51-8.63-11.12-13.09q-3.17-3.86-6.42-7.65c-5.9-6.9-11.52-13.99-16.96-21.26q-0.78-1.03-1.57-2.1c-13.3-17.8-26.11-35.77-37.43-54.9 11.87-12.21 47.71-40.87 66-37z"/>
		<path class="s8" d="m539.29 74.44c5.13 4.68 8.65 9.93 10.71 16.56q0.04 2.5 0 5 0.99-0.02 2-0.05c57.81-1.17 116.29 10.64 159.75 51.01 2.28 2.12 2.28 2.12 5.04 4.18q1.09 0.91 2.21 1.86 0 0.99 0 2c0.84 0.34 0.84 0.34 1.69 0.69 15.81 8.96 27.26 32.24 34.31 48.31q0.51 1.15 1.03 2.33c20.31 46.83 18.33 97.65 17.97 147.67q-1.15-1.16-2.34-2.36c-19.98-19.87-46.02-32.99-71.35-44.64q-1.47-0.68-2.99-1.38c-4.31-1.95-8.58-3.77-13.08-5.21q-1.05-0.35-2.14-0.71c-1.81-0.58-3.64-1.1-5.47-1.6-3.8-3.03-3.81-5.95-4.37-10.65-0.44-5.88-0.65-11.74-0.76-17.64-1.41-49.51-14.6-99.96-50.5-135.81-3.54-3.18-7.22-6.12-11-9q-1.25-0.99-2.54-2.02c-16.81-12.9-36.61-20.29-57.26-24.47-2.2-0.51-2.2-0.51-3.2-1.51q-3.31-0.18-6.63-0.21c-1.04-0.01-1.04-0.01-2.1-0.03q-3.45-0.04-6.9-0.08-2.38-0.03-4.77-0.06-6.29-0.08-12.58-0.15-6.42-0.08-12.83-0.16-12.6-0.16-25.19-0.31c1.13-10.1 4.88-17.05 12.94-23.54 15.11-10.73 35.98-9.78 50.35 1.98z"/>
		<path class="s9" d="m430 739q0.02 1.95 0.04 3.95c0.38 16.91 4.09 27.72 15.95 40.13 16.85 16.09 41.05 24.55 64.07 24.42q1.75-0.01 3.54-0.02c25.83-0.51 49.45-10.96 67.4-29.48 10.08-11.64 11.65-24.19 12-39 14.69 0.65 28.84 6.15 39.55 16.3 5.52 6.1 9.84 13.16 13.32 20.61 0.45 0.95 0.45 0.95 0.9 1.92q1.2 2.64 2.33 5.31c2.54 3.82 4.62 4.42 8.9 5.86-3 1-3 1-6 0q0.07 1.19 0.14 2.42c0.79 24.1-15.13 44.97-30.64 62.02-8.99 9.58-19.72 19.44-33.5 20-20.59-0.97-39.13-17.18-53.5-30.5-6.97-6.41-15.17-13.84-24.75-15.5-10.04 1.5-17.25 9.45-24.31 16.19-12.49 11.9-27.17 25.42-44.44 29.37-0.92 0.26-0.92 0.26-1.85 0.53-4.98 1.39-10.02 2.64-15.15 1.47-4.68-2.9-7.68-7.63-10.71-12.12-1.84-2.68-3.93-5.14-6.04-7.63q-2.13-2.62-4.25-5.25c-0.93-1.14-0.93-1.14-1.87-2.3q-20.91-25.88-39.13-53.7c3-2 3-2 5.92-3.07 4.37-2.74 5.41-6.09 7.33-10.74 7.53-17 17.11-29.94 34.75-37.19 6.69-2.3 12.88-4.28 20-4z"/>
		<path class="s8" d="m476 96q0 0.98 0 2-1.68 0.43-3.41 0.88c-39 10.32-73.4 32.5-94.18 67.82q-2.29 4.18-4.47 8.43-0.78 1.5-1.58 3.05c-12.74 25.07-20.18 54.34-20.64 82.49q-0.03 1.32-0.06 2.69-0.11 5.62-0.21 11.24-0.08 4.13-0.17 8.26-0.02 1.26-0.04 2.55c-0.18 8.68-0.18 8.68-1.24 11.59-1.85 1.27-1.85 1.27-4.28 2.18q-1.34 0.52-2.71 1.05-1.45 0.53-2.95 1.08-3.04 1.19-6.09 2.38-1.51 0.58-3.07 1.18c-26.86 10.46-56.1 24.9-76.46 45.69-1.21 1.21-1.21 1.21-2.44 2.44q-0.99 0-2 0c-1.03-140.31-1.03-140.31 48-193q0.87-0.93 1.76-1.9c38.7-41.1 91.75-59.74 147.45-61.98 9.59-0.29 19.19-0.2 28.79-0.12z"/>
		<path class="s10" d="m558 329c58.31 5.32 113.59 21.07 167.6 43.39 18.3 8.43 18.3 8.43 37.65 6.98 4.52-2.01 7.12-4.06 9.75-8.37 1.21-3.29 2.17-6.6 3-10 8.28 12.42 11.29 30.42 14 45 0.21 1.06 0.21 1.06 0.42 2.14 2.47 12.87 3.61 25.81 4.58 38.86q-1.62-0.43-3.3-0.88c-11.57-2.96-21.81-3.95-33.7-2.12-0.06 1.25-0.06 1.25-0.11 2.54-0.97 17.17-4.92 33.73-11.89 49.46-4.79 0.5-7.85 0.64-11.75-2.38-7.48-7.57-8.26-18.34-9.5-28.43-0.26-1.95-0.26-1.95-0.52-3.93-1.34-10.26-1.34-10.26-1.23-15.26q-1.05-0.17-2.13-0.35c-5.59-1.27-10.72-3.93-15.93-6.28q-0.94-0.42-1.91-0.85c-10.02-4.5-19.8-9.38-29.47-14.58q-0.88-0.48-1.79-0.97c-5.75-3.1-11.43-6.2-16.77-9.97q-0.06 1.08-0.12 2.19c-1.19 3.81-3.49 5.88-6.88 7.81-6.46 2.42-12.56 2.2-19.4 2.05-1.78-0.03-1.78-0.03-3.6-0.06q-3.77-0.07-7.53-0.16-5.74-0.12-11.47-0.2-3.67-0.07-7.34-0.15-1.69-0.02-3.43-0.05c-15.5-0.38-15.5-0.38-20.39-4.05-0.66-0.9-0.66-0.9-1.34-1.82-0.7-0.89-0.7-0.89-1.41-1.81-2.67-4.28-2.68-8.87-2.09-13.75 2.9-5.8 7.17-9.91 13.25-12.25 12.9-2.58 24.83-1.64 37.75 0.25q1.98 0.28 3.96 0.57 1.5 0.21 3.04 0.43-1.34-0.94-2.71-1.91c-7.29-5.14-14.42-10.39-21.29-16.09q-0.74-0.61-1.49-1.24c-10.85-9-21.23-18.42-31.26-28.32-0.93-0.91-0.93-0.91-1.88-1.85q-2.24-2.25-4.37-4.59 0-0.99 0-2-0.99 0-2 0c-1.29-1.53-1.29-1.53-2.62-3.5-0.67-0.97-0.67-0.97-1.36-1.97q-0.5-0.75-1.02-1.53z"/>
		<path class="s10" d="m458 330c-4.1 9.37-13.74 16.94-20.88 24.06q-1.31 1.31-2.66 2.66c-5.9 5.85-11.89 11.2-18.46 16.28q-2.98 2.49-5.94 5c-5.86 4.9-11.9 9.48-18.06 14q1.19-0.2 2.42-0.4c12.24-1.97 24.18-2.89 36.58-2.6q1.59 0.03 3.24 0.05c6.87 0.31 12.28 1.63 17.76 5.95 4.21 4.79 4.3 9.43 4.21 15.6-0.39 4.39-2.36 6.52-5.34 9.59-7.42 4.68-16.44 4.12-24.94 4.11q-1.84 0.01-3.73 0.01-3.9 0.01-7.79 0.01-5.94 0-11.88 0.04-3.8 0-7.6 0-1.75 0.02-3.56 0.03c-13.55-0.07-13.55-0.07-18.92-4.74-2.79-3.08-3.8-5.63-4.45-9.65q-1.29 0.89-2.61 1.8c-15.73 10.72-32.26 19.83-49.15 28.57-1.31 0.7-1.31 0.7-2.66 1.42-2.58 1.21-2.58 1.21-5.16 1.84-2.83 0.75-4.32 1.3-6.42 3.37-1.8 5.65-2.29 11.36-2.81 17.25q-0.48 4.73-1.02 9.45-0.13 1.12-0.26 2.27c-1.01 8.11-3.59 13.77-10.03 18.91-2.96 1.77-5.45 1.98-8.88 2.12-5.13-11.48-8.62-22.99-10.75-35.38q-0.19-1.09-0.39-2.23c-0.78-4.85-0.97-9.48-0.86-14.39-10.14-3.24-20.49-2.98-30.6 0.25-2.45 0.77-4.88 1.26-7.4 1.75 2.43-30.5 6.21-61.82 19-90q0.49 0 1 0c0.15 1.09 0.15 1.09 0.3 2.2 1.12 7.24 2.61 11.95 8.14 17.05 6.54 4.47 12.84 4.71 20.56 3.75 10.03-2.45 19.6-6.82 29.1-10.77 27.96-11.6 56.52-20.99 85.9-28.23q2.32-0.6 4.64-1.2c19.07-4.81 40.59-10.2 60.36-9.8z"/>
		<path class="s11" d="m591 719c5.04 40.61 5.04 40.61-7.02 56.63-13.43 16.13-30.96 25.08-50.98 30.37q-1 0.28-2.03 0.56c-17.2 4.37-36.44 2.4-52.97-3.56-1.85-0.65-1.85-0.65-3.75-1.32-17.9-7-34.31-19.22-42.4-37.06-2.59-6.64-2.32-13.14-2.16-20.18q0.01-1.89 0.03-3.83c0.08-6.6 0.41-13.06 1.28-19.61 4.46-1.32 7.89-0.5 12.25 0.69 7.46 1.89 14.96 3.28 22.56 4.5q1.53 0.25 3.11 0.5c13.39 2.1 26.62 2.55 40.14 2.56q1.32 0 2.67 0c22.17-0.01 43.63-2.33 65.27-7.25q1.03-0.23 2.09-0.47 4.34-0.98 8.67-2.01c2.24-0.52 2.24-0.52 3.24-0.52z"/>
		<path class="s12" d="m623 453c2.75 2.25 2.75 2.25 5 5q0.75 0.83 1.52 1.68c8.28 9.75 8.19 22.16 7.48 34.32-0.93 9.6-4.27 17.84-11.44 24.44-7.51 6.12-14.26 8.11-23.95 7.38-7.88-1.35-14.27-5.53-18.99-11.95-4.99-8.37-5.87-17-5.93-26.56q-0.01-1.17-0.02-2.37c0.13-10.65 2.63-19.85 10.07-27.8 10.56-9.46 23.83-10.92 36.26-4.14z"/>
		<path class="s12" d="m433.19 453.75c8.59 6.88 12.67 15.26 14.45 26.16 1.37 12.95-0.45 25.63-8.64 36.09-5.47 6.19-12.36 9.5-20.54 10.38-5.1 0.16-9.19 0.17-13.9-1.88-1.27-1.24-1.27-1.24-2.56-2.5q-0.85-0.82-1.73-1.66c-8.58-8.89-12.27-20.19-12.34-32.39 0.17-9.2 1.68-16.73 6.07-24.95q0.86-1.66 1.75-3.38c10.17-11.86 24.21-13.13 37.44-5.87z"/>
		<path class="s13" d="m451.25 591.31c5.93 0.04 9.18 2.94 13.51 6.55 9.65 7.96 20.97 12.87 33.24 15.14q1.16 0.25 2.35 0.51c12.93 2.37 27.49 1.46 39.65-3.51q1.52-0.62 3.09-1.25c5.86-2.65 10.41-5.89 15.16-10.12 6.15-5.33 6.15-5.33 10.19-5.57 4.2 1.11 5.86 2.59 8.56 5.94q0.49 0.49 1 1c0.57 5.81-0.51 8.42-4 13-12.42 11.51-27.64 17.7-44 21q-1.17 0.26-2.38 0.53c-26.8 4.82-52.56-3.92-74.39-19.04-9.2-6.81-9.2-6.81-10.29-12.49-0.24-3.97 0.92-6.63 3.06-10 1.57-1.57 3.07-1.47 5.25-1.69z"/>
		<path class="s14" d="m539.29 74.44c5.13 4.68 8.65 9.93 10.71 16.56q0 2.46 0 5c6.6 0 13.2 0 20 0q0 0.49 0 1c-19.17 0.09-38.33-0.18-57.49-0.46q-6.2-0.1-12.39-0.18-12.06-0.18-24.12-0.36c1.13-10.1 4.88-17.05 12.94-23.54 15.11-10.73 35.98-9.78 50.35 1.98z"/>
		<path class="s15" d="m525.96 531.88c4.95 2.72 8.92 6.45 12.04 11.12 0.82 5.59 0.26 10.31-3 15-5.56 6.07-11.24 9.35-19.44 10.28-8.62 0.33-15.82-1.45-22.5-7.03-4.69-4.55-6.94-7.99-7.19-14.69 1.79-5.66 5.25-9.73 10.27-12.92 9.15-4.67 20.12-5.55 29.82-1.76z"/>
		<path class="s16" d="m721.38 985.56c3.62 0.44 3.62 0.44 5.74 2.37 2.52 4.11 2.99 7.84 3.57 12.57q0.18 1.32 0.36 2.68c0.92 6.93 1.53 13.84 1.95 20.82-4.95 0-9.9 0-15 0-1.34-9.02-2.21-17.75-2.25-26.87q-0.01-1.31-0.03-2.65 0.01-1.22 0.01-2.47 0.01-1.09 0.01-2.2c0.52-3.61 2.27-3.81 5.64-4.25z"/>
		<path class="s17" d="m299.94 986.69c3.06 0.31 3.06 0.31 4.87 1.5 2.34 3.56 2.32 7.71 2.32 11.86 0 1.42 0 1.42 0.01 2.87q-0.01 1.45-0.01 2.95c0 1.46 0 1.46 0.01 2.94q-0.01 1.41-0.01 2.87 0 1.27 0 2.59c-0.15 3.26-0.67 6.5-1.13 9.73-4.95 0-9.9 0-15 0q0.42-6.78 0.88-13.56 0.11-1.91 0.23-3.87c1.3-19.19 1.3-19.19 7.83-19.88z"/>
		<path class="s18" d="m773 314q0.49 0 1 0c0 13.2 0 26.4 0 40-3-3-3-3-3.26-6.2q0.07-1.93 0.15-3.92 0.04-1.03 0.07-2.1 0.08-2.2 0.19-4.4 0.15-3.36 0.26-6.71c0.45-11.77 0.45-11.77 1.59-16.67z"/>
		<path class="s19" d="m619 386c3.58 1.65 6.75 3.78 10 6-3.05 1.02-3.99 1.01-7.01 0.44q-1.13-0.21-2.3-0.42c-1.18-0.23-1.18-0.23-2.38-0.46q-1.19-0.22-2.41-0.44-2.95-0.55-5.9-1.12 0-0.49 0-1 0.95-0.07 1.93-0.15 1.24-0.11 2.51-0.22 1.23-0.11 2.49-0.22 1.02-0.2 2.07-0.41 0.49-0.99 1-2z"/>
		<path class="s20" d="m241 739c2.57 3.85 2.55 6.43 3 11q-0.99 0-2 0-0.49 0.99-1 2-0.99 0-2 0 0.21-2.41 0.44-4.81 0.12-1.34 0.24-2.71c0.32-2.48 0.32-2.48 1.32-5.48z"/>
		<path class="s21" d="m221 560c3.38 1.19 5.65 2.28 8 5-3 1-3 1-6 1q-0.99 2.96-2 6-0.49 0-1 0c-0.08-4.16 0.02-7.95 1-12z"/>
		<path class="s22" d="m458 330c-1.37 3.16-1.99 3.99-5 6q0.49-1.48 1-3c-1.02 0.28-1.02 0.28-2.06 0.56-3.51 0.53-6.46 0.05-9.94-0.56 4.9-2.94 10.41-3.17 16-3z"/>
		<path class="s23" d="m592 722q0.49 0 1 0c0.33 4.62 0.66 9.24 1 14q0.99 0 2 0 0 0.99 0 2 1.48 0.49 3 1-3 0.06-6 0c-1-1-1-1-1.1-4.6q0.01-2.23 0.04-4.46 0-1.13 0.01-2.3 0.02-2.82 0.05-5.64z"/>
		<path class="s24" d="m221 452q0.99 0.49 2 1c-4.29 4.29-8.58 8.58-13 13 0-3.7 0.83-4.31 3.25-7q0.9-1.02 1.83-2.06c1.86-1.88 3.77-3.42 5.92-4.94z"/>
	</g>
</svg>