<svg version="1.2" xmlns="http://www.w3.org/2000/svg" viewBox="0 0 1000 1000" width="1000" height="1000">
	<style>
		.s0 { fill: #fed32d } 
		.s1 { fill: #fee354 } 
		.s2 { fill: #f6ba1b } 
		.s3 { fill: #fdea9d } 
		.s4 { fill: #eeae17 } 
		.s5 { fill: #eead17 } 
		.s6 { fill: #f0b21a } 
		.s7 { fill: #d38909 } 
		.s8 { fill: #c38204 } 
		.s9 { fill: #fec816 } 
		.s10 { fill: #feb20f } 
		.s11 { fill: #feca1e } 
		.s12 { fill: #feca1f } 
		.s13 { fill: #c58405 } 
		.s14 { fill: #edae17 } 
		.s15 { fill: #eeaf16 } 
		.s16 { fill: #eeae18 } 
		.s17 { fill: #db9b0f } 
		.s18 { fill: #dc9b0f } 
		.s19 { fill: #fee454 } 
		.s20 { fill: #f7bc19 } 
		.s21 { fill: #f6bc19 } 
		.s22 { fill: #bc7703 } 
		.s23 { fill: #f0a70f } 
		.s24 { fill: #fece1e } 
		.s25 { fill: #000000 } 
	</style>
	<path class="s0" d="m259.83 41.51c28.74 1.08 53.44 19.93 72.27 40.23q0.78 0.85 1.54 1.67 1.51 1.64 3.02 3.27c0.71 0.79 0.71 0.79 1.4 1.56 0.67 0.73 0.67 0.73 1.32 1.44 1.27 1.42 2.35 2.37 3.98 3.36 1.57 0.62 1.57 0.62 3.54 0.12 29.53-12.25 62.28-16.81 94.03-18.61 0.88-0.05 0.88-0.05 1.75-0.1 14.12-0.79 28.21-0.94 42.35-0.88q3.92 0.02 7.83 0.02 3.92 0 7.84 0 1.88 0.01 3.76 0.01c35.93 0.02 71.72 3.93 105.97 15.12q1.45 0.49 2.87 0.96 1.36 0.46 2.69 0.9c2.4 0.82 4.74 1.5 7.22 2.04 2.21 0.24 2.21 0.24 3.91-0.89q0.8-0.89 1.58-1.76 0.95-1.02 1.86-2.01 2.69-3.02 5.42-6 0.6-0.66 1.19-1.3c4.45-4.86 9.09-9.44 14.05-13.78 0.65-0.56 0.65-0.56 1.29-1.11 11.32-9.84 24.71-16.43 38.94-20.99q0.86-0.27 1.7-0.53c7.43-2.34 14.66-2.61 22.41-2.68 0.8 0 0.8 0 1.59-0.01 9.56-0.11 18.25 1.07 27.25 4.36q0.76 0.29 1.49 0.57c7.64 2.93 13.94 6.89 20.26 12.09q0.96 0.82 1.9 1.61c2.96 2.46 5.77 4.89 8.32 7.77q1.02 1.29 2.04 2.59c12.37 14.48 20.43 29.73 25.02 48.23q0.24 1 0.48 1.97c5.71 22.64 2.55 47.19-4.93 69.05q-0.33 0.95-0.65 1.87c-3.19 9.2-7.07 17.84-11.86 26.33-0.45 0.78-0.45 0.78-0.89 1.56-2.86 5.09-5.66 9.88-9.86 13.99-1.5 1.34-2.74 2.51-3.85 4.2-0.63 1.73-0.63 1.73-0.21 3.42q0.45 0.94 0.88 1.85 0.5 1.08 0.98 2.13c3.23 6.8 6.16 13.68 8.74 20.74q0.5 1.4 0.99 2.76 1.51 4.21 3.02 8.43c3.7 10.43 7.3 20.9 11.52 31.13q0.41 0.99 0.82 1.95c3.93 9.42 8.81 17.84 15.93 25.24q1.07 1.06 2.12 2.09c4.43 4.4 8.86 8.48 14.19 11.8 2.02 1.22 3.99 2.43 5.89 3.83 2.53 2.07 4.28 3.29 4.62 6.68-3.95 23.38-21.06 45.57-36.92 62.39q-0.68 0.69-1.33 1.36c1.6 0.79 1.6 0.79 4 1.16 3.55 0.46 7.1 0.92 10.62 1.57 3.08 0.77 5.15 1.74 6.9 4.44-5.21 16.38-5.21 16.38-16.25 30.18q-0.65 0.86-1.28 1.69c-7.22 9.65-15.04 18.82-24.01 26.9-2.03 1.76-4.04 3.53-5.99 5.37-6.36 6-13.12 11.38-20.09 16.64q-0.87 0.66-1.71 1.29c-24.79 18.79-53.79 32.2-83.31 41.65-0.78 0.25-0.78 0.25-1.55 0.49-1.46 0.47-1.46 0.47-2.89 0.92-2.75 0.86-4.67 1.56-7.07 3.16 26.27 35 47.58 74.31 55.47 117.83q0.48 2.63 0.97 5.25 0.32 1.71 0.63 3.42c0.69 3.88 1.56 7.59 2.69 11.35 5.5-8.59 11.49-16.71 17.85-24.69 0.64-0.81 0.64-0.81 1.28-1.6 3.72-4.71 7.46-9.29 11.77-13.48q0.9-0.84 1.77-1.66c4.51-4.25 9.08-8.43 13.8-12.45 16.2-12.98 35.17-19.41 55.97-17.58q1.39 0.28 2.74 0.55c11.22 1.94 21.4 6.43 29.62 14.42 12.98 13.68 18.91 29.26 19.17 47.99q0.01 1.36 0.02 2.68 0.02 2.52 0.01 5.04c-0.58 23.2-14.71 46.43-31.17 62.15q-0.87 0.81-1.71 1.58c-14.71 13.84-30.25 24.52-47.92 34.25q-0.75 0.42-1.48 0.82c9.67 11.64 15.45 25.54 15.39 40.69q-0.03 1.54-0.05 3.03c-0.06 13.08-2.43 25.56-6.45 38.03-8.31 23.22-24.48 44.67-47.07 55.36-32.22 14.34-66.91 5.63-98.27-6.38q-1.12-0.43-2.2-0.85c0.17 1.63 0.17 1.63-0.92 2.68-5.92 5.36-12.88 7.17-20.71 7.73q-1.46 0.08-2.88 0.15c-19.62 0.75-19.62 0.75-39.26 0.75-0.85 0-0.85 0-1.67 0-16.68 0.01-33.33-0.13-49.96-1.51q-1.08-0.09-2.14-0.19c-3.8-0.29-7.41-0.57-11.09-1.61-1.04-0.42-1.04-0.42-2.06-0.83-2.26-0.87-4.31-1.89-6.37-3.18-4.88-3.83-8.25-8.21-9.56-14.35 0-2.44 0-4.8 0-7.17-14.36 0-28.3 0-42.24 0 0 9.45 0.7 11.74-4.86 17.75-31.79 13.32-31.79 13.32-68.14 11.05q-4.39-0.01-8.78-0.01c-14.41 0.03-28.73-0.12-43.05-1.74-1.3-0.16-1.3-0.16-2.56-0.31-1.36-0.14-1.36-0.14-2.69-0.29q-1.31-0.15-2.58-0.3-2.21-0.25-4.39-0.65c-4.02-1.37-7.62-3.47-9.7-7.3q-0.34-0.75-0.66-1.47c-24.24 11.01-51.11 17.96-77.91 14.79q-1.3-0.22-2.57-0.44c-17.51-2.99-35.41-10.42-47.05-24.34q-0.79-0.99-1.56-1.96c-8.09-9.92-13.68-20.54-17.78-32.63q-0.28-0.83-0.55-1.63c-3.34-9.94-5.88-20.08-6.48-30.59-0.63-18.93 4.43-38.08 17.41-52.35 14.74-15.09 33.45-23.64 54.58-24.07q0.95-0.01 1.88-0.02c3.57-0.03 6.84 0.2 10.33 1.06q1.4 0.4 2.76 0.78c-4.02-28.03-5.87-56.54-2.63-84.77q0.12-1.06 0.24-2.08c1.97-16.95 5.71-33.81 11.3-49.93q0.33-0.95 0.66-1.87c7.69-22.01 18.18-42.64 31.37-61.85q1.37-2 2.73-4 4.05-5.94 8.13-11.87c0.4-0.59 0.4-0.59 0.8-1.16-3.38 0-5.58-0.67-8.73-1.74q-1.16-0.41-2.28-0.8c-22.31-7.84-43.98-17.4-64.03-30.01-0.74-0.46-0.74-0.46-1.46-0.92-8.5-5.3-16.73-10.86-24.63-17.02q-0.85-0.66-1.67-1.31c-5.55-4.34-10.73-8.93-15.7-13.93q-1.74-1.77-3.5-3.53c-4.63-4.63-9.16-9.35-13.51-14.25q-0.79-0.89-1.55-1.76c-9.29-10.4-21.24-23.53-21.52-38.24 5.66-3.97 5.66-3.97 12.46-5.61q1.11-0.27 2.19-0.52 3.14-0.76 6.28-1.51 0.7-0.17 1.39-0.33-3.06-3.6-6.16-7.16c-6.57-7.42-13-14.95-18.96-22.87q-0.99-1.32-1.98-2.64c-7.34-9.57-12.89-18.8-14.34-31.08q1.92-1.57 3.83-3.14 2.46-2.02 4.94-4.03c19.34-14.98 29.7-32.56 37.7-55.3q3.59-10.19 7.28-20.34 0.4-1.09 0.78-2.15c3.33-9.17 6.72-18.25 10.71-27.15 1.55-3.35 3.05-6.56 4.04-10.12 0.05-2.08 0.05-2.08-0.87-3.29q-0.75-0.6-1.48-1.18c-19.44-23.13-29.33-53.82-29.71-83.84q-0.01-1.55-0.02-3.06c-0.03-6.31 0.27-12.33 1.42-18.54q0.22-1.08 0.43-2.13c3.73-20.09 12.4-38.53 25.49-54.19 19.2-21.47 41.96-30.63 70.29-29.83z"/>
	<path class="s1" d="m355.29 240.27q1.08 0.25 2.2 0.5c19.61 4.93 36.44 15.27 47.35 32.47 3.96 6.7 6.92 13.33 9.16 20.77q0.25 0.79 0.49 1.61c2.79 9.68 3.28 19.17 3.25 29.17q0 0.97 0 1.98c-0.06 13.97-1.24 25.69-8.5 37.89-2.11 3.59-2.49 6.14-2.16 10.28 4.21 14.53 16.41 24.54 28.11 33.24q1.98 1.48 3.94 3c10.9 8.25 23.2 14.82 36 19.55 2.07 0.79 2.07 0.79 2.87 1.58q0.1 1.7 0.08 3.39-0.01 1.02-0.01 2.06-0.01 1.07-0.02 2.17 0 1.08-0.01 2.18-0.01 2.67-0.04 5.34c-9.8 3.27-24.12 1.53-33.36-2.62-5.88-2.98-10.96-6.69-14.9-12.02-1.82-2.3-1.82-2.3-4.73-2.99-3.37 0.12-4.46 0.91-6.77 3.29-1.28 2.56-1.08 5.19-0.8 7.97 3 8.99 8.65 13.8 16.92 18.06 10.2 4.68 19.7 6.04 30.79 6.09q1.26 0.01 2.56 0.02c4.4-0.04 8.44-0.36 12.7-1.5 4.2-0.96 8.26-0.53 12.41 0.44 4.37 0.9 8.57 1.04 13.02 0.99 1.16-0.01 1.16-0.01 2.34-0.02 5.24-0.07 10.19-0.32 15.24-1.77 1.43-0.41 1.43-0.41 2.9-0.83 6.17-1.86 11.69-4.24 17.02-7.94q1.08-0.71 2.19-1.44c4.33-4.21 7.43-9.08 7.67-15.19-0.04-3.05-0.22-3.96-1.94-6.62-2.28-1.68-2.28-1.68-5.13-1.55-3.33 1.07-4.49 2.26-6.77 4.88-6.93 7.68-15.79 13.06-26.29 13.69-16.29 0.48-16.29 0.48-19.13-0.94 0-5.26 0-10.52 0-15.93q2.08-0.84 4.23-1.7c17.22-7.21 33.23-18.31 47.56-30.18q0.82-0.64 1.66-1.3c7.16-5.84 13.6-13.92 15.51-23.1 0.59-6.33-1.76-10.39-4.82-15.66-9.8-17.43-9.09-44.12-4.56-62.91 5.75-20.3 16.96-37.23 35.59-47.78 9.22-4.79 18.21-7.41 28.34-9.41q0.95-0.21 1.93-0.43c11.19-2.01 23.76-0.74 34.72 2.02q0.8 0.2 1.62 0.4c12.17 3.15 22.54 8.64 31.85 17.13 1 0.88 1 0.88 2.03 1.78 12.67 11.75 19.38 28.4 21.88 45.24q0.21 1.4 0.44 2.85c2.88 24.01-1.36 48.17-16.33 67.52-13.9 16.52-33.4 27.14-55.03 29.23-20.39 1.36-38.62-2.99-55.78-14.34q0.22 0.67 0.46 1.35c3.57 10.6 6.5 21.07 8.3 32.11q0.14 0.84 0.29 1.7c1.36 8.49 1.56 16.82 1.31 25.4q-0.02 1.13-0.05 2.29c-0.91 17.14-8.03 34.11-19.08 47.11q-0.81 1.01-1.65 2.04c-7.72 9.14-17.4 15.64-27.94 21.1q-1.99 1.03-3.95 2.11c-30.12 15.29-71.98 14.01-103.51 4.23-24.47-8.3-44.91-24.32-56.64-47.54-12.37-26.36-9.69-57.18-0.47-83.94 0.79-2.37 1.46-4.76 2.12-7.17q-0.98 0.61-1.99 1.23c-13.63 8.2-27.8 12.8-43.82 12.72q-1.56-0.01-3.16-0.02c-13.75-0.25-25.82-3.42-37.88-9.94q-1.06-0.55-2.14-1.11c-19.29-10.71-30.26-29.71-36.36-50.29-4.48-15.87-3.24-34.01 1.05-49.8q0.31-1.26 0.64-2.57c5.69-19.72 18.63-34.37 36.17-44.41 7.76-4.28 15.87-6.43 24.54-8q1.06-0.23 2.14-0.45c10.39-1.36 21.9-1.1 32.13 1.24z"/>
	<path class="s2" d="m851.72 637.1c11.57 9.54 20.14 25.12 22 40 2.48 26.02-3.57 48.51-19.96 68.97-4 4.7-8.17 9.25-12.4 13.74-0.82 0.88-0.82 0.88-1.66 1.77-10.6 10.93-23.47 19.36-36.59 26.92q-0.79 0.46-1.61 0.93-4.76 2.74-9.54 5.45 0.7 0.97 1.43 1.98c6.06 8.52 10.1 16.55 12.91 26.7q0.21 0.71 0.42 1.45c5.33 24.94-4.34 53.93-17.61 74.93-4.05 6.2-8.73 11.56-13.89 16.85-0.69 0.78-0.69 0.78-1.4 1.58-11.92 13.09-31.63 19.67-48.8 20.73-23.11 1.03-43.57-3.56-65.02-12.01q-3.31-1.27-6.69-2.33c-0.3 0.71-0.3 0.71-0.59 1.44-1.19 2.07-2.35 2.93-4.34 4.24q-0.88 0.59-1.78 1.2c-5.57 2.95-11.41 3.18-17.6 3.58q-0.77 0.05-1.57 0.1c-26.8 1.64-54.25 1.43-81.05-0.1q-0.83-0.05-1.69-0.09c-12.52-0.74-24.27-1.51-33.22-11.17-3.9-5.17-5.27-9.39-4.78-15.93 2.86-13.1 9.07-24.76 17.53-35.06q0.64-0.84 1.3-1.7c9.57-11.91 24.05-19.8 38.54-23.8 1.03-0.3 1.03-0.3 2.09-0.6 20.83-4.82 45.35 0.72 63.25 11.75 3.29 2.27 6.45 4.67 9.56 7.17q0.88 0.7 1.79 1.42c4.28 3.55 7.62 7.71 10.96 12.13 3.04-6.42 5.29-13.04 7.52-19.77 0.31-0.92 0.31-0.92 0.62-1.85 4.75-14.27 8.99-28.7 13.17-43.15q1.5-5.18 3.09-10.33c2.4-7.74 4.38-15.3 5.68-23.31q0.46-2.75 0.94-5.5 0.19-1.17 0.39-2.38c0.44-1.98 1.06-3.5 2.06-5.27 2.67 2.1 3.05 4.33 3.73 7.57 0.31 1.37 0.31 1.37 0.61 2.77 0.44 2.41 0.44 2.41 0.44 4.8q0.8-0.43 1.62-0.87c4.91-2.58 9.84-4.73 15.06-6.6q0.86-0.31 1.75-0.63c3.01-1.05 5.49-1.56 8.66-1.46 1.65-11.95 2.61-23.64 2.43-35.69q-0.01-0.83-0.02-1.7-0.11-7.8-0.31-15.61-0.1-4.34-0.14-8.68-0.05-2.39-0.14-4.78c-0.06-7.29 1.7-11.49 6.15-17.21q1.35-1.9 2.68-3.8 1.34-1.84 2.7-3.67 0.72-0.97 1.46-1.97c4.14-5.55 8.5-10.86 13.08-16.06q0.93-1.06 1.89-2.15 2.61-2.94 5.28-5.81 0.82-0.88 1.65-1.78c25.13-26.15 66.14-41.32 97.96-17.35z"/>
	<path class="s2" d="m282.77 768.58q1.18 0 2.4 0c2.8 5 4.03 9.57 5.03 15.19q0.51 2.69 1.03 5.38c0.27 1.4 0.27 1.4 0.54 2.84 5.7 29.09 12.43 60.81 26.07 87.35q0.49-0.66 0.99-1.34c14.25-18.83 35.05-27.7 57.97-31.33q1.34-0.22 2.72-0.45c18.26-2.22 37.02 1.45 52.06 12.4 15.98 12.7 30.27 31.21 33.25 52.06 0.27 5.49-0.69 9.16-4.36 13.28-9.66 10.53-22.2 10.76-35.63 11.39-12.91 0.54-25.8 0.73-38.72 0.72q-1.48 0-3.01 0c-14.39-0.01-28.64-0.27-42.96-1.75q-1.99-0.17-3.97-0.35c-7.87-0.75-13.83-2.1-19.14-8.41q0-0.79 0-1.6-1.3 0.59-2.64 1.2c-29.45 13.07-63.76 19.77-94.87 8.72-8.37-3.33-15.78-7.48-22.81-13.1q-0.9-0.69-1.83-1.4c-13.49-11.03-20.7-27.93-26.06-44.02q-0.48-1.44-0.97-2.91c-6.4-20.76-7.03-42.62 2.56-62.43 3.69-6.93 8.09-12.71 13.55-18.33q0.65-0.74 1.33-1.51c10.92-11.98 29.96-18.5 45.82-19.3 6.77-0.22 13.23-0.26 19.78 1.68q0.39-1.17 0.8-2.39 0 1.57 0 3.19 1.25 0.1 2.54 0.2c10.03 1.31 19.12 5.15 26.14 12.55 0.06-1.5 0.06-1.5 0.12-3.02q0.09-1.98 0.18-3.95 0.04-0.98 0.08-1.99c0.04-0.96 0.04-0.96 0.09-1.93q0.04-0.88 0.08-1.77c0.28-1.88 0.92-3.22 1.84-4.87z"/>
	<path class="s3" d="m464.45 907.23c13.94 0 27.88 0 42.24 0 0.52 3.42 1.05 6.84 1.59 10.36 3.03 6.24 7.57 10.97 14 13.79 7.47 2.42 15.66 2.51 23.45 2.94q0.86 0.05 1.75 0.11c13.46 0.77 26.91 0.85 40.39 0.84q0.82 0 1.67 0c19.64 0 19.64 0 39.26-0.75q1.42-0.07 2.88-0.15c7.86-0.56 15.13-2.32 20.83-8.02q0.39-0.78 0.8-1.59c4.85 0.49 9.1 2.4 13.59 4.18 26.82 10.31 58.05 14.24 85.21 2.99 7.96-3.54 14.94-8.12 21.34-14.06 2.38-1.45 3.57-1.12 6.29-0.61 1.33 0.25 1.33 0.25 2.69 0.5q1.4 0.28 2.85 0.58 1.44 0.28 2.92 0.57c5.69 1.15 11.28 2.49 16.8 4.31 0.85 0.28 0.85 0.28 1.72 0.56 3.29 1.16 5.82 2.55 8.34 4.97 0.5 1.99 0.5 1.99 0 3.98-24.48 26.93-111.28 20.24-145.72 21.89q-8.86 0.41-17.71 0.81-9.42 0.43-18.83 0.98c-13.31 0.77-26.62 1.22-39.95 1.45q-1.39 0.03-2.83 0.05c-29.44 0.51-58.89 0.51-88.34 0.52q-3.5 0-6.99 0c-47.42 0.02-94.76-0.38-142.14-2.35q-8.86-0.36-17.72-0.66c-24.89-0.87-49.73-2.17-74.57-3.96q-0.85-0.07-1.73-0.13c-83.32-5.98-83.32-5.98-99.2-17.3-0.86-1.3-0.86-1.3-0.82-3.29 1.45-3.83 5.16-5.14 8.72-6.78 6.44-2.27 13.14-3.93 19.92-4.78q1.11-0.14 2.24-0.29c4.23-0.3 6.72 0.04 10.06 2.73q0.87 0.76 1.77 1.55c9.75 8.29 22.93 12.23 35.34 14.34q1.27 0.22 2.57 0.44c25.11 2.97 50.95-2.87 73.87-12.96 2.45-1.03 2.45-1.03 4.04-1.03q0.83 1.08 1.69 2.2c4.14 5.07 9.57 6.17 15.85 6.86 1.3 0.13 1.3 0.13 2.63 0.26q1.24 0.14 2.52 0.28c14.29 1.51 28.58 1.69 42.94 1.66q4.39 0 8.78 0.01c36.24 2.15 36.24 2.15 68.15-10.94 4.88-5.62 4.22-8.81 4.85-17.06z"/>
	<path class="s4" d="m716.75 41.56q0.79 0 1.6 0c12.84 0.05 23.14 2.21 34.56 8.27 1.2 0.61 1.2 0.61 2.43 1.24 14.98 8.11 27.27 22.46 35.82 37.01q0.42 0.7 0.85 1.43c15.14 25.71 17.9 57.51 11.1 86.22-5.62 21.16-14.31 47.76-31.87 62.15q-0.79 0-1.6 0-0.33-0.68-0.68-1.38c-5.56-11.06-11.64-21.63-18.32-32.06-1.82-2.87-3.48-5.7-4.9-8.79 0.58-0.67 0.58-0.67 1.17-1.35 6.58-7.87 11.96-16.61 14.77-26.54q0.35-1.24 0.72-2.53c4.32-17.91 2.38-35.85-7.1-51.65-3.77-5.57-8.05-8.27-14.34-10.36-10.91-1.31-20.04 4.25-28.69 10.36-7.53 5.97-13.33 13.1-19.12 20.71-3.39-0.68-5.5-2.47-8.12-4.63-16.61-13.3-34.39-23.54-53.89-32.04-2.21-0.99-4.37-2.06-6.52-3.17 3.37-4.11 7.01-7.84 10.79-11.57 2.22-2.2 4.34-4.41 6.34-6.81 18.44-21.46 46.85-34.55 75-34.51z"/>
	<path class="s5" d="m304.44 57.5q2.34 1.71 4.63 3.48 1.04 0.8 2.12 1.62c7.23 5.65 13.84 11.89 20.34 18.36q0.79 0.78 1.61 1.59c10.19 10.23 10.19 10.23 10.19 12.7q-0.61 0.25-1.25 0.52c-21.5 8.92-43.2 19.11-60.62 34.94-1.24 1.13-1.24 1.13-3.47 2.79-1.95-0.18-2.92-0.56-4.38-1.87q-0.56-0.68-1.13-1.37-0.63-0.75-1.27-1.52-0.66-0.79-1.33-1.62-1.4-1.65-2.81-3.29-0.67-0.8-1.37-1.61c-8.56-10.02-19.81-18.23-33.16-20.15-6.62-0.29-11 1.82-15.9 6.13-8.49 8.97-12.16 22.01-12.75 34.06q-0.07 1.15-0.13 2.32c-0.48 16.74 4.45 36.2 15.96 48.65 0.9 1.62 0.9 1.62 0.42 3.6-1.12 2.02-2.33 3.73-3.75 5.54-3.34 4.48-6.19 9.19-9.02 14q-0.64 1.08-1.3 2.2c-3.55 6.08-7.04 12.2-10.15 18.52-16.94-15.06-26.94-40.4-31.08-62.16q-0.17-0.88-0.35-1.79c-5.92-31.01-1.24-64.21 16.69-90.64q1.76-2.41 3.58-4.78 0.87-1.13 1.77-2.3c13.09-16.5 29.32-28.3 50.03-32.76q0.89-0.21 1.81-0.42c23.16-4.03 46.92 1.96 66.07 15.26z"/>
	<path class="s4" d="m851.72 637.1c11.57 9.54 20.14 25.12 22 40 2.48 26.02-3.57 48.51-19.96 68.97-4 4.7-8.17 9.25-12.4 13.74q-0.82 0.88-1.66 1.77c-9.51 9.8-21.47 18.66-33.4 25.33q-0.79 0-1.59 0-0.01-0.73-0.01-1.49c-0.53-45.9-19.12-89.07-50.99-122.02q-0.93-0.82-1.89-1.65c-1.3-1.54-1.3-1.54-1.31-3.11 6.52-13.11 27.91-24.89 40.83-29.66 20.45-6.61 42.82-5.11 60.38 8.12z"/>
	<path class="s6" d="m431.58 858.62c15.98 12.7 30.27 31.21 33.25 52.06 0.27 5.49-0.69 9.16-4.36 13.28-9.66 10.53-22.2 10.76-35.63 11.39-12.91 0.54-25.8 0.73-38.72 0.72q-1.48 0-3.01 0c-14.39-0.01-28.64-0.27-42.96-1.75q-1.99-0.17-3.97-0.35c-7.87-0.75-13.83-2.1-19.14-8.41q0-0.79 0-1.6-0.79 0-1.59 0c-5.54-13.79-5.79-25.43-0.43-39.55 7.51-16.39 23.72-26.27 39.93-32.45 7.2-2.55 14.32-4.1 21.85-5.29q1.34-0.22 2.72-0.45c18.26-2.22 37.02 1.45 52.06 12.4z"/>
	<path class="s6" d="m638.96 865.79q0.88 0.7 1.79 1.42c9.03 7.48 17.15 19.1 18.79 30.98 0.07 0.93 0.07 0.93 0.14 1.87q0.08 1.02 0.17 2.07c0.35 9-1.64 17.9-7.34 25.02-6.58 6.55-14.69 7.6-23.61 8.12q-0.76 0.05-1.56 0.09c-26.78 1.57-54.18 1.39-80.96-0.14q-0.83-0.05-1.69-0.09c-12.52-0.74-24.27-1.51-33.22-11.17-3.9-5.17-5.27-9.39-4.78-15.93 2.86-13.1 9.07-24.76 17.53-35.06q0.64-0.84 1.3-1.7c9.57-11.91 24.05-19.8 38.54-23.8q1.03-0.3 2.09-0.6c25.34-5.87 53.11 3.08 72.81 18.92z"/>
	<path class="s7" d="m407.08 371.75q9.44 0.58 18.86 1.37c0.89 0.08 0.89 0.08 1.79 0.16q3.63 0.31 7.25 0.62c17.85 1.56 35.61 2.03 53.53 2.04q0.88 0 1.78 0c19.37 0.02 38.56-0.56 57.83-2.59q2.1-0.22 4.2-0.44 5.47-0.57 10.94-1.16c0.18 9.98-5.79 17.31-12.37 24.3-9.92 10.11-22.57 18.02-34.78 25.07q-2.22 1.28-4.43 2.58c-13.37 7.82-13.37 7.82-17.74 7.82 0 5.26 0 10.51 0 15.93 21.69 0.82 21.69 0.82 40.64-8.76 1.97-2.02 3.81-4.09 5.6-6.27 1.55-1.69 2.61-2.53 4.76-3.29 3.22 0.05 4.97 0.31 7.52 2.34 1.8 3.52 1.83 6.52 1.24 10.41-2.56 7.76-8.31 12.67-15.14 16.73-10.65 5.2-20.8 7.31-32.57 7.32-1.11 0.01-1.11 0.01-2.24 0.03-4.43 0.01-8.49-0.4-12.81-1.41-4.15-0.84-8.08-0.66-12.16 0.43-4.54 1.04-8.99 1.07-13.63 1.05q-1.31-0.01-2.67-0.01c-14.44-0.22-28.54-3.77-39.46-13.79-4.26-5.02-6.76-9.19-6.65-15.9 0.52-3.1 1.9-4.35 4.26-6.41 2.69-0.99 2.69-0.99 5.58-0.79 3.09 1.83 5.24 4.34 7.42 7.17 5.17 6.46 14.89 10.03 22.86 11.15q2.58 0.09 5.17 0.08c1.43 0 1.43 0 2.89-0.01q1.48-0.01 2.99-0.02 1.5 0 3.05-0.01 3.7-0.01 7.41-0.04c-0.26-4.99-0.53-9.99-0.8-15.14q-2.52-0.95-5.13-1.94c-20.12-7.93-37.45-20.69-53.04-35.51q-0.82-0.76-1.66-1.54c-4.61-4.37-8.91-9.67-10.29-15.99q-0.03-2.79 0-5.58z"/>
	<path class="s8" d="m630.2 274.54c1.16 0.62 1.16 0.62 2.34 1.25 10.79 6.3 17.96 16.96 21.11 28.93 3.97 16.17 4.13 36.94-4.31 51.66-6.31 10.31-15.4 18.47-27.43 21.42-3.77 0.6-7.57 0.51-11.38 0.53-1.25 0.02-1.25 0.02-2.51 0.05-12.15 0.06-22.37-4.77-31.21-13-12.59-13.7-12.71-31.5-12.1-48.98 0.75-14.68 5.31-25.39 16.18-35.46 13.29-11.15 33.76-14.91 49.31-6.4z"/>
	<path class="s9" d="m522.62 761.41q0.79 0 1.6 0-1.83 15.31-3.99 30.58c-0.18 1.3-0.18 1.3-0.37 2.63q-0.94 6.61-2.06 13.18c-1.55 9.06-2.79 18.15-3.94 27.27q-0.16 1.22-0.32 2.48c-2.34 18.72-3.87 37.52-4.64 56.38-0.05 1.03-0.05 1.03-0.09 2.09q-0.09 1.98-0.15 3.96c-0.15 3.26-0.48 5.06-1.97 8.05-14.2 0-28.4 0-43.03 0-0.36-3.28-0.72-6.55-1.08-9.92-5.62-52.58-5.62-52.58-14.54-104.68-0.98-4.83-1.65-9.59-2.06-14.49q-0.1-1.04-0.2-2.11c-0.94-10.46-0.94-10.46 0.35-13.03q3.36 1.34 6.71 2.71c19.11 7.81 38.98 10.17 58.58 2.17 3.87-1.87 8.14-4.21 11.2-7.27z"/>
	<path class="s8" d="m382.68 276.73c10.4 6.91 17.26 15.63 20.04 27.92 2.74 18.6 3.69 39.53-6.79 55.95-7.04 9.39-16.29 15.58-27.84 18.02-12.55 1.56-25.34-0.17-35.71-7.86-11.06-9.33-17.01-21.37-18.53-35.66-1.07-17.61-0.15-34.28 11.16-48.61q0.56-0.75 1.14-1.53c13.6-17.34 38.41-18.32 56.53-8.23z"/>
	<path class="s10" d="m506.69 314.38q1.02 0.33 2.07 0.67c10.67 3.77 19.54 10.7 27.82 18.19 1.55 1.39 3.13 2.71 4.72 4.05 3.11 2.74 5.77 5.78 8.42 8.96q0.74 0.84 1.51 1.7c3.55 4.14 6.27 8.52 8.85 13.29 0.47 0.88 0.47 0.88 0.96 1.77q0.43 0.83 0.88 1.69 0.39 0.74 0.79 1.5c0.68 1.92 0.65 3.54 0.55 5.55-9.54 1.6-19.04 2.99-28.68 3.74q-0.96 0.07-1.95 0.15c-41.37 3.06-84.53 2.33-125.55-3.89q-0.39 1.57-0.79 3.19c-0.32-4.53 0.6-7.66 2.68-11.6 0.43-0.83 0.43-0.83 0.87-1.67 11.95-22.52 32.53-39.13 56.21-48.09q1.16-0.45 2.35-0.91c11.92-3.79 26.69-2.48 38.29 1.71z"/>
	<path class="s11" d="m749.72 658.62c3.77 2.74 6.59 6.02 9.57 9.56q0.88 1.03 1.79 2.09 3.13 3.7 6.17 7.47c0.57 0.69 0.57 0.69 1.14 1.39 7.25 8.97 12.77 18.62 17.99 28.89q0.46 0.92 0.95 1.86c6.87 13.67 11.74 27.82 14.99 42.76 0.19 0.88 0.19 0.88 0.39 1.77 2.44 11.03 2.25 22.04 2 33.29q-3.14 1.77-6.28 3.54-0.89 0.5-1.8 1.02-0.85 0.48-1.73 0.97-0.78 0.44-1.59 0.9-1.46 0.8-2.95 1.54-0.45-0.86-0.91-1.75c-5.34-8.06-18.25-15.38-27.49-17.96-2.23-0.66-3.95-1.28-5.86-2.6-1.45-2.94-1.76-5.93-2.14-9.16q-0.43-2.72-0.89-5.43-0.23-1.34-0.46-2.73c-3.94-20.59-15.94-39.25-30.15-54.21-1.45-1.82-1.93-2.7-2.22-4.97 1.2-2.1 2.42-3.97 3.84-5.92q0.59-0.84 1.21-1.71c7.59-10.63 15.74-20.86 24.43-30.61z"/>
	<path class="s12" d="m747.06 104.52c9.05 5.26 13.61 16.14 16.63 25.8 4.48 18.88 0.71 38.6-9.33 54.91-5.72 9.04-5.72 9.04-9.42 10.42q-0.55-0.85-1.11-1.73c-7.84-11.98-16.87-23-26.51-33.58-1.06-1.34-1.06-1.34-1.81-3.01-1.07-1.92-2.08-2.18-4.03-3.11-1.45-1.5-1.45-1.5-2.84-3.19-1.69-2.04-2.9-3.3-5.13-4.78q0-0.79 0-1.6c-0.65-0.26-0.65-0.26-1.31-0.54-2.47-1.38-4.41-3.21-6.46-5.13q-0.6-0.56-1.23-1.13-1.48-1.38-2.96-2.76 0.96-1.1 1.95-2.24c2.17-2.53 4.28-5.12 6.37-7.72 10.51-12.82 29.73-28.66 47.19-20.61z"/>
	<path class="s11" d="m248.5 106.86c5.33 3.23 9.87 7.19 14.35 11.5q0.73 0.68 1.49 1.39c3.57 3.42 6.64 7.22 9.73 11.07 1.49 1.89 1.49 1.89 3.13 3.47q-0.75 0.58-1.51 1.17c-6.21 4.93-11.82 10.32-17.4 15.94q-2.27 2.28-4.55 4.54c-5.56 5.56-10.73 11.21-15.59 17.4q-1.79 2.17-3.58 4.33c-3.74 4.56-7.26 9.26-10.76 14q-1.2 1.59-2.39 3.18c-4.63-1.78-6.39-6.27-8.77-10.35q-0.54-0.93-1.1-1.88c-8.94-16.4-10.73-36.95-6.22-54.88 3.12-10.04 8.02-18.56 16.74-24.75 8.48-4.37 18.73-0.19 26.43 3.87z"/>
	<path class="s13" d="m427.8 429.92c2.01 1.83 2.01 1.83 3.83 4.14 6.42 7.49 15.07 12.01 24.86 13.39q2.58 0.09 5.17 0.08 1.43 0 2.89-0.01 1.48-0.01 2.99-0.02 1.5 0 3.05-0.01 3.7-0.01 7.41-0.04c0-4.99 0-9.99 0-15.14 2.48-0.01 4.96-0.03 7.52-0.05 1.18-0.01 1.18-0.01 2.37-0.02q0.92 0 1.86 0 0.94-0.01 1.91-0.02c1.48 0.09 1.48 0.09 2.28 0.89q0.09 1.61 0.08 3.22c-0.01 0.96-0.01 0.96-0.01 1.95-0.01 1.01-0.01 1.01-0.02 2.05q-0.01 1.02-0.01 2.06-0.02 2.53-0.04 5.06c21.69 0.83 21.69 0.83 40.64-8.76 1.97-2.02 3.81-4.09 5.6-6.27 1.55-1.69 2.61-2.53 4.76-3.29 3.22 0.05 4.97 0.31 7.52 2.34 1.8 3.52 1.83 6.52 1.24 10.41-2.56 7.76-8.31 12.67-15.14 16.73-10.65 5.2-20.8 7.31-32.57 7.32q-1.11 0.01-2.24 0.03c-4.43 0.01-8.49-0.4-12.81-1.41-4.15-0.84-8.08-0.66-12.16 0.43-4.54 1.04-8.99 1.07-13.63 1.05q-1.31-0.01-2.67-0.01c-14.44-0.22-28.54-3.77-39.46-13.79-4.28-5.05-6.71-9.17-6.66-15.9 0.51-2.93 2.18-4.37 4.27-6.41 2.57-1.29 4.43-0.66 7.17 0z"/>
	<path class="s14" d="m598.32 669.77c4.99 3.85 8.35 8.92 9.57 15.14 0.7 8.46-0.31 15.82-5.68 22.61-4.81 5.06-11.32 7.7-18.23 7.97-6.81-0.07-13.71-2.83-18.7-7.52-4.93-6.25-7.64-13.55-6.8-21.46 1.78-7.47 5.48-13.98 11.95-18.28 9.59-5.31 18.9-4.36 27.89 1.54z"/>
	<path class="s14" d="m396.69 668.82c6.24 3.65 10.35 8.85 12.37 15.79 1.56 7.23-0.04 13-3.57 19.43-1.68 2.34-3.5 4.37-5.58 6.37q-0.91 0.91-1.84 1.84c-5.41 3.4-11.77 4.6-18.08 3.74-6.66-1.63-12.43-5.47-16.24-11.23-0.8-1.54-1.47-3.08-2.09-4.71-0.49-1.11-0.49-1.11-0.99-2.24-1.69-7.16-0.92-14.07 2.94-20.35 7.76-10.79 20.91-14.47 33.08-8.64z"/>
	<path class="s1" d="m497.92 616.88c6.42 5.08 11.1 10.91 12.25 19.18 0.35 7.58-2.13 14.46-6.91 20.34-4.85 5.09-9.66 7.78-16.74 8.09-6.76-0.15-11.7-2.88-16.6-7.41-5.93-6.59-7.59-12.9-7.38-21.6 0.7-6.84 4.19-12.6 9.25-17.19 8.53-6.63 16.91-6.4 26.13-1.41z"/>
	<path class="s1" d="m580.15 596.01c5.71 4.52 9.32 10.76 10.21 17.98 0.71 6.47-0.8 12.39-4.45 17.8-4.21 5.11-9.74 8.81-16.43 9.59-8.16 0.16-13.66-1.35-19.66-6.97-6.08-6.58-6.92-13.12-6.75-21.79 0.35-6.54 3.6-11.41 8.32-15.78 8.86-6.86 19.47-6.91 28.76-0.83z"/>
	<path class="s1" d="m414.33 593.9c6.98 4.48 11.44 9.57 13.47 17.7 1.04 7.43-0.34 13.58-4.72 19.66-4.64 5.56-9.18 9.25-16.49 10.2-7.63 0.31-13.14-0.84-18.86-6-5.78-6.05-7.91-12.31-7.74-20.67 1.05-8.1 4.01-13.6 10.41-18.63 6.38-4.67 16.64-5.7 23.93-2.26z"/>
	<path class="s4" d="m586.54 106.78c4.97 3.9 8.08 8.62 8.95 14.94 0.2 5.65-0.53 10.15-3.54 14.96q-0.46 0.75-0.94 1.51c-3.76 5.11-10.4 8.5-16.59 9.65-6.74 0.68-13.04-0.67-18.58-4.63-5.69-4.69-9.11-9.96-10.47-17.24-0.41-5.91 1.84-10.77 5.14-15.58 2.19-2.28 4.46-3.98 7.18-5.58q0.7-0.43 1.42-0.86c8.45-4.07 19.93-2.17 27.43 2.83z"/>
	<path class="s14" d="m409.52 104.46c5.99 3.3 11.15 7.93 13.16 14.63 1.33 6.55 0.11 12.46-2.85 18.39-1.94 2.34-1.94 2.34-3.98 3.99-0.84 0.81-0.84 0.81-1.7 1.64-6.33 4.27-13.08 5.6-20.61 4.73-2.32-0.52-4.28-1.3-6.38-2.39q-0.81-0.39-1.64-0.79c-5.67-3.1-9.11-8.27-11.11-14.35-0.69-6.25-0.45-11.51 3.19-16.73q0.83-1.23 1.69-2.49c7.08-8.08 20.33-10.7 30.23-6.63z"/>
	<path class="s15" d="m719.44 698.46q1.33 1.12 2.66 2.24 0.73 0.63 1.49 1.27c18.09 16.05 29.1 42.27 32.51 65.81q0.06 2.79 0 5.58-0.7-0.17-1.42-0.35c-11.85-2.45-24.86-1.92-36.83-0.45q0.17-2.91 0.35-5.82c0.05-0.8 0.05-0.8 0.09-1.62 0.15-2.39 0.3-4.77 0.55-7.14 0.69-6.43 0.71-12.83 0.68-19.29q0-1.75 0-3.5-0.01-4.56-0.02-9.12-0.01-4.67-0.02-9.35-0.01-9.13-0.04-18.26z"/>
	<path class="s4" d="m335.37 133.5c3.53 2.24 5.86 4.75 7.17 8.76 1.05 8.84-1.07 15.87-6.43 22.91-5.29 6.1-11.97 10.68-20.1 11.68-6.68 0.18-11.44-0.52-16.5-5.1-3.76-4.23-3.67-9.4-3.49-14.83 0.83-7.48 5.29-13.73 10.86-18.63 8.42-6.33 18.66-9.88 28.49-4.79z"/>
	<path class="s4" d="m654.9 134.29c7.31 4.13 13.03 10 16.2 17.86 1.43 5.56 1.78 11.84-1.21 16.91-2.53 3.34-5.53 5.86-9.41 7.47-8.97 1.2-15.23-1-22.53-6.04-6.2-4.92-10.94-12.26-12.06-20.15-0.2-6.25 1.07-10.41 5.1-15.25 7.03-6.35 16.06-4.58 23.91-0.8z"/>
	<path class="s4" d="m603.05 173.94c5.64 3.4 9.19 7.35 11.21 13.74 0.71 4.89 0.82 9.74-2.07 13.93-5.48 5.98-11.76 8.06-19.75 8.49q-3.19 0.08-6.37 0.09c-1.07 0.03-1.07 0.03-2.16 0.05-5.93 0.04-11.16-0.71-15.82-4.58-4.07-5.06-3.9-10.05-3.23-16.38 2.26-7.09 7.15-12.27 13.54-15.94 7.32-3.03 17.49-2.9 24.65 0.6z"/>
	<path class="s4" d="m392.74 175.73q0.84 0.5 1.7 1.02c4.67 3.1 7.42 7.13 9.15 12.45 0.39 2.15 0.44 4.21 0.45 6.4q0.02 1.21 0.04 2.46c-0.37 4.73-2.21 7.28-5.76 10.34-4.67 2.29-9.41 1.86-14.5 1.84q-1.4 0.02-2.85 0.04c-8.96 0.01-16.33-1.57-23.29-7.46-3.3-3.77-4.27-7.52-4.21-12.42 0.37-3.19 1.72-5.61 3.41-8.3q0.64-1.03 1.3-2.09c8.53-8.53 24.2-11.05 34.56-4.28z"/>
	<path class="s4" d="m721.19 399.39c4.39 3.61 7.27 7.67 8.1 13.35 0.4 7.57-2.05 14.91-6.96 20.72q-1.41 1.45-2.89 2.84-0.66 0.67-1.34 1.36c-4.33 4.11-9.15 5.86-15.09 6.11-4.93-0.2-9.11-2.12-12.77-5.44-4.35-4.98-4.73-10.53-4.51-16.94 0.69-7.27 4.41-12.73 9.8-17.6 7.05-5.53 17.04-8.99 25.66-4.4z"/>
	<path class="s4" d="m265.89 398.5c8.27 4.28 13.97 11.52 16.88 20.27 0.96 13.14 0.96 13.14-3.18 18.32-4.11 4.2-8.72 6.36-14.55 6.83-6.56-0.27-12.47-3.94-16.88-8.62-6.3-7.74-8.52-15.4-7.62-25.3 1.46-5.32 4.27-9.15 9.04-11.95 5.28-1.99 11.1-1.62 16.31 0.45z"/>
	<path class="s4" d="m499.42 108.5c4.52 4.4 6.61 9.12 6.9 15.44 0.07 6.6-0.64 11.24-5.29 16.08-6.1 5.71-10.97 6.69-19.13 6.47-5.75-0.45-8.66-2.36-12.51-6.52-4.18-5.12-6.08-10-5.95-16.64 0.79-6.5 4.21-11.8 8.98-16.13 8.5-6.13 18.79-5 27 1.3z"/>
	<path class="s4" d="m211.82 335.71c7 4.21 11.74 9.91 14.06 17.74 1.42 7.03-0.62 12.1-4.16 18.1-4.39 4.16-9.07 6.03-15.09 6.28-7.11-0.31-11.89-3.46-16.68-8.55-5.07-6.41-5.91-13.57-5.4-21.49 0.61-4.42 3.24-7.35 6.65-9.99 6.16-4.05 13.71-5.13 20.62-2.09z"/>
	<path class="s4" d="m775.14 336.37c4.21 2.8 7.34 6.64 8.85 11.48 0.8 7.72 0.12 13.72-4.42 20.04-3.63 4.47-8.1 8.37-13.91 9.44-5.93 0.52-11.04 0.49-15.94-3.19-4.81-4.81-6.5-9.02-6.82-15.68 0.17-6.75 2.31-12 6.72-17.11 7.25-6.86 16.27-9.58 25.52-4.98z"/>
	<path class="s4" d="m300.6 630.38c4.27 2.52 7.93 6.62 9.69 11.29 1.54 7.41 1.1 15.16-2.81 21.73-3.27 4.86-6.98 8.17-12.75 9.56-5.37 0.63-10.61 0.76-15.37-2.07-4.51-3.69-7.41-8.54-8.06-14.32-0.22-9.08 1.48-15.8 7.84-22.71 5.88-5.24 14.13-6.75 21.46-3.48z"/>
	<path class="s4" d="m679.91 629.65c6.71 3.09 10.75 8.31 13.33 15.11 1.6 6.14 1.95 13.75-0.74 19.66-2.54 3.67-6.33 6.92-10.51 8.54-6.14 0.7-11.64 0.54-16.73-3.19-2.19-1.94-2.19-1.94-3.99-3.98q-0.83-0.93-1.69-1.89c-3.3-4.63-4.33-8.72-4.28-14.3q0.01-0.88 0.01-1.8c0.17-5.04 1.14-9.09 4.37-13.09 5.95-5.53 12.16-7.25 20.23-5.06z"/>
	<path class="s4" d="m295.72 709.36c6.99 4.04 11.18 9.24 13.35 16.99 0.8 7.14 0.36 13.22-3.98 19.12-2.92 3.13-5.51 5.34-9.9 5.77-6.92 0.18-11.13-1.27-16.2-5.97-5.87-6.23-6.83-12.67-6.74-20.98 0.36-5.85 3.15-9.9 7.34-13.88 4.84-3.41 10.82-3.55 16.13-1.05z"/>
	<path class="s4" d="m685.38 709.32c4.53 2.57 7.33 6.34 8.96 11.24 1.7 7.56 0.09 14.64-3.92 21.19-3.14 4.38-6.44 7.54-11.61 9.3-4.39 0.51-8.28 0.61-12.31-1.3-4.78-4.42-8.02-8.44-8.7-14.98-0.25-6.74 0.43-11.6 4.27-17.19 0.52-0.78 0.52-0.78 1.05-1.58 5.31-7.07 14.02-10.34 22.26-6.68z"/>
	<path class="s16" d="m707.49 182.9c10.09 3.65 15.74 11.26 20.22 20.62 1.02 5.09 1.44 10.1-0.85 14.84-3.87 4.19-6.3 5.74-11.9 6.23-7.13-0.16-12.52-3.72-17.56-8.5-6.07-6.88-8.58-13.41-8.51-22.46 0.4-4.01 1.43-5.51 4.26-8.34 4.54-3.25 8.94-3.14 14.34-2.39z"/>
	<path class="s4" d="m270.03 182.9c3.99 1.93 6.77 4.78 8.76 8.77 0.84 8.72-1.11 15.59-6.63 22.4-5.51 6.16-11.12 9.54-19.42 10.67-4.72-0.72-7.96-2.27-10.95-6.03-2.64-4.96-2.85-9.63-1.43-15.04 3.14-8.5 8.88-15.33 17.07-19.33q0.71-0.32 1.44-0.64c3.33-1.67 7.52-1.14 11.16-0.8z"/>
	<path class="s17" d="m409.47 884.92c2.79 1.63 4.63 3.26 5.58 6.37 0.15 4.17-0.18 7.55-1.19 11.61-2.31 10.41-1.39 21.62-1.2 32.22-2.73 0.62-5.24 0.89-8.03 0.87q-1.11 0-2.25 0c-1.15-0.01-1.15-0.01-2.32-0.02q-1.16-0.01-2.36-0.01-2.88-0.02-5.76-0.04c-0.91-5.65-0.94-11.27-0.94-16.97q-0.01-2.47-0.03-4.94c-0.05-9.73 0.77-18.49 6.8-26.49 3.32-3.35 7.31-3.4 11.7-2.6z"/>
	<path class="s17" d="m568.04 884.92c5.13 2.9 7.23 7.23 8.77 12.75 1.63 6.26 1.81 12.28 1.74 18.72q0 1.38 0 2.8c-0.03 5.41-0.4 10.5-0.94 15.93-6.84 0-13.68 0-20.72 0 0.03-3.39 0.06-6.77 0.1-10.26 0.03-6.74-0.04-13.38-0.9-20.07q-0.11-0.85-0.22-1.72-0.1-0.8-0.21-1.63c-1.3-10.47-1.3-10.47 1.43-14.18q1.08-0.76 2.19-1.54c0.74-0.55 0.74-0.55 1.49-1.1 2.74-0.8 4.53-0.45 7.27 0.3z"/>
	<path class="s18" d="m614.96 883.73c3.97 0.92 6.95 3.32 9.86 6.07 7.89 12.97 7.06 28.55 4.58 42.93q2.36 0.39 4.78 0.8 0 0.39 0 0.79c-5.34 0.82-10.54 0.89-15.93 0.85q-1.27-0.01-2.57-0.01-3.1-0.01-6.2-0.04 0.02-0.99 0.05-2.01c0.26-12.07 0.43-23.6-2.54-35.39-0.8-3.3-0.93-6.22-0.7-9.61 2.32-3.47 4.43-4.66 8.67-4.38z"/>
	<path class="s4" d="m756.95 263.53c6.47 2.72 9.65 7.24 12.69 13.4 2.41 5.98 2.69 13.09 0.25 19.07-1.9 3.78-4.16 5.87-8.21 7.22-5.09 0.63-8.14-0.41-12.43-3.2-4.91-4.04-7.69-8.97-9.09-15.12-1.1-12.74-1.1-12.74 2.18-17.94 4.19-4.93 8.72-5.38 14.61-3.43z"/>
	<path class="s17" d="m360.07 884.92c2.25 1.74 3.52 3.05 4.78 5.58 0.36 3.69-0.47 6.43-1.68 9.85-2.73 8.04-3.42 15.34-3.25 23.81q0.02 1.61 0.03 3.21 0.04 3.88 0.12 7.75c-6.71 0.07-13.26 0.08-19.92-0.8-2.47-13.79-2.81-30.9 4.68-43.18 4.09-5.4 8.48-7.56 15.24-6.22z"/>
	<path class="s4" d="m451.99 165.89c4.62 2.09 7.98 5.57 10.19 10.13 1.58 4.85 1.52 10.52-0.61 15.2-2.66 4.48-6.46 7.19-11.35 8.81-5.06 1.2-9.28 0.79-13.83-1.78-4.04-2.86-6.32-6.71-7.79-11.36-0.93-6.06 0.4-10.98 3.98-15.94 5.71-5.38 11.62-7.2 19.41-5.06z"/>
	<path class="s4" d="m219.03 262.59c3.44 1.18 5.62 2.88 7.47 6.02 3.08 6.52 2.87 12.4 0.5 19.18-2.47 5.87-5.89 10.13-11.01 13.89-4.32 1.27-8.92 1.98-13.06-0.16-3.88-3.09-5.14-6.28-5.71-11.23-0.17-8.64 1.72-16.18 7.77-22.61 4.22-3.65 8.45-5.55 14.04-5.09z"/>
	<path class="s4" d="m529 165.37c4.67 2.09 8.06 6.25 10.66 10.61 1.31 5.67 0.99 11.36-1.9 16.48-1.94 2.24-1.94 2.24-3.98 3.99q-0.76 0.66-1.54 1.34c-3.93 2.5-8.21 3.4-12.8 2.64-5.64-1.8-8.87-4.45-11.91-9.49-2.29-4.51-2.5-9.79-1.12-14.64 4.42-9.8 12.58-11.85 22.59-10.93z"/>
	<path class="s19" d="m350.51 284.9c4.51 2.17 7.64 5.73 9.56 10.36 0.72 5.86 0.41 11.1-3.19 15.93-3.44 3.35-6.69 4.84-11.45 5.08-3.76-0.11-6.45-0.96-9.27-3.48-4.1-5.29-5.46-10.08-4.78-16.74 1.24-4.47 3.83-7.69 7.64-10.3 3.75-1.66 7.5-1.51 11.49-0.85z"/>
	<path class="s19" d="m598.32 284.9c4.31 1.87 7.23 5.11 9.07 9.4 1.29 4.56 1.14 8.84-0.85 13.16-1.96 3.41-4.24 6.04-7.72 7.97-4.97 1.3-8.79 0.66-13.25-1.85-4.34-3.94-6.35-7.96-6.67-13.84 0.12-4.47 1.58-8.1 4.71-11.32 4.67-3.99 8.7-4.3 14.71-3.52z"/>
	<path class="s20" d="m301.1 554.23c2.34 0.35 4.21 0.9 6.38 1.88 3.84 1.67 7.85 2.63 11.9 3.65 1.2 0.31 1.2 0.31 2.43 0.62q3.59 0.92 7.18 1.82 1.03 0.26 2.1 0.53 5.32 1.34 10.65 2.66c-2.22 1.48-3.58 2.02-6.1 2.68q-1.11 0.29-2.25 0.59c-1.19 0.3-1.19 0.3-2.41 0.61-1.23 0.32-1.23 0.32-2.49 0.64-11.8 2.98-23.29 5.31-35.43 6.32-2.94 0.11-2.94 0.11-4.71 1.11 1.31-4.09 3.79-7.27 6.28-10.71q1.27-1.77 2.53-3.53 0.6-0.83 1.21-1.69 2.22-3.15 4.33-6.38-0.79-0.4-1.6-0.8z"/>
	<path class="s21" d="m671.63 554.23c-3.68 1.31-7.36 2.63-11.15 3.98 2.23 3.41 4.48 6.78 6.87 10.08q0.54 0.74 1.09 1.51 1.1 1.5 2.2 3c2.59 3.57 2.59 3.57 2.59 5.34-15.74-0.59-30.89-4.4-45.42-10.36 2.15-2.92 5.17-3.21 8.51-3.89 10.36-2.27 20.52-5.31 30.15-9.8 1.98-0.66 1.98-0.66 5.16 0.14z"/>
	<path class="s22" d="m583.18 279.32c0 2.39 0 2.39-0.95 3.61q-0.64 0.63-1.31 1.28c-0.7 0.69-0.7 0.69-1.42 1.39q-0.74 0.71-1.5 1.44-0.73 0.72-1.49 1.46-1.84 1.79-3.68 3.57c0-3.91 2.94-6.06 5.57-8.77 1.55-1.4 3.13-2.69 4.78-3.98z"/>
	<path class="s23" d="m770.44 640.29q0.79 0.39 1.6 0.8c-5.96 6.26-5.96 6.26-9.57 7.96q-1.17 0-2.39 0 1.92-1.74 3.84-3.48 1.06-0.97 2.15-1.96c1.98-1.73 1.98-1.73 4.37-3.32z"/>
	<path class="s24" d="m129.78 355.82q0.79 0.39 1.59 0.79-0.93 0.89-1.89 1.8c-1.74 1.82-2.75 3.08-3.68 5.37q-0.4-1.96-0.8-3.98 2.35-1.96 4.78-3.98z"/>
	<path id="Layer copy" class="s0" d="m259.83 41.51c28.74 1.08 53.44 19.93 72.27 40.23q0.78 0.85 1.54 1.67 1.51 1.64 3.02 3.27c0.71 0.79 0.71 0.79 1.4 1.56 0.67 0.73 0.67 0.73 1.32 1.44 1.27 1.42 2.35 2.37 3.98 3.36 1.57 0.62 1.57 0.62 3.54 0.12 29.53-12.25 62.28-16.81 94.03-18.61 0.88-0.05 0.88-0.05 1.75-0.1 14.12-0.79 28.21-0.94 42.35-0.88q3.92 0.02 7.83 0.02 3.92 0 7.84 0 1.88 0.01 3.76 0.01c35.93 0.02 71.72 3.93 105.97 15.12q1.45 0.49 2.87 0.96 1.36 0.46 2.69 0.9c2.4 0.82 4.74 1.5 7.22 2.04 2.21 0.24 2.21 0.24 3.91-0.89q0.8-0.89 1.58-1.76 0.95-1.02 1.86-2.01 2.69-3.02 5.42-6 0.6-0.66 1.19-1.3c4.45-4.86 9.09-9.44 14.05-13.78 0.65-0.56 0.65-0.56 1.29-1.11 11.32-9.84 24.71-16.43 38.94-20.99q0.86-0.27 1.7-0.53c7.43-2.34 14.66-2.61 22.41-2.68 0.8 0 0.8 0 1.59-0.01 9.56-0.11 18.25 1.07 27.25 4.36q0.76 0.29 1.49 0.57c7.64 2.93 13.94 6.89 20.26 12.09q0.96 0.82 1.9 1.61c2.96 2.46 5.77 4.89 8.32 7.77q1.02 1.29 2.04 2.59c12.37 14.48 20.43 29.73 25.02 48.23q0.24 1 0.48 1.97c5.71 22.64 2.55 47.19-4.93 69.05q-0.33 0.95-0.65 1.87c-3.19 9.2-7.07 17.84-11.86 26.33-0.45 0.78-0.45 0.78-0.89 1.56-2.86 5.09-5.66 9.88-9.86 13.99-1.5 1.34-2.74 2.51-3.85 4.2-0.63 1.73-0.63 1.73-0.21 3.42q0.45 0.94 0.88 1.85 0.5 1.08 0.98 2.13c3.23 6.8 6.16 13.68 8.74 20.74q0.5 1.4 0.99 2.76 1.51 4.21 3.02 8.43c3.7 10.43 7.3 20.9 11.52 31.13q0.41 0.99 0.82 1.95c3.93 9.42 8.81 17.84 15.93 25.24q1.07 1.06 2.12 2.09c4.43 4.4 8.86 8.48 14.19 11.8 2.02 1.22 3.99 2.43 5.89 3.83 2.53 2.07 4.28 3.29 4.62 6.68-3.95 23.38-21.06 45.57-36.92 62.39q-0.68 0.69-1.33 1.36c1.6 0.79 1.6 0.79 4 1.16 3.55 0.46 7.1 0.92 10.62 1.57 3.08 0.77 5.15 1.74 6.9 4.44-5.21 16.38-5.21 16.38-16.25 30.18q-0.65 0.86-1.28 1.69c-7.22 9.65-15.04 18.82-24.01 26.9-2.03 1.76-4.04 3.53-5.99 5.37-6.36 6-13.12 11.38-20.09 16.64q-0.87 0.66-1.71 1.29c-24.79 18.79-53.79 32.2-83.31 41.65-0.78 0.25-0.78 0.25-1.55 0.49-1.46 0.47-1.46 0.47-2.89 0.92-2.75 0.86-4.67 1.56-7.07 3.16 26.27 35 47.58 74.31 55.47 117.83q0.48 2.63 0.97 5.25 0.32 1.71 0.63 3.42c0.69 3.88 1.56 7.59 2.69 11.35 5.5-8.59 11.49-16.71 17.85-24.69 0.64-0.81 0.64-0.81 1.28-1.6 3.72-4.71 7.46-9.29 11.77-13.48q0.9-0.84 1.77-1.66c4.51-4.25 9.08-8.43 13.8-12.45 16.2-12.98 35.17-19.41 55.97-17.58q1.39 0.28 2.74 0.55c11.22 1.94 21.4 6.43 29.62 14.42 12.98 13.68 18.91 29.26 19.17 47.99q0.01 1.36 0.02 2.68 0.02 2.52 0.01 5.04c-0.58 23.2-14.71 46.43-31.17 62.15q-0.87 0.81-1.71 1.58c-14.71 13.84-30.25 24.52-47.92 34.25q-0.75 0.42-1.48 0.82c9.67 11.64 15.45 25.54 15.39 40.69q-0.03 1.54-0.05 3.03c-0.06 13.08-2.43 25.56-6.45 38.03-8.31 23.22-24.48 44.67-47.07 55.36-32.22 14.34-66.91 5.63-98.27-6.38q-1.12-0.43-2.2-0.85c0.17 1.63 0.17 1.63-0.92 2.68-5.92 5.36-12.88 7.17-20.71 7.73q-1.46 0.08-2.88 0.15c-19.62 0.75-19.62 0.75-39.26 0.75-0.85 0-0.85 0-1.67 0-16.68 0.01-33.33-0.13-49.96-1.51q-1.08-0.09-2.14-0.19c-3.8-0.29-7.41-0.57-11.09-1.61-1.04-0.42-1.04-0.42-2.06-0.83-2.26-0.87-4.31-1.89-6.37-3.18-4.88-3.83-8.25-8.21-9.56-14.35 0-2.44 0-4.8 0-7.17-14.36 0-28.3 0-42.24 0 0 9.45 0.7 11.74-4.86 17.75-31.79 13.32-31.79 13.32-68.14 11.05q-4.39-0.01-8.78-0.01c-14.41 0.03-28.73-0.12-43.05-1.74-1.3-0.16-1.3-0.16-2.56-0.31-1.36-0.14-1.36-0.14-2.69-0.29q-1.31-0.15-2.58-0.3-2.21-0.25-4.39-0.65c-4.02-1.37-7.62-3.47-9.7-7.3q-0.34-0.75-0.66-1.47c-24.24 11.01-51.11 17.96-77.91 14.79q-1.3-0.22-2.57-0.44c-17.51-2.99-35.41-10.42-47.05-24.34q-0.79-0.99-1.56-1.96c-8.09-9.92-13.68-20.54-17.78-32.63q-0.28-0.83-0.55-1.63c-3.34-9.94-5.88-20.08-6.48-30.59-0.63-18.93 4.43-38.08 17.41-52.35 14.74-15.09 33.45-23.64 54.58-24.07q0.95-0.01 1.88-0.02c3.57-0.03 6.84 0.2 10.33 1.06q1.4 0.4 2.76 0.78c-4.02-28.03-5.87-56.54-2.63-84.77q0.12-1.06 0.24-2.08c1.97-16.95 5.71-33.81 11.3-49.93q0.33-0.95 0.66-1.87c7.69-22.01 18.18-42.64 31.37-61.85q1.37-2 2.73-4 4.05-5.94 8.13-11.87c0.4-0.59 0.4-0.59 0.8-1.16-3.38 0-5.58-0.67-8.73-1.74q-1.16-0.41-2.28-0.8c-22.31-7.84-43.98-17.4-64.03-30.01-0.74-0.46-0.74-0.46-1.46-0.92-8.5-5.3-16.73-10.86-24.63-17.02q-0.85-0.66-1.67-1.31c-5.55-4.34-10.73-8.93-15.7-13.93q-1.74-1.77-3.5-3.53c-4.63-4.63-9.16-9.35-13.51-14.25q-0.79-0.89-1.55-1.76c-9.29-10.4-21.24-23.53-21.52-38.24 5.66-3.97 5.66-3.97 12.46-5.61q1.11-0.27 2.19-0.52 3.14-0.76 6.28-1.51 0.7-0.17 1.39-0.33-3.06-3.6-6.16-7.16c-6.57-7.42-13-14.95-18.96-22.87q-0.99-1.32-1.98-2.64c-7.34-9.57-12.89-18.8-14.34-31.08q1.92-1.57 3.83-3.14 2.46-2.02 4.94-4.03c19.34-14.98 29.7-32.56 37.7-55.3q3.59-10.19 7.28-20.34 0.4-1.09 0.78-2.15c3.33-9.17 6.72-18.25 10.71-27.15 1.55-3.35 3.05-6.56 4.04-10.12 0.05-2.08 0.05-2.08-0.87-3.29q-0.75-0.6-1.48-1.18c-19.44-23.13-29.33-53.82-29.71-83.84q-0.01-1.55-0.02-3.06c-0.03-6.31 0.27-12.33 1.42-18.54q0.22-1.08 0.43-2.13c3.73-20.09 12.4-38.53 25.49-54.19 19.2-21.47 41.96-30.63 70.29-29.83z"/>
	<path id="Layer copy 2" class="s1" d="m355.29 240.27q1.08 0.25 2.2 0.5c19.61 4.93 36.44 15.27 47.35 32.47 3.96 6.7 6.92 13.33 9.16 20.77q0.25 0.79 0.49 1.61c2.79 9.68 3.28 19.17 3.25 29.17q0 0.97 0 1.98c-0.06 13.97-1.24 25.69-8.5 37.89-2.11 3.59-2.49 6.14-2.16 10.28 4.21 14.53 16.41 24.54 28.11 33.24q1.98 1.48 3.94 3c10.9 8.25 23.2 14.82 36 19.55 2.07 0.79 2.07 0.79 2.87 1.58q0.1 1.7 0.08 3.39-0.01 1.02-0.01 2.06-0.01 1.07-0.02 2.17 0 1.08-0.01 2.18-0.01 2.67-0.04 5.34c-9.8 3.27-24.12 1.53-33.36-2.62-5.88-2.98-10.96-6.69-14.9-12.02-1.82-2.3-1.82-2.3-4.73-2.99-3.37 0.12-4.46 0.91-6.77 3.29-1.28 2.56-1.08 5.19-0.8 7.97 3 8.99 8.65 13.8 16.92 18.06 10.2 4.68 19.7 6.04 30.79 6.09q1.26 0.01 2.56 0.02c4.4-0.04 8.44-0.36 12.7-1.5 4.2-0.96 8.26-0.53 12.41 0.44 4.37 0.9 8.57 1.04 13.02 0.99 1.16-0.01 1.16-0.01 2.34-0.02 5.24-0.07 10.19-0.32 15.24-1.77 1.43-0.41 1.43-0.41 2.9-0.83 6.17-1.86 11.69-4.24 17.02-7.94q1.08-0.71 2.19-1.44c4.33-4.21 7.43-9.08 7.67-15.19-0.04-3.05-0.22-3.96-1.94-6.62-2.28-1.68-2.28-1.68-5.13-1.55-3.33 1.07-4.49 2.26-6.77 4.88-6.93 7.68-15.79 13.06-26.29 13.69-16.29 0.48-16.29 0.48-19.13-0.94 0-5.26 0-10.52 0-15.93q2.08-0.84 4.23-1.7c17.22-7.21 33.23-18.31 47.56-30.18q0.82-0.64 1.66-1.3c7.16-5.84 13.6-13.92 15.51-23.1 0.59-6.33-1.76-10.39-4.82-15.66-9.8-17.43-9.09-44.12-4.56-62.91 5.75-20.3 16.96-37.23 35.59-47.78 9.22-4.79 18.21-7.41 28.34-9.41q0.95-0.21 1.93-0.43c11.19-2.01 23.76-0.74 34.72 2.02q0.8 0.2 1.62 0.4c12.17 3.15 22.54 8.64 31.85 17.13 1 0.88 1 0.88 2.03 1.78 12.67 11.75 19.38 28.4 21.88 45.24q0.21 1.4 0.44 2.85c2.88 24.01-1.36 48.17-16.33 67.52-13.9 16.52-33.4 27.14-55.03 29.23-20.39 1.36-38.62-2.99-55.78-14.34q0.22 0.67 0.46 1.35c3.57 10.6 6.5 21.07 8.3 32.11q0.14 0.84 0.29 1.7c1.36 8.49 1.56 16.82 1.31 25.4q-0.02 1.13-0.05 2.29c-0.91 17.14-8.03 34.11-19.08 47.11q-0.81 1.01-1.65 2.04c-7.72 9.14-17.4 15.64-27.94 21.1q-1.99 1.03-3.95 2.11c-30.12 15.29-71.98 14.01-103.51 4.23-24.47-8.3-44.91-24.32-56.64-47.54-12.37-26.36-9.69-57.18-0.47-83.94 0.79-2.37 1.46-4.76 2.12-7.17q-0.98 0.61-1.99 1.23c-13.63 8.2-27.8 12.8-43.82 12.72q-1.56-0.01-3.16-0.02c-13.75-0.25-25.82-3.42-37.88-9.94q-1.06-0.55-2.14-1.11c-19.29-10.71-30.26-29.71-36.36-50.29-4.48-15.87-3.24-34.01 1.05-49.8q0.31-1.26 0.64-2.57c5.69-19.72 18.63-34.37 36.17-44.41 7.76-4.28 15.87-6.43 24.54-8q1.06-0.23 2.14-0.45c10.39-1.36 21.9-1.1 32.13 1.24z"/>
	<path id="Layer copy 3" class="s2" d="m851.72 637.1c11.57 9.54 20.14 25.12 22 40 2.48 26.02-3.57 48.51-19.96 68.97-4 4.7-8.17 9.25-12.4 13.74-0.82 0.88-0.82 0.88-1.66 1.77-10.6 10.93-23.47 19.36-36.59 26.92q-0.79 0.46-1.61 0.93-4.76 2.74-9.54 5.45 0.7 0.97 1.43 1.98c6.06 8.52 10.1 16.55 12.91 26.7q0.21 0.71 0.42 1.45c5.33 24.94-4.34 53.93-17.61 74.93-4.05 6.2-8.73 11.56-13.89 16.85-0.69 0.78-0.69 0.78-1.4 1.58-11.92 13.09-31.63 19.67-48.8 20.73-23.11 1.03-43.57-3.56-65.02-12.01q-3.31-1.27-6.69-2.33c-0.3 0.71-0.3 0.71-0.59 1.44-1.19 2.07-2.35 2.93-4.34 4.24q-0.88 0.59-1.78 1.2c-5.57 2.95-11.41 3.18-17.6 3.58q-0.77 0.05-1.57 0.1c-26.8 1.64-54.25 1.43-81.05-0.1q-0.83-0.05-1.69-0.09c-12.52-0.74-24.27-1.51-33.22-11.17-3.9-5.17-5.27-9.39-4.78-15.93 2.86-13.1 9.07-24.76 17.53-35.06q0.64-0.84 1.3-1.7c9.57-11.91 24.05-19.8 38.54-23.8 1.03-0.3 1.03-0.3 2.09-0.6 20.83-4.82 45.35 0.72 63.25 11.75 3.29 2.27 6.45 4.67 9.56 7.17q0.88 0.7 1.79 1.42c4.28 3.55 7.62 7.71 10.96 12.13 3.04-6.42 5.29-13.04 7.52-19.77 0.31-0.92 0.31-0.92 0.62-1.85 4.75-14.27 8.99-28.7 13.17-43.15q1.5-5.18 3.09-10.33c2.4-7.74 4.38-15.3 5.68-23.31q0.46-2.75 0.94-5.5 0.19-1.17 0.39-2.38c0.44-1.98 1.06-3.5 2.06-5.27 2.67 2.1 3.05 4.33 3.73 7.57 0.31 1.37 0.31 1.37 0.61 2.77 0.44 2.41 0.44 2.41 0.44 4.8q0.8-0.43 1.62-0.87c4.91-2.58 9.84-4.73 15.06-6.6q0.86-0.31 1.75-0.63c3.01-1.05 5.49-1.56 8.66-1.46 1.65-11.95 2.61-23.64 2.43-35.69q-0.01-0.83-0.02-1.7-0.11-7.8-0.31-15.61-0.1-4.34-0.14-8.68-0.05-2.39-0.14-4.78c-0.06-7.29 1.7-11.49 6.15-17.21q1.35-1.9 2.68-3.8 1.34-1.84 2.7-3.67 0.72-0.97 1.46-1.97c4.14-5.55 8.5-10.86 13.08-16.06q0.93-1.06 1.89-2.15 2.61-2.94 5.28-5.81 0.82-0.88 1.65-1.78c25.13-26.15 66.14-41.32 97.96-17.35z"/>
	<path id="Layer copy 4" class="s2" d="m282.77 768.58q1.18 0 2.4 0c2.8 5 4.03 9.57 5.03 15.19q0.51 2.69 1.03 5.38c0.27 1.4 0.27 1.4 0.54 2.84 5.7 29.09 12.43 60.81 26.07 87.35q0.49-0.66 0.99-1.34c14.25-18.83 35.05-27.7 57.97-31.33q1.34-0.22 2.72-0.45c18.26-2.22 37.02 1.45 52.06 12.4 15.98 12.7 30.27 31.21 33.25 52.06 0.27 5.49-0.69 9.16-4.36 13.28-9.66 10.53-22.2 10.76-35.63 11.39-12.91 0.54-25.8 0.73-38.72 0.72q-1.48 0-3.01 0c-14.39-0.01-28.64-0.27-42.96-1.75q-1.99-0.17-3.97-0.35c-7.87-0.75-13.83-2.1-19.14-8.41q0-0.79 0-1.6-1.3 0.59-2.64 1.2c-29.45 13.07-63.76 19.77-94.87 8.72-8.37-3.33-15.78-7.48-22.81-13.1q-0.9-0.69-1.83-1.4c-13.49-11.03-20.7-27.93-26.06-44.02q-0.48-1.44-0.97-2.91c-6.4-20.76-7.03-42.62 2.56-62.43 3.69-6.93 8.09-12.71 13.55-18.33q0.65-0.74 1.33-1.51c10.92-11.98 29.96-18.5 45.82-19.3 6.77-0.22 13.23-0.26 19.78 1.68q0.39-1.17 0.8-2.39 0 1.57 0 3.19 1.25 0.1 2.54 0.2c10.03 1.31 19.12 5.15 26.14 12.55 0.06-1.5 0.06-1.5 0.12-3.02q0.09-1.98 0.18-3.95 0.04-0.98 0.08-1.99c0.04-0.96 0.04-0.96 0.09-1.93q0.04-0.88 0.08-1.77c0.28-1.88 0.92-3.22 1.84-4.87z"/>
	<path id="Layer copy 5" class="s3" d="m464.45 907.23c13.94 0 27.88 0 42.24 0 0.52 3.42 1.05 6.84 1.59 10.36 3.03 6.24 7.57 10.97 14 13.79 7.47 2.42 15.66 2.51 23.45 2.94q0.86 0.05 1.75 0.11c13.46 0.77 26.91 0.85 40.39 0.84q0.82 0 1.67 0c19.64 0 19.64 0 39.26-0.75q1.42-0.07 2.88-0.15c7.86-0.56 15.13-2.32 20.83-8.02q0.39-0.78 0.8-1.59c4.85 0.49 9.1 2.4 13.59 4.18 26.82 10.31 58.05 14.24 85.21 2.99 7.96-3.54 14.94-8.12 21.34-14.06 2.38-1.45 3.57-1.12 6.29-0.61 1.33 0.25 1.33 0.25 2.69 0.5q1.4 0.28 2.85 0.58 1.44 0.28 2.92 0.57c5.69 1.15 11.28 2.49 16.8 4.31 0.85 0.28 0.85 0.28 1.72 0.56 3.29 1.16 5.82 2.55 8.34 4.97 0.5 1.99 0.5 1.99 0 3.98-24.48 26.93-111.28 20.24-145.72 21.89q-8.86 0.41-17.71 0.81-9.42 0.43-18.83 0.98c-13.31 0.77-26.62 1.22-39.95 1.45q-1.39 0.03-2.83 0.05c-29.44 0.51-58.89 0.51-88.34 0.52q-3.5 0-6.99 0c-47.42 0.02-94.76-0.38-142.14-2.35q-8.86-0.36-17.72-0.66c-24.89-0.87-49.73-2.17-74.57-3.96q-0.85-0.07-1.73-0.13c-83.32-5.98-83.32-5.98-99.2-17.3-0.86-1.3-0.86-1.3-0.82-3.29 1.45-3.83 5.16-5.14 8.72-6.78 6.44-2.27 13.14-3.93 19.92-4.78q1.11-0.14 2.24-0.29c4.23-0.3 6.72 0.04 10.06 2.73q0.87 0.76 1.77 1.55c9.75 8.29 22.93 12.23 35.34 14.34q1.27 0.22 2.57 0.44c25.11 2.97 50.95-2.87 73.87-12.96 2.45-1.03 2.45-1.03 4.04-1.03q0.83 1.08 1.69 2.2c4.14 5.07 9.57 6.17 15.85 6.86 1.3 0.13 1.3 0.13 2.63 0.26q1.24 0.14 2.52 0.28c14.29 1.51 28.58 1.69 42.94 1.66q4.39 0 8.78 0.01c36.24 2.15 36.24 2.15 68.15-10.94 4.88-5.62 4.22-8.81 4.85-17.06z"/>
	<path id="Layer copy 6" class="s4" d="m716.75 41.56q0.79 0 1.6 0c12.84 0.05 23.14 2.21 34.56 8.27 1.2 0.61 1.2 0.61 2.43 1.24 14.98 8.11 27.27 22.46 35.82 37.01q0.42 0.7 0.85 1.43c15.14 25.71 17.9 57.51 11.1 86.22-5.62 21.16-14.31 47.76-31.87 62.15q-0.79 0-1.6 0-0.33-0.68-0.68-1.38c-5.56-11.06-11.64-21.63-18.32-32.06-1.82-2.87-3.48-5.7-4.9-8.79 0.58-0.67 0.58-0.67 1.17-1.35 6.58-7.87 11.96-16.61 14.77-26.54q0.35-1.24 0.72-2.53c4.32-17.91 2.38-35.85-7.1-51.65-3.77-5.57-8.05-8.27-14.34-10.36-10.91-1.31-20.04 4.25-28.69 10.36-7.53 5.97-13.33 13.1-19.12 20.71-3.39-0.68-5.5-2.47-8.12-4.63-16.61-13.3-34.39-23.54-53.89-32.04-2.21-0.99-4.37-2.06-6.52-3.17 3.37-4.11 7.01-7.84 10.79-11.57 2.22-2.2 4.34-4.41 6.34-6.81 18.44-21.46 46.85-34.55 75-34.51z"/>
	<path id="Layer copy 7" class="s5" d="m304.44 57.5q2.34 1.71 4.63 3.48 1.04 0.8 2.12 1.62c7.23 5.65 13.84 11.89 20.34 18.36q0.79 0.78 1.61 1.59c10.19 10.23 10.19 10.23 10.19 12.7q-0.61 0.25-1.25 0.52c-21.5 8.92-43.2 19.11-60.62 34.94-1.24 1.13-1.24 1.13-3.47 2.79-1.95-0.18-2.92-0.56-4.38-1.87q-0.56-0.68-1.13-1.37-0.63-0.75-1.27-1.52-0.66-0.79-1.33-1.62-1.4-1.65-2.81-3.29-0.67-0.8-1.37-1.61c-8.56-10.02-19.81-18.23-33.16-20.15-6.62-0.29-11 1.82-15.9 6.13-8.49 8.97-12.16 22.01-12.75 34.06q-0.07 1.15-0.13 2.32c-0.48 16.74 4.45 36.2 15.96 48.65 0.9 1.62 0.9 1.62 0.42 3.6-1.12 2.02-2.33 3.73-3.75 5.54-3.34 4.48-6.19 9.19-9.02 14q-0.64 1.08-1.3 2.2c-3.55 6.08-7.04 12.2-10.15 18.52-16.94-15.06-26.94-40.4-31.08-62.16q-0.17-0.88-0.35-1.79c-5.92-31.01-1.24-64.21 16.69-90.64q1.76-2.41 3.58-4.78 0.87-1.13 1.77-2.3c13.09-16.5 29.32-28.3 50.03-32.76q0.89-0.21 1.81-0.42c23.16-4.03 46.92 1.96 66.07 15.26z"/>
	<path id="Layer copy 8" class="s4" d="m851.72 637.1c11.57 9.54 20.14 25.12 22 40 2.48 26.02-3.57 48.51-19.96 68.97-4 4.7-8.17 9.25-12.4 13.74q-0.82 0.88-1.66 1.77c-9.51 9.8-21.47 18.66-33.4 25.33q-0.79 0-1.59 0-0.01-0.73-0.01-1.49c-0.53-45.9-19.12-89.07-50.99-122.02q-0.93-0.82-1.89-1.65c-1.3-1.54-1.3-1.54-1.31-3.11 6.52-13.11 27.91-24.89 40.83-29.66 20.45-6.61 42.82-5.11 60.38 8.12z"/>
	<path id="Layer copy 9" class="s6" d="m431.58 858.62c15.98 12.7 30.27 31.21 33.25 52.06 0.27 5.49-0.69 9.16-4.36 13.28-9.66 10.53-22.2 10.76-35.63 11.39-12.91 0.54-25.8 0.73-38.72 0.72q-1.48 0-3.01 0c-14.39-0.01-28.64-0.27-42.96-1.75q-1.99-0.17-3.97-0.35c-7.87-0.75-13.83-2.1-19.14-8.41q0-0.79 0-1.6-0.79 0-1.59 0c-5.54-13.79-5.79-25.43-0.43-39.55 7.51-16.39 23.72-26.27 39.93-32.45 7.2-2.55 14.32-4.1 21.85-5.29q1.34-0.22 2.72-0.45c18.26-2.22 37.02 1.45 52.06 12.4z"/>
	<path id="Layer copy 10" class="s6" d="m638.96 865.79q0.88 0.7 1.79 1.42c9.03 7.48 17.15 19.1 18.79 30.98 0.07 0.93 0.07 0.93 0.14 1.87q0.08 1.02 0.17 2.07c0.35 9-1.64 17.9-7.34 25.02-6.58 6.55-14.69 7.6-23.61 8.12q-0.76 0.05-1.56 0.09c-26.78 1.57-54.18 1.39-80.96-0.14q-0.83-0.05-1.69-0.09c-12.52-0.74-24.27-1.51-33.22-11.17-3.9-5.17-5.27-9.39-4.78-15.93 2.86-13.1 9.07-24.76 17.53-35.06q0.64-0.84 1.3-1.7c9.57-11.91 24.05-19.8 38.54-23.8q1.03-0.3 2.09-0.6c25.34-5.87 53.11 3.08 72.81 18.92z"/>
	<path id="Layer copy 11" class="s7" d="m407.08 371.75q9.44 0.58 18.86 1.37c0.89 0.08 0.89 0.08 1.79 0.16q3.63 0.31 7.25 0.62c17.85 1.56 35.61 2.03 53.53 2.04q0.88 0 1.78 0c19.37 0.02 38.56-0.56 57.83-2.59q2.1-0.22 4.2-0.44 5.47-0.57 10.94-1.16c0.18 9.98-5.79 17.31-12.37 24.3-9.92 10.11-22.57 18.02-34.78 25.07q-2.22 1.28-4.43 2.58c-13.37 7.82-13.37 7.82-17.74 7.82 0 5.26 0 10.51 0 15.93 21.69 0.82 21.69 0.82 40.64-8.76 1.97-2.02 3.81-4.09 5.6-6.27 1.55-1.69 2.61-2.53 4.76-3.29 3.22 0.05 4.97 0.31 7.52 2.34 1.8 3.52 1.83 6.52 1.24 10.41-2.56 7.76-8.31 12.67-15.14 16.73-10.65 5.2-20.8 7.31-32.57 7.32-1.11 0.01-1.11 0.01-2.24 0.03-4.43 0.01-8.49-0.4-12.81-1.41-4.15-0.84-8.08-0.66-12.16 0.43-4.54 1.04-8.99 1.07-13.63 1.05q-1.31-0.01-2.67-0.01c-14.44-0.22-28.54-3.77-39.46-13.79-4.26-5.02-6.76-9.19-6.65-15.9 0.52-3.1 1.9-4.35 4.26-6.41 2.69-0.99 2.69-0.99 5.58-0.79 3.09 1.83 5.24 4.34 7.42 7.17 5.17 6.46 14.89 10.03 22.86 11.15q2.58 0.09 5.17 0.08c1.43 0 1.43 0 2.89-0.01q1.48-0.01 2.99-0.02 1.5 0 3.05-0.01 3.7-0.01 7.41-0.04c-0.26-4.99-0.53-9.99-0.8-15.14q-2.52-0.95-5.13-1.94c-20.12-7.93-37.45-20.69-53.04-35.51q-0.82-0.76-1.66-1.54c-4.61-4.37-8.91-9.67-10.29-15.99q-0.03-2.79 0-5.58z"/>
	<path id="Layer copy 12" class="s25" d="m630.2 274.54c1.16 0.62 1.16 0.62 2.34 1.25 10.79 6.3 17.96 16.96 21.11 28.93 3.97 16.17 4.13 36.94-4.31 51.66-6.31 10.31-15.4 18.47-27.43 21.42-3.77 0.6-7.57 0.51-11.38 0.53-1.25 0.02-1.25 0.02-2.51 0.05-12.15 0.06-22.37-4.77-31.21-13-12.59-13.7-12.71-31.5-12.1-48.98 0.75-14.68 5.31-25.39 16.18-35.46 13.29-11.15 33.76-14.91 49.31-6.4z"/>
	<path id="Layer copy 13" class="s9" d="m522.62 761.41q0.79 0 1.6 0-1.83 15.31-3.99 30.58c-0.18 1.3-0.18 1.3-0.37 2.63q-0.94 6.61-2.06 13.18c-1.55 9.06-2.79 18.15-3.94 27.27q-0.16 1.22-0.32 2.48c-2.34 18.72-3.87 37.52-4.64 56.38-0.05 1.03-0.05 1.03-0.09 2.09q-0.09 1.98-0.15 3.96c-0.15 3.26-0.48 5.06-1.97 8.05-14.2 0-28.4 0-43.03 0-0.36-3.28-0.72-6.55-1.08-9.92-5.62-52.58-5.62-52.58-14.54-104.68-0.98-4.83-1.65-9.59-2.06-14.49q-0.1-1.04-0.2-2.11c-0.94-10.46-0.94-10.46 0.35-13.03q3.36 1.34 6.71 2.71c19.11 7.81 38.98 10.17 58.58 2.17 3.87-1.87 8.14-4.21 11.2-7.27z"/>
	<path id="Layer copy 14" class="s25" d="m382.68 276.73c10.4 6.91 17.26 15.63 20.04 27.92 2.74 18.6 3.69 39.53-6.79 55.95-7.04 9.39-16.29 15.58-27.84 18.02-12.55 1.56-25.34-0.17-35.71-7.86-11.06-9.33-17.01-21.37-18.53-35.66-1.07-17.61-0.15-34.28 11.16-48.61q0.56-0.75 1.14-1.53c13.6-17.34 38.41-18.32 56.53-8.23z"/>
	<path id="Layer copy 15" class="s10" d="m506.69 314.38q1.02 0.33 2.07 0.67c10.67 3.77 19.54 10.7 27.82 18.19 1.55 1.39 3.13 2.71 4.72 4.05 3.11 2.74 5.77 5.78 8.42 8.96q0.74 0.84 1.51 1.7c3.55 4.14 6.27 8.52 8.85 13.29 0.47 0.88 0.47 0.88 0.96 1.77q0.43 0.83 0.88 1.69 0.39 0.74 0.79 1.5c0.68 1.92 0.65 3.54 0.55 5.55-9.54 1.6-19.04 2.99-28.68 3.74q-0.96 0.07-1.95 0.15c-41.37 3.06-84.53 2.33-125.55-3.89q-0.39 1.57-0.79 3.19c-0.32-4.53 0.6-7.66 2.68-11.6 0.43-0.83 0.43-0.83 0.87-1.67 11.95-22.52 32.53-39.13 56.21-48.09q1.16-0.45 2.35-0.91c11.92-3.79 26.69-2.48 38.29 1.71z"/>
	<path id="Layer copy 16" class="s11" d="m749.72 658.62c3.77 2.74 6.59 6.02 9.57 9.56q0.88 1.03 1.79 2.09 3.13 3.7 6.17 7.47c0.57 0.69 0.57 0.69 1.14 1.39 7.25 8.97 12.77 18.62 17.99 28.89q0.46 0.92 0.95 1.86c6.87 13.67 11.74 27.82 14.99 42.76 0.19 0.88 0.19 0.88 0.39 1.77 2.44 11.03 2.25 22.04 2 33.29q-3.14 1.77-6.28 3.54-0.89 0.5-1.8 1.02-0.85 0.48-1.73 0.97-0.78 0.44-1.59 0.9-1.46 0.8-2.95 1.54-0.45-0.86-0.91-1.75c-5.34-8.06-18.25-15.38-27.49-17.96-2.23-0.66-3.95-1.28-5.86-2.6-1.45-2.94-1.76-5.93-2.14-9.16q-0.43-2.72-0.89-5.43-0.23-1.34-0.46-2.73c-3.94-20.59-15.94-39.25-30.15-54.21-1.45-1.82-1.93-2.7-2.22-4.97 1.2-2.1 2.42-3.97 3.84-5.92q0.59-0.84 1.21-1.71c7.59-10.63 15.74-20.86 24.43-30.61z"/>
	<path id="Layer copy 17" class="s12" d="m747.06 104.52c9.05 5.26 13.61 16.14 16.63 25.8 4.48 18.88 0.71 38.6-9.33 54.91-5.72 9.04-5.72 9.04-9.42 10.42q-0.55-0.85-1.11-1.73c-7.84-11.98-16.87-23-26.51-33.58-1.06-1.34-1.06-1.34-1.81-3.01-1.07-1.92-2.08-2.18-4.03-3.11-1.45-1.5-1.45-1.5-2.84-3.19-1.69-2.04-2.9-3.3-5.13-4.78q0-0.79 0-1.6c-0.65-0.26-0.65-0.26-1.31-0.54-2.47-1.38-4.41-3.21-6.46-5.13q-0.6-0.56-1.23-1.13-1.48-1.38-2.96-2.76 0.96-1.1 1.95-2.24c2.17-2.53 4.28-5.12 6.37-7.72 10.51-12.82 29.73-28.66 47.19-20.61z"/>
	<path id="Layer copy 18" class="s11" d="m248.5 106.86c5.33 3.23 9.87 7.19 14.35 11.5q0.73 0.68 1.49 1.39c3.57 3.42 6.64 7.22 9.73 11.07 1.49 1.89 1.49 1.89 3.13 3.47q-0.75 0.58-1.51 1.17c-6.21 4.93-11.82 10.32-17.4 15.94q-2.27 2.28-4.55 4.54c-5.56 5.56-10.73 11.21-15.59 17.4q-1.79 2.17-3.58 4.33c-3.74 4.56-7.26 9.26-10.76 14q-1.2 1.59-2.39 3.18c-4.63-1.78-6.39-6.27-8.77-10.35q-0.54-0.93-1.1-1.88c-8.94-16.4-10.73-36.95-6.22-54.88 3.12-10.04 8.02-18.56 16.74-24.75 8.48-4.37 18.73-0.19 26.43 3.87z"/>
	<path id="Layer copy 19" class="s13" d="m427.8 429.92c2.01 1.83 2.01 1.83 3.83 4.14 6.42 7.49 15.07 12.01 24.86 13.39q2.58 0.09 5.17 0.08 1.43 0 2.89-0.01 1.48-0.01 2.99-0.02 1.5 0 3.05-0.01 3.7-0.01 7.41-0.04c0-4.99 0-9.99 0-15.14 2.48-0.01 4.96-0.03 7.52-0.05 1.18-0.01 1.18-0.01 2.37-0.02q0.92 0 1.86 0 0.94-0.01 1.91-0.02c1.48 0.09 1.48 0.09 2.28 0.89q0.09 1.61 0.08 3.22c-0.01 0.96-0.01 0.96-0.01 1.95-0.01 1.01-0.01 1.01-0.02 2.05q-0.01 1.02-0.01 2.06-0.02 2.53-0.04 5.06c21.69 0.83 21.69 0.83 40.64-8.76 1.97-2.02 3.81-4.09 5.6-6.27 1.55-1.69 2.61-2.53 4.76-3.29 3.22 0.05 4.97 0.31 7.52 2.34 1.8 3.52 1.83 6.52 1.24 10.41-2.56 7.76-8.31 12.67-15.14 16.73-10.65 5.2-20.8 7.31-32.57 7.32q-1.11 0.01-2.24 0.03c-4.43 0.01-8.49-0.4-12.81-1.41-4.15-0.84-8.08-0.66-12.16 0.43-4.54 1.04-8.99 1.07-13.63 1.05q-1.31-0.01-2.67-0.01c-14.44-0.22-28.54-3.77-39.46-13.79-4.28-5.05-6.71-9.17-6.66-15.9 0.51-2.93 2.18-4.37 4.27-6.41 2.57-1.29 4.43-0.66 7.17 0z"/>
	<path id="Layer copy 20" class="s14" d="m598.32 669.77c4.99 3.85 8.35 8.92 9.57 15.14 0.7 8.46-0.31 15.82-5.68 22.61-4.81 5.06-11.32 7.7-18.23 7.97-6.81-0.07-13.71-2.83-18.7-7.52-4.93-6.25-7.64-13.55-6.8-21.46 1.78-7.47 5.48-13.98 11.95-18.28 9.59-5.31 18.9-4.36 27.89 1.54z"/>
	<path id="Layer copy 21" class="s14" d="m396.69 668.82c6.24 3.65 10.35 8.85 12.37 15.79 1.56 7.23-0.04 13-3.57 19.43-1.68 2.34-3.5 4.37-5.58 6.37q-0.91 0.91-1.84 1.84c-5.41 3.4-11.77 4.6-18.08 3.74-6.66-1.63-12.43-5.47-16.24-11.23-0.8-1.54-1.47-3.08-2.09-4.71-0.49-1.11-0.49-1.11-0.99-2.24-1.69-7.16-0.92-14.07 2.94-20.35 7.76-10.79 20.91-14.47 33.08-8.64z"/>
	<path id="Layer copy 22" class="s1" d="m497.92 616.88c6.42 5.08 11.1 10.91 12.25 19.18 0.35 7.58-2.13 14.46-6.91 20.34-4.85 5.09-9.66 7.78-16.74 8.09-6.76-0.15-11.7-2.88-16.6-7.41-5.93-6.59-7.59-12.9-7.38-21.6 0.7-6.84 4.19-12.6 9.25-17.19 8.53-6.63 16.91-6.4 26.13-1.41z"/>
	<path id="Layer copy 23" class="s1" d="m580.15 596.01c5.71 4.52 9.32 10.76 10.21 17.98 0.71 6.47-0.8 12.39-4.45 17.8-4.21 5.11-9.74 8.81-16.43 9.59-8.16 0.16-13.66-1.35-19.66-6.97-6.08-6.58-6.92-13.12-6.75-21.79 0.35-6.54 3.6-11.41 8.32-15.78 8.86-6.86 19.47-6.91 28.76-0.83z"/>
	<path id="Layer copy 24" class="s1" d="m414.33 593.9c6.98 4.48 11.44 9.57 13.47 17.7 1.04 7.43-0.34 13.58-4.72 19.66-4.64 5.56-9.18 9.25-16.49 10.2-7.63 0.31-13.14-0.84-18.86-6-5.78-6.05-7.91-12.31-7.74-20.67 1.05-8.1 4.01-13.6 10.41-18.63 6.38-4.67 16.64-5.7 23.93-2.26z"/>
	<path id="Layer copy 25" class="s4" d="m586.54 106.78c4.97 3.9 8.08 8.62 8.95 14.94 0.2 5.65-0.53 10.15-3.54 14.96q-0.46 0.75-0.94 1.51c-3.76 5.11-10.4 8.5-16.59 9.65-6.74 0.68-13.04-0.67-18.58-4.63-5.69-4.69-9.11-9.96-10.47-17.24-0.41-5.91 1.84-10.77 5.14-15.58 2.19-2.28 4.46-3.98 7.18-5.58q0.7-0.43 1.42-0.86c8.45-4.07 19.93-2.17 27.43 2.83z"/>
	<path id="Layer copy 26" class="s14" d="m409.52 104.46c5.99 3.3 11.15 7.93 13.16 14.63 1.33 6.55 0.11 12.46-2.85 18.39-1.94 2.34-1.94 2.34-3.98 3.99-0.84 0.81-0.84 0.81-1.7 1.64-6.33 4.27-13.08 5.6-20.61 4.73-2.32-0.52-4.28-1.3-6.38-2.39q-0.81-0.39-1.64-0.79c-5.67-3.1-9.11-8.27-11.11-14.35-0.69-6.25-0.45-11.51 3.19-16.73q0.83-1.23 1.69-2.49c7.08-8.08 20.33-10.7 30.23-6.63z"/>
	<path id="Layer copy 27" class="s15" d="m719.44 698.46q1.33 1.12 2.66 2.24 0.73 0.63 1.49 1.27c18.09 16.05 29.1 42.27 32.51 65.81q0.06 2.79 0 5.58-0.7-0.17-1.42-0.35c-11.85-2.45-24.86-1.92-36.83-0.45q0.17-2.91 0.35-5.82c0.05-0.8 0.05-0.8 0.09-1.62 0.15-2.39 0.3-4.77 0.55-7.14 0.69-6.43 0.71-12.83 0.68-19.29q0-1.75 0-3.5-0.01-4.56-0.02-9.12-0.01-4.67-0.02-9.35-0.01-9.13-0.04-18.26z"/>
	<path id="Layer copy 28" class="s4" d="m335.37 133.5c3.53 2.24 5.86 4.75 7.17 8.76 1.05 8.84-1.07 15.87-6.43 22.91-5.29 6.1-11.97 10.68-20.1 11.68-6.68 0.18-11.44-0.52-16.5-5.1-3.76-4.23-3.67-9.4-3.49-14.83 0.83-7.48 5.29-13.73 10.86-18.63 8.42-6.33 18.66-9.88 28.49-4.79z"/>
	<path id="Layer copy 29" class="s4" d="m654.9 134.29c7.31 4.13 13.03 10 16.2 17.86 1.43 5.56 1.78 11.84-1.21 16.91-2.53 3.34-5.53 5.86-9.41 7.47-8.97 1.2-15.23-1-22.53-6.04-6.2-4.92-10.94-12.26-12.06-20.15-0.2-6.25 1.07-10.41 5.1-15.25 7.03-6.35 16.06-4.58 23.91-0.8z"/>
	<path id="Layer copy 30" class="s4" d="m603.05 173.94c5.64 3.4 9.19 7.35 11.21 13.74 0.71 4.89 0.82 9.74-2.07 13.93-5.48 5.98-11.76 8.06-19.75 8.49q-3.19 0.08-6.37 0.09c-1.07 0.03-1.07 0.03-2.16 0.05-5.93 0.04-11.16-0.71-15.82-4.58-4.07-5.06-3.9-10.05-3.23-16.38 2.26-7.09 7.15-12.27 13.54-15.94 7.32-3.03 17.49-2.9 24.65 0.6z"/>
	<path id="Layer copy 31" class="s4" d="m392.74 175.73q0.84 0.5 1.7 1.02c4.67 3.1 7.42 7.13 9.15 12.45 0.39 2.15 0.44 4.21 0.45 6.4q0.02 1.21 0.04 2.46c-0.37 4.73-2.21 7.28-5.76 10.34-4.67 2.29-9.41 1.86-14.5 1.84q-1.4 0.02-2.85 0.04c-8.96 0.01-16.33-1.57-23.29-7.46-3.3-3.77-4.27-7.52-4.21-12.42 0.37-3.19 1.72-5.61 3.41-8.3q0.64-1.03 1.3-2.09c8.53-8.53 24.2-11.05 34.56-4.28z"/>
	<path id="Layer copy 32" class="s4" d="m721.19 399.39c4.39 3.61 7.27 7.67 8.1 13.35 0.4 7.57-2.05 14.91-6.96 20.72q-1.41 1.45-2.89 2.84-0.66 0.67-1.34 1.36c-4.33 4.11-9.15 5.86-15.09 6.11-4.93-0.2-9.11-2.12-12.77-5.44-4.35-4.98-4.73-10.53-4.51-16.94 0.69-7.27 4.41-12.73 9.8-17.6 7.05-5.53 17.04-8.99 25.66-4.4z"/>
	<path id="Layer copy 33" class="s4" d="m265.89 398.5c8.27 4.28 13.97 11.52 16.88 20.27 0.96 13.14 0.96 13.14-3.18 18.32-4.11 4.2-8.72 6.36-14.55 6.83-6.56-0.27-12.47-3.94-16.88-8.62-6.3-7.74-8.52-15.4-7.62-25.3 1.46-5.32 4.27-9.15 9.04-11.95 5.28-1.99 11.1-1.62 16.31 0.45z"/>
	<path id="Layer copy 34" class="s4" d="m499.42 108.5c4.52 4.4 6.61 9.12 6.9 15.44 0.07 6.6-0.64 11.24-5.29 16.08-6.1 5.71-10.97 6.69-19.13 6.47-5.75-0.45-8.66-2.36-12.51-6.52-4.18-5.12-6.08-10-5.95-16.64 0.79-6.5 4.21-11.8 8.98-16.13 8.5-6.13 18.79-5 27 1.3z"/>
	<path id="Layer copy 35" class="s4" d="m211.82 335.71c7 4.21 11.74 9.91 14.06 17.74 1.42 7.03-0.62 12.1-4.16 18.1-4.39 4.16-9.07 6.03-15.09 6.28-7.11-0.31-11.89-3.46-16.68-8.55-5.07-6.41-5.91-13.57-5.4-21.49 0.61-4.42 3.24-7.35 6.65-9.99 6.16-4.05 13.71-5.13 20.62-2.09z"/>
	<path id="Layer copy 36" class="s4" d="m775.14 336.37c4.21 2.8 7.34 6.64 8.85 11.48 0.8 7.72 0.12 13.72-4.42 20.04-3.63 4.47-8.1 8.37-13.91 9.44-5.93 0.52-11.04 0.49-15.94-3.19-4.81-4.81-6.5-9.02-6.82-15.68 0.17-6.75 2.31-12 6.72-17.11 7.25-6.86 16.27-9.58 25.52-4.98z"/>
	<path id="Layer copy 37" class="s4" d="m300.6 630.38c4.27 2.52 7.93 6.62 9.69 11.29 1.54 7.41 1.1 15.16-2.81 21.73-3.27 4.86-6.98 8.17-12.75 9.56-5.37 0.63-10.61 0.76-15.37-2.07-4.51-3.69-7.41-8.54-8.06-14.32-0.22-9.08 1.48-15.8 7.84-22.71 5.88-5.24 14.13-6.75 21.46-3.48z"/>
	<path id="Layer copy 38" class="s4" d="m679.91 629.65c6.71 3.09 10.75 8.31 13.33 15.11 1.6 6.14 1.95 13.75-0.74 19.66-2.54 3.67-6.33 6.92-10.51 8.54-6.14 0.7-11.64 0.54-16.73-3.19-2.19-1.94-2.19-1.94-3.99-3.98q-0.83-0.93-1.69-1.89c-3.3-4.63-4.33-8.72-4.28-14.3q0.01-0.88 0.01-1.8c0.17-5.04 1.14-9.09 4.37-13.09 5.95-5.53 12.16-7.25 20.23-5.06z"/>
	<path id="Layer copy 39" class="s4" d="m295.72 709.36c6.99 4.04 11.18 9.24 13.35 16.99 0.8 7.14 0.36 13.22-3.98 19.12-2.92 3.13-5.51 5.34-9.9 5.77-6.92 0.18-11.13-1.27-16.2-5.97-5.87-6.23-6.83-12.67-6.74-20.98 0.36-5.85 3.15-9.9 7.34-13.88 4.84-3.41 10.82-3.55 16.13-1.05z"/>
	<path id="Layer copy 40" class="s4" d="m685.38 709.32c4.53 2.57 7.33 6.34 8.96 11.24 1.7 7.56 0.09 14.64-3.92 21.19-3.14 4.38-6.44 7.54-11.61 9.3-4.39 0.51-8.28 0.61-12.31-1.3-4.78-4.42-8.02-8.44-8.7-14.98-0.25-6.74 0.43-11.6 4.27-17.19 0.52-0.78 0.52-0.78 1.05-1.58 5.31-7.07 14.02-10.34 22.26-6.68z"/>
	<path id="Layer copy 41" class="s16" d="m707.49 182.9c10.09 3.65 15.74 11.26 20.22 20.62 1.02 5.09 1.44 10.1-0.85 14.84-3.87 4.19-6.3 5.74-11.9 6.23-7.13-0.16-12.52-3.72-17.56-8.5-6.07-6.88-8.58-13.41-8.51-22.46 0.4-4.01 1.43-5.51 4.26-8.34 4.54-3.25 8.94-3.14 14.34-2.39z"/>
	<path id="Layer copy 42" class="s4" d="m270.03 182.9c3.99 1.93 6.77 4.78 8.76 8.77 0.84 8.72-1.11 15.59-6.63 22.4-5.51 6.16-11.12 9.54-19.42 10.67-4.72-0.72-7.96-2.27-10.95-6.03-2.64-4.96-2.85-9.63-1.43-15.04 3.14-8.5 8.88-15.33 17.07-19.33q0.71-0.32 1.44-0.64c3.33-1.67 7.52-1.14 11.16-0.8z"/>
	<path id="Layer copy 43" class="s17" d="m409.47 884.92c2.79 1.63 4.63 3.26 5.58 6.37 0.15 4.17-0.18 7.55-1.19 11.61-2.31 10.41-1.39 21.62-1.2 32.22-2.73 0.62-5.24 0.89-8.03 0.87q-1.11 0-2.25 0c-1.15-0.01-1.15-0.01-2.32-0.02q-1.16-0.01-2.36-0.01-2.88-0.02-5.76-0.04c-0.91-5.65-0.94-11.27-0.94-16.97q-0.01-2.47-0.03-4.94c-0.05-9.73 0.77-18.49 6.8-26.49 3.32-3.35 7.31-3.4 11.7-2.6z"/>
	<path id="Layer copy 44" class="s17" d="m568.04 884.92c5.13 2.9 7.23 7.23 8.77 12.75 1.63 6.26 1.81 12.28 1.74 18.72q0 1.38 0 2.8c-0.03 5.41-0.4 10.5-0.94 15.93-6.84 0-13.68 0-20.72 0 0.03-3.39 0.06-6.77 0.1-10.26 0.03-6.74-0.04-13.38-0.9-20.07q-0.11-0.85-0.22-1.72-0.1-0.8-0.21-1.63c-1.3-10.47-1.3-10.47 1.43-14.18q1.08-0.76 2.19-1.54c0.74-0.55 0.74-0.55 1.49-1.1 2.74-0.8 4.53-0.45 7.27 0.3z"/>
	<path id="Layer copy 45" class="s18" d="m614.96 883.73c3.97 0.92 6.95 3.32 9.86 6.07 7.89 12.97 7.06 28.55 4.58 42.93q2.36 0.39 4.78 0.8 0 0.39 0 0.79c-5.34 0.82-10.54 0.89-15.93 0.85q-1.27-0.01-2.57-0.01-3.1-0.01-6.2-0.04 0.02-0.99 0.05-2.01c0.26-12.07 0.43-23.6-2.54-35.39-0.8-3.3-0.93-6.22-0.7-9.61 2.32-3.47 4.43-4.66 8.67-4.38z"/>
	<path id="Layer copy 46" class="s4" d="m756.95 263.53c6.47 2.72 9.65 7.24 12.69 13.4 2.41 5.98 2.69 13.09 0.25 19.07-1.9 3.78-4.16 5.87-8.21 7.22-5.09 0.63-8.14-0.41-12.43-3.2-4.91-4.04-7.69-8.97-9.09-15.12-1.1-12.74-1.1-12.74 2.18-17.94 4.19-4.93 8.72-5.38 14.61-3.43z"/>
	<path id="Layer copy 47" class="s17" d="m360.07 884.92c2.25 1.74 3.52 3.05 4.78 5.58 0.36 3.69-0.47 6.43-1.68 9.85-2.73 8.04-3.42 15.34-3.25 23.81q0.02 1.61 0.03 3.21 0.04 3.88 0.12 7.75c-6.71 0.07-13.26 0.08-19.92-0.8-2.47-13.79-2.81-30.9 4.68-43.18 4.09-5.4 8.48-7.56 15.24-6.22z"/>
	<path id="Layer copy 48" class="s4" d="m451.99 165.89c4.62 2.09 7.98 5.57 10.19 10.13 1.58 4.85 1.52 10.52-0.61 15.2-2.66 4.48-6.46 7.19-11.35 8.81-5.06 1.2-9.28 0.79-13.83-1.78-4.04-2.86-6.32-6.71-7.79-11.36-0.93-6.06 0.4-10.98 3.98-15.94 5.71-5.38 11.62-7.2 19.41-5.06z"/>
	<path id="Layer copy 49" class="s4" d="m219.03 262.59c3.44 1.18 5.62 2.88 7.47 6.02 3.08 6.52 2.87 12.4 0.5 19.18-2.47 5.87-5.89 10.13-11.01 13.89-4.32 1.27-8.92 1.98-13.06-0.16-3.88-3.09-5.14-6.28-5.71-11.23-0.17-8.64 1.72-16.18 7.77-22.61 4.22-3.65 8.45-5.55 14.04-5.09z"/>
	<path id="Layer copy 50" class="s4" d="m529 165.37c4.67 2.09 8.06 6.25 10.66 10.61 1.31 5.67 0.99 11.36-1.9 16.48-1.94 2.24-1.94 2.24-3.98 3.99q-0.76 0.66-1.54 1.34c-3.93 2.5-8.21 3.4-12.8 2.64-5.64-1.8-8.87-4.45-11.91-9.49-2.29-4.51-2.5-9.79-1.12-14.64 4.42-9.8 12.58-11.85 22.59-10.93z"/>
	<path id="Layer copy 51" class="s19" d="m350.51 284.9c4.51 2.17 7.64 5.73 9.56 10.36 0.72 5.86 0.41 11.1-3.19 15.93-3.44 3.35-6.69 4.84-11.45 5.08-3.76-0.11-6.45-0.96-9.27-3.48-4.1-5.29-5.46-10.08-4.78-16.74 1.24-4.47 3.83-7.69 7.64-10.3 3.75-1.66 7.5-1.51 11.49-0.85z"/>
	<path id="Layer copy 52" class="s19" d="m598.32 284.9c4.31 1.87 7.23 5.11 9.07 9.4 1.29 4.56 1.14 8.84-0.85 13.16-1.96 3.41-4.24 6.04-7.72 7.97-4.97 1.3-8.79 0.66-13.25-1.85-4.34-3.94-6.35-7.96-6.67-13.84 0.12-4.47 1.58-8.1 4.71-11.32 4.67-3.99 8.7-4.3 14.71-3.52z"/>
	<path id="Layer copy 53" class="s20" d="m301.1 554.23c2.34 0.35 4.21 0.9 6.38 1.88 3.84 1.67 7.85 2.63 11.9 3.65 1.2 0.31 1.2 0.31 2.43 0.62q3.59 0.92 7.18 1.82 1.03 0.26 2.1 0.53 5.32 1.34 10.65 2.66c-2.22 1.48-3.58 2.02-6.1 2.68q-1.11 0.29-2.25 0.59c-1.19 0.3-1.19 0.3-2.41 0.61-1.23 0.32-1.23 0.32-2.49 0.64-11.8 2.98-23.29 5.31-35.43 6.32-2.94 0.11-2.94 0.11-4.71 1.11 1.31-4.09 3.79-7.27 6.28-10.71q1.27-1.77 2.53-3.53 0.6-0.83 1.21-1.69 2.22-3.15 4.33-6.38-0.79-0.4-1.6-0.8z"/>
	<path id="Layer copy 54" class="s21" d="m671.63 554.23c-3.68 1.31-7.36 2.63-11.15 3.98 2.23 3.41 4.48 6.78 6.87 10.08q0.54 0.74 1.09 1.51 1.1 1.5 2.2 3c2.59 3.57 2.59 3.57 2.59 5.34-15.74-0.59-30.89-4.4-45.42-10.36 2.15-2.92 5.17-3.21 8.51-3.89 10.36-2.27 20.52-5.31 30.15-9.8 1.98-0.66 1.98-0.66 5.16 0.14z"/>
	<path id="Layer copy 55" class="s22" d="m583.18 279.32c0 2.39 0 2.39-0.95 3.61q-0.64 0.63-1.31 1.28c-0.7 0.69-0.7 0.69-1.42 1.39q-0.74 0.71-1.5 1.44-0.73 0.72-1.49 1.46-1.84 1.79-3.68 3.57c0-3.91 2.94-6.06 5.57-8.77 1.55-1.4 3.13-2.69 4.78-3.98z"/>
	<path id="Layer copy 56" class="s23" d="m770.44 640.29q0.79 0.39 1.6 0.8c-5.96 6.26-5.96 6.26-9.57 7.96q-1.17 0-2.39 0 1.92-1.74 3.84-3.48 1.06-0.97 2.15-1.96c1.98-1.73 1.98-1.73 4.37-3.32z"/>
	<path id="Layer copy 57" class="s24" d="m129.78 355.82q0.79 0.39 1.59 0.79-0.93 0.89-1.89 1.8c-1.74 1.82-2.75 3.08-3.68 5.37q-0.4-1.96-0.8-3.98 2.35-1.96 4.78-3.98z"/>
	<g id="Layer 1">
	</g>
</svg>