<svg version="1.2" xmlns="http://www.w3.org/2000/svg" viewBox="0 0 1024 1024" width="1024" height="1024">
	<style>
		.s0 { fill: #dcdbd5 } 
		.s1 { fill: #f3ebdd } 
		.s2 { fill: #fefbf5 } 
		.s3 { fill: #b26708 } 
		.s4 { fill: #767c7b } 
		.s5 { fill: #767d7b } 
		.s6 { fill: #383a3c } 
		.s7 { fill: #fdb11f } 
		.s8 { fill: #fbfbf5 } 
		.s9 { fill: #c0c0b8 } 
		.s10 { fill: #7e827d } 
		.s11 { fill: #4c5050 } 
		.s12 { fill: #7f827d } 
		.s13 { fill: #7e817d } 
		.s14 { fill: #f5f2ec } 
		.s15 { fill: #7e817c } 
		.s16 { fill: #f6f3ed } 
		.s17 { fill: #5c6162 } 
		.s18 { fill: #5f6465 } 
		.s19 { fill: #515657 } 
		.s20 { fill: #515557 } 
		.s21 { fill: #4f5355 } 
		.s22 { fill: #4f5354 } 
		.s23 { fill: #fafafa } 
		.s24 { fill: #fbfbfb } 
		.s25 { fill: #c0bfb7 } 
		.s26 { fill: #292a2c } 
		.s27 { fill: #6c7372 } 
		.s28 { fill: #6f7574 } 
		.s29 { fill: #767a75 } 
		.s30 { fill: #6c7270 } 
		.s31 { fill: #747874 } 
		.s32 { fill: #737773 } 
		.s33 { fill: #757975 } 
		.s34 { fill: #6c7271 } 
		.s35 { fill: #e2e1da } 
		.s36 { fill: #777b76 } 
		.s37 { fill: #d6dfe1 } 
		.s38 { fill: #4d5254 } 
		.s39 { fill: #757974 } 
	</style>
	<g id="Layer 1">
		<path class="s0" d="m728.26 86.84c19.6-0.74 38.35 6.35 53.3 18.78 19.76 18.35 31.68 46 32.79 72.77 0.27 12.51-0.45 24.44-3.35 36.61-0.42 1.87-0.42 1.87-0.84 3.77-4.44 18.26-12.44 38.11-26.14 51.41-1.58 2.81-0.79 4.76-0.02 7.82q0.87 2.62 1.9 5.18c0.59 1.49 0.59 1.49 1.18 3.02q0.64 1.59 1.3 3.24c3.43 8.74 6.69 17.52 9.75 26.4 9.97 28.93 20.81 53.58 48.32 69.66 2.55 1.5 2.55 1.5 3.55 2.5 0.35 20.13-20.36 40.99-32.96 54.71-2.11 2.36-4.08 4.8-6.04 7.29q1.64 0.38 3.32 0.77 2.19 0.52 4.37 1.04 1.07 0.25 2.18 0.5c4.15 1.01 7.68 2.05 11.13 4.69 1.36 5.93-1.2 10.02-4.17 15.11-11.37 17.95-25.94 35.48-42.95 48.33q-1.12 0.84-2.28 1.72c-6.3 4.71-12.72 9.01-19.6 12.84q-1.17 0.66-2.38 1.34c-17.78 9.9-36.3 17.35-55.62 23.66 9.26 6.18 22.52 7.65 33.25 9.69q1.56 0.3 3.16 0.61c19.96 3.63 39.68 3.92 59.9 3.58 27.51-0.42 27.51-0.42 40.32 6.75 0.94 0.52 0.94 0.52 1.91 1.05 14.76 8.43 25.48 22.61 30.27 38.88 4.06 17.89 0.39 36.32-8.87 52-7.51 11.13-17.13 19.14-28.94 25.44-1.51 0.81-1.51 0.81-3.04 1.64-13.84 6.93-29.58 10.36-44.96 11.36-1.04 0.07-1.04 0.07-2.1 0.14-37.19 2-75.38-10.92-107.9-28.14q-0.98-0.49-2-1-0.14 1.34-0.29 2.73c-2.81 26.1-5.95 51.29-20.49 73.88-1.24 3.44-1.26 4.89-0.89 8.44q0.15 1.46 0.31 2.96 0.83 6.84 1.88 13.64c0.22 1.47 0.22 1.47 0.45 2.97q0.7 4.66 1.41 9.32 0.69 4.59 1.37 9.18 0.46 3.02 0.93 6.04c0.76 4.87 1.44 9.73 1.95 14.64q0.16 1.36 0.32 2.77 0.3 2.56 0.5 5.13c0.4 3.32 0.68 5.49 3.19 7.82 3.22 2.06 6.63 3.64 10.27 4.84 10.4 3.87 17.95 13.92 22.52 23.71 3.03 7.46 4.98 15.05 6.57 22.93q1.5 0.04 3.04 0.08c23.09 0.79 46.59 2.94 69.27 7.42q1.45 0.28 2.94 0.57c5.97 1.27 11.28 3.23 16.75 5.93-0.12 2.31-0.12 2.31-1 5-10.22 6.15-23.87 7.13-35.5 8.5q-1.62 0.19-3.28 0.38c-12.09 1.39-24.21 2.33-36.34 3.18q-1.78 0.13-3.61 0.26c-22.88 1.62-45.74 2.82-68.66 3.56q-4.8 0.16-9.59 0.32c-56.34 1.91-112.65 2.16-169.02 1.8q-1.2-0.01-2.43-0.01c-69.86-0.44-141.01-1.58-210.38-10.49-1.15-0.14-1.15-0.14-2.32-0.29-20.49-2.63-20.49-2.63-28.87-8.21 0.37-2.42 0.56-3.65 2.53-5.19 5.11-2.42 10.03-3.87 15.59-4.89q1.28-0.25 2.61-0.5c10.07-1.85 20.22-3.02 30.4-4.11q1.45-0.16 2.95-0.32c15.3-1.67 30.52-2.88 45.92-2.99q0.29 1.24 0.59 2.51 0.38 1.62 0.79 3.29 0.38 1.61 0.77 3.26c0.99 3.41 2.21 5.55 4.85 7.94q1.48 0.49 3 1-1.42-1.08-2.87-2.19c-2.96-2.24-4.07-4.25-5.13-7.81-1.52-15.1 2.65-27.77 12.07-39.6 8.17-9.44 16.2-15.09 27.93-19.4 0-2.64 0-5.28 0-8q-0.88 0.5-1.78 1.01c-15.13 8.5-29.6 15.56-46.34 20.24q-1.32 0.37-2.68 0.75c-13.61 3.63-26.77 4.37-40.76 4.31q-1.33 0-2.7 0c-12.78-0.05-25.26-0.29-37.74-3.31q-1.27-0.3-2.57-0.6c-24.36-5.86-47.41-17.17-61.27-38.82-8.99-14.83-12.04-33.49-8.48-50.53 0.92-3.14 1.99-6.06 3.32-9.05 0.62-1.42 0.62-1.42 1.25-2.87 6.25-12.79 17.08-21.56 30.32-26.45 22.31-6.68 44.53-0.72 64.46 10.01q2.4 1.31 4.81 2.62c18.72 10.02 38.3 14.98 59.16 9.02 9.54-3 18.37-7.86 26-14.33q-0.4-2.47-0.81-4.94-0.27-1.64-0.55-3.34-0.65-3.79-1.41-7.56c-2.24-11.37-2.9-22.59-3.23-34.16q-1.72 0.85-3.49 1.72c-43.89 21.42-95.22 31.67-142.65 16.06-21.96-7.74-38.16-21.54-48.3-42.59-5.91-13.03-7.28-30.19-2.93-43.94q1.1-2.66 2.37-5.25 0.63-1.38 1.29-2.8c3.52-7.08 8.16-12.62 13.71-18.2q1.01-1.06 2.05-2.16c4.37-4.28 8.96-7.12 14.45-9.71q0.9-0.43 1.83-0.87c8.81-3.92 17.37-4.55 26.92-4.57q3.61-0.04 7.23-0.07 5.6-0.05 11.2-0.08c22.3-0.13 44.02-1.75 65.82-6.6q1.78-0.38 3.62-0.78 4.94-1.06 9.88-2.16 1.4-0.31 2.84-0.63 3.08-0.68 6.16-1.37 0-0.98 0-2-1.3-0.18-2.63-0.36c-3.33-0.63-6.13-1.58-9.26-2.86q-1.66-0.68-3.37-1.37-1.75-0.73-3.55-1.47c-1.82-0.75-1.82-0.75-3.67-1.51-29.29-12.17-54.03-26.94-76.52-49.43-1.01-0.94-1.01-0.94-2.04-1.89-10.39-9.84-27.48-28.12-27.96-43.11 1.98-2.58 3.86-3.51 6.94-4.39q1.12-0.32 2.27-0.65 1.16-0.32 2.35-0.65 1.17-0.33 2.37-0.68c5.74-1.63 5.74-1.63 8.07-1.63q-0.55-0.62-1.11-1.26-1.8-2.04-3.58-4.1-2.49-2.85-5.02-5.66c-27.67-31.05-27.67-31.05-29.75-47.7 0.46-3.28 0.46-3.28 2.19-5.14q1.21-0.72 2.46-1.45c28.39-18 40.04-43.46 50.44-74.38q1.88-5.57 3.78-11.13 0.45-1.32 0.91-2.68c2.22-6.44 4.83-12.58 7.82-18.7 1.12-2.77 1.12-2.77 0.16-5.47-1.83-3.29-4.12-6.18-6.42-9.14-5.74-7.61-10.02-15.5-13.88-24.19q-0.42-0.94-0.85-1.91c-12-27.13-14.67-58.88-4.42-87.02 9.61-24.72 24.88-45.7 48.93-57.82 9.51-3.57 18.53-4.78 28.65-4.69 1.78 0.02 1.78 0.02 3.6 0.03 29.41 0.58 51.13 17.76 70.76 38.14q3.58 3.83 7.06 7.75c2.03 2.25 4.11 4.4 6.27 6.52q1.79-0.65 3.64-1.32c10.16-3.59 20.34-6.58 30.86-8.93q1.53-0.35 3.12-0.71c16.69-3.6 33.68-5.54 50.69-6.73q1.33-0.09 2.69-0.19c54.81-3.74 114.82-4.25 167.38 14.06 2.8 1.02 2.8 1.02 6.62 0.82 1.99-1.96 1.99-1.96 3.88-4.62 17.06-21.74 40.35-40.7 68.47-44.72 3.3-0.37 6.6-0.58 9.91-0.82z"/>
		<path class="s1" d="m268.84 741.31c18.72 10.02 38.31 14.99 59.16 9.02 10.09-3.18 19.03-8.39 27-15.33 2.23 3.34 3.42 6.75 4.75 10.5 8.29 22.56 22.3 36.88 43.71 47.16 16.7 7.2 34.72 10.28 52.81 10.66q1.3 0.03 2.63 0.06 4.24 0.1 8.47 0.18c1.46 0.03 1.46 0.03 2.94 0.07 21.9 0.47 43.79 0.47 65.69 0.37 1.92 6.85 2.96 13.76 3.97 20.8q0.47 3.24 0.95 6.47 1.01 6.9 2.02 13.79 1.16 7.97 2.33 15.93 0.46 3.15 0.92 6.3c2.12 20.8 2.12 20.8 12.37 38.15 3.93 2.52 5.65 3.56 10.44 3.56 0.33-2.64 0.66-5.28 1-8q0.49 0 1 0 0.43-1.86 0.88-3.77c4.87-20.06 13.45-34.63 31.04-46.14 17.85-10.88 38.73-14.77 59.33-10.96 14.55 3.57 25.98 11.6 34.22 24.15 5.03 8.97 7.51 18.71 9.53 28.72 1.5 0.04 1.5 0.04 3.04 0.08 23.09 0.79 46.59 2.94 69.27 7.42 1.46 0.28 1.46 0.28 2.94 0.57 5.97 1.27 11.28 3.23 16.75 5.93-0.13 2.31-0.13 2.31-1 5-10.22 6.15-23.87 7.13-35.5 8.5q-1.62 0.19-3.28 0.38c-12.09 1.39-24.21 2.33-36.35 3.18q-1.77 0.13-3.6 0.26c-22.88 1.62-45.74 2.82-68.66 3.56q-4.8 0.16-9.59 0.32c-56.34 1.91-112.65 2.16-169.02 1.8q-1.2-0.01-2.43-0.01c-69.86-0.44-141.01-1.58-210.38-10.49-1.15-0.14-1.15-0.14-2.32-0.29-20.49-2.63-20.49-2.63-28.87-8.21 0.37-2.42 0.56-3.65 2.53-5.19 5.11-2.42 10.03-3.87 15.59-4.89q1.28-0.25 2.61-0.5c10.07-1.85 20.22-3.02 30.39-4.11q1.46-0.16 2.96-0.32c15.3-1.67 30.52-2.88 45.92-2.99q0.29 1.24 0.59 2.51 0.38 1.62 0.78 3.29 0.39 1.61 0.78 3.26c0.99 3.41 2.21 5.55 4.85 7.94q1.48 0.49 3 1-1.42-1.08-2.88-2.19c-2.95-2.24-4.06-4.25-5.12-7.81-1.52-15.1 2.65-27.77 12.07-39.6 8.17-9.44 16.2-15.09 27.93-19.4 0-2.64 0-5.28 0-8q-0.88 0.5-1.78 1.01c-15.13 8.5-29.6 15.56-46.35 20.24q-1.31 0.37-2.67 0.75c-13.61 3.63-26.77 4.37-40.76 4.31q-1.33 0-2.7 0c-12.78-0.05-25.26-0.29-37.74-3.31-1.27-0.3-1.27-0.3-2.57-0.6-24.36-5.86-47.41-17.17-61.27-38.82-8.99-14.83-12.04-33.49-8.48-50.53 0.92-3.14 1.99-6.06 3.32-9.05q0.62-1.42 1.25-2.87c6.25-12.79 17.08-21.56 30.32-26.45 24.7-7.4 47.66 0.86 69.27 12.63z"/>
		<path class="s2" d="m429.67 283.04c15.65 13.42 23.34 32.75 25.33 52.96 2.08 36.12 2.08 36.12-6.44 47.37-4.96 6.92-8.45 12.43-7.19 21.15 4.43 17.55 27.73 29.88 42.17 38.56 7.02 3.9 14.24 7.42 21.46 10.92 0 4.95 0 9.9 0 15-12.2 3.49-23.55 2.05-34.94-3.75-4.22-2.43-6.74-5.06-9.65-8.89-1.54-1.75-1.54-1.75-5.16-1.92-3.33 0.25-3.33 0.25-5.25 2.56-0.88 4.46-0.84 6.66 1.59 10.54 8.03 9.61 19.08 14.81 31.41 16.46 9.42 0.63 18.46 0.34 27.69-1.69 2.46-0.33 3.99-0.09 6.37 0.56 14.53 3.96 30.71 0.97 43.94-5.62 5.48-3.21 10.13-7.51 13-13.25 0.38-4.13 0.38-4.13-1.13-7.88-3.01-1.8-4.39-1.84-7.87-1.12-2.08 1.85-3.91 3.86-5.79 5.89-7.71 7.36-18.17 9.46-28.46 9.3-1.2 0-1.2 0-2.43 0-3.35-0.03-6.13-0.13-9.32-1.19 0-4.62 0-9.24 0-14q2.06-1.09 4.18-2.2c35.79-17.92 35.79-17.92 60.54-47.59 0.86-6.81-1.11-11.82-4.6-17.46-0.52-0.9-0.52-0.9-1.06-1.81-1.48-2.49-3.01-4.87-4.75-7.18-4.63-6.21-3.99-15.41-4.31-22.76q-0.08-1.73-0.16-3.5c-0.58-24.01 4.45-47.24 21.22-65.19 16.19-15.54 38.48-20.91 60.45-20.66 22.67 0.75 46.07 6.43 62.11 23.5 16.88 20.2 22.18 44.95 20.38 70.85-2.14 22.31-12.71 41.81-29.81 56.25-19.83 15.16-45.46 17.21-69.5 14.06-11.43-2.24-21.02-7.4-30.77-13.52-2.49-1.88-2.49-1.88-3.92-1.79q0.45 0.89 0.92 1.81c10.78 22.32 14.96 51.8 7.4 75.86-9.04 22.74-23.98 37.18-46.2 47.08-31.86 12.55-70.16 11.65-101.64-1.61-7.9-3.48-15.1-7.24-21.48-13.14q-1.11-0.98-2.25-1.98c-13.77-12.79-20.73-30.78-21.97-49.33-0.68-20.55 1.28-37.77 9.22-56.69q0.49-1.48 1-3-0.85 0.65-1.73 1.32c-6.71 4.93-13.53 8.62-21.27 11.68q-1.57 0.62-3.18 1.26c-20.28 6.68-45.07 4.34-64.3-4.41-18.56-9.77-31.44-24.61-37.9-44.6-5.7-19.53-6.7-42.98 0.38-62.25q0.67-1.83 1.36-3.71c2.98-7.51 6.66-13.95 11.64-20.29 0.67-0.92 0.67-0.92 1.36-1.85 12.07-15.51 32.16-22.32 50.99-24.83 23.42-2.05 49.09 1.05 68.32 15.72z"/>
		<path class="s0" d="m268.84 741.31c18.72 10.02 38.31 14.99 59.16 9.02 10.09-3.18 19.03-8.39 27-15.33 2.23 3.34 3.42 6.75 4.75 10.5 8.29 22.56 22.3 36.88 43.71 47.16 17.17 7.4 35.56 10.32 54.14 10.66 1.45 0.03 1.45 0.03 2.92 0.06q4.55 0.1 9.1 0.18 3.12 0.07 6.23 0.13 7.57 0.16 15.15 0.31 0.02 2.14 0.03 4.28 0 1.19 0.01 2.41c-0.05 3.02-0.49 5.9-1.04 8.87q-0.28 1.54-0.56 3.13-0.22 1.14-0.44 2.31c-34.83 0.71-68.75-4.53-96-28-1.32-1.14-1.32-1.14-2.67-2.3-4.5-3.96-8.78-7.85-12.33-12.7q0-0.98 0-2-0.99 0-2 0 0.05 1.06 0.11 2.15c0.21 8.42-0.48 16.61-1.42 24.98-0.18 1.62-0.18 1.62-0.36 3.28-2.43 20.57-2.43 20.57-7.46 24.78q-2.39 1.47-4.87 2.81-1.82 1.05-3.64 2.11c-21.07 11.92-45.75 19.95-70.09 20.09q-1.23 0.01-2.5 0.02c-34.52 0.23-34.52 0.23-48.77-3.22-1.27-0.3-1.27-0.3-2.57-0.6-24.36-5.86-47.41-17.17-61.27-38.82-8.99-14.83-12.04-33.49-8.48-50.53 0.92-3.14 1.99-6.06 3.32-9.05q0.62-1.42 1.25-2.87c6.25-12.79 17.08-21.56 30.32-26.45 24.7-7.4 47.66 0.86 69.27 12.63z"/>
		<path class="s0" d="m739 570q1.01 0.13 2.04 0.26 4.67 0.59 9.34 1.18c1.59 0.2 1.59 0.2 3.21 0.41 1.58 0.19 1.58 0.19 3.18 0.4q1.43 0.18 2.89 0.36 1.65 0.19 3.34 0.39 1.09 0.13 2.22 0.27c6.38 0.72 12.64 0.82 19.05 0.72q3.22-0.02 6.44-0.05 5-0.04 10-0.11c28.1-0.37 28.1-0.37 40.91 6.79q0.95 0.52 1.92 1.06c14.76 8.43 25.48 22.61 30.27 38.88 4.06 17.89 0.39 36.32-8.87 52-7.51 11.13-17.13 19.14-28.94 25.44q-1.5 0.81-3.04 1.64c-13.84 6.93-29.58 10.36-44.96 11.36q-1.04 0.07-2.1 0.14c-34.91 1.88-69.51-9.91-100.9-24.14 0.99-0.5 0.99-0.5 2-1 0.42-2.12 0.42-2.12 0.54-4.7q0.46-6.39 1.14-12.76c2.48-23.8 3.44-47.63 4.32-71.54q1.47-0.47 2.98-0.95c7.1-2.29 14.01-4.58 20.58-8.17q1.04-0.56 2.11-1.14c7.34-4.08 14.17-9.03 20.33-14.74q0-0.99 0-2z"/>
		<path class="s3" d="m552.33 358.27c2.96 2.17 5.82 4.42 8.67 6.73q1.27 0.97 2.57 1.97c9 7.34 20.25 21.35 21.72 33.37-1.14 10.39-8.4 17.69-16.1 24.18q-2.78 2.19-5.63 4.29c-1.04 0.77-1.04 0.77-2.1 1.56-4.66 3.41-9.39 6.67-14.27 9.76q-0.96 0.6-1.94 1.23c-3.72 2.29-7.45 4.23-11.45 5.99-8.54 3.27-8.54 3.27-14.73 9.45-1.05 4.11-0.76 8.06-0.07 12.2 15.33 0.56 29.02 0.97 41-10q1.29-1.42 2.62-2.87c2.38-2.13 2.38-2.13 5.44-2.69 3.65 0.7 4.85 1.5 6.94 4.56 0.73 3.19 0.51 5.07-1.07 7.95-7.25 10.39-18.87 16.41-31.2 18.77-10 1.02-20.16 0.9-29.96-1.48-3.13-0.27-5.59 0.43-8.6 1.26-3.79 0.87-7.55 0.84-11.42 0.81q-1.24-0.01-2.53-0.01c-13.22-0.26-26.21-4.02-35.85-13.49-4-4.28-5.81-7.07-5.61-12.93 0.24-1.88 0.24-1.88 1.3-3.88 3.27-1.69 5.32-1.61 8.94-1 1.37 1.64 2.73 3.28 4.02 4.98 7.51 7.65 19.68 10.97 30.1 11.21 4.02-0.2 7.9-0.62 11.88-1.19 0-4.95 0-9.9 0-15-2.97-0.99-2.97-0.99-6-2-20.17-9.02-44.38-23.4-57-41.94-2.53-7.76-2.67-12.5 0.94-20.06 3.31-6.26 7.32-11.75 12.06-17q0.87-0.99 1.76-2c27.08-29.02 62.56-35.67 95.57-12.73z"/>
		<path class="s4" d="m728.26 86.84c19.6-0.74 38.35 6.35 53.3 18.78 19.76 18.35 31.68 46 32.79 72.77 0.27 12.51-0.45 24.44-3.35 36.61-0.42 1.87-0.42 1.87-0.84 3.77-4.73 19.44-13.64 40.06-28.16 54.23-2.46-3.1-4.33-6.3-6.18-9.8q-0.89-1.67-1.82-3.4-0.94-1.78-1.87-3.55-1.84-3.46-3.68-6.92-0.87-1.63-1.77-3.31c-1.46-2.63-3.02-5.11-4.69-7.6-1.99-3.42-1.99-3.42-1.71-5.49 0.97-2.59 2.41-4.64 3.97-6.93 10-15.45 12.76-32.32 10.29-50.4-2.28-10.25-6.4-20.78-15.54-26.6-4.42-2.56-9.02-2.72-14-2-14.67 4.36-26.43 14.3-37 25-4.94-1.63-8.83-4.5-13.06-7.44-15.46-10.48-31.58-18.71-48.94-25.56 1.51-5.29 4.97-8.52 8.69-12.37q0.89-0.95 1.82-1.93 2.73-2.87 5.49-5.7 0.89-0.92 1.8-1.86c17.63-17.97 39.33-28.48 64.46-30.3z"/>
		<path class="s4" d="m293.31 87.56c1.78 0.02 1.78 0.02 3.6 0.03 29.59 0.58 50.89 17.87 70.77 38.13 4.61 4.79 9.07 9.44 12.32 15.28q-1.72 0.69-3.49 1.4c-20.44 8.32-38.61 18.77-56.51 31.6-3.66-1.52-5.76-3.68-8.44-6.56-10.24-10.46-23.53-19.93-38.56-20.82-6.12 0.21-11.01 3.01-15.19 7.38-3.75 4.74-5.82 10.35-7.81 16q-0.55 1.56-1.11 3.16c-4.31 18.66-0.5 37.19 9.36 53.29 1.8 2.63 3.73 5.09 5.75 7.55-1.44 3.96-3.34 7.27-5.62 10.81-3.63 5.73-6.72 11.63-9.68 17.72-1.75 3.6-3.58 7.08-5.7 10.47-20.44-19.28-32.09-51.46-33.31-78.98-0.88-31.39 8.84-60.4 30.14-83.79 14.6-15.29 32.36-22.86 53.48-22.67z"/>
		<path class="s4" d="m267 741q-1.31 2.63-2.63 5.25-0.81 1.65-1.66 3.34-1.59 3.18-3.27 6.32c-14.54 27.5-16.59 62.07-7.88 91.72q0.71 2.18 1.44 4.37 0.6 2.06 1.19 4.13 0.4 1.41 0.81 2.87c-26.8-0.93-55.6-11.05-74.29-30.88-13.88-17.15-18.19-35.32-16.71-57.12 0.65-4.6 2.12-8.76 4-13q0.62-1.42 1.25-2.88c6.25-12.78 17.08-21.55 30.32-26.44 22.81-6.83 47.96-0.88 67.43 12.32z"/>
		<path class="s4" d="m683.72 850.04c10.63 9.08 17.27 20.26 20.28 33.96 0.15 2.83 0.23 5.61 0.25 8.44 0.03 1.12 0.03 1.12 0.06 2.27 0.03 4.61-0.3 7.58-3.31 11.29-3.66 3.53-6.99 4.9-11.88 6.19q-1.75 0.48-3.55 0.98c-13.71 2.87-28.38 1.99-42.32 1.96q-1.55-0.01-3.15-0.01c-23.25-0.05-46.12-0.2-69.1-4.12-0.15-6 0.16-11.36 1.56-17.19q0.26-1.09 0.53-2.21c4.9-18.89 16.4-32.33 32.85-42.35 23.27-13.01 55.56-15.86 77.78 0.79z"/>
		<path class="s5" d="m391 840c1.34 0.01 1.34 0.01 2.71 0.02 20.06 0.83 38.8 12.05 52.48 26.04 10.83 12.73 15.52 28.49 14.81 44.94q-2.15 0.48-4.31 0.94c-1.2 0.26-1.2 0.26-2.43 0.52-21.03 3.46-43.01 2.64-64.26 2.67q-1.42 0-2.87 0c-9.87 0.02-19.72-0.07-29.58-0.56-1.15-0.05-1.15-0.05-2.32-0.11-9.06-0.51-17.89-1.45-24.23-8.46-3.94-7.78-2.89-18.21-0.37-26.31 5.41-14.09 15.62-27.34 29.32-34.16 2.99-1.29 5.98-2.45 9.05-3.53 1.02-0.37 1.02-0.37 2.05-0.75 6.46-1.99 13.28-1.47 19.95-1.25z"/>
		<path class="s6" d="m656.25 306.75c6.5 5.3 11.74 11.38 14.75 19.25q0.45 1.16 0.91 2.36c2.19 7.02 2.37 13.92 2.4 21.2q0.01 1.43 0.02 2.9c-0.16 15.55-4.23 29.28-15.23 40.7-10.62 9.29-23.31 9.65-36.74 9.03-11.35-0.92-19.83-6.83-27.11-15.25-10.22-13.84-10.91-32.86-8.97-49.35 2.15-12.96 7.56-23.07 18.17-30.93 14.97-9.71 37.04-10.16 51.8 0.09z"/>
		<path class="s6" d="m394.88 299.56q1.3 0.01 2.65 0.03c11.56 0.29 20.88 4.37 29.41 12.19 12.32 12.99 11.62 28.79 11.29 45.49-0.38 13.34-3.79 25.56-13.66 35.07-11.92 10.01-24.5 10.85-39.57 9.66-6.43-1.37-11.77-4.01-17-8-1.21-0.9-1.21-0.9-2.44-1.82-9.24-7.88-13-20.5-14.56-32.18-0.84-15.52-0.02-30.79 9-44q0.68-0.99 1.37-2.02c7.96-10.37 20.88-14.57 33.51-14.42z"/>
		<path class="s7" d="m552.33 358.27c2.96 2.17 5.82 4.42 8.67 6.73q1.27 0.97 2.57 1.97c9.64 7.86 17.04 19.42 21.43 31.03 0.19 2.94 0.19 2.94 0 5q-0.49-1.97-1-4-1.04 0.19-2.12 0.38c-46.13 8.02-94.77 6.97-140.88-0.38q-0.49 1.48-1 3c0.44-11.62 7.58-20.54 15-29q0.87-0.99 1.76-2.02c27.14-28.96 62.52-35.68 95.57-12.71z"/>
		<path class="s0" d="m376 780q0.99 0 2 0 2.14 2.47 4.13 5.06c3.94 4.92 7.92 9.06 12.87 12.94q1.17 0.95 2.38 1.92c11.75 9.05 25.32 15.24 39.62 19.08 1.03 0.28 1.03 0.28 2.09 0.56 16.33 4.2 33.14 4.67 49.91 5.44-3.62 35.22-3.62 35.22-6.06 52.69q-0.23 1.65-0.46 3.35c-2.89 20.06-2.89 20.06-10.48 25.96-3.29 1.66-6.49 2.81-10 4 0-4.29 0-8.58 0-13q-0.99 0-2 0-0.18-0.91-0.37-1.84c-4.38-18.59-14.48-32.78-30.41-43.23-16.47-9.88-36.37-14.68-55.51-11.36-2.71 0.43-2.71 0.43-4.71-0.57-1.03-4.46-1.37-7.58 0.25-11.88 5.7-15.38 5.7-32.95 6.75-49.12z"/>
		<path class="s0" d="m658 798c3.07 13.88 4.99 27.93 7 42-3.71 1.07-6.19 0.69-10 0-22.01-1.53-42.7 4.13-60 18q-0.94 0.67-1.92 1.35c-13.16 9.82-18.18 27.4-21.08 42.65q-0.49 0-1 0c-0.33 2.31-0.66 4.62-1 7-2 0.81-2 0.81-5 1-7.51-3.31-11.69-8.62-15-16-0.71-2.81-1.3-5.53-1.81-8.37q-0.24-1.29-0.48-2.62c-1.84-10.24-3.39-20.53-4.96-30.82q-0.2-1.32-0.41-2.69-0.59-3.85-1.17-7.71-0.18-1.14-0.36-2.32c-0.71-4.88-0.91-9.54-0.81-14.47 1.43-0.02 1.43-0.02 2.88-0.04 26.7-0.39 26.7-0.39 53.12-3.96q1.07-0.21 2.17-0.42c18.25-3.61 43.6-22.58 59.83-22.58z"/>
		<path class="s8" d="m492 804c14.52 0 29.04 0 44 0 1.27 5.09 2.36 9.77 3.13 14.9q0.14 0.95 0.29 1.94 0.47 3.12 0.93 6.25 0.33 2.2 0.65 4.4 0.69 4.59 1.37 9.19 0.86 5.85 1.74 11.71 0.68 4.54 1.35 9.08 0.32 2.15 0.64 4.31 0.45 3.03 0.9 6.06 0.25 1.71 0.51 3.47c0.6 4.55 1.03 9.12 1.49 13.69-22.44 0-44.88 0-68 0 1.13-12.38 1.13-12.38 1.82-18.07q0.23-1.9 0.46-3.86 0.25-2.02 0.5-4.05 0.26-2.13 0.52-4.26 0.54-4.43 1.08-8.87 0.7-5.65 1.38-11.3 0.53-4.38 1.07-8.77 0.26-2.08 0.51-4.17 0.35-2.92 0.71-5.84 0.21-1.64 0.41-3.33c0.65-4.2 1.62-8.34 2.54-12.48z"/>
		<path class="s9" d="m355 735c2.23 3.34 3.42 6.75 4.75 10.5 8.29 22.56 22.3 36.88 43.71 47.16 17.17 7.4 35.56 10.32 54.14 10.66 1.45 0.03 1.45 0.03 2.92 0.06q4.55 0.1 9.1 0.18 3.12 0.07 6.23 0.13 7.57 0.16 15.15 0.31 0.02 2.14 0.03 4.28 0 1.19 0.01 2.41c-0.05 3.02-0.49 5.9-1.04 8.87q-0.28 1.54-0.56 3.13c-0.22 1.14-0.22 1.14-0.44 2.31-34.83 0.71-68.75-4.53-96-28q-1.31-1.13-2.67-2.3c-4.5-3.96-8.78-7.85-12.33-12.7q0-0.99 0-2-0.99 0-2 0c0.05 1.06 0.05 1.06 0.11 2.15 0.21 8.42-0.48 16.61-1.42 24.98q-0.18 1.61-0.36 3.28c-2.3 19.42-2.3 19.42-6.24 23.63-1.96 1.52-3.93 2.75-6.09 3.96q-1.42 0.95-2.88 1.94-1.04 0.52-2.12 1.06-0.99-0.49-2-1 0.95-5.81 1.91-11.62 0.34-2.06 0.68-4.12c1.58-9.61 3.26-19.18 5.33-28.7 1.61-7.85 0.2-13.81-2.8-21.18-2.73-7.03-4.77-13.95-6.12-21.38q-0.18-0.97-0.36-1.97-0.54-3.07-1.02-6.15-0.28-1.86-0.58-3.76c-0.04-3.12-0.04-3.12 1.42-5.05q0.76-0.53 1.54-1.07z"/>
		<path class="s9" d="m652 764c2.15 3.22 2.5 5.03 3.07 8.8 0.26 1.72 0.26 1.72 0.53 3.46 0.26 1.79 0.26 1.79 0.53 3.61q0.27 1.77 0.55 3.59c1.44 9.62 1.44 9.62 1.32 14.54-19.48 11.17-19.48 11.17-30 15q-0.91 0.35-1.85 0.7c-22.69 8.52-45.72 11.49-69.78 11.36q-2.53-0.01-5.06-0.01-6.16-0.02-12.31-0.05-0.51-3-1-6-0.28-1.66-0.56-3.37c-0.48-3.94-0.51-7.67-0.44-11.63q1.54-0.01 3.12-0.03c54.36-0.45 54.36-0.45 100.88-25.97 3.87-4.51 7.46-9.23 11-14z"/>
		<path class="s9" d="m716.13 564.38c7.55 2.31 15.11 4.11 22.87 5.62q0 1.48 0 3c-1.93 1.87-3.82 3.49-5.94 5.13q-0.93 0.72-1.88 1.46c-10.21 7.68-25.09 17.41-38.18 17.41q0.02 0.97 0.03 1.97c0.4 28.77-0.15 58.78-6.03 87.03-4.77-0.58-7.93-2.6-12-5q0.14-1.4 0.28-2.85c1.91-20.22 3.04-40.34 3.1-60.65q0.01-1.44 0.02-2.93c0.56-20.9 0.56-20.9-7.4-39.57-2.07-1.11-2.07-1.11-4.25-1.37q-1.85-0.31-3.75-0.63c3.24-2.16 6.38-3.2 10.06-4.31q1.04-0.32 2.12-0.65 2.24-0.67 4.48-1.34 2.36-0.71 4.72-1.43 3.56-1.09 7.12-2.14 1.09-0.34 2.21-0.69c8.05-2.32 14.61-0.54 22.42 1.94z"/>
		<path class="s10" d="m339 748q0.32 2.68 0.59 5.37c1.08 6.99 3.56 13.82 5.62 20.57 2.99 10.32 5.27 21.22 0.05 31.19-3.64 5.41-8.95 8.56-15.26 9.87-7.59 0.82-14.57 1-21.1-3.33-7.3-6.41-10.13-14.98-11.22-24.4-0.42-9.94 1.3-25.04 7.32-33.27 2.79-0.68 4.93-0.96 7.75-1.06 7.7-0.55 14.16-2.3 21.37-5.01 2.88-0.93 2.88-0.93 4.88 0.07z"/>
		<path class="s11" d="m459 454c1.37 1.64 2.73 3.28 4.02 4.98 7.51 7.65 19.68 10.97 30.11 11.21 4.01-0.2 7.89-0.62 11.87-1.19 0-4.62 0-9.24 0-14 4.62 0 9.24 0 14 0 0 4.62 0 9.24 0 14 22.17 0.76 22.17 0.76 41-10q1.29-1.42 2.63-2.88c2.37-2.12 2.37-2.12 5.43-2.68 3.65 0.7 4.85 1.5 6.94 4.56 0.73 3.19 0.51 5.07-1.07 7.95-7.25 10.39-18.87 16.41-31.2 18.77-10 1.02-20.16 0.9-29.96-1.48-3.13-0.27-5.59 0.43-8.6 1.26-3.79 0.87-7.55 0.84-11.42 0.81q-1.24-0.01-2.53-0.01c-13.22-0.26-26.21-4.02-35.84-13.49-4.01-4.28-5.82-7.07-5.62-12.94 0.24-1.87 0.24-1.87 1.3-3.87 3.27-1.69 5.32-1.61 8.94-1z"/>
		<path class="s12" d="m618.63 673.59c5.1 3.03 9.15 7.9 11.37 13.41 1 7.39-0.07 13.66-4 20-4.13 4.89-9.39 9.34-15.91 10.27-6.64 0.32-11.65-1.45-17.09-5.27-5.56-5.48-7.91-11.56-8.44-19.31 0.17-5.62 2.12-10.19 5.44-14.69 8.85-7.66 17.9-9.09 28.63-4.41z"/>
		<path class="s12" d="m429.25 674.66c4.79 3.67 9.24 8.66 10.09 14.79 0.11 7.78-0.89 14.66-6.21 20.66-6.06 5.55-11.15 7.39-19.35 7.2-5.94-0.66-10.05-3.23-14.09-7.56-4.29-5.49-6.39-11.38-6.1-18.39 1.13-6.58 4.23-11.83 9.47-15.92 7.39-5.17 18.45-5.31 26.19-0.78z"/>
		<path class="s13" d="m434.13 147.44c1.14-0.02 1.14-0.02 2.31-0.05 6.29 0.12 10.54 1.85 15.27 6.17 4.3 5.6 6.13 9.23 5.29 16.44-1.65 6.89-5.19 12.5-11.25 16.38-7.05 3.18-17.19 3.17-24.45 0.7-5.06-2.98-9.43-7.48-11.3-13.08-0.73-6.14-0.85-11.54 2.44-16.94 6.07-7.68 12.17-9.48 21.69-9.62z"/>
		<path class="s14" d="m603.31 606.19c4.96 5.18 6.92 9.59 7.19 16.81-0.26 6.51-1.55 11.19-6.34 15.75-5.52 4.4-10.79 6.8-18.02 6.55-7.32-1.04-12.07-4.66-16.73-10.2-3.87-5.76-4.16-11.35-3.41-18.1 1.77-6.18 5.63-10.57 11-14 9.39-3.69 18.04-2.27 26.31 3.19z"/>
		<path class="s15" d="m607 150c3.93 3.65 7.54 7.85 8.34 13.3 0.11 7.07-1.13 12.12-5.92 17.46-6.79 6.33-14.11 6.71-23.11 6.55-6.19-0.58-9.47-3.21-13.62-7.75-3.89-4.9-5.18-8.98-4.99-15.22 0.78-6.04 3.52-10.03 8.24-13.78 7.79-5.68 22.98-5.94 31.06-0.56z"/>
		<path class="s16" d="m447.52 602.84c4.94 2.8 8.65 6.75 10.48 12.16 0.92 6.94 1.13 14.17-2.61 20.32-5.48 6.61-11.88 9.25-20.33 10.05-5.48-0.18-9.81-2.31-13.83-5.98-5.21-5.71-6.73-11.2-6.54-18.87 0.83-6.74 4.33-11.06 9.43-15.29 6.74-4.4 15.81-4.92 23.4-2.39z"/>
		<path class="s14" d="m519.69 626.19c5.66 3.1 9.94 6.43 12.61 12.37 1.83 6.41 1.86 13.73-0.86 19.88-2.99 4.99-7.1 8.44-12.32 10.93-6.62 1.33-12.25 1.41-18.26-1.97-5.03-3.79-8.58-9.25-9.86-15.4-0.6-7.34 0.87-13.4 4.62-19.75 7.27-6.89 14.49-9.15 24.07-6.06z"/>
		<path class="s13" d="m667 174c9.33 3.27 15.69 9.54 20.44 18.06 2.24 4.94 2.28 8.94 0.43 14.07-2.79 4.28-5.92 7.22-10.87 8.87-9.02 0.69-15.66-0.11-23.19-5.12-5.25-4.72-8.41-11.51-9.05-18.47-0.16-5.99-0.02-9.8 4.24-14.41 5.7-4.09 11.22-3.94 18-3z"/>
		<path class="s10" d="m374.56 175.69c4.06 3.85 5.61 6.46 5.81 12.06-0.34 8.9-3.01 14.87-9.22 21.3-6.4 5.81-12.18 6.66-20.79 6.4-5.97-0.8-9.44-3.29-13.36-7.7-1.88-5.16-1.91-9.37 0.07-14.53 4.35-8.64 10.37-14.93 19.43-18.56 6.23-1.65 12.22-1.74 18.06 1.03z"/>
		<path class="s10" d="m229 608c6.6 2.49 10.47 7.15 13.75 13.25 1.72 5.17 2.49 9.72 0.37 14.89-3.26 5.63-7.85 10.77-14.12 12.86-7.86 0.86-13.81 0.67-20.19-4.28-3.98-3.79-6.55-7.79-7.05-13.39-0.15-6.38-0.24-11.48 4.24-16.33 7.51-6.53 12.96-8.05 23-7z"/>
		<path class="s13" d="m809.37 608.7c6 2.68 10.1 7.22 12.63 13.3 0.94 7.03 0.36 13.27-4 19-5.6 5.8-9.51 8.15-17.69 8.44-5.92-0.05-9.36-0.73-13.76-4.72-5.1-5.65-7.07-10.71-6.95-18.22 1.06-6.67 5.28-12.07 10.52-16.13 6.05-3.58 12.6-3.64 19.25-1.67z"/>
		<path class="s17" d="m423.73 212.82c5.46 2.83 9.72 7.07 13.33 11.99 1.81 6.14 1.96 11.86-0.62 17.75-3.39 3.39-6.93 4.31-11.61 4.55q-3.54-0.05-7.08-0.3-1.25-0.08-2.53-0.16c-16.54-1.21-16.54-1.21-21.35-6.65-2.83-4.53-3.81-8.72-2.87-14 3-6.66 7.46-10.88 14-14 6.21-2.07 12.63-1.43 18.73 0.82z"/>
		<path class="s18" d="m622.44 213.59c4.7 2.59 8.17 6.62 10.56 11.41 0.41 4.86 0.62 9.43-1.19 14-4.37 4.82-9.34 5.76-15.5 6.69q-1.19 0.18-2.43 0.38c-8.58 1.27-16.09 2.38-23.88-2.07-3.65-3.89-3.44-7.13-3.29-12.25 0.66-6.29 3.64-11.53 8.29-15.75 8.88-6.69 17.34-6.4 27.44-2.41z"/>
		<path class="s12" d="m308.55 428.85c7.51 3.36 11.74 8.31 16.39 14.9 2.01 6.17 1.96 12.61-0.13 18.75-2.43 3.36-5.1 5.65-8.81 7.5-6.5 0.51-12.49 0.9-18-3-6.45-5.68-10.34-11.78-11.26-20.42-0.28-6.11 0.54-9.69 4.26-14.58 5.43-4.92 10.77-5.4 17.55-3.15z"/>
		<path class="s12" d="m300.31 585.63c4.82 2.76 7.68 6.16 10 11.25 1.54 6.97 1.08 11.81-2.31 18.12-3.23 4.67-6.39 7.74-12 9-6.23 0.65-11.75 0.78-17-3-5.2-5.08-8.02-9.46-8.38-16.81 0.14-5.17 1.2-9.07 4.38-13.19 7.25-6.7 15.86-9.71 25.31-5.37z"/>
		<path class="s10" d="m729.19 429.13c3.84 2.56 6.75 5.41 8.62 9.75 0.85 9.64-0.89 16.91-7.12 24.56-4.94 5.15-9.64 6.71-16.69 7.12-5.24-0.12-7.98-1.2-11.7-4.86-4.53-5.92-4.19-12.51-3.3-19.7 3.04-7.51 9.27-12.62 15.94-16.87 5.09-1.88 9.14-1.81 14.25 0z"/>
		<path class="s12" d="m781 367c4.89 2.36 7.32 5.33 10 10 2.32 6.97 1.13 13.1-1.8 19.7-2.61 5.01-5.59 8.81-11.11 10.83-5.8 1.31-11.16 1.42-16.53-1.22-4.07-3.67-7.11-6.84-7.83-12.44-0.3-7 1.25-12.11 5.27-17.87 6.57-7.04 12.27-10.23 22-9z"/>
		<path class="s12" d="m524.73 151.43c4.28 2.96 6.62 6.62 8.27 11.57 0.74 7.06-0.96 12.14-5 18-5.01 4.8-9.9 6.31-16.66 6.22-5.63-0.53-10.4-3.28-14.34-7.22-3.22-4.63-4.73-9.11-4.45-14.77 1.35-6.72 6.04-11.4 11.45-15.23 7.27-4.02 13.83-2.29 20.73 1.43z"/>
		<path class="s10" d="m255.14 367.66c6.52 2.88 10.24 7.53 13.74 13.59 1.93 6.45 2.28 12.9-0.44 19.19-2.29 3.87-5.1 6.28-9.44 7.56-5.87 0.83-11.41 0.81-16.44-2.61-6.62-5.91-9.47-12.51-10-21.33 0.13-5.43 1.9-9 5.44-13.06 5.21-4.73 10.54-5.37 17.14-3.34z"/>
		<path class="s12" d="m286.35 648.84c5.16 2.86 8 6.52 9.65 12.16 1.13 5.51 0.12 9.41-2.56 14.31-2.86 4.27-5.39 7.33-10.44 8.69-5.35 0.73-9.54 0.71-14.44-1.69-3.98-3.59-7.2-6.78-7.76-12.33-0.16-7.62 1.88-13.34 7.2-18.98 5-4.39 12.29-4.33 18.35-2.16z"/>
		<path class="s10" d="m723.19 223.83c6.87 3.8 11.03 10.3 14.25 17.29 0.94 4.84 1.37 9.06-0.69 13.69-3.95 4.93-3.95 4.93-7.76 5.48-6.11 0.23-10.95-0.86-15.84-4.77-6.14-5.71-10.19-12.84-10.53-21.33 0.03-3.69 0.36-5.86 2.69-8.75 5.2-4.72 11.57-4.01 17.88-1.61z"/>
		<path class="s13" d="m743.09 603.62c4.89 2.41 7.91 6.38 9.91 11.38 1.1 5.55 0.11 10.32-2.68 15.21-2.89 3.93-6.01 6.19-10.75 7.42-5.62 0.81-9.62 0.41-14.57-2.63-3.68-3.53-6.74-6.79-7.17-12.09-0.05-6.07 0.34-9.83 4.48-14.54 6.32-5.58 12.45-7.22 20.78-4.75z"/>
		<path class="s13" d="m544 719c5.03 2.38 8.5 6 11 11 0.53 6.21 0.74 11.76-3 17-4.19 4.2-7.8 6.14-13.75 6.31-5.29-0.06-8.01-1.17-12.25-4.31-2.31-2.5-2.31-2.5-4-5q-0.62-0.89-1.25-1.81c-1.76-5.13-1.28-9.62 0.94-14.44 5.11-9.26 12.62-9.6 22.31-8.75z"/>
		<path class="s15" d="m313 222c3.05 1.61 5.24 3.03 7.38 5.75 2.05 7.39 0.17 13.68-3.38 20.25-3.56 5.13-7.89 10.09-14 12-5.55 0.91-9.51 1.05-14.19-2.25-3.05-4.73-2.68-10.39-1.81-15.75 1.27-3.33 2.94-6.1 5-9 0.84-1.33 0.84-1.33 1.69-2.69 5.21-5.21 11.7-9.77 19.31-8.31z"/>
		<path class="s12" d="m268 298c3.28 2.53 4.69 4.08 6 8 0.93 9.12-0.79 17.01-6.31 24.44-4.08 3.89-7.75 5.33-13.32 6-3.99-0.52-5.58-1.57-8.37-4.44-2.43-7.29-1.72-14.39 1.5-21.31 4.51-8.05 10.4-15.48 20.5-12.69z"/>
		<path class="s13" d="m762.66 297.43c5.27 1.29 8.86 4.44 11.91 8.83 3.37 5.83 4.59 10.43 4.74 17.18q0.06 1.66 0.12 3.37c-0.52 3.85-1.74 5.44-4.43 8.19-3.61 1.8-7.08 1.83-11 1-5.6-3.35-10.09-8.16-12.41-14.3-1.41-6.44-2-13.7 0.22-20 2.74-3.99 6.34-4.61 10.85-4.27z"/>
		<path class="s19" d="m408 868.38c4.18 0.87 5.57 2.12 8 5.62 0.85 4.55 0.09 8.67-0.99 13.11-1.21 5.3-1.45 10.53-1.64 15.95-0.12 3.28-0.24 6.56-0.37 9.94 7.26 0 14.52 0 22 0q0 0.49 0 1c-13.68 0.73-27.3 1.14-41 1-0.66-32.41-0.66-32.41 8.38-44.06 2.62-1.94 2.62-1.94 5.62-2.56z"/>
		<path class="s13" d="m484.38 207.19c3.46 2.39 5.74 5.05 7.62 8.81 0.51 5.56 0.76 10.42-1.69 15.5-4.39 4.75-7.42 7.22-13.97 7.66-4.07-0.28-7.17-1.62-10.34-4.16-1.75-2.27-2.78-4.36-4-7q-0.49-0.99-1-2c-0.81-6.52 0.08-10.74 4-16 5.71-5.3 12.29-5.31 19.38-2.81z"/>
		<path class="s20" d="m623.44 868.31c4.51 0.87 5.77 2.06 8.56 5.69 7.76 11.91 6.23 26.41 6 40-6.27 0-12.54 0-19 0q-0.06-2.04-0.11-4.14c-0.32-9.39-0.71-18.2-3.37-27.27-0.86-4.3 0.2-7.02 2.1-10.9 2.38-2.69 2.38-2.69 5.82-3.38z"/>
		<path class="s13" d="m553 206c4.84 2.33 7.7 5.14 10 10 0.93 6.19 0.52 11.88-2.68 17.34-3.37 4.23-7 5.47-12.26 6.22-4.85-0.27-8.44-2.44-12.06-5.56-4.07-5.21-3.77-11.67-3-18 4.03-8.67 10.9-11.45 20-10z"/>
		<path class="s21" d="m670 869c5.73 3.15 9.68 9.81 11.62 15.95 1.52 6.05 1.62 11.9 1.51 18.11q-0.02 1.44-0.03 2.91-0.04 3.52-0.1 7.03c-2.77 1.38-5.01 1.11-8.1 1.1-1.82-0.01-1.82-0.01-3.67-0.01q-1.9-0.01-3.85-0.03-1.91 0-3.88-0.01-4.75-0.02-9.5-0.05 0-0.49 0-1c3.63 0 7.26 0 11 0-0.12-11.15-0.41-21.49-4.36-32.02-2.12-5.69-2.12-5.69-0.64-8.98 3.1-3.21 5.64-3.62 10-3z"/>
		<path class="s10" d="m461 737c3.88 1.32 6.58 3.57 9.44 6.5 2.31 5.17 2.31 9.92 1.56 15.5-1.75 3.84-3.22 5.44-6.63 7.88-5.76 1.92-11.68 2.34-17.25-0.44-4.26-3.33-6.59-6.28-7.5-11.68-0.28-5.4 0.78-8.57 4.38-12.76 5.35-4.72 8.95-5.82 16-5z"/>
		<path class="s22" d="m365.44 868.5c4.04 0.57 5.67 1.69 8.56 4.5q-0.4 1.85-0.81 3.75-0.27 1.25-0.55 2.53c-0.64 2.72-0.64 2.72-1.44 5.25-3.03 10.01-2.48 20.12-2.2 30.47q-3.94-0.21-7.87-0.44-1.12-0.06-2.27-0.12c-5.63-0.33-5.63-0.33-7.86-1.44-1.55-30.18-1.55-30.18 9.02-42.32 1.98-1.68 1.98-1.68 5.42-2.18z"/>
		<path class="s23" d="m379 311c3.31 2.61 6.66 5.7 7.3 10.05 0.03 5.06-0.31 8.67-3.3 12.95-3.36 2.98-5.04 4-9.56 4-4.32-1.26-7.18-2.93-9.55-6.83-1.62-3.96-1.44-7.98-0.89-12.17 3.73-7.2 8.16-9.38 16-8z"/>
		<path class="s24" d="m617 311c3.67 2.02 6.8 4.92 8 9 0.51 5.45-0.3 9.23-3 14-2.98 2.58-5.09 3.81-8.94 4.63-4.37-0.9-7.13-3.32-10.06-6.63-1.45-4.35-1.52-8.46-1-13 3.42-6.6 7.49-9.41 15-8z"/>
		<path class="s25" d="m340.63 566.94q3.55 1.07 7.1 2.15 1.63 0.5 3.31 1.01 4.96 1.5 9.96 2.9 0 0.49 0 1c-18.06 3.36-34.16-2.1-51-8 1-2 1-2 4-3.19 8.92-2.26 18.16 1.52 26.63 4.13z"/>
		<path class="s26" d="m369 307q1.48 1.97 3 4c-1.14 0.59-1.14 0.59-2.31 1.19-3.15 2.12-4.26 3.28-5.69 6.81-0.7 5.1-0.61 8.84 1.81 13.44 2.48 2.9 2.48 2.9 5.19 5.56-2.86-0.31-3.94-0.94-6-3-2.53-3.8-4.27-7.78-6-12q-0.99 0-2 0c1.56-6.94 6.18-12.12 12-16z"/>
		<path class="s27" d="m673 109q0.99 0.49 2 1c-5.61 5.61-11.22 11.22-17 17q-0.99-0.98-2-2 3.12-3.16 6.25-6.31c0.88-0.89 0.88-0.89 1.78-1.81 2.85-2.86 5.62-5.58 8.97-7.88z"/>
		<path class="s28" d="m597 855q0.99 0.49 2 1c-4.62 4.62-9.24 9.24-14 14 0-4.9 3.7-7.61 7-11 1.63-1.38 3.27-2.74 5-4z"/>
		<path class="s29" d="m258 299c0 3 0 3-1.43 4.61q-0.92 0.84-1.88 1.7c-3.11 2.96-5.03 5.68-6.69 9.69-1-3-1-3 0.04-5.12 2.94-4.3 5.57-7.91 9.96-10.88z"/>
		<path class="s30" d="m351 851q0.99 0.99 2 2-1.87 1.95-3.75 3.88-1.04 1.07-2.11 2.17c-1.99 1.81-3.68 2.9-6.14 3.95 1.48-3.45 3.44-5.65 6.13-8.25q1.08-1.05 2.19-2.14 0.83-0.79 1.68-1.61z"/>
		<path class="s31" d="m504 150q0.99 0.49 2 1-0.95 0.93-1.93 1.9-1.24 1.22-2.51 2.48-1.23 1.21-2.49 2.46c-2.1 1.98-2.1 1.98-3.07 4.16q-0.99-0.49-2-1c2.83-4.67 5.68-7.66 10-11z"/>
		<path class="s29" d="m349 179c0 3 0 3-1.43 4.72-0.93 0.88-0.93 0.88-1.88 1.78q-0.92 0.88-1.87 1.78-0.89 0.85-1.82 1.72-1.51 1.49-3 3c1.84-5.67 5.03-9.68 10-13z"/>
		<path class="s32" d="m426 150q-0.76 0.45-1.54 0.92c-4.49 2.73-8.51 5.62-12.46 9.08 1.32-4.18 2.77-6 6.44-8.38q1.17-0.78 2.37-1.58c2.19-1.04 2.19-1.04 5.19-0.04z"/>
		<path class="s33" d="m454 739q-1.08 0.58-2.19 1.19c-3.04 1.96-5.33 4.19-7.81 6.81q-0.99-0.49-2-1 1.43-1.72 2.87-3.44 0.8-0.95 1.62-1.93c2.63-2.84 3.97-2.69 7.51-1.63z"/>
		<path class="s34" d="m250 101q0.99 0.49 2 1-2.18 2.26-4.38 4.5-1.21 1.25-2.46 2.53c-2.16 1.97-2.16 1.97-4.16 1.97 1.38-3.21 2.92-5.05 5.63-7.25q0.94-0.78 1.91-1.58c0.72-0.58 0.72-0.58 1.46-1.17z"/>
		<path class="s35" d="m262 149q0.99 0.99 2 2c-3.46 2.97-3.46 2.97-7 6 0-3 0-3 2.5-5.69q1.23-1.14 2.5-2.31z"/>
		<path class="s36" d="m270 650q0.99 0.49 2 1c-2.31 2.31-4.62 4.62-7 7q-0.49-0.99-1-2c3.75-4.88 3.75-4.88 6-6z"/>
		<path class="s37" d="m455 368q1.97 0 4 0c-1.39 3.37-2.98 4.99-6 7 0.58-2.39 1.22-4.67 2-7z"/>
		<path class="s29" d="m708 223q1.97 0.49 4 1c-2.64 1.98-5.28 3.96-8 6 1.27-5.08 1.27-5.08 4-7z"/>
		<path class="s38" d="m400 215c0 3.59-0.66 4.11-3 6.69q-0.83 0.93-1.69 1.88-0.64 0.71-1.31 1.43-0.49-1.48-1-3c2.1-3.08 3.89-4.92 7-7z"/>
		<path class="s39" d="m299 226c0 3 0 3-2.5 5.69q-1.23 1.14-2.5 2.31-0.99-0.49-2-1c2.22-2.91 3.93-4.95 7-7z"/>
	</g>
</svg>