<svg version="1.2" xmlns="http://www.w3.org/2000/svg" viewBox="0 0 1080 1080" width="1080" height="1080">
	<style>
		.s0 { fill: #cac5be } 
		.s1 { fill: #cbc6bf } 
		.s2 { fill: #90441a } 
		.s3 { fill: #ef7d34 } 
		.s4 { fill: #fdf8ef } 
		.s5 { fill: #feeacf } 
		.s6 { fill: #f7e7d3 } 
		.s7 { fill: #676a68 } 
		.s8 { fill: #676967 } 
		.s9 { fill: #c2650d } 
		.s10 { fill: #f36f1c } 
		.s11 { fill: #f26f1c } 
		.s12 { fill: #feeace } 
		.s13 { fill: #727471 } 
		.s14 { fill: #737572 } 
		.s15 { fill: #92451a } 
		.s16 { fill: #cbc7c0 } 
		.s17 { fill: #313231 } 
		.s18 { fill: #fefdf8 } 
		.s19 { fill: #bcb8b3 } 
		.s20 { fill: #70726f } 
		.s21 { fill: #f5961e } 
		.s22 { fill: #b0aaa1 } 
		.s23 { fill: #da5d0e } 
		.s24 { fill: #dc5e0e } 
		.s25 { fill: #f26e1c } 
		.s26 { fill: #b0aaa0 } 
		.s27 { fill: #313131 } 
		.s28 { fill: #db6722 } 
		.s29 { fill: #f3701c } 
		.s30 { fill: #6d706e } 
		.s31 { fill: #525452 } 
		.s32 { fill: #6e706e } 
		.s33 { fill: #6e716f } 
		.s34 { fill: #6f7270 } 
		.s35 { fill: #6f726f } 
		.s36 { fill: #6d6f6d } 
		.s37 { fill: #ef7c34 } 
		.s38 { fill: #da5b0d } 
		.s39 { fill: #afa99f } 
		.s40 { fill: #fdfcf7 } 
		.s41 { fill: #6c6f6d } 
		.s42 { fill: #fdfcf8 } 
		.s43 { fill: #954616 } 
		.s44 { fill: #6d6f6e } 
		.s45 { fill: #646564 } 
		.s46 { fill: #535553 } 
		.s47 { fill: #7c7c79 } 
		.s48 { fill: #fdfdf8 } 
		.s49 { fill: #7b7c7a } 
		.s50 { fill: #515452 } 
		.s51 { fill: #7d7e7b } 
		.s52 { fill: #d85a0d } 
		.s53 { fill: #7d7e7c } 
		.s54 { fill: #fef8eb } 
		.s55 { fill: #da5b0e } 
		.s56 { fill: #a39e96 } 
		.s57 { fill: #faf7f1 } 
		.s58 { fill: #faf6ef } 
		.s59 { fill: #9d4a1e } 
		.s60 { fill: #fadec5 } 
		.s61 { fill: #99948c } 
		.s62 { fill: #d9590e } 
		.s63 { fill: #aa4f1e } 
		.s64 { fill: #a6a29a } 
		.s65 { fill: #863d10 } 
		.s66 { fill: #6c6e6c } 
		.s67 { fill: #a0491e } 
		.s68 { fill: #a5a29b } 
		.s69 { fill: #d6d1cb } 
		.s70 { fill: #9a968e } 
		.s71 { fill: #9c4a14 } 
		.s72 { fill: #8b4315 } 
		.s73 { fill: #a9a397 } 
		.s74 { fill: #dddad2 } 
		.s75 { fill: #7c3210 } 
		.s76 { fill: #df4e0e } 
		.s77 { fill: #757674 } 
		.s78 { fill: #8a3f10 } 
		.s79 { fill: #e76410 } 
		.s80 { fill: #d5d1cb } 
		.s81 { fill: #b6cccd } 
		.s82 { fill: #181818 } 
		.s83 { fill: #9e9a91 } 
		.s84 { fill: #df5007 } 
		.s85 { fill: #aa5021 } 
		.s86 { fill: #dcd8d0 } 
		.s87 { fill: #363a3b } 
		.s88 { fill: #5c5e5b } 
		.s89 { fill: #d3410b } 
		.s90 { fill: #bfbab2 } 
		.s91 { fill: #272727 } 
		.s92 { fill: #626665 } 
		.s93 { fill: #f8f2e6 } 
		.s94 { fill: #f9f0e0 } 
		.s95 { fill: #bcb7b1 } 
		.s96 { fill: #595e5d } 
		.s97 { fill: #b1b7af } 
		.s98 { fill: #faf9f7 } 
		.s99 { fill: #393938 } 
		.s100 { fill: #737472 } 
		.s101 { fill: #a5a199 } 
		.s102 { fill: #898986 } 
		.s103 { fill: #f6e6d3 } 
		.s104 { fill: #d3cec7 } 
		.s105 { fill: #5f6262 } 
		.s106 { fill: #ea570a } 
		.s107 { fill: #c6cfd0 } 
		.s108 { fill: #c5c0ba } 
		.s109 { fill: #7a3610 } 
		.s110 { fill: #9d9991 } 
		.s111 { fill: #c7dfde } 
		.s112 { fill: #de4d09 } 
		.s113 { fill: #1f1e1d } 
		.s114 { fill: #d65c15 } 
		.s115 { fill: #5d605f } 
		.s116 { fill: #4d5c5f } 
		.s117 { fill: #bbb8b2 } 
		.s118 { fill: #a7b7b4 } 
		.s119 { fill: #c2bfb9 } 
		.s120 { fill: #cad4d2 } 
		.s121 { fill: #f98d14 } 
		.s122 { fill: #f3f3f1 } 
		.s123 { fill: #ddd8cf } 
		.s124 { fill: #bfb9b2 } 
		.s125 { fill: #f0ede2 } 
		.s126 { fill: #dc500c } 
		.s127 { fill: #eae9e0 } 
		.s128 { fill: #4b4e4c } 
		.s129 { fill: #dd712d } 
		.s130 { fill: #c0bbb4 } 
		.s131 { fill: #718990 } 
		.s132 { fill: #ed5913 } 
		.s133 { fill: #bab5af } 
		.s134 { fill: #f7f6f2 } 
		.s135 { fill: #ee631c } 
		.s136 { fill: #813e19 } 
		.s137 { fill: #7b756f } 
		.s138 { fill: #e56320 } 
		.s139 { fill: #f65b11 } 
		.s140 { fill: #666967 } 
		.s141 { fill: #565a5a } 
		.s142 { fill: #eb6219 } 
		.s143 { fill: #646766 } 
		.s144 { fill: #4b5052 } 
		.s145 { fill: #9e3c0e } 
		.s146 { fill: #73858a } 
		.s147 { fill: #eae8e6 } 
		.s148 { fill: #dbd5cd } 
		.s149 { fill: #5a5e5f } 
	</style>
	<path class="s0" d="m539.62 69.02q2.05-0.01 4.1-0.01 5.62-0.02 11.23 0 6.06 0.01 12.12 0 11.87-0.02 23.73 0 13.82 0.02 27.64 0.01 24.65 0 49.3 0.03 23.93 0.03 47.85 0.01 26.05-0.01 52.11 0 2.77 0.01 5.55 0.01 1.36 0 2.76 0 9.64 0 19.27 0 11.74-0.01 23.47 0.02 5.99 0.01 11.98 0 5.48-0.01 10.96 0.02 1.99 0 3.97-0.01c15.12-0.05 15.12-0.05 21.51 5.61q0.86 0.73 1.74 1.48c4.35 5.29 5.32 10.73 5.26 17.42q0.01 1.19 0.02 2.41 0.02 3.98 0 7.96 0.01 2.86 0.02 5.73 0.02 6.95 0.01 13.91-0.01 5.65 0 11.31 0 0.8 0 1.63 0.01 1.63 0.01 3.27 0.01 15.35-0.01 30.7-0.01 14.03 0.02 28.05 0.04 14.42 0.03 28.84 0 1.64 0 3.27 0 0.8-0.01 1.62 0 5.65 0.02 11.29 0.02 7.61-0.01 15.21 0 2.79 0.01 5.58 0.02 3.81-0.02 7.62c0.02 1.1 0.02 1.1 0.03 2.22-0.08 5.94-1.86 11.17-5.92 15.62-5.9 5.51-11.68 6-19.44 5.93q-1.43 0-2.91 0-3.92-0.01-7.85-0.03-4.1-0.02-8.21-0.02-7.77-0.01-15.54-0.05-8.85-0.04-17.71-0.05-18.19-0.04-36.39-0.13 0 1.97 0 4 1.33-0.09 2.71-0.18c41.98-2.52 41.98-2.52 53.47 6.12 2.82 2.63 3.58 5.06 4.19 8.79-0.62 3.91-2.28 5.89-5.25 8.44-4.7 2.73-9.84 3.25-15.18 3.99q-0.12 0.85-0.26 1.73c-0.59 2.48-1.51 4.36-2.72 6.61-2.72 5.32-4.83 10.76-6.85 16.38-0.28 0.77-0.28 0.77-0.57 1.55-10.61 29.34-18.24 58.58-18.85 89.92q-0.03 1.12-0.06 2.26-0.01 0.98-0.03 1.99c-0.24 2.01-0.7 3.29-1.81 4.99-2.62 0.85-4.09 1.12-6.62-0.04q-0.87-0.67-1.77-1.36-1.01-0.76-2.05-1.54-1.15-0.92-2.34-1.86-2.22-1.75-4.44-3.5-1.49-1.18-2.97-2.37c-2.05-1.65-3.66-2.87-6.18-3.71 7.46 13.91 15.99 23.67 30.08 31.11 2.66 1.42 4.17 2.28 5.87 4.84-0.16 4.49-2.26 8.1-4.34 11.98q-0.53 1-1.08 2.03c-7.3 13.37-16.83 24.42-28.56 34.09-2.54 2.01-2.54 2.01-4.36 4.62q0.99 0.17 2.01 0.34 3.71 0.64 7.41 1.28 1.61 0.28 3.21 0.55 2.31 0.39 4.61 0.8c1.39 0.24 1.39 0.24 2.8 0.48 2.33 0.55 2.33 0.55 4.72 2.15-1.4 17.88-20.95 36.83-33.95 48.18-25.9 21.92-56.44 34.75-88.28 45.28 0.92 1.17 0.92 1.17 1.85 2.35 14.05 18.14 24.1 39.11 25.32 62.36q0.04 0.76 0.08 1.54c1.05 22.66-6.33 46.9-21.65 63.97-1.24 0.91-1.24 0.91-2.49 1.84-3.85 2.92-3.85 2.92-6.3 6.95-0.5 5.86 0.87 11.75 1.95 17.48 0.62 3.45 1.02 6.9 1.34 10.38q0.1 0.95 0.19 1.94c1.04 11.59 1.07 23.28 1.31 34.91q2.82 0.03 5.65 0.05 1.56 0.01 3.17 0.03c14.22-0.35 26.97-7.18 36.92-17.04 9.57-10.19 16.72-22.42 23.87-34.35 9.84-16.32 20.26-29.83 39.34-35.62 9.09-2.06 20.67-2.54 29.26 1.45q1.2 0.53 2.44 1.07c12.32 5.94 20.73 16.3 25.84 28.84 4.85 14.09 4.5 30.34-0.32 44.39q-0.24 0.75-0.49 1.53c-4.17 12.97-10.94 24.65-19.48 35.22q-0.82 1.05-1.66 2.14c-21.38 27.18-53.53 45.36-87.82 49.78-21.02 1.09-42.47-0.48-61.51-10.38-0.03 0.86-0.03 0.86-0.06 1.75-0.4 11.41-0.84 22.8-1.54 34.2q0.91 0.34 1.84 0.7c14.06 5.58 23.07 14.25 29.63 27.98 2.89 7.39 3.61 16.99 1.19 24.64-3.3 5.72-8.14 7.95-14.28 9.79-14.5 3.24-29.96 2.57-44.72 2.59q-4.78 0.01-9.57 0.06c-38.57 0.16-38.57 0.16-51.17-6.65-0.75-0.32-0.75-0.32-1.51-0.65-6.93-3.12-10.63-7.71-13.67-14.52-0.65-2.03-1.19-3.92-1.64-5.98q-0.2-0.89-0.4-1.82c-2.02-10.08-2.6-20.43-3.45-30.66q-0.58-6.84-1.18-13.67-0.22-2.52-0.43-5.05-1.12-12.88-2.55-25.74c-0.47-4.34-0.87-8.58-0.73-12.95q-1.44 0.17-2.91 0.35c-16.33 1.83-32.65 1.66-49.02 0.45-0.69 8.69-0.98 17.36-1.13 26.07q-0.06 3.45-0.13 6.89-0.2 9.78-0.38 19.56-0.11 6.02-0.23 12.04-0.05 2.27-0.09 4.54c-0.45 27.23-0.45 27.23-6.83 36.2-5.3 3.87-10.97 6.9-17.57 7.34q-0.4 0.39-0.8 0.8c-25.47 5.28-53.31 4.12-79.14 2.55q-1.44-0.09-2.93-0.17c-10.87-0.76-22.34-1.96-30.14-10.27-3.59-4.93-5.15-10.85-4.43-16.88q0.1-0.99 0.2-2c1.25-9.13 5.78-16.71 11.78-23.56 0.66-0.75 0.66-0.75 1.32-1.52 8.81-9.47 20.79-12.28 33.04-14.46q-0.11-0.8-0.22-1.63c-2.06-15.79-2.47-31.21-2.18-47.1q-0.66-0.18-1.34-0.36c-23.52-6.45-46.49-15.13-64.97-31.59q-1-0.87-2.02-1.77-3.02-2.67-5.97-5.42c-0.94-0.87-0.94-0.87-1.91-1.76-18.6-17.73-32.72-43.23-37.23-68.55q0.73-0.24 1.49-0.5c12.7-4.62 20.16-14.75 25.91-26.53 2.66-5.73 4.52-11.61 6.15-17.7q0.38-1.33 0.77-2.7c3.2-12.54 3.42-27.47-2.87-39.05-2.66-4.13-6.06-7.14-9.88-10.18-1.1-0.88-1.1-0.88-2.22-1.78-0.88-0.7-0.88-0.7-1.78-1.42 4.28-7.38 9.44-13.68 15.18-19.97q0.57-0.62 1.15-1.26c10.19-11.03 22.96-20.78 36.4-27.5-4.22-1.96-8.45-3.67-12.83-5.24-34.89-12.81-70.67-34.69-91.03-66.66-0.47-0.74-0.47-0.74-0.96-1.49-3.38-5.33-5.71-9.73-6.23-16.08 3.81-2.85 7.92-3.29 12.49-4.05q2.26-0.38 4.52-0.78 0.99-0.16 2.02-0.33c1.96-0.39 1.96-0.39 4.14-2.03q-0.51-0.48-1.04-0.97c-12.65-11.64-23.9-23.56-32.61-38.48-0.45-0.75-0.45-0.75-0.92-1.52-2.07-3.68-3.45-7.48-2.98-11.76 1.65-1.86 1.65-1.86 4-3.2q1.16-0.71 2.35-1.45 1.25-0.74 2.54-1.49c22.22-13.4 31.57-35.24 39.95-58.72q1.39-3.89 2.8-7.77 0.33-0.93 0.67-1.88c1.07-2.95 2.19-5.84 3.48-8.7q0.35-0.76 0.7-1.55 0.95-2.05 1.93-4.08c0.92-2.17 0.92-2.17 0.12-4.05-1.3-1.76-2.75-2.87-4.51-4.18-18.28-14.27-29.44-33.63-34.05-56.32-0.3-1.38-0.3-1.38-0.59-2.78-4.35-24.72 0.73-51.03 15.13-71.65 1.49-1.88 3.03-3.67 4.63-5.46q0.54-0.7 1.1-1.43c8.67-11.22 24.24-19.37 38.05-21.73 15.91-1.04 28.87 0.59 43.13 7.98q1.18 0.6 2.39 1.22c15.41 8.38 28.71 22.66 38.36 37.13 4.21-1.34 8.3-2.82 12.36-4.55 28.82-12.16 60.47-16.74 91.49-18.82q1.37-0.09 2.78-0.19c7.61-0.45 15.21-0.43 22.83-0.42q1.75 0 3.49 0 4.22 0.01 8.45 0.01c0-1.14 0-1.14 0.01-2.31q0.07-27.85 0.18-55.71 0.05-13.47 0.09-26.94 0.03-11.74 0.08-23.48 0.03-6.22 0.04-12.44 0.01-5.85 0.04-11.71 0.01-2.14 0.01-4.29c-0.01-18.26-0.01-18.26 6.04-24.79q0.84-0.94 1.71-1.92c6.94-5.63 14.23-5.42 22.75-5.37z"/>
	<path class="s1" d="m782.69 743.68q1.2 0.53 2.44 1.07c12.32 5.94 20.73 16.3 25.84 28.84 4.85 14.09 4.5 30.34-0.32 44.39q-0.24 0.75-0.49 1.53c-4.17 12.97-10.94 24.65-19.48 35.22q-0.82 1.05-1.66 2.14c-21.38 27.18-53.53 45.36-87.82 49.78-21.02 1.09-42.47-0.48-61.51-10.38q-0.03 0.86-0.06 1.75c-0.4 11.41-0.84 22.8-1.54 34.2 0.91 0.35 0.91 0.35 1.84 0.7 14.06 5.58 23.07 14.25 29.63 27.98 2.89 7.39 3.61 16.99 1.19 24.64-3.3 5.72-8.14 7.95-14.28 9.79-14.5 3.24-29.96 2.57-44.72 2.59q-4.78 0.01-9.57 0.06c-38.57 0.16-38.57 0.16-51.17-6.65q-0.74-0.32-1.51-0.65c-6.93-3.12-10.63-7.71-13.67-14.52-0.65-2.03-1.19-3.92-1.64-5.98q-0.2-0.89-0.4-1.82c-2.02-10.08-2.6-20.43-3.45-30.66q-0.58-6.84-1.18-13.67-0.22-2.52-0.43-5.05-1.12-12.88-2.55-25.74c-0.47-4.34-0.87-8.58-0.73-12.95-1.44 0.17-1.44 0.17-2.91 0.35-16.33 1.83-32.65 1.66-49.02 0.45-0.69 8.69-0.98 17.36-1.13 26.07q-0.06 3.45-0.13 6.89-0.2 9.78-0.38 19.56-0.11 6.02-0.23 12.04-0.05 2.27-0.09 4.54c-0.45 27.23-0.45 27.23-6.83 36.2-5.3 3.87-10.97 6.9-17.57 7.34q-0.4 0.39-0.8 0.8c-25.47 5.28-53.31 4.12-79.14 2.55-1.45-0.09-1.45-0.09-2.93-0.17-10.87-0.76-22.34-1.96-30.14-10.27-3.59-4.93-5.15-10.85-4.43-16.88q0.1-0.99 0.2-2c1.25-9.13 5.78-16.71 11.78-23.56q0.65-0.75 1.32-1.52c8.81-9.47 20.79-12.28 33.04-14.46q-0.11-0.81-0.22-1.65c-2.02-15.53-2.48-30.64-2.18-46.28 3.5-0.65 6.04-0.73 9.54-0.05 33.46 5.14 68.79-5.93 95.95-25.34 8.96-6.73 17.55-13.92 24.73-22.54q0.88-1 1.78-2.03c4.55-5.25 4.55-5.25 8.06-11.2 4.95-9.68 4.95-9.68 9.68-11.48 4.72-0.83 9.43-0.53 14.19-0.16 3.5 0.27 7 0.39 10.51 0.5q2.62 0.09 5.23 0.2c14.3 0.57 28.82-1.75 42.42-6.19q0.84-0.27 1.7-0.54 5.51-1.78 10.99-3.67 2.31-0.79 4.64-1.56c8.17-2.76 16.54-6.2 23.59-11.25 2.22-1.36 2.22-1.36 3.96-1.04q0.71 0.24 1.46 0.48c1.78 14.88 2.08 29.78 2.39 44.74q2.82 0.03 5.65 0.05c1.57 0.01 1.57 0.01 3.17 0.03 14.22-0.35 26.97-7.18 36.92-17.04 9.57-10.19 16.72-22.42 23.87-34.35 9.84-16.32 20.26-29.83 39.34-35.62 9.09-2.06 20.67-2.54 29.26 1.45z"/>
	<path class="s2" d="m394.64 606.06q3.12 0.01 6.23-0.01c11.85-0.01 23.11 0.99 34.55 4.32 1.28 0.36 1.28 0.36 2.58 0.73 7.86 2.33 15.34 5.23 22.74 8.75q0.78 0.37 1.59 0.75c13.01 6.27 24.55 15.08 35.16 24.82q0.62 0.57 1.27 1.16c8.71 8.06 15.4 17.34 21.49 27.5q0.49 0.8 1 1.64c2.24 3.86 3.73 7.76 5 12.04q-1.39 0.11-2.81 0.24c-16.33 1.5-29.82 6.67-41.1 19.05-9.81 11.84-12.33 24.88-11.22 39.83 0.53 6.9 0.53 6.9 3.2 12.78q1.61 0.11 3.24 0.1 0.99 0.01 2.02 0.01 1.07-0.01 2.18-0.01 1.09 0 2.22-0.01c3.76-0.02 7.47-0.12 11.21-0.49 4.11-0.4 8.2-0.55 12.33-0.6q0.94-0.03 1.91-0.05c4.4-0.03 4.4-0.03 6.45 1.29 0.78 1.36 0.78 1.36 0.83 4.1-1.1 3.68-2.33 4.21-5.64 6.04-2.9 0.81-2.9 0.81-5.94 1.35-1.51 0.28-1.51 0.28-3.05 0.56q-1.47 0.24-3 0.49-1.36 0.23-2.77 0.46c-3.08 0.37-6.06 0.42-9.16 0.39q-0.81-0.01-1.65-0.01-2-0.02-3.99-0.04c6.82 10.47 16.9 17.32 29.16 20.02 5.68 1.06 11.44 1.68 17.17 2.35-6.68 14.85-14.77 29.03-26.73 40.34-1.29 1.26-2.42 2.6-3.57 4-20.67 24.56-56.07 38.84-87.42 41.78-34.93 2.6-74.05-9.45-100.82-32.46q-0.96-0.85-1.95-1.73-1-0.87-2.02-1.77-3.02-2.67-5.97-5.42-0.94-0.87-1.91-1.76c-18.6-17.73-32.72-43.23-37.23-68.55q0.73-0.24 1.49-0.5c12.7-4.62 20.16-14.75 25.91-26.53 2.66-5.73 4.52-11.61 6.15-17.7q0.38-1.33 0.77-2.7c3.2-12.54 3.42-27.47-2.87-39.05-2.66-4.13-6.06-7.14-9.88-10.18q-1.1-0.88-2.22-1.78-0.88-0.7-1.78-1.42c4.28-7.38 9.44-13.68 15.18-19.97 0.57-0.63 0.57-0.63 1.15-1.26 19.67-21.3 47.04-36.23 75.54-41.08q1.19-0.21 2.4-0.44c7.55-1.24 14.95-1.4 22.58-1.37z"/>
	<path class="s3" d="m539.62 69.02q2.05-0.01 4.1-0.01 5.62-0.02 11.23 0 6.06 0.01 12.12 0 11.87-0.02 23.73 0 13.82 0.02 27.64 0.01 24.65 0 49.3 0.03 23.93 0.03 47.85 0.01 26.05-0.01 52.11 0 2.77 0.01 5.55 0.01 1.36 0 2.76 0 9.64 0 19.27 0 11.74-0.01 23.47 0.02 5.99 0.01 11.98 0 5.48-0.01 10.96 0.02 1.99 0 3.97-0.01c15.12-0.05 15.12-0.05 21.51 5.61q0.86 0.73 1.74 1.48c4.35 5.29 5.32 10.73 5.26 17.42q0.01 1.19 0.02 2.41 0.02 3.98 0 7.96 0.01 2.86 0.02 5.73 0.02 6.95 0.01 13.91-0.01 5.65 0 11.31 0 0.8 0 1.63 0.01 1.63 0.01 3.27 0.01 15.35-0.01 30.7-0.01 14.03 0.02 28.05 0.04 14.42 0.03 28.84 0 1.64 0 3.27 0 0.8-0.01 1.62 0 5.65 0.02 11.29 0.02 7.61-0.01 15.21 0 2.79 0.01 5.58 0.02 3.81-0.02 7.62 0.02 1.09 0.03 2.22c-0.08 5.94-1.86 11.17-5.92 15.62-5.9 5.51-11.68 6-19.44 5.93q-1.43 0-2.91 0-3.92-0.01-7.85-0.03-4.1-0.02-8.21-0.02-7.77-0.01-15.54-0.05-8.85-0.04-17.71-0.05-18.19-0.04-36.39-0.13 0 1.97 0 4 1.33-0.09 2.71-0.18c41.98-2.52 41.98-2.52 53.47 6.12 2.82 2.63 3.58 5.06 4.19 8.79-0.62 3.9-2.28 5.9-5.25 8.44-1.99 1.11-3.45 1.76-5.59 2.39q-0.99 0.31-2.01 0.62c-16.61 4.61-34.42 4.33-51.51 4.18q-0.38 1.05-0.77 2.14c-6.56 17.67-18.67 36.63-35.18 46.59q-0.79 0-1.6 0-0.27-0.62-0.55-1.27c-3.51-8.07-7.07-15.97-11.71-23.47-2.13-3.57-2.13-3.57-2.07-5.82 0.88-1.65 1.84-2.61 3.24-3.84 10.68-10.26 16.66-25.83 17.02-40.42 0.06-12.47-1.65-23.09-10.24-32.63-5.44-5.09-11.71-5.69-18.88-5.52-7.49 0.77-12.96 4.99-18.35 9.91q-0.79 0-1.6 0 0 0.79 0 1.6-0.79 0-1.6 0-0.3 0.68-0.61 1.38c-1.12 2.06-2.44 3.55-4.03 5.26-2.71 2.98-5.08 6.01-7.34 9.34q-1.04-0.91-2.1-1.85c-14.39-12.27-29.91-22.57-46.84-31.01-1.29-0.65-1.29-0.65-2.6-1.3-0.99-0.49-0.99-0.49-1.99-0.99q-0.08-18.94-0.12-37.88-0.02-8.79-0.06-17.58-0.04-7.67-0.04-15.34-0.01-4.05-0.03-8.11-0.02-4.53-0.02-9.07-0.01-1.33-0.03-2.71c0.04-7.94 0.04-7.94 2.7-11.57 3.31-2.54 6.24-2.74 10.27-2.7q0.94-0.01 1.9-0.01 3.15-0.01 6.29 0 2.26 0 4.52-0.01 6.13-0.01 12.26 0 6.41 0.01 12.83 0 10.77-0.01 21.54 0.01 12.45 0.02 24.91 0 10.69-0.02 21.38-0.01 6.39 0.01 12.77 0 6.01-0.01 12.01 0.01 2.2 0 4.41-0.01 3.01 0 6.01 0.02 0.87-0.01 1.77-0.02c3.5 0.04 5.76 0.5 8.5 2.72 1.85 2.57 1.8 4.9 1.79 8.01 0.01 1.48 0.01 1.48 0.01 2.98q-0.01 1.64-0.02 3.27 0 1.73 0 3.45 0 4.68-0.02 9.36-0.01 4.89-0.01 9.78-0.01 9.26-0.03 18.52-0.03 10.55-0.04 21.09-0.02 21.69-0.08 43.37 14.96-0.13 29.92-0.27 6.94-0.07 13.89-0.12 6.69-0.06 13.39-0.13 2.56-0.02 5.12-0.04 3.58-0.03 7.15-0.07 1.06-0.01 2.16-0.02c3.44 0.06 3.44 0.06 6.66-0.95q0.03-34.93 0.04-69.87 0-4.12 0.01-8.24 0-0.82 0-1.66 0-13.3 0.01-26.6 0.01-13.64 0.02-27.28 0-7.66 0.01-15.33 0-7.2 0-14.4 0-2.66 0.01-5.31 0-3.6 0-7.21 0-1.06 0.01-2.15c0.29-3.09 0.29-3.09-0.91-5.69q-2.55-0.11-5.1-0.11-0.81 0-1.64-0.01-2.76-0.01-5.51-0.01-1.99 0-3.97-0.01-5.48-0.01-10.95-0.02-5.9-0.01-11.79-0.03-10.23-0.02-20.45-0.04-14.78-0.03-29.56-0.07-23.98-0.05-47.96-0.1-23.3-0.05-46.59-0.1-1.45 0-2.93-0.01-11.34-0.02-22.68-0.05-55.61-0.12-111.22-0.24c0 49.56 0 99.13 0 150.19-7.12-0.26-14.24-0.52-21.57-0.8q-0.08-29.16-0.12-58.33-0.02-13.54-0.06-27.09-0.04-11.8-0.05-23.61 0-6.25-0.02-12.5-0.03-5.89-0.02-11.77 0-2.16-0.02-4.31c-0.11-18.29-0.11-18.29 5.98-24.86q0.84-0.94 1.71-1.92c6.94-5.63 14.23-5.42 22.75-5.37z"/>
	<path class="s4" d="m642.23 385.18c15.11 11.82 24.46 30.37 27.51 49.17 2.3 21.38-1.23 41.36-14.87 58.48-10.35 12.03-23.38 19.29-39.15 21.57-3.15 0.23-6.28 0.27-9.43 0.25q-1.27-0.01-2.57-0.01c-6.18-0.1-11.66-0.64-17.56-2.64q-1.3-0.43-2.64-0.88c-5.12-1.83-9.7-4.07-14.27-7-1.29-0.98-1.29-0.98-2.26-0.9q0.53 0.65 1.08 1.32c9.3 12.19 10.09 25.83 8.25 40.67-3.05 18.7-13.71 35.38-28.74 46.79-11.16 7.7-23.18 12.56-36.51 15.07-1.23 0.25-1.23 0.25-2.48 0.5-22.84 4.1-48.29-0.97-67.95-13.26-16.73-11.81-28.02-26.69-32.31-46.83-2.71-16.59 1.48-31.01 10.07-45.06q-1.09 0.62-2.2 1.25c-7.07 3.96-13.97 6.91-21.77 9.13q-1.44 0.44-2.93 0.89c-4.4 1.08-8.84 0.94-13.35 0.91q-1.28 0.01-2.59 0.02c-16.36-0.04-31.16-6.14-42.89-17.5-13-13.23-18.62-31.44-18.48-49.68q0.01-1.57 0.02-3.19c0.13-7.74 0.9-14.43 3.53-21.72q0.44-1.33 0.9-2.7c6.3-17.65 17.53-32.43 34.6-40.64 7.79-3.62 15.22-5.03 23.76-4.95q1.31 0.01 2.65 0.02c16.07 0.34 29.57 5.98 41.23 17.12 14.88 15.58 19.58 38.43 19.31 59.26-0.35 10.45-2.67 20.91-6.03 30.79-0.67 1.75-0.67 1.75-0.58 3.41q1.18-0.79 2.39-1.6c-1.5 4.6-1.5 4.6-2.39 6.39-0.85 7.5 1.93 13.08 6.48 18.97 1.77 2.01 3.59 3.92 5.5 5.8q0.69 0.69 1.4 1.4c10.79 10.04 24.34 18.51 38.54 22.57 0.69 9.43 0.69 9.43-1.69 12.48-5.25 4.33-11.73 4.1-18.23 3.69-6.66-0.79-13.22-3.88-17.62-8.98q-0.99-1.54-1.95-3.1c-1.15-1.74-1.62-2.39-3.66-2.9-1.96-0.1-1.96-0.1-4.78 0.4-1.83 1.52-1.83 1.52-2 4.05 0.67 5.24 3.24 8.58 7.13 12.07 10.91 8.38 22.19 10.58 35.61 9.45 3.97-0.87 7.69-2.06 11.19-4.15 2.89-1.17 5.16-0.02 7.94 1.08q2.44 1.07 4.89 2.14c10.15 4 21.47 1.6 31.2-2.52 6.7-3.4 12.29-8.05 15.39-15.02 1.03-3.15 0.73-5.6-0.3-8.69q-1.73-0.1-3.45-0.15-0.95-0.05-1.94-0.09c-2.27 0.3-2.81 0.85-4.2 2.63q-1.05 1.71-2.05 3.45c-2.8 4.28-6.21 6.31-10.73 8.54q-0.72 0.4-1.46 0.82c-5.86 2.84-14.59 2.69-20.76 0.94-2.68-1.28-4.09-2.48-5.74-4.96-0.16-2.51-0.16-2.51-0.1-5.34q0.02-1.41 0.04-2.86 0.03-1.07 0.06-2.19 1.04-0.37 2.11-0.76c12.29-4.67 23.68-10.81 33.84-19.21q1.12-0.9 2.28-1.83c6.04-5.12 13.86-13.33 14.68-21.67 0.15-5.43-0.73-8.54-3.38-13.25q0.39-0.78 0.8-1.59c1.18 1.18 1.18 1.18 2.39 2.39-0.2-0.71-0.2-0.71-0.41-1.44q-1.98-7.11-3.68-14.29c-0.21-0.83-0.21-0.83-0.41-1.69-5.28-22.3-1.63-46.58 10.31-66.16 5.4-8.33 12.64-14.74 21.35-19.47 0.72-0.4 0.72-0.4 1.45-0.8 19.89-10.49 44.81-6.93 62.61 5.79z"/>
	<path class="s5" d="m531.04 89.39c80.33-0.06 80.33-0.06 113.8-0.08q11.49 0 22.98-0.01c1.44 0 1.44 0 2.91 0q23.29-0.01 46.57-0.03 23.88-0.02 47.76-0.03 14.74 0 29.49-0.02 10.1-0.01 20.2-0.01 5.83 0 11.67-0.01 5.33-0.01 10.66 0 1.94 0 3.88-0.01 2.62-0.01 5.23 0.01 1.46-0.01 2.95-0.01c2.25 0.2 2.25 0.2 3.85 1.8 0.16 2.4 0.22 4.73 0.21 7.13q0 1.11 0.01 2.26 0.01 3.78 0 7.56 0.01 2.7 0.01 5.4 0.02 7.35 0.01 14.7 0 6.13 0.01 12.25 0.01 15.28 0 30.55 0 13.28 0.02 26.55 0.03 13.62 0.02 27.24 0 7.65 0.01 15.3 0.02 7.2 0 14.39 0 2.64 0.01 5.29 0.01 3.6-0.01 7.2 0.01 1.05 0.02 2.14c-0.02 1.94-0.02 1.94-0.32 4.98-2.43 1.62-2.87 1.8-5.6 1.79-0.97 0.01-0.97 0.01-1.96 0.01q-1.06-0.01-2.15-0.02c-1.12 0-1.12 0-2.27 0q-3.71 0-7.43-0.02-2.57-0.01-5.14-0.01-6.78-0.01-13.56-0.04-6.92-0.02-13.83-0.03-13.58-0.03-27.15-0.08c0-0.89 0-0.89-0.01-1.81q-0.12-21.82-0.26-43.64-0.07-10.56-0.13-21.11-0.05-9.2-0.11-18.39-0.03-4.88-0.06-9.75-0.02-4.58-0.05-9.16-0.01-1.69-0.02-3.37-0.01-2.3-0.03-4.59-0.01-1.28-0.02-2.6c-0.08-2.8-0.08-2.8-0.91-5.41-3.23-1.93-6.61-1.83-10.27-1.81q-0.93 0-1.9-0.01-3.14-0.01-6.29 0-2.26 0-4.52-0.01-6.13-0.01-12.26-0.01-5.11 0-10.23-0.01-12.07-0.01-24.14 0-12.45 0-24.91-0.02-10.69-0.02-21.38-0.02-6.38 0-12.77-0.01-6-0.01-12.01 0-2.2 0-4.41-0.01-3-0.01-6.01 0.01c-0.87-0.01-0.87-0.01-1.77-0.02-3.49 0.04-5.8 0.45-8.5 2.72-1.51 2.74-1.8 5.08-1.82 8.17q-0.02 1.24-0.03 2.5 0 1.34 0 2.72-0.02 1.42-0.03 2.89-0.03 3.9-0.04 7.8-0.02 4.08-0.06 8.16-0.05 7.73-0.09 15.45-0.05 8.79-0.11 17.59-0.12 18.09-0.22 36.18-1.9-0.56-3.8-1.12-1.05-0.31-2.13-0.64c-1.78-0.55-3.48-1.17-5.2-1.87-8.1-3.31-16.38-5.62-24.87-7.66q-1.5-0.37-3.05-0.75c-12.74-2.97-25.39-4.42-38.44-6.34 0-49.56 0-99.12 0-150.19z"/>
	<path class="s1" d="m641.29 624.65c8.52 8.15 14.37 18.07 19.17 28.76 0.58 1.27 0.58 1.27 1.17 2.57 4.75 10.95 7.79 22.25 8.42 34.17q0.04 0.76 0.08 1.54c1.05 22.79-6.41 46.74-21.65 63.97q-1.22 1.07-2.47 2.09c-2.46 2.06-4.55 3.99-6.32 6.7-0.22 3.46 0.16 6.32 0.94 9.67 0.7 3.33 0.76 6.12 0.66 9.5q-4.38 2.43-8.79 4.8-1.24 0.67-2.51 1.36c-7.32 3.84-14.83 6.55-22.66 9.15q-2.82 0.96-5.62 1.98c-9 3.21-18.08 5.28-27.53 6.68q-1.4 0.22-2.84 0.44c-10.24 1.46-20.44 1.34-30.76 1.26q-2.68-0.01-5.36-0.02-6.48-0.03-12.97-0.08-0.39-0.79-0.8-1.6c0.86-1.95 1.76-3.81 2.75-5.69q0.4-0.79 0.82-1.6 1.01-1.95 2.03-3.89c-2.81-0.94-5.57-1.22-8.49-1.55q-3.35-0.42-6.69-0.85c-1.02-0.13-1.02-0.13-2.05-0.26-12.08-2.11-21.84-10.26-29.11-19.71 0.4-0.79 0.4-0.79 0.8-1.6q1.03 0.04 2.09 0.08c6.04 0.14 11.85-0.18 17.83-1.08q0.93-0.13 1.89-0.26c4.17-0.68 8.32-1.74 11.74-4.33 1.05-2.82 1.05-2.82 0.8-5.59-1.57-1.93-1.57-1.93-4.56-1.79q-1.86 0.01-3.73 0.04-0.98 0.01-1.98 0.01c-3.49 0.05-6.93 0.19-10.4 0.54-4.46 0.43-8.9 0.51-13.38 0.55q-1.06 0.01-2.16 0.03c-1 0-1 0-2.02 0q-0.89 0.01-1.82 0.01c-1.49-0.19-1.49-0.19-3.09-1.79-3.77-12.27-4.24-26.45 0.8-38.35 0.48-1.2 0.48-1.2 0.97-2.42 5.8-13.03 17.23-22.11 30.23-27.36 7.01-2.59 14.11-3.38 21.53-2.97-8.76-18.4-19.53-34.45-35.3-47.59q-1.11-0.95-2.25-1.94 0-0.79 0-1.6 1 0.08 2.04 0.17c6.92 0.53 13.8 0.78 20.74 0.82q0.8 0 1.62 0.01 6.1 0.04 12.2 0.05 0.89 0 1.82 0c37.66 0.04 78.06-1 114.17-13.03z"/>
	<path class="s6" d="m473.52 880.29q2.75 0.12 5.49 0.35c6.39 0.44 12.77 0.54 19.18 0.55q1.34 0 2.73 0.01c4.77-0.01 9.46-0.19 14.2-0.74 3.45-0.25 6.88-0.2 10.33-0.17 2.1 14.63 3.44 29.3 4.69 44.03 0.24 33.81 0.24 33.81 13.98 62.47 2.65 2.14 5.3 3.37 8.49 4.54q0-2.36 0-4.79 0.39 0 0.8 0 0.39 2.76 0.8 5.59c16.74 4.5 33.53 5.18 50.79 5.07q4.7-0.03 9.4-0.02c9.7-0.01 19.37-0.2 29.06-0.92q1.17-0.08 2.38-0.16c7.75-0.66 15.68-2.05 21.81-7.16 2.99-3.95 3.3-7.74 3.64-12.58q0.18-2.5 0.35-5 14.44 0.75 28.81 2.2 1.03 0.1 2.08 0.21c9.6 0.96 19.15 2.11 28.68 3.58q1.48 0.23 3.01 0.46c21.67 3.5 21.67 3.5 27.7 9.53q0.05 2 0 3.99c-7.51 4.35-14.74 6.31-23.17 7.99q-1.5 0.32-3.04 0.65c-15.83 3.19-32 4.55-48.09 5.74q-1.32 0.1-2.68 0.21c-76.7 5.73-153.58 6.27-255.36 4.59-1.34-0.04-1.34-0.04-2.7-0.07-46.58-1.24-93.86-2.76-139.9-10.32-0.88-0.14-0.88-0.14-1.78-0.29-25.5-4.22-25.5-4.22-30.57-9.29-0.45-1.8-0.45-1.8 0-4 3.8-3.19 8.22-4.86 12.98-6.04q0.96-0.24 1.96-0.5c9.53-2.28 19.28-3.44 28.99-4.64q0.88-0.11 1.77-0.22 6.51-0.81 13.01-1.58 0.9-0.11 1.81-0.22 2.56-0.3 5.11-0.59c1.47-0.17 1.47-0.17 2.96-0.35 2.51-0.24 2.51-0.24 5.7-0.24 0.15 0.89 0.15 0.89 0.3 1.8 0.47 2.07 1.13 3.51 2.1 5.39q0.31 0.75 0.63 1.51c2.33 5.35 5.73 8.87 10.97 11.48 16.14 6.11 36.39 4.74 53.41 4.69q1.01-0.01 2.05-0.01c13.46-0.03 26.76-0.33 40.14-1.94 1.14-0.13 1.14-0.13 2.31-0.26 1.05-0.14 1.05-0.14 2.12-0.28q0.92-0.12 1.88-0.24c1.69-0.45 1.69-0.45 2.54-2.22q0.29-0.76 0.59-1.54 0.39 1.18 0.79 2.39c6.14-1.48 13.35-3.41 17.14-8.84 3.94-8.38 4.5-17.96 4.66-27.07q0.02-1.01 0.04-2.05 0.05-2.18 0.09-4.36 0.07-3.47 0.14-6.94 0.16-7.37 0.3-14.75 0.17-8.53 0.35-17.06 0.07-3.39 0.14-6.77c0.47-23.36 0.47-23.36 1.91-24.8z"/>
	<path class="s0" d="m782.69 743.68c1.21 0.53 1.21 0.53 2.44 1.07 12.32 5.94 20.73 16.3 25.84 28.84 4.85 14.09 4.5 30.34-0.32 44.39q-0.24 0.75-0.49 1.53c-4.17 12.97-10.94 24.65-19.48 35.22q-0.82 1.05-1.66 2.14c-13.1 16.66-35.74 37.76-57.46 41.79q0.17-1.64 0.35-3.29 0.1-0.91 0.2-1.86c0.25-2.04 0.25-2.04 0.66-4.08 2.74-19.43-1.14-36.92-12.29-52.98-8.44-10.93-18.37-17.64-31.26-22.47 2.53-3.43 5.12-6.8 7.83-10.1 3.21-4 5.99-8.17 8.7-12.52q0.71-1.12 1.44-2.28 3.62-5.74 7.12-11.56c9.77-16.2 20.18-29.54 39.12-35.29 9.09-2.06 20.67-2.54 29.26 1.45z"/>
	<path class="s7" d="m723.57 224.4c2.5 1.76 4.85 3.63 7.19 5.6q0.87 0.69 1.76 1.41c15.59 12.99 23.52 32.58 27 52.11q0.23 1.16 0.46 2.34c0.39 2.81 0.42 5.51 0.39 8.35q-0.01 1.48-0.02 3.01c-0.02 1.13-0.02 1.13-0.03 2.28q1.33-0.09 2.71-0.18c41.98-2.52 41.98-2.52 53.47 6.12 2.82 2.63 3.58 5.06 4.19 8.79-0.62 3.9-2.28 5.9-5.25 8.44-1.99 1.11-3.45 1.76-5.59 2.39q-0.99 0.31-2.01 0.62c-16.61 4.61-34.42 4.33-51.51 4.18-0.38 1.06-0.38 1.06-0.77 2.14-6.56 17.67-18.67 36.63-35.18 46.59q-0.79 0-1.6 0-0.27-0.62-0.55-1.27c-3.51-8.07-7.07-15.97-11.71-23.47-2.13-3.57-2.13-3.57-2.07-5.82 0.88-1.65 1.84-2.61 3.24-3.84 10.68-10.26 16.66-25.83 17.02-40.42 0.06-12.47-1.65-23.09-10.24-32.63-5.44-5.09-11.71-5.69-18.88-5.52-7.49 0.77-12.96 4.99-18.35 9.91q-0.79 0-1.6 0 0 0.79 0 1.6-0.79 0-1.6 0-0.3 0.68-0.61 1.38c-1.12 2.06-2.44 3.55-4.03 5.26-2.71 2.98-5.08 6.01-7.34 9.34-1.04-0.92-1.04-0.92-2.1-1.85-12.78-10.89-26.56-20.05-41.04-28.51 9.12-19.56 30.81-36.63 50.62-44.16 17.97-6.16 38-4.62 54.03 5.81z"/>
	<path class="s8" d="m326.52 223.6q1.18 0.6 2.39 1.22c13.73 7.47 33.13 23.51 38.36 38.73q-1.13 0.58-2.29 1.17c-12.93 6.72-24.46 15.07-35.68 24.36q-0.97 0.8-1.98 1.63-1.06 0.89-2.15 1.81c-1.84 1.39-1.84 1.39-3.44 1.39q-1.49-1.9-2.84-3.9c-3.28-4.61-6.87-8.76-10.74-12.88q-0.68-0.77-1.39-1.57c-4.95-5.4-11.49-9.23-18.84-9.83-7.53-0.2-13 0.54-18.91 5.56-9.21 9.46-9.15 21.59-9.01 33.9 0.42 15.25 6.55 28.18 16.74 39.31 2.72 3.13 2.72 3.13 3.45 5.33-0.64 1.91-0.64 1.91-1.8 4.02-0.63 1.17-0.63 1.17-1.27 2.36-0.68 1.22-0.68 1.22-1.37 2.46q-1.31 2.38-2.6 4.77-0.64 1.17-1.3 2.38c-2.29 4.38-4.47 8.86-6.04 13.57-17.68-8.12-29.96-28.23-36.75-45.54-1.72-4.97-2.95-10.03-3.99-15.18q-0.29-1.37-0.59-2.78c-4.35-24.72 0.73-51.03 15.13-71.65 1.49-1.88 3.03-3.67 4.63-5.46q0.54-0.7 1.1-1.43c19.12-24.75 55.11-27.27 81.18-13.75z"/>
	<path class="s9" d="m526.58 461.21c9.21 6.5 22.13 16.25 25.23 27.63 1.17 7.52-1.16 12.67-5.37 18.77-10.88 14.34-30.16 28.17-48.15 31.55q0.07 2.5 0.2 5 0.05 1.38 0.11 2.81c0.57 3.03 1.24 3.94 3.68 5.78 5.71 3.1 14.26 2.48 20.4 0.84 2.36-0.95 4.55-2 6.76-3.24q0.82-0.43 1.66-0.87c3.81-2.32 5.63-5.57 7.72-9.43 1.01-1.68 1.01-1.68 2.61-2.48 3.02-0.28 4.92-0.39 7.58 1.15 1.57 2.67 1.49 4.33 0.98 7.34-2.06 6.72-8.74 12.46-14.64 15.88-11.43 5.5-22.57 6.92-34.69 2.92-2.37-0.93-2.37-0.93-4.82-2.29-3.35-1.48-5.06-0.71-8.37 0.51q-0.99 0.42-2.02 0.85c-9.43 3.96-20.85 3.67-30.42 0.21-8.06-3.56-16.27-8.62-19.86-16.99-0.32-2.79-0.5-4.62 0.8-7.14 2.04-1.08 3.89-1.56 6.21-1.5 3.35 1.23 5.02 4.45 7.08 7.23 2.79 3.26 5.91 4.75 9.88 6.21q1.1 0.43 2.24 0.88c3 0.84 5.81 0.98 8.89 0.96q0.81 0.02 1.64 0.04c4.67 0.01 8.46-0.84 11.91-4.12 1.15-2.29 1.3-4.2 1.43-6.75q0.08-1.29 0.16-2.61 0.05-0.98 0.09-1.98-1.37-0.2-2.79-0.4c-10.59-2.4-19.9-9.07-28.36-15.58q-1.1-0.83-2.22-1.68c-8.43-6.53-17.55-14.55-19.68-25.57-0.34-7.68 4.35-12.89 9.26-18.34 4.13-4.42 8.59-8.3 13.44-11.93q1.18-0.9 2.41-1.82c4.69-3.39 9.45-6.3 14.61-8.92 0.78-0.39 0.78-0.39 1.56-0.8 17.27-8.44 37.79-2.36 52.85 7.88z"/>
	<path class="s10" d="m376.06 746.08c5.59 0.5 10.87 1.55 16.33 2.86q2.72 0.65 5.45 1.29 1.42 0.34 2.88 0.69 27.66 6.57 55.52 12.27 2.14 0.44 4.29 0.88c3.06 0.63 6.13 1.25 9.22 1.77 7.22 1.3 7.22 1.3 10.03 3.91q0.61 1.2 1.23 2.44c5.72 10 14.95 16.94 26.06 20.22 6.8 1.72 13.82 2.39 20.77 3.2-6.68 14.85-14.77 29.03-26.73 40.34-1.29 1.26-2.42 2.6-3.57 4-5.4 6.39-10.56 10.24-19.04 10.97-23.98 0.59-49.24-14.96-66.06-30.96q-0.6-0.58-1.23-1.18-0.76-0.73-1.54-1.48c-15.21-14.65-32.97-34.61-33.67-57.11q-0.03-3.21 0.01-6.42 0-1.11 0.01-2.25 0.01-2.72 0.04-5.44z"/>
	<path class="s11" d="m487.72 636.96c13.23 10.8 23.77 22.47 32.53 37.17q0.49 0.81 1 1.66c2.09 3.61 3.62 7.22 5 11.17-2.76-0.61-4.16-1.44-6.29-3.3-10.9-8.7-23.68-11.9-37.4-12.1q-0.97-0.01-1.97-0.03c-14.52-0.18-28.19 0.05-42.22 4.24q-1.09 0.32-2.21 0.64c-9.62 2.81-18.62 6.44-27.35 11.35q-1.18 0.66-2.4 1.34c-6.01 3.58-11.03 8.14-15.97 13.04q-0.98 0.96-1.98 1.95c-8.84 9.23-13.24 20.44-17.2 32.4-9.36-1.94-18.66-4.15-27.96-6.39 0.41-6.2 2.04-11.62 4.05-17.48q0.48-1.42 0.98-2.88c10.69-31.04 28.42-60.94 54.89-81.1q1.17-0.96 2.37-1.95c6.26-5.12 12.9-8.93 20.15-12.48 1.57-0.78 1.57-0.78 3.43-2.05 14.24-8.83 47.49 15.96 58.55 24.8z"/>
	<path class="s10" d="m341.7 737.29c3.76 0.48 7.37 1.17 11.04 2.1q1.47 0.37 3 0.76 1.52 0.38 3.09 0.78 1.58 0.4 3.16 0.8 3.84 0.97 7.67 1.95c-0.01 0.75-0.01 0.75-0.03 1.51-0.63 28.56 9.68 50.33 29.21 70.76 0.59 0.61 0.59 0.61 1.18 1.23q0.61 0.64 1.24 1.3c17.97 18.85 44.22 35.77 70.86 37.49q1.51 0.1 3.06 0.21 1.15 0.07 2.33 0.14c-20.99 17.67-51.78 25.77-78.74 25.67q-1.16 0-2.36 0.01c-12.83-0.02-12.83-0.02-15.61-2.21q-0.76-0.93-1.55-1.9-1.46-1.29-2.94-2.54-1.73-1.52-3.45-3.05-0.82-0.73-1.68-1.48c-20.79-19.51-31.52-49.97-32.76-77.93q-0.06-2.91-0.07-5.82-0.01-1.07-0.02-2.16-0.02-3.44-0.02-6.88 0-1.16-0.01-2.36c-0.01-31.55-0.01-31.55 3.4-38.38z"/>
	<path class="s12" d="m626.11 170.88c42.97 0 85.94 0 130.22 0 0 30.84 0 61.69 0 93.47q-1.18 0.39-2.4 0.8-0.51-1.23-1.03-2.49c-8.41-20.04-21.03-34.38-40.92-43.54-13.1-4.93-29.77-4.79-42.73 0.49q-1.17 0.4-2.37 0.82c-14.63 5.41-28.44 17.15-38.28 29.09-0.84 1.01-0.84 1.01-1.69 2.05q-0.4 0-0.8 0c0-26.63 0-53.26 0-80.69z"/>
	<path class="s13" d="m651.67 938.61c9.8 7.32 17.18 17.55 19.97 29.56 0.23 2.25 0.27 4.48 0.25 6.74q0 0.89-0.01 1.81c-0.12 5.57-0.73 9.37-4.68 13.62-14.52 10.56-38.51 7.55-55.45 7.58q-4.78 0.01-9.57 0.06c-15.81 0.06-32.81 0.12-47.97-5.05-2.26-4.52 0.24-12.94 1.78-17.58 3.64-9.92 9.2-18.05 16.59-25.56q0.91-0.92 1.84-1.87c20.11-19.25 53.39-23.74 77.25-9.31z"/>
	<path class="s14" d="m409.21 936.86c16.82 8.76 28.79 22.33 35.63 39.97 1.84 5.86 1.76 11.61 1.52 17.7-26.14 4.02-52.76 4.15-79.14 2.55q-1.44-0.09-2.93-0.17c-10.87-0.76-22.34-1.96-30.14-10.27-3.59-4.93-5.15-10.85-4.43-16.88q0.1-0.99 0.2-2c1.25-9.13 5.78-16.71 11.78-23.56 0.66-0.75 0.66-0.75 1.32-1.52 5.82-6.25 13.04-9.46 21.05-12.06 14.14-4.71 32.19-0.1 45.14 6.24z"/>
	<path class="s11" d="m513.46 686.96q1.18 0.79 2.4 1.6-1.08 0.23-2.2 0.47c-14.64 3.48-26.94 10.61-35.35 23.49-7.51 12.93-9.35 26.86-5.94 41.47 0.35 1.67 0.35 1.67 0.35 4.87-13.85-2.04-27.47-4.94-41.12-8.04q-9.48-2.15-18.96-4.27-0.79-0.18-1.6-0.36-3.21-0.72-6.41-1.43-8.53-1.91-17.05-3.83-1.38-0.31-2.8-0.62-3.16-0.71-6.33-1.42c0.76-6.88 0.76-6.88 1.88-9.51q0.32-0.76 0.65-1.54 0.36-0.78 0.72-1.59 0.37-0.82 0.75-1.68c2.33-5.03 5.24-9.38 8.78-13.64q0.85-1.03 1.73-2.09c14.21-16.49 34.34-24.21 55-29.07q0.89-0.22 1.81-0.44c18.93-4.39 47.96-5.65 63.69 7.63z"/>
	<path class="s15" d="m431.98 609.47q1.18 0.78 2.39 1.59-1.35 0.57-2.74 1.15c-10.36 4.65-19.7 9.95-28.41 17.23q-1.38 1.12-2.76 2.24c-30.25 24.9-47.86 60.97-57.16 98.42 1.27 0.12 1.27 0.12 2.55 0.25 4.8 0.6 9.44 1.8 14.13 2.94 1.36 0.33 1.36 0.33 2.76 0.67 6.71 1.62 6.71 1.62 8.52 2.53q0.15-0.81 0.3-1.65c3.67-17.24 15.02-32.68 29.21-42.94q2.01-1.3 4.05-2.54 1.17-0.76 2.39-1.53c16.63-10.14 37.96-16.96 57.48-16.98 1.02-0.01 1.02-0.01 2.07-0.01q2.16-0.01 4.31-0.01 3.27 0 6.53-0.03c7.05-0.02 13.81 0.04 20.69 1.78q1.37 0.32 2.79 0.66c8.8 2.58 16.02 6.74 22.77 12.92q1.18 0.79 2.4 1.6c-6.44 0.89-10.67 1.46-15.98-2.4-19.68-11.51-47.36-8.92-68.56-3.41-14.01 3.85-28.04 9.18-39.29 18.59-1 0.81-1 0.81-2.02 1.63-11.79 9.98-17.85 21.97-21.95 36.72q1.34 0.09 2.73 0.2c5.56 0.62 10.97 2.02 16.4 3.32q5.19 1.23 10.39 2.43 1.07 0.25 2.18 0.51c8.01 1.85 16.04 3.6 24.07 5.32q1.06 0.23 2.14 0.46c9.58 2.05 19.16 4.01 28.81 5.74q1.12 0.2 2.28 0.41 0.95 0.17 1.94 0.35c1.73 0.43 1.73 0.43 3.34 1.27 1.83 0.87 3.04 0.95 5.06 0.94q0.99 0 2 0 1.04-0.02 2.12-0.03 1.08-0.01 2.19-0.02c4.45-0.05 8.83-0.31 13.26-0.74 3.39-0.26 6.77-0.35 10.16-0.39q0.94-0.03 1.91-0.05c4.4-0.03 4.4-0.03 6.45 1.29 0.78 1.36 0.78 1.36 0.83 4.1-1.1 3.68-2.33 4.21-5.64 6.04-2.9 0.81-2.9 0.81-5.94 1.35-1.51 0.28-1.51 0.28-3.05 0.56-4.91 0.8-9.7 1.46-14.68 1.59q-1.51 0.06-3.08 0.12c-3.51-0.52-4.65-1.66-6.81-4.42q0-0.78 0-1.59c-1.34-0.16-1.34-0.16-2.72-0.31-3.79-0.48-7.51-1.19-11.25-1.95q-1.1-0.22-2.24-0.45-3.65-0.74-7.3-1.49-1.26-0.25-2.55-0.52c-20.94-4.27-41.76-9.06-62.58-13.89q-6.41-1.49-12.81-2.96c0.94 32.56 15.86 53.87 38.87 75.78 16.13 14.78 41.17 28.99 63.55 28.24 2.64-0.2 5.21-0.48 7.82-0.97-6.75 6.95-6.75 6.95-10.44 7.67-13.56 0.09-26.24-4.98-38.29-10.86q-0.75-0.37-1.53-0.74c-11.57-5.69-21.47-12.98-30.7-21.95q-2.03-1.96-4.09-3.9c-15.85-15.16-31.54-36.3-32.46-59.11q-0.04-2.96-0.02-5.92c-0.01-1.01-0.01-1.01-0.01-2.04q0-0.97 0-1.97 0-0.87 0-1.77c0.11-1.71 0.44-3.22 0.9-4.86q-0.71-0.09-1.45-0.18c-9-1.31-17.73-3.84-26.51-6.21-3.55 24.14-5.27 51.12 0 75.09q0.21 0.96 0.42 1.95c5.07 23.05 17.76 50.43 38.21 63.78q1.04 0.68 2.12 1.38 0 0.39 0 0.8c-9.05-0.48-13.88-2.04-20.18-8.64-10.71-12.11-18.29-26.56-23.76-41.69q-0.44-1.17-0.89-2.38c-5.43-15.86-6.48-33.17-6.5-49.8q0-0.95-0.01-1.94c-0.01-28.52-0.01-28.52 3.4-40.95q-0.78-0.39-1.59-0.8 0.39-2.75 0.79-5.59 1.58 0 3.2 0 0.07-1.55 0.15-3.14c3.79-35.82 29.78-75.64 57.17-98.32q2.09-1.61 4.19-3.19 1.06-0.86 2.14-1.75c20.85-16.62 20.85-16.62 31.42-12.63z"/>
	<path class="s8" d="m782.69 743.68c1.21 0.53 1.21 0.53 2.44 1.07 12.32 5.94 20.73 16.3 25.84 28.84 4.85 14.09 4.5 30.34-0.32 44.39q-0.24 0.75-0.49 1.53c-4.38 13.6-11.61 27.52-21.88 37.61q-0.07-0.65-0.14-1.32c-2.16-19-7.58-34.62-20.63-49.01q-0.53-0.59-1.07-1.19c-5.88-6.45-12.15-11.25-19.7-15.58-1.02-0.59-1.02-0.59-2.06-1.19-9.62-5.15-20.03-7.48-30.7-9.2 5.4-15.23 17.27-26.74 31.21-34.25 10.91-5.03 26.29-6.9 37.5-1.7z"/>
	<path class="s16" d="m267.46 668.28c0.8-0.01 0.8-0.01 1.63-0.03 7.93 0.08 13.65 4.55 19.08 9.88 8.27 9 9.41 19.43 9.15 31.26-1.08 20.18-9.49 41.16-24.32 55.06-3.95 2.96-7.74 5.33-12.78 5.59q0 0.79 0 1.6c-7.36 0.47-12.82-1.56-18.68-6.02-8.91-8.05-13.38-21.8-14.22-33.51-0.42-18.1 1.43-34.45 12.93-49.15q0.63-0.84 1.29-1.71c3.65-4.56 8.01-7.46 13.09-10.27q0.75-0.43 1.53-0.88c3.61-1.71 7.36-1.75 11.3-1.82z"/>
	<path class="s17" d="m412.5 411.58c8.67 6.22 13.72 15.49 15.93 25.88 1.93 14.56-0.22 28.81-9.26 40.74-6 7.11-13.63 12.29-23.08 13.18-10.7 0.69-19.54-1.19-28.02-8.14-9.41-8.53-13.47-20.07-14.66-32.45-0.47-11.44 2.75-22.42 9.86-31.46q0.66-0.85 1.33-1.73c12.07-13.76 32.94-15.64 47.9-6.02z"/>
	<path class="s17" d="m606.63 407.89c9.96 5.53 15.82 12.14 20.28 22.63q0.41 0.96 0.83 1.95c4.06 11.82 2.52 26.97-2.63 38.14-4.93 9.13-11.83 15.99-21.86 19.3-8.69 1.69-18.9 2-26.67-2.67-0.93-0.52-0.93-0.52-1.88-1.06-9.77-5.96-15.34-15.75-18.05-26.7-2.38-13.3-1.27-26.24 5.7-38.07 9.75-13.98 28.15-20.73 44.28-13.52z"/>
	<path class="s10" d="m318.54 730.9c3.87 0.47 7.42 1.26 11.13 2.44 1.37 0.44 1.37 0.44 2.77 0.88q1.02 0.33 2.07 0.67-0.06 0.72-0.13 1.46-0.31 3.37-0.62 6.73-0.1 1.13-0.21 2.3-0.21 2.35-0.42 4.7-0.21 2.31-0.44 4.62c-0.68 7.17-0.77 14.33-0.77 21.53q0 0.97-0.01 1.97c0.01 14.51 1.02 28.94 5 42.97q0.4 1.46 0.81 2.96c5.7 19.84 15.88 38.85 31.15 52.96-2.84 1.42-5.76-0.38-8.64-1.32-19.25-6.48-37.57-14.59-52.88-28.23q-1-0.87-2.02-1.77-3.02-2.67-5.97-5.42-0.94-0.87-1.91-1.76c-6.26-5.96-11.46-12.78-16.46-19.81q-0.6-0.84-1.23-1.7-0.55-0.82-1.13-1.67c-0.5-0.73-0.5-0.73-1.01-1.47-0.88-2.18-0.57-3.34 0.17-5.55 1.27-1.83 1.27-1.83 2.88-3.69 3.49-4.2 6.5-8.6 9.46-13.19q0.77-1.2 1.57-2.43c4.16-6.47 8.07-13.03 11.66-19.84q0.4-0.76 0.82-1.54c6.23-11.75 11.02-23.93 14.36-36.8z"/>
	<path class="s18" d="m473.52 880.29q2.75 0.12 5.49 0.35c6.39 0.44 12.77 0.54 19.18 0.55q1.34 0 2.73 0.01c4.77-0.01 9.46-0.19 14.2-0.74 3.45-0.25 6.88-0.2 10.33-0.17 2.09 14.65 3.47 29.33 4.73 44.07q0.32 3.64 0.64 7.28 0.32 3.58 0.63 7.15 0.14 1.67 0.29 3.35c0.69 7.87 1.2 15.74 1.7 23.63-20.83 0-41.66 0-63.12 0 0.37-17.66 0.37-17.66 0.53-25.26q0.17-7.74 0.33-15.47 0.13-6.25 0.26-12.5 0.05-2.37 0.1-4.74c0.53-26.06 0.53-26.06 1.98-27.51z"/>
	<path class="s10" d="m397.03 606.02q1.02 0 2.07-0.01c8.96-0.02 17.62 0.51 26.49 1.86-1.87 1.24-3.6 2.23-5.59 3.22-7.63 3.84-14.56 7.77-21.12 13.29q-1.99 1.67-4.01 3.31c-15.52 12.76-27.21 28.34-37.19 45.69q-0.5 0.86-1.02 1.74c-9.38 16.24-15.89 34.26-19.75 52.58q-3.32-0.77-6.64-1.55-0.94-0.21-1.9-0.44-0.91-0.21-1.84-0.43-0.83-0.19-1.68-0.39c-1.32-0.33-2.62-0.75-3.92-1.18q0.15-1.23 0.3-2.5 0.11-0.89 0.22-1.81 0.29-2.13 0.67-4.25c1.59-9.24 1.41-18.42 1.37-27.76q-0.01-2.69-0.01-5.38-0.01-7.02-0.04-14.05-0.02-7.19-0.03-14.38-0.03-14.07-0.08-28.14 3.41-1.91 6.82-3.82 0.95-0.54 1.93-1.09c10.38-5.81 21.22-9.27 32.79-11.86q0.85-0.2 1.72-0.41c10.04-2.25 20.2-2.22 30.44-2.24z"/>
	<path class="s19" d="m800.26 327.46c-0.85 2.95-1.97 5.58-3.39 8.28-2.54 5.03-4.47 10.24-6.39 15.54q-0.28 0.77-0.57 1.56c-10.64 29.35-18.29 58.65-18.9 90.01q-0.03 1.12-0.06 2.26-0.01 0.98-0.03 1.99c-0.24 2.01-0.7 3.29-1.81 4.99-2.62 0.85-4.09 1.12-6.62-0.04q-0.87-0.67-1.77-1.36-1.01-0.76-2.05-1.54-1.15-0.92-2.34-1.86-2.22-1.75-4.44-3.5-1.49-1.18-2.97-2.37c-2.05-1.65-3.66-2.87-6.18-3.71q-0.39 0.78-0.79 1.59-0.22-0.76-0.44-1.55c-0.94-3.23-1.88-6.4-3.26-9.48-1.33-3.09-1.9-5.59-1.9-8.94 2.38 2.37 4.75 4.75 7.19 7.19 2.94-1.47 5.07-2.98 7.59-5.04q1.12-0.91 2.27-1.84c2.04-1.83 3.68-3.71 5.32-5.9q-0.78-0.99-1.58-2.02c-11.2-14.39-11.2-14.39-11.2-17.15q-0.79 0-1.6 0c-0.29 0.67-0.29 0.67-0.58 1.35-1.23 2.23-2.74 3.91-4.46 5.79-0.96 1.04-0.96 1.04-1.94 2.11q-2.83 3.03-5.8 5.93c-2.89-4.52-2.89-4.52-3.2-7.19 0.84-1.34 0.84-1.34 2.14-2.65q0.69-0.72 1.41-1.46 0.74-0.73 1.5-1.49 1.45-1.46 2.88-2.94 0.65-0.65 1.31-1.31c1.23-1.43 1.98-2.83 2.75-4.53q-0.47-0.63-0.94-1.27-2.11-2.86-4.2-5.72c-0.74-0.99-0.74-0.99-1.49-2-0.69-0.96-0.69-0.96-1.41-1.94q-0.64-0.87-1.3-1.77c-1.05-1.69-1.63-2.91-1.85-4.88 1.39-1.67 1.39-1.67 3.45-3.5 10.81-10.33 18.47-24.13 23.72-38.04q1.54 0.03 3.14 0.05c9.27 0.11 18.4-0.23 27.63-1.08 4.41-0.4 8.73-0.65 13.16-0.57z"/>
	<path class="s0" d="m398.42 897.86c0.78 2.32 0.83 3.52 0.7 5.9-0.05 3.25 0.55 5.01 2.5 7.69q0 0.78 0 1.59 0.69 0.35 1.4 0.7c1.8 0.9 1.8 0.9 3.17 1.74 4.37 1.82 10.43 1.53 14.92 0.18 2.34-1.22 3.53-2.13 4.33-4.67q0.46-0.96 0.95-1.94c2.05-0.66 2.05-0.66 4.62-0.91 5.59-0.66 11-1.71 16.5-2.94q1.4-0.31 2.84-0.62c5.96-1.36 11.65-2.96 17.33-5.21 1.85-0.71 1.85-0.71 3.44-0.71 0.6 5.86 0.87 11.65 0.85 17.52q-0.01 1.03-0.01 2.08-0.05 12.04-0.29 24.08-0.05 2.57-0.08 5.14c-0.44 29.89-0.44 29.89-6.86 38.91-5.59 4.08-11.39 7.07-18.37 7.34q-0.03-0.94-0.06-1.91c-0.78-14.91-6.68-27.83-16.72-38.83q-0.82-0.93-1.66-1.89c-12.83-13.78-31.63-20.35-50.08-21.16q-2.09-0.07-4.18-0.12 1.18-0.79 2.4-1.6c-0.53-5.8-1.06-11.6-1.6-17.57q2.05 0.17 4.17 0.35 2.73 0.22 5.46 0.45 1.36 0.11 2.75 0.23c4.41 0.36 8.76 0.67 13.18 0.56q-0.56-0.78-1.15-1.59c-1.94-3.74-2.56-7.13-1.29-11.19 0.42-0.79 0.42-0.79 0.84-1.6z"/>
	<path class="s20" d="m691.22 814.18q1.82 0.64 3.59 1.4 1.26 0.52 2.56 1.06c7.31 3.32 12.63 7.6 18.21 13.32q0.88 0.87 1.79 1.77c13.22 13.8 17.1 31.51 16.76 50q-0.08 2.48-0.17 4.95-0.04 1-0.08 2.02c-0.2 3.63-0.62 6.73-2.32 9.96-3.17 2.41-6.56 3.19-10.39 4q-1.84 0.45-3.68 0.9c-7.2 1.72-14.29 3.21-21.73 3.17q-1.48 0-3-0.01-1.52-0.01-3.09-0.02c-1.56 0-1.56 0-3.16-0.01q-3.84-0.01-7.68-0.04c0.19-0.65 0.19-0.65 0.37-1.32 6.04-22.33 5.09-43.24-6.26-63.69-2.31-3.83-4.98-7.07-8.08-10.29-1.2-1.39-1.2-1.39-1.2-2.99q1.25-0.52 2.54-1.05c7.31-3.08 14.14-6.1 19.87-11.73 2.35-1.6 2.35-1.6 5.15-1.4z"/>
	<path class="s21" d="m526.58 461.21c9.57 6.75 19.59 15.12 24.43 26.03q0 0.78 0 1.6c-0.76-0.09-0.76-0.09-1.54-0.18-6.06-0.62-12.05-0.73-18.14-0.71q-1.58 0-3.2 0-4.28 0-8.57 0.01-4.5 0-9 0-8.5 0.01-17 0.02-9.69 0.01-19.37 0.02-19.91 0.01-39.82 0.04c5.76-15.16 24.01-26.99 38-34.06q0.75-0.38 1.53-0.77c17.25-8.28 37.68-2.19 52.68 8z"/>
	<path class="s22" d="m449.15 875.7c7.79 2.17 15.58 3.49 23.57 4.59 0.12 9.62-0.25 19.16-0.8 28.76q-0.39 0-0.8 0c0-3.43 0-6.86 0-10.39-0.95 0.43-0.95 0.43-1.92 0.86-7.68 3.14-15.51 5.19-23.59 7.03q-0.81 0.19-1.63 0.38c-5.92 1.37-11.5 2.45-17.59 2.12-0.08 0.89-0.08 0.89-0.15 1.8-0.86 2.89-2.18 3.74-4.65 5.39-4.81 1.6-10.8 1.74-15.62 0.1-3.63-2.09-6.34-4.82-7.55-8.89-0.23-2.69-0.19-5.3 0-7.99-1.22 5.36-0.01 8.76 2.4 13.58-8.89-0.33-17.6-0.75-26.36-2.39-0.72-3.67-0.89-7.13-0.88-10.86q0-0.83 0-1.7 0.01-2.66 0.03-5.32 0.01-1.81 0.01-3.63 0.01-4.42 0.04-8.85c3.5-0.65 6.04-0.73 9.54-0.05 21.17 3.25 47.39-9.95 65.95-4.54z"/>
	<path class="s23" d="m463.93 765.25q2.5 0.37 5 0.75 1.38 0.21 2.81 0.42 1.27 0.21 2.58 0.43 0.86 0.08 1.75 0.17c2.35 1.02 3.14 2.92 4.44 5.07 7.08 10.97 17.31 18.34 30.16 21.17 5.68 1.06 11.44 1.68 17.17 2.35-6.68 14.85-14.77 29.03-26.73 40.34-1.29 1.26-2.42 2.6-3.57 4-5.4 6.39-10.56 10.24-19.04 10.97-10.64 0.26-20.32-2.51-29.75-7.38 1.15-3.42 3.67-4.15 6.7-5.74 9.53-5.2 17.43-11.57 25.26-19.02q0.81-0.75 1.65-1.53c4.96-4.7 9.3-10.51 11.93-16.85q0-1.18 0-2.4c-1.88-1.47-1.88-1.47-4.29-2.89-4.91-3.15-9.08-6.67-13.28-10.69q-0.75-0.65-1.52-1.33c-4.78-4.37-10.16-11.34-11.27-17.84z"/>
	<path class="s24" d="m438.37 845.94c2.2 0.67 4.03 1.41 6.09 2.39 10.73 4.77 21.26 7.78 33.05 7.99-20.99 17.67-51.78 25.77-78.74 25.67-1.17 0-1.17 0-2.36 0.01-12.83-0.02-12.83-0.02-15.61-2.21q-0.76-0.93-1.55-1.9-1.46-1.29-2.94-2.54c-6.04-5.28-11.28-10.53-15.43-17.43q0.95 0.09 1.92 0.18c16.12 1.24 33.44 2.32 49.21-1.78q0.84-0.21 1.71-0.44c12.39-2.79 12.39-2.79 22.93-9.01q0.85-0.46 1.72-0.93z"/>
	<path class="s25" d="m316.94 630.24q-0.01 0.99-0.01 2.02c-0.15 15.25-0.15 15.25 0.41 30.48 1.08 17.92 1.41 36.1-2 53.78q-0.41 2.39-0.8 4.79c-6.09-0.49-11.74-2.23-17.57-3.99-0.69-2.36-0.87-4.39-0.8-6.84 0.25-11.33 0.08-21.38-7.19-30.71-2.27-2.31-4.66-4.38-7.19-6.39-1.1-0.88-1.1-0.88-2.22-1.78q-0.88-0.7-1.78-1.42c4.28-7.38 9.44-13.68 15.18-19.97q0.57-0.62 1.15-1.26c17.28-18.71 17.28-18.71 22.82-18.71z"/>
	<path class="s1" d="m663.66 828.36c1.51 1.56 2.82 3.08 4.14 4.8q0.58 0.74 1.18 1.52c12.17 16.24 17.01 36.51 14.36 56.6-1.92 10.86-1.92 10.86-4.51 15.37-23.73-2.16-23.73-2.16-27.96-6.39q0.09-2.75 0.3-5.49 0.26-3.65 0.5-7.29 0.06-0.82 0.12-1.66c0.78-11.75 0.77-23.47 0.73-35.24q-0.01-2.9-0.01-5.8-0.01-7.01-0.04-14.02 1.97-0.39 4-0.8 0-0.39 0-0.8c2.44-0.43 4.7-0.8 7.19-0.8z"/>
	<path class="s26" d="m641.29 624.65c2.6 2.53 4.97 5.11 7.19 7.98q-0.4 0.79-0.8 1.6c-0.85-0.23-0.85-0.23-1.72-0.47-2.67-0.38-4.26 0.03-6.83 0.83q-1.33 0.39-2.7 0.8-1.42 0.44-2.88 0.89-3.05 0.9-6.1 1.79-0.77 0.23-1.56 0.46c-18.79 5.43-38.62 9.72-58.1 11.68q-0.97 0.11-1.96 0.22c-12.25 1.3-24.44 1.53-36.74 1.53-1.12 0-1.12 0-2.27 0-21.51 0-21.51 0-25-2.31q-0.66-0.83-1.34-1.69c-1.89-2.17-3.43-3.79-5.99-5.14-2.44-1.31-4.03-2.48-5.79-4.59q0-0.79 0-1.6 1 0.08 2.04 0.17c6.92 0.53 13.8 0.78 20.74 0.82q0.8 0 1.62 0.01 6.1 0.04 12.2 0.05c0.9 0 0.9 0 1.82 0 37.66 0.04 78.06-1 114.17-13.03z"/>
	<path class="s26" d="m638.09 765.25c3.55 3.55 3.3 10.97 3.3 15.83q-0.05 1.25-0.1 2.54-4.38 2.43-8.79 4.8c-1.25 0.67-1.25 0.67-2.51 1.36-7.32 3.84-14.83 6.55-22.66 9.15q-2.82 0.96-5.62 1.98c-9 3.21-18.08 5.28-27.53 6.68q-1.4 0.22-2.84 0.44c-10.24 1.46-20.44 1.34-30.76 1.26q-2.68-0.01-5.36-0.02-6.48-0.03-12.97-0.08-0.39-0.79-0.8-1.6c0.99-2.09 2.03-4.08 3.15-6.09q0.46-0.84 0.93-1.71 1.15-2.1 2.31-4.18 0.93 0.01 1.88 0.02c11.91 0.14 23.71 0.23 35.54-1.39q2.44-0.32 4.88-0.59c22.14-3.1 44.65-12.98 63.16-25.2q0.79-0.53 1.61-1.06 1.59-1.07 3.18-2.14z"/>
	<path class="s27" d="m547.02 537.57c1.99 1.15 1.99 1.15 3.19 3.19 0.46 3.99-0.49 7.18-2.79 10.44-8.16 9.73-18.25 14.91-30.91 16.18-7.33 0.27-14.23-1.24-20.67-4.81-3.35-1.48-5.06-0.71-8.37 0.51q-0.99 0.42-2.02 0.85c-9.43 3.96-20.85 3.67-30.42 0.21-8.06-3.56-16.27-8.62-19.86-16.99-0.32-2.79-0.5-4.62 0.8-7.14 2.04-1.08 3.89-1.56 6.21-1.5 3.35 1.23 5.02 4.45 7.08 7.23 2.79 3.26 5.91 4.75 9.88 6.21q1.1 0.43 2.24 0.88c3 0.84 5.81 0.98 8.89 0.96q0.81 0.02 1.64 0.04c4.67 0.01 8.46-0.84 11.91-4.12 1.15-2.29 1.3-4.2 1.43-6.75q0.13-2.26 0.25-4.59c3.96 0.26 7.91 0.52 11.99 0.79q0.46 3.91 0.93 7.81c0.76 2.94 1.47 3.95 3.86 5.78 5.71 3.1 14.26 2.48 20.4 0.84 2.36-0.95 4.55-2 6.76-3.24q0.82-0.43 1.66-0.87c3.81-2.32 5.63-5.57 7.72-9.43 1.96-3.27 4.66-2.79 8.2-2.48z"/>
	<path class="s28" d="m816.5 305.44c2.82 2.63 3.58 5.06 4.19 8.79-0.62 3.9-2.28 5.9-5.25 8.44-1.99 1.11-3.45 1.76-5.59 2.39q-0.99 0.31-2.01 0.62c-16.35 4.53-33.88 4.34-50.72 4.18-0.99-2.99-0.46-4.42 0.3-7.44 1.41-5.64 2.23-11.04 2.55-16.83 0.05-0.88 0.05-0.88 0.11-1.78q0.12-2.16 0.24-4.31c44.46-2.87 44.46-2.87 56.18 5.94z"/>
	<path class="s29" d="m293.77 725.31c4.4-0.19 8.1 0.45 12.33 1.59 0.88 0.23 0.88 0.23 1.77 0.47q2.14 0.56 4.28 1.13c-5.41 25.79-20.72 57.42-39.95 75.9-11.98-24.64-11.98-24.64-11.98-34.36q0.73-0.24 1.49-0.5c12.71-4.62 20.12-14.74 25.91-26.51 2.66-5.71 4.47-11.66 6.15-17.72z"/>
	<path class="s30" d="m501.08 261.2c4.92 2.86 8.18 6.52 9.99 11.94 0.93 6.4-0.34 11.46-4 16.77-3.3 3.69-7.54 6.15-12.45 6.74-7 0.01-11.87-0.14-17.07-5.01-4.74-5.04-6.04-9.44-5.87-16.31 0.65-5.88 3.79-9.29 8.15-13.02 6.11-4.21 14.62-4.17 21.25-1.11z"/>
	<path class="s30" d="m635.19 670.58c5.28 3.16 9.12 8.15 10.89 13.98 0.72 6.28-1.33 11.28-4.54 16.63-4.33 4.09-8.27 6-14.28 6.19-5.31-0.23-9.02-1.27-12.9-4.93-4.89-5.38-6.38-10.22-6.21-17.45 0.68-5.04 2.91-8.76 6.65-12.17 5.68-4.25 13.83-5.18 20.39-2.25z"/>
	<path class="s31" d="m643.68 956.18c5.46 3.39 7.31 8.3 8.85 14.34 1.05 4.92 1.11 9.87 1.24 14.87q0.04 1.43 0.09 2.91 0.11 3.51 0.21 7.03c-12.45 3.15-25.66 2.51-38.4 2.45q-2.21-0.01-4.43-0.02-5.35-0.01-10.7-0.03 0.19-0.86 0.39-1.74c1.68-9.24 1.75-20.53-2.08-29.21-0.81-2.08-0.92-3.59-0.7-5.8 1.29-1.85 1.29-1.85 3.19-3.2 2.97-0.5 4.28-0.34 6.81 1.33 2.23 2.1 3.07 3.77 4.18 6.61q0.48 1.22 0.98 2.47c1.36 3.96 1.71 7.47 1.69 11.65q0 1.49-0.01 3.02-0.01 1.54-0.02 3.13 0 1.57-0.01 3.18-0.01 3.88-0.04 7.76c0.79-0.4 0.79-0.4 1.6-0.8q2.61-0.18 5.22-0.25c1.56-0.05 1.56-0.05 3.16-0.11q1.65-0.04 3.3-0.09 1.67-0.05 3.33-0.11 4.08-0.12 8.16-0.24c1.52-11.06 1.93-21.7-3.2-31.96-0.35-4.19-0.35-4.19 0.9-6.29 2.29-1.37 3.67-1.31 6.29-0.9z"/>
	<path class="s32" d="m436.77 268.34c3.59 2.98 6.11 5.9 6.74 10.59-0.59 5.06-2.27 9.3-6.04 12.83-5.31 4.05-11.01 5.92-17.68 5.65-6.26-0.89-11.46-3.6-15.62-8.35-1.7-4.18-1.64-8.61-0.46-12.95 2.29-5.28 6.48-8.24 11.64-10.46 7.61-1.25 14.61-1.23 21.42 2.69z"/>
	<path class="s32" d="m567.44 267.14c4.98 2.84 7.57 6.28 10.23 11.24 0.93 3.62 0.87 6.52-0.39 10.03-3.11 4.76-7.2 7.46-12.69 8.69-7.52 0.94-13.9-0.88-20.27-4.89-3.49-3.82-6.24-8.35-6.54-13.63 0.63-4.27 1.8-7.2 5.2-9.85 7.46-4.79 16.4-5.31 24.46-1.59z"/>
	<path class="s32" d="m607.33 817.87c3.67 2.12 6.37 4.78 7.59 8.89 0.89 6.81-0.52 11.94-3.89 17.78-2.89 3.74-6.16 5.94-10.49 7.79-2.92 0.34-2.92 0.34-5.99 0.35-1.52 0.02-1.52 0.02-3.07 0.04-4.29-0.58-6.71-2.47-9.56-5.63-2.8-4.05-2.7-8.39-2.15-13.14 1.65-4.84 4.08-8.64 7.99-11.98 0.61-0.54 0.61-0.54 1.23-1.09 5.09-4.44 11.91-5.25 18.34-3.01z"/>
	<path class="s32" d="m722.22 466.52c3.2 2.3 5.97 5.18 7.74 8.73 0.66 8.07 0.22 14.34-5.09 20.63-4.86 4.04-8.37 6.11-14.76 6.01-4.22-0.67-7.61-3.5-10.41-6.61-2.99-4.32-3.9-8.41-3.29-13.63 1.25-5.85 4.73-10.34 9.46-13.9 5.1-2.97 10.82-3.01 16.35-1.23z"/>
	<path class="s33" d="m276.2 465.67c4.54 2.03 8.27 6.15 10.5 10.62 1.65 5.24 1.69 11.94-0.62 16.99-2.25 3.7-5.06 6.01-9.04 7.79-4.91 1.1-8.5 0.83-12.89-1.59-4.15-2.86-7.66-7.26-8.73-12.24-0.6-6.34-0.91-11.69 3.2-16.78 5.47-5.32 10.11-5.39 17.58-4.79z"/>
	<path class="s33" d="m414.25 327.99c3.52 2.15 5.61 5.04 7.64 8.56 1.28 5.37 0.9 10.04-1.9 14.88-3.91 3.91-7.5 5.59-12.98 5.89-6.65-0.19-11.77-2.9-16.27-7.67-3.55-4.58-3.24-9.39-2.7-15 1.67-4.07 4.45-6.11 8.29-8.05 6-2.1 12.22-1.19 17.92 1.39z"/>
	<path class="s32" d="m588.56 326.86c4.33 2.52 7.03 4.57 8.79 9.39 0.45 4.71-0.08 7.75-2.4 11.98-3.7 4.42-8.6 7.69-14.44 8.21-9.64 0.27-9.64 0.27-13.88-2.98-3.28-3.26-4.6-6.12-4.83-10.77 0.23-4.83 1.52-8.52 5.11-11.84 1.59-1.22 3.17-2.34 4.87-3.39q0.73-0.45 1.49-0.91c4.45-1.78 10.85-1.48 15.29 0.31z"/>
	<path class="s34" d="m676.74 512.1c3.21 2.3 4.85 4.98 6.09 8.69 0.79 6.37-0.91 11.66-4.37 16.99-3.76 4.78-8.19 7.05-14.14 8.08-4.14 0.25-7.11-0.97-10.25-3.5-2.62-2.75-3.46-5.08-3.75-8.79 0.25-6.47 3.44-12.82 7.62-17.69 5.46-4.91 11.8-6.11 18.8-3.78z"/>
	<path class="s35" d="m316.94 511.2c8.12 2.48 12.11 7.97 15.98 15.18 1.75 3.51 1.37 8.4 0.31 12.1-1.68 3.4-4.02 5.11-7.39 6.55-4.92 1.52-8.99 0.7-13.5-1.51-4.64-3.01-8.62-7.61-10.26-12.95-0.89-4.95-1.18-9.59 1.03-14.17q0.91-0.99 1.85-2c0.84-0.94 0.84-0.94 1.69-1.9 3.42-1.93 6.45-1.78 10.29-1.3z"/>
	<path class="s36" d="m606.42 885.25c3.65 2.47 5.5 5.22 6.91 9.42 0.47 4.8-0.57 8.05-3.2 11.98-4.33 4.34-8.75 5.75-14.73 5.99-4.88-0.11-8.01-1.12-11.63-4.39-4.1-4.31-5.19-8.2-5.05-14.04 0.52-3.98 2.92-6.37 5.8-8.93 7.31-5.37 14.19-4.21 21.9-0.03z"/>
	<path class="s37" d="m784.89 298.85q0.96 0.02 1.95 0.04c5.6 0.27 10.37 1.95 14.22 6.15 1.6 2.45 1.6 2.45 2.1 4.5-0.75 2.91-2.17 4.06-4.49 5.94-8.55 4.62-18.25 5.15-27.76 4.99q-1.52-0.01-3.08-0.01c-7.39-0.07-7.39-0.07-8.31-0.99q-0.01-2.22 0.1-4.45 0.06-1.34 0.12-2.72 0.06-1.41 0.13-2.86 0.06-1.42 0.13-2.88 0.15-3.53 0.32-7.06c8.19-0.57 16.35-0.95 24.57-0.65z"/>
	<path class="s38" d="m287.38 825.97c2.65 0.46 3.93 1.27 5.84 3.14 12.14 10.95 29.33 20.4 45.55 23.21 12.54 2.23 12.54 2.23 16.17 7.07 1.24 1.93 2.38 3.91 3.5 5.92 1.75 2.91 4.19 5.26 6.5 7.72 1.43 1.56 2.69 3.15 3.93 4.86-22.16-4.64-44.6-15.27-61.52-30.35q-1-0.87-2.02-1.77c-6.35-5.6-12.86-11.42-17.95-18.21q0-0.78 0-1.59z"/>
	<path class="s39" d="m644.48 829.96c4.48 0 8.97 0 13.58 0q0 0.39 0 0.8-2.75 0-5.59 0 0.08 1.23 0.17 2.5c0.53 8.17 0.79 16.32 0.78 24.51q0 0.89 0 1.8c-0.01 13.57-0.42 27.27-2.55 40.69q-1.9-0.54-3.79-1.1c-1.06-0.3-1.06-0.3-2.14-0.61-1.87-0.62-3.5-1.38-5.25-2.28-0.51-16.94 0.3-33.06 3.04-49.78 0.9-5.51 1.41-10.96 1.75-16.53z"/>
	<path class="s30" d="m587.36 704.63c3.38 2.54 5.93 5.57 7.59 9.49 0.67 4.73-0.06 8.59-2.4 12.78-2.9 3.65-5.94 5.3-10.38 6.39-4.39 0.48-8.2-0.1-11.98-2.39-4.6-4.22-6.94-7.27-7.44-13.48 0.05-3.5 1.16-5.4 3.44-8.09 6.16-5.94 12.89-7.36 21.17-4.7z"/>
	<path class="s30" d="m328.07 340.1c1.9 1.3 3.05 2.77 3.8 4.95 0.91 5.45-0.45 10-3.3 14.65-3.62 5.02-8.1 8.92-14.03 10.9-4.17 0.39-7.63 0.69-11.28-1.5-2.6-2.94-2.62-5.23-2.57-9.05 0.84-6.98 5.37-12.31 10.66-16.61 5.01-3.72 10.62-5.92 16.72-3.34z"/>
	<path class="s40" d="m792.28 328.26q-0.58 1.15-1.18 2.35-0.38 0.76-0.77 1.54-0.86 1.72-1.73 3.44c-1.48 2.93-2.92 5.87-4.25 8.87-3.4 7.47-7.07 12.33-13.64 17.35-2.4-0.8-2.4-0.8-3.17-2.1q-0.33-0.84-0.67-1.7-0.37-0.94-0.76-1.9-0.39-1-0.8-2.04c-2.02-4.98-4.09-9.91-6.49-14.73q-0.66-1.33-1.34-2.7c-0.96-2.08-0.96-2.08-2.75-2.79q0.79-2.36 1.6-4.79 0.69 0 1.41 0.01c8.77 0.07 17.47 0.04 26.22-0.64 2.78-0.17 5.53-0.2 8.32-0.17z"/>
	<path class="s32" d="m372.41 292.91c2.43 2.13 4.18 3.72 4.85 6.94 0.13 6.11-1.45 10.03-5.2 14.83-3.65 3.75-8.46 5.67-13.68 5.89-4.35-0.42-6.8-1.49-9.74-4.74-2.28-3.31-2.63-5.97-2.14-9.94 1.9-6.39 6.67-10.31 12.28-13.53 4.87-1.43 9.03-1.79 13.63 0.55z"/>
	<path class="s36" d="m667.65 338.64c2.39 0.75 4.32 1.8 6.39 3.2q0.72 0.48 1.47 0.97c4.97 3.75 8.27 9.04 9.38 15.17 0.16 3.09 0.22 5.75-1.27 8.52-2.25 2.28-4.64 2.79-7.78 3-6.54-0.38-11.34-3.29-15.73-8.04-4.42-5.46-5.78-9.32-5.56-16.41 0.32-2.41 0.32-2.41 1.77-5.06 3.8-2.01 7.11-1.98 11.33-1.35z"/>
	<path class="s41" d="m623.09 292.09c6.31 3 10.89 7.22 13.4 13.8 0.74 3.87 0.4 6.42-1.4 9.94-2.4 2.74-3.89 3.51-7.52 3.94-6.11 0.11-10.46-0.03-15.04-4.29-3.94-3.96-6.61-7.34-6.74-13.08 0.05-3.02 0.23-4.96 2.14-7.34 4.48-3.97 9.39-4.85 15.16-2.97z"/>
	<path class="s42" d="m752.33 338.64q0.14 0.67 0.29 1.35c0.57 2.08 1.38 3.93 2.28 5.9q0.52 1.17 1.06 2.37 1.1 2.44 2.22 4.88c4.67 10.48 4.67 10.48 4.54 15.06-1.47 2.12-2.32 3.04-4.3 4.5q-1.34 1.09-2.67 2.19-0.67 0.52-1.35 1.06c-1.81 1.48-3.43 3.12-5.06 4.79q-0.76 0.76-1.54 1.55-0.52 0.54-1.06 1.09c-3.46-3.2-6.02-6.72-8.64-10.63q-0.6-0.89-1.21-1.8-1.47-2.17-2.93-4.34 0.45-0.6 0.91-1.22 1.21-1.6 2.42-3.22 1.46-1.95 2.95-3.89c4.68-6.2 8.4-12.82 12.09-19.64z"/>
	<path class="s41" d="m461.54 314.68c2.69 1.3 2.69 1.3 4.79 3.19q1.13 0.94 2.3 1.9c2.63 3.32 2.18 7.41 2.03 11.45-0.56 4.42-2.38 6.39-5.58 9.27-3.67 2.54-7.22 2.55-11.53 2.15-4.67-1.62-7.23-4.51-9.68-8.73-1.46-3.42-1.21-7.06-0.21-10.59 1.58-3.7 3.7-6.02 7.21-7.96 3.56-1.29 6.96-1.29 10.67-0.68z"/>
	<path class="s43" d="m401.62 810.79c3.09 2.57 6 5.18 8.79 8.09 2.24 2.26 4.31 3.88 7.17 5.35 2.17 1.26 4.08 2.79 6.06 4.33 16.83 12.72 38.98 23.86 60.52 20.97 1.06-0.2 1.06-0.2 2.14-0.4-6.75 6.95-6.75 6.95-10.44 7.67-13.56 0.09-26.24-4.98-38.29-10.86q-0.75-0.37-1.53-0.74c-12.18-5.99-22.32-13.79-32.02-23.23q-1.11-1.07-2.25-2.18c-2.55-2.64-2.55-2.64-2.55-5.01 1.15-2.2 1.15-2.2 2.4-3.99z"/>
	<path class="s44" d="m698.92 402.89c4.54 0.92 7.85 3.26 10.75 6.83 3.44 5.22 5.21 10.53 4.31 16.8-0.98 2.69-2.19 4.97-4.68 6.53-2.96 1.15-5.78 1.09-8.9 0.66-4.99-2.45-9.61-7.33-11.6-12.61-1.02-4.75-1.33-10.08 0.21-14.74 2.39-3.64 5.97-3.7 9.91-3.47z"/>
	<path class="s30" d="m288.98 403.35c3.08 1.63 5.1 3.97 6.39 7.19 0.75 6.27 0.06 11.74-3.63 16.91-2.65 3.22-5.08 5.84-9.15 7.06-3.15 0.22-5.99 0.18-8.51-1.87-3.85-4.55-3.88-8.53-3.75-14.28 0.51-5.63 3.13-8.52 7.21-12.16 3.68-2.99 6.73-3.56 11.44-2.85z"/>
	<path class="s36" d="m534.49 317.12c3.01 2.15 5 4.38 6.14 7.94 0.73 4.74 0.04 8.62-2.4 12.79-2.25 3.05-4.29 4.56-8.07 5.23-4.72 0.19-8.75 0.08-12.41-3.15-2.77-3.26-4.43-6.61-4.64-10.92 0.51-4.56 1.62-7.96 5.1-11.04 4.87-3.38 11.06-3.82 16.28-0.85z"/>
	<path class="s45" d="m417.6 892.27c3.87 1.58 6.38 3.69 8.84 7.04 1.28 4.36 1.28 8.06-0.1 12.39-2.03 2.81-3.85 4.36-7.14 5.34-5.87 0.74-11.47 0.96-16.34-2.76-3.15-3.13-4.59-6-4.83-10.47 0.23-4.6 2.31-7.06 5.49-10.24 4.63-2.08 9.09-2.03 14.08-1.3z"/>
	<path class="s36" d="m618.12 733.29c3.86 1.87 6.13 4.13 7.99 7.99 0.97 5.26-0.12 9.6-2.71 14.22-2.5 3.42-5.35 5.32-9.52 6.1-4.27 0.24-6.84-0.7-10.14-3.54-3.19-2.93-3.87-5.69-4.12-9.89 0.25-4.26 1.79-7.67 4.72-10.77 4.5-3.95 7.79-4.76 13.78-4.11z"/>
	<path class="s46" d="m395.23 957.78c1.6 0.85 1.6 0.85 2.4 2.4-0.32 3.54-1.1 6.68-2.29 10.02-3.16 8.88-3.05 16.56-1.71 25.93 9.23 0 18.46 0 27.96 0q0 0.39 0 0.8c-7.7 0.85-15.35 0.92-23.09 0.9q-3.1 0-6.2 0.01c-7.05 0-14.02-0.14-21.04-0.91q0-0.4 0-0.8c2.9 0 5.8 0 8.79 0q-0.03-1.74-0.06-3.54c-0.13-11.88-0.22-22.06 6.45-32.41 2.87-2.65 4.9-2.82 8.79-2.4z"/>
	<path class="s47" d="m496.64 720.11c1.16-0.02 1.16-0.02 2.35-0.04 5.14 0.04 8.49 0.91 12.88 3.64 1.14 2.28 1.1 3.86 0.8 6.39-2.76 2.08-4.93 2.71-8.34 2.89q-1.23 0.08-2.5 0.16-1.31 0.07-2.65 0.14c-7.69 0.51-14.96 1.37-22.46 3.2q-1.06 0.25-2.15 0.51-2.13 0.52-4.25 1.09c-0.17-4.27-0.28-8.04 1.6-11.99 6.37-5.77 16.6-5.91 24.72-5.99z"/>
	<path class="s48" d="m744.34 394.57q0.79 0 1.6 0c1.1 1.55 1.1 1.55 2.4 3.74 3.35 5.45 7.22 10.42 11.18 15.43-3.88 4.94-8.33 9.29-13.58 12.78-3.2 0-3.2 0-4.94-1.29-4.01-4.01-7.99-8.25-9.44-13.89 0.96-3.31 3.71-5.82 5.94-8.39q1.18-1.35 2.35-2.72 0.54-0.63 1.11-1.28 1.24-1.51 2.36-3.11 0.5-0.63 1.02-1.27z"/>
	<path class="s49" d="m508.52 758.61q0.85-0.02 1.72-0.04c2.23 0 3.7 0.07 5.58 1.33 0.84 1.36 0.84 1.36 0.89 4.1-1.1 3.68-2.33 4.21-5.64 6.04-2.9 0.81-2.9 0.81-5.94 1.35q-1.5 0.28-3.05 0.56c-4.91 0.8-9.7 1.46-14.68 1.59q-1.51 0.06-3.08 0.12c-3.55-0.53-4.59-1.65-6.81-4.42-1.08-1.7-1.08-1.7-1.84-3.29q-0.39-0.79-0.79-1.61c-0.56-1.49-0.56-1.49-0.56-3.88 25.24-1.75 25.24-1.75 34.2-1.85z"/>
	<path class="s50" d="m359.28 956.18c1.5 0.85 1.5 0.85 2.4 2.4 0.54 3.71-0.09 5.9-1.6 9.29-3.27 8.28-2.26 18.8-0.8 27.46 2.64 0 5.27 0 7.99 0q0 0.39 0 0.8c-9.55 0.39-18.59-0.18-27.16-4.8 0.79-0.39 0.79-0.39 1.59-0.79 2.1 0.74 2.1 0.74 4 1.59q-0.03-0.82-0.05-1.66c-0.64-24.04-0.64-24.04 5.34-31.69 2.82-2.67 4.44-2.91 8.29-2.6z"/>
	<path class="s51" d="m269.43 734.17q0.91 0.13 1.85 0.27 2.88 0.42 5.76 0.85 1.98 0.29 3.95 0.58 4.79 0.7 9.59 1.42-0.92 2.3-1.85 4.59-0.51 1.27-1.04 2.59c-1 2.18-1.84 3.88-3.51 5.6-2.38 0.17-4.38 0.16-6.74-0.05q-0.96-0.07-1.95-0.15c-8.93-0.76-17.86-2.34-24.06-9.39-0.4-1.94-0.4-1.94 0-3.99 4.42-5.27 11.91-3.25 18-2.32z"/>
	<path class="s52" d="m293.77 725.31q2.8-0.05 5.59 0c0.8 0.79 0.8 0.79 0.9 2.32-0.65 13.5-9.05 28.7-18.17 38.32-4.6 4.12-9.74 7.43-16.03 7.34-1.71-0.03-1.71-0.03-3.45-0.05 0.27 2.37 0.53 4.74 0.8 7.19-1.6-2.4-1.99-3.76-2.49-6.54q-0.2-1.08-0.41-2.18-0.14-0.82-0.29-1.67 0.73-0.24 1.49-0.5c12.71-4.62 20.12-14.74 25.91-26.51 2.66-5.71 4.47-11.66 6.15-17.72z"/>
	<path class="s53" d="m270.6 693c0.93 0 0.93 0 1.87-0.01 7.88 0.16 17.38 1.59 24.5 5.15 0 3.69 0 7.39 0 11.19q-1.6-0.32-3.25-0.65-1.1-0.22-2.23-0.44-2.59-0.53-5.18-1.12c-6.51-1.44-12.69-2.12-19.35-2.21-3.68-0.1-6.16-0.37-9.14-2.77-0.85-1.95-0.85-1.95-0.8-4 3.45-4.64 8.13-5.12 13.58-5.14z"/>
	<path class="s54" d="m626.11 170.88c42.97 0 85.94 0 130.22 0 0 30.84 0 61.69 0 93.47-0.8 0.39-0.8 0.39-1.6 0.8 0.26-30.58 0.53-61.17 0.8-92.67-42.18 0-84.37 0-127.82 0 0.35 25.43 0.35 25.43 0.74 50.86 0.06 4.91 0.06 4.91 0.08 7.21q0.03 2.41 0.08 4.82 0.06 3.65 0.09 7.3 0.03 1.08 0.05 2.19c0.01 1.97 0.01 1.97-0.25 5.11-1.18 0.79-1.18 0.79-2.39 1.6 0-26.63 0-53.26 0-80.69z"/>
	<path class="s55" d="m495.09 694.15q0.79 0.39 1.6 0.8c-0.84 0.58-0.84 0.58-1.7 1.17-11.9 8.41-19.75 18.25-23.54 32.55-0.49 3.3-0.48 6.58-0.48 9.92q0 1.06 0 2.15c0.04 4.54 0.37 8.82 1.4 13.25 0.35 1.67 0.35 1.67 0.35 4.87q-2.55-0.34-5.09-0.7-1.41-0.19-2.87-0.39c-2.42-0.51-2.42-0.51-4.02-2.11-2.13-18.63 5.33-33.69 16.38-48.06 3.16-3.6 6.63-6.25 10.78-8.66q3.61-2.37 7.19-4.79z"/>
	<path class="s42" d="m764.31 375.39c2.4 0.8 2.4 0.8 3.54 2.78 0.52 1.25 0.52 1.25 1.06 2.52q0.53 1.22 1.08 2.47c1.59 5.84-1.01 12.05-2.53 17.75q-0.34 1.27-0.68 2.58-0.83 3.13-1.67 6.26c-3.38-3.16-5.95-6.57-8.53-10.39q-0.58-0.83-1.18-1.69c-2-2.93-3.32-5.33-4.67-8.7 4.49-4.48 8.97-8.96 13.58-13.58z"/>
	<path class="s42" d="m728.36 371.4c3.31 2.98 5.68 6.55 8.19 10.18q0.66 0.95 1.35 1.92 1.63 2.34 3.25 4.68c-2.3 3.64-4.85 6.75-7.79 9.88q-0.61 0.65-1.23 1.32-1.48 1.59-2.97 3.18c-3.11-3.82-4.51-8.23-6.24-12.79q-0.51-1.3-1.04-2.64-0.48-1.26-0.97-2.55c-0.44-1.15-0.44-1.15-0.89-2.32-0.44-2.07-0.44-2.07 0.16-3.85 1.32-1.88 2.85-3.05 4.69-4.41q0.97-0.74 1.98-1.49c0.75-0.55 0.75-0.55 1.51-1.11z"/>
	<path class="s56" d="m584.57 667.79c-1.08 4.58-4.45 6.48-8.09 9.03q-0.96 0.68-1.95 1.38c-5.92 4.11-12.04 7.64-18.72 10.36-1.03 0.43-1.03 0.43-2.09 0.87-6.65 2.52-12.72 2.73-19.78 2.57q-1.56-0.01-3.17-0.02c-19.7-0.23-19.7-0.23-22.1-2.62 6.11-1.24 12.15-1.99 18.38-2.4q0 0.79 0 1.6c20.24-2.7 36.52-8.25 53.44-19.8 1.68-0.97 1.68-0.97 4.08-0.97z"/>
	<path class="s57" d="m579.77 417.73c2.9 1.32 4.96 2.73 6.39 5.6 0.47 3.44 0.4 6.28-1 9.48-2.47 3.01-2.47 3.01-4.59 4.1-4.24 0.4-6.97 0.41-10.38-2.4-2.17-3.54-2.24-7.15-1.6-11.18 2.67-4.96 5.76-5.96 11.18-5.6z"/>
	<path class="s58" d="m381.65 418.53c2.29 1.44 3.59 2.39 4.79 4.8 0.5 4.4 0.85 7.69-1.95 11.28q-1 0.74-2.04 1.5-0.4 0.39-0.8 0.8c-3.02 0.44-5.97 0.65-8.71-0.81-2.11-1.72-3.21-2.98-4.07-5.58-0.43-4.56 0.3-6.84 3.19-10.39 3.21-2.14 5.81-2.15 9.59-1.6z"/>
	<path class="s59" d="m323.33 626.24q0.03 5.94 0.04 11.89 0.01 2.01 0.02 4.02c0.05 9.11-0.21 18.14-0.86 27.23q-1.18-1.18-2.4-2.39-0.78 0.78-1.59 1.59c-0.85-9.06-1.66-18.12-2.15-27.21q-0.06-0.97-0.12-1.97c-0.17-3.41-0.28-6.64 0.67-9.96 1.62-1.49 4.15-3.2 6.39-3.2z"/>
	<path class="s60" d="m760.32 295.5c31.37 0 62.74 0 95.07 0q0 0.4 0 0.8c-19.25 0.27-38.49 0.53-58.32 0.8q-0.39 0.79-0.8 1.6c-11.99 0.56-23.95 0.92-35.95 0.8q0-1.97 0-4z"/>
	<path class="s42" d="m762.72 420.13q0.78 0 1.59 0c-0.26 7.91-0.52 15.82-0.79 23.97-1.85-1.58-3.7-3.17-5.6-4.8q-2.16-1.76-4.34-3.49-1.03-0.82-2.09-1.67-0.77-0.6-1.56-1.23c3.03-3.7 6.15-6.91 9.8-10 1.46-1.21 1.46-1.21 2.99-2.78z"/>
	<path class="s61" d="m449.15 875.7c7.79 2.17 15.58 3.49 23.57 4.59q0.03 3.05 0.05 6.09 0.01 0.85 0.02 1.73c0.02 3.34-0.21 6.46-0.87 9.75q-0.39 0-0.8 0c0-4.48 0-8.96 0-13.58q-1.55 0.05-3.15 0.09c-3.84-0.01-7.35-0.57-11.08-1.43q-0.92-0.21-1.87-0.43c-5.29-1.25-10.14-3.07-15.05-5.42q0-1.18 0-2.39c3.35-1.12 5.9 0.04 9.18 1z"/>
	<path class="s62" d="m284.18 674.18c7.09 3.1 12.33 11.92 15.24 18.79 1.47 4.3 2.45 8.49 2.42 13.05q-0.01 1.06-0.01 2.15-0.01 1.09-0.02 2.21-0.01 1.11-0.01 2.25-0.02 2.74-0.04 5.49-2.36-0.4-4.79-0.8c-0.69-2.36-0.87-4.39-0.8-6.84 0.33-14.85-1.74-25.08-11.99-36.3z"/>
	<path class="s63" d="m503.08 675.77c7.38 1.29 14.13 3.86 19.5 9.15 1.37 1.41 1.37 1.41 3.67 2.84-10.65 1.47-10.65 1.47-15.98-2.4q-1.69-0.82-3.4-1.6c-2.48-1.21-3.98-2.33-5.39-4.79q0.79-1.57 1.6-3.2z"/>
	<path class="s64" d="m543.02 874.7q1.18 0.78 2.4 1.6c-6.15 4.56-12.12 8.89-19.17 11.98-1.03-3.08-0.86-5.55-0.8-8.79q0.89-0.12 1.81-0.24c5.11-0.74 9.46-1.83 14.12-4.07q0.81-0.24 1.64-0.48z"/>
	<path class="s65" d="m461.54 757.26q2.29 0.14 4.59 0.3c1.28 0.08 1.28 0.08 2.58 0.17 2.33 0.32 3.73 0.53 5.61 1.93 0.84 1.9 0.84 1.9 1.4 4.09q0.29 1.09 0.58 2.21 0.21 0.83 0.42 1.69c-10.9-1.54-10.9-1.54-15.98-3.2q0.78-0.79 1.6-1.6c-0.26-2.87-0.26-2.87-0.8-5.59z"/>
	<path class="s66" d="m424.79 909.05c0.65 1.35 0.65 1.35 0.8 3.19-2.03 2.43-3.38 3.79-6.39 4.8-9.68 0.83-9.68 0.83-12.76-0.87-1.02-1.08-1.02-1.08-2.42-3.13q-0.79-0.39-1.6-0.8 0.39-0.78 0.8-1.59 0.85 0.01 1.72 0.02 3.86 0.05 7.71 0.08c1.35 0.02 1.35 0.02 2.72 0.04 1.28 0.01 1.28 0.01 2.59 0.01q1.18 0.02 2.4 0.03c2.23-0.04 2.23-0.04 4.43-1.78z"/>
	<path class="s67" d="m431.98 609.47q1.18 0.78 2.39 1.59-0.66 0.29-1.34 0.59-0.91 0.4-1.85 0.81c-0.98 0.43-0.98 0.43-1.99 0.87-1.85 0.86-3.61 1.8-5.4 2.78-2.06 1.04-2.88 1.35-5.24 1.3-1.85-0.8-2.87-1.61-4.15-3.15 5.08-5.39 10.41-6.44 17.58-4.79z"/>
	<path class="s68" d="m526.25 686.96q0.39 1.18 0.8 2.4c3.16 0 6.32 0 9.58 0-2.29 2.29-4.7 2-7.79 2.14q-0.9 0.05-1.82 0.1c-5.58 0.24-11.24 0.28-16.75-0.65q-0.79-0.78-1.6-1.59c5.85-1.17 11.63-1.96 17.58-2.4z"/>
	<path class="s69" d="m495.89 643.82c2.52 0.97 3.45 1.9 5.24 4.04 2.18 2.25 3.65 2.68 6.76 2.88q1.16 0.08 2.36 0.16 5.66 0.26 11.31 0.36 1.2 0.03 2.44 0.05 3.79 0.08 7.59 0.15 2.59 0.05 5.19 0.1 6.32 0.13 12.63 0.25 0 0.39 0 0.8c-13.7 0.26-27.41 0.52-41.54 0.8q1.18 1.96 2.4 3.99-0.39 0.79-0.8 1.6-2.27-2.45-4.54-4.9-0.64-0.67-1.29-1.37-4.01-4.34-7.75-8.91z"/>
	<path class="s70" d="m584.57 667.79c-1.04 3.18-2.12 4.72-4.82 6.68-0.95 0.69-0.95 0.69-1.92 1.39q-0.98 0.7-2 1.41-0.99 0.72-2 1.47c-3.67 2.62-3.67 2.62-5.24 3.43q-1.18-0.4-2.4-0.8c3.16-1.98 3.16-1.98 6.39-4q-0.39-0.39-0.8-0.8-1.13 0.62-2.29 1.25-1.23 0.57-2.5 1.15-0.79-0.39-1.6-0.8 4.11-2.61 8.24-5.19 1.16-0.74 2.36-1.5 1.12-0.7 2.27-1.42 1.03-0.65 2.1-1.32c1.81-0.95 1.81-0.95 4.21-0.95z"/>
	<path class="s71" d="m360.08 859.52q3.42 3.3 6.59 6.84 0.6 0.66 1.21 1.35c1.08 1.53 1.45 2.77 1.78 4.59q-1.18 0-2.39 0-0.4 0.79-0.8 1.6-1.8-1.52-3.59-3.04c-1.21-1.03-1.21-1.03-2.8-1.75q-0.88-2.38-1.6-4.8 0.79 0 1.6 0 0-2.36 0-4.79z"/>
	<path class="s72" d="m356.08 851.53c2.54 2.4 4.57 4.95 6.59 7.79q0.85 1.17 1.71 2.38 0.64 0.89 1.29 1.81-0.39 0.79-0.8 1.6-1.97-1.97-3.99-3.99c-1.01 2.32-1.6 3.83-1.6 6.39q-1.78-2.32-3.55-4.65-0.5-0.65-1.01-1.32c-1.52-2-2.63-3.61-3.43-6.02q0.79 0 1.6 0 1.22 1.99 2.39 4 0.79 0.39 1.6 0.8-0.39-1.58-0.8-3.2 1.18 0 2.4 0-0.59-0.93-1.2-1.9c-1.2-2.09-1.2-2.09-1.2-3.69z"/>
	<path class="s73" d="m488.7 636.63q0.74 0.07 1.51 0.13c18.38 1.59 36.77 1.95 55.21 2.27q0 0.39 0 0.79-7.37 0.03-14.74 0.05-2.49 0-4.98 0.01c-8.97 0.04-17.92 0-26.88-0.31q-1.11-0.02-2.26-0.05-1.02-0.04-2.07-0.09-0.9-0.03-1.82-0.06c-1.96-0.43-2.7-1.23-3.97-2.74z"/>
	<path class="s74" d="m494.63 718.82c5.52-0.15 11.7-0.2 16.14 3.39q0.54 0.74 1.1 1.5-0.91-0.37-1.85-0.75c-10.57-4.18-24.44-2.36-34.9 1.55q-1.62 0.75-3.2 1.59 0.72-2.81 1.6-5.59 0.79-0.39 1.6-0.8-0.4 1.58-0.8 3.2 1.08-0.33 2.19-0.67c6.09-1.81 11.77-3.1 18.12-3.42z"/>
	<path class="s75" d="m296.17 716.52c2.63 0.79 5.27 1.58 7.99 2.39q-1.58 0.4-3.2 0.8 0 2.76 0 5.6c-2.11 0-4.22 0-6.39 0q0.17-1.75 0.35-3.5 0.1-0.97 0.2-1.97c0.25-1.72 0.25-1.72 1.05-3.32z"/>
	<path class="s76" d="m495.09 694.15q0.79 0.39 1.6 0.8-0.84 0.58-1.7 1.17c-7.62 5.39-13.4 10.82-18.27 18.8-1.12-2.23-0.62-3.92 0-6.26 2.08-4.53 6.97-7.36 11.18-9.72q3.61-2.37 7.19-4.79z"/>
	<path class="s77" d="m271.5 693.15c0.97-0.01 0.97-0.01 1.96-0.02q0.93 0 1.89 0.01 0.84 0 1.71 0c1.53 0.21 1.53 0.21 3.93 1.81q-0.72 0.02-1.47 0.03-3.31 0.1-6.62 0.22c-1.14 0.02-1.14 0.02-2.3 0.05-4.31 0.17-7.43 0.54-11.18 2.89q0.39 2.36 0.8 4.8-1.18-0.4-2.4-0.8c-0.6-1.8-0.6-1.8-0.8-4 3.74-5.03 8.72-5.05 14.48-4.99z"/>
	<path class="s78" d="m365.67 865.11c3.1 2.58 6.03 5.2 8.84 8.09 2.48 2.53 4.94 4.42 7.94 6.29q0 0.39 0 0.8c-2.9-0.26-5.8-0.53-8.79-0.8-0.8-2.4-0.8-2.4 0-4.79q-0.86-0.84-1.75-1.69-1.1-1.09-2.25-2.21-1.1-1.08-2.24-2.19c-1.75-1.9-1.75-1.9-1.75-3.5z"/>
	<path class="s79" d="m355.28 862.71c4.87 4.71 9.61 9.7 13.59 15.18-4.6-0.6-4.6-0.6-6.4-2.39q-1.97-0.85-3.99-1.6 0.79-1.58 1.6-3.2-0.52-0.66-1.05-1.34c-0.67-0.87-0.67-0.87-1.35-1.75q-0.66-0.86-1.35-1.74c-1.05-1.56-1.05-1.56-1.05-3.16z"/>
	<path class="s80" d="m521.45 808.39q1.2 0.19 2.44 0.38c3 0.4 5.92 0.58 8.94 0.67 0.79 0.03 0.79 0.03 1.59 0.05q2.48 0.08 4.96 0.15 1.69 0.05 3.39 0.1 4.12 0.13 8.24 0.25 0 0.39 0 0.8-1.32 0.01-2.69 0.03-4.92 0.07-9.85 0.18-2.13 0.04-4.27 0.06-3.06 0.05-6.12 0.12-0.96 0-1.94 0.01c-1.98 0.03-1.98 0.03-4.69 0.4-0.79 1.18-0.79 1.18-1.59 2.39q-0.79-0.39-1.6-0.8 1.57-2.36 3.19-4.79z"/>
	<path class="s81" d="m495.89 643.82c2.52 0.97 3.45 1.9 5.24 4.04 2.83 3.01 5.81 2.98 9.78 3.14q0.87 0.01 1.76 0.01c-3 2.4-3 2.4-4.8 2.4q0.62 0.93 1.25 1.89 0.57 1.04 1.15 2.1-0.39 0.79-0.8 1.6-2.27-2.45-4.54-4.9-0.64-0.67-1.29-1.37-4.01-4.34-7.75-8.91z"/>
	<path class="s82" d="m569.39 420.13q0.39 0.79 0.8 1.6-0.4 0.79-0.8 1.6-0.11 1.94-0.1 3.89-0.01 1.03-0.01 2.09c0.1 1.88 0.28 3.43 0.91 5.2 3.22 1.86 6.74 2.03 10.38 2.4-1.6 1.6-1.6 1.6-4.69 1.84-2.16-0.06-3.23-0.21-5.2-1.19-2.76-3.08-3.11-6.32-3.09-10.34q-0.01-1.23-0.01-2.5c0.21-2.19 0.21-2.19 1.81-4.59z"/>
	<path class="s83" d="m539.83 687.76q0.39 1.97 0.8 3.99c-4.22 0-8.44 0-12.79 0q0-0.39 0-0.8c3.56-0.39 3.56-0.39 7.19-0.8-2.63-0.26-5.27-0.52-7.98-0.79q0-0.4 0-0.8c4.32-0.62 8.41-0.88 12.78-0.8z"/>
	<path class="s84" d="m296.97 694.95c2.34 2.75 2.63 4.42 2.4 8.07q-0.08 0.89-0.16 1.81-0.05 0.89-0.1 1.8c-0.26 3.52-0.86 6.56-2.14 9.89-0.85-2.55-0.83-4.16-0.71-6.83q0.06-1.28 0.12-2.6 0.07-1.33 0.14-2.71 0.06-1.34 0.12-2.73 0.16-3.35 0.33-6.7z"/>
	<path class="s85" d="m431.98 609.47q-0.4 1.18-0.8 2.39c-2 0.94-2 0.94-4.44 1.75q-1.21 0.41-2.45 0.83c-0.94 0.31-0.94 0.31-1.9 0.62q0.39-1.97 0.8-4 0.79 0 1.6 0 0-0.78 0-1.59c2.45-1.23 4.55-0.44 7.19 0z"/>
	<path class="s86" d="m475.12 757.26q1.18 0.39 2.39 0.8 0 0.79 0 1.6 1.46-0.2 2.95-0.4c4.87-0.55 9.73-0.47 14.63-0.4q0 0.39 0 0.8c-4.38 0.92-8.63 0.89-13.08 0.85q-1.11-0.01-2.25-0.01-2.72-0.02-5.44-0.04c0-2.4 0-2.4 0.8-3.2z"/>
	<path class="s87" d="m640.49 992.13q0.39 1.58 0.8 3.2c6.32-0.4 6.32-0.4 12.78-0.8-2.97 2.97-7.91 2.44-11.93 2.47q-2.03 0-4.05-0.02-1.04-0.01-2.11-0.01-2.54-0.02-5.08-0.04 0-0.4 0-0.8c4.35-0.4 4.35-0.4 8.79-0.8q0.39-1.57 0.8-3.2z"/>
	<path class="s88" d="m347.3 938.61q0.78 0.39 1.59 0.8c-1.8 3.41-4.09 6.44-7.19 8.78q-1.18 0-2.39 0c1.18-2.75 2.74-4.51 4.89-6.59q0.86-0.84 1.75-1.71 0.67-0.63 1.35-1.28z"/>
	<path class="s89" d="m287.38 825.97c2.54 0.27 3.21 0.81 4.99 2.74 1.4 2.05 1.4 2.05 1.4 3.65 1.06 1.25 1.06 1.25 2.4 2.49 0.66 0.65 0.66 0.65 1.35 1.31q0.51 0.49 1.04 0.99-0.39 0.79-0.79 1.6c-7.31-7.15-7.31-7.15-10.39-11.19q0-0.78 0-1.59z"/>
	<path class="s90" d="m565.39 500.82q2.15 1.34 4.3 2.69 1.19 0.75 2.41 1.52c2.08 1.38 2.08 1.38 3.68 2.98q-1.18 0-2.4 0-0.79 1.57-1.6 3.19-1.37-1.91-2.74-3.84-0.76-1.07-1.55-2.16c-1.3-1.98-1.3-1.98-2.1-4.38z"/>
	<path class="s91" d="m369.66 412.94q1.19 0.39 2.4 0.8c-2.7 3.3-5.32 6.24-8.79 8.79q-0.39-1.18-0.8-2.4c2.38-2.37 4.75-4.74 7.19-7.19z"/>
	<path class="s92" d="m563 337.85q0.39 0 0.79 0c0.27 3.69 0.53 7.38 0.8 11.18q1.18 0.39 2.4 0.8 0.39 1.18 0.8 2.4c1.2 1.33 1.2 1.33 2.4 2.39-3.03-0.69-4.51-1.93-6.25-4.39-2.19-3.74-2.32-7.34-1.74-11.59q0.39-0.39 0.8-0.79z"/>
	<path class="s93" d="m481.51 537.57c1.98 0.39 1.98 0.39 3.99 0.8 0 3.16 0 6.32 0 9.58q-1.18 0-2.39 0c0-2.63 0-5.27 0-7.99q-0.79 0-1.6 0 0-1.18 0-2.39z"/>
	<path class="s94" d="m510.55 535.88q0.65 0.44 1.32 0.89-1.95 0.6-3.9 1.2-1.08 0.33-2.19 0.67c-1.9 0.52-1.9 0.52-3.5 0.52q0 0.79 0 1.6-1.18 0-2.4 0c0 2.38 0 4.75 0 7.19q-0.39 0-0.8 0-0.03-1.94-0.05-3.89-0.01-1.08-0.02-2.19c0.07-1.91 0.07-1.91 0.87-3.5 1.89-0.92 1.89-0.92 4.25-1.8q1.15-0.45 2.33-0.91c2.21-0.49 2.21-0.49 4.09 0.22z"/>
	<path class="s95" d="m546.22 465.67c1.78 2.67 2.47 5.22 3.24 8.29q0.21 0.78 0.42 1.59c0.74 2.82 1.4 5.63 1.93 8.49q-1.97-1.97-3.99-3.99 0.39-0.79 0.8-1.6-0.51-2.14-1.15-4.24c-0.9-2.97-1.39-5.44-1.25-8.54z"/>
	<path class="s96" d="m400.82 325.86c6.55-0.42 12.17 0.62 17.28 5q0.54 0.68 1.1 1.39-0.4 0.79-0.8 1.6-0.96-0.93-1.95-1.9c-2.6-2.17-4.94-2.78-8.23-3.37-2.53-0.45-4.94-1.19-7.4-1.92q0-0.39 0-0.8z"/>
	<path class="s97" d="m381.35 880.24q1.42 0.23 2.88 0.47c1.09 0.19 1.09 0.19 2.21 0.38q0 0.39 0 0.8c-5.14 0.39-5.14 0.39-10.38 0.8q-0.4 1.18-0.8 2.39-0.4 0-0.8 0 0-2.36 0-4.79c2.4-1.2 4.27-0.49 6.89-0.05z"/>
	<path class="s98" d="m776.3 365.01c1.12 2.25 0.4 3.33-0.35 5.69q-0.34 1.08-0.7 2.2c-0.27 0.84-0.27 0.84-0.55 1.69q-0.79 0-1.6 0-0.78-2.75-1.6-5.59 2.37-1.97 4.8-3.99z"/>
	<path class="s99" d="m570.19 416.94q0.78 1.57 1.59 3.19-1.18 0.39-2.39 0.8c-1.35 1.59-1.35 1.59-2.4 3.2q0-1.58 0-3.2-1.18 0.39-2.4 0.8 0-1.18 0-2.4c2.03-1.88 2.78-2.39 5.6-2.39z"/>
	<path class="s100" d="m402.42 910.65c4.22 0.52 8.44 1.05 12.78 1.59q0 0.4 0 0.8c-2.11 0-4.22 0-6.39 0q0.39 1.18 0.8 2.4c-3.03-0.42-4.93-1.1-7.19-3.2q0-0.78 0-1.59z"/>
	<path class="s101" d="m572.58 674.98q0.4 1.18 0.8 2.39c-3.56 2.38-3.56 2.38-7.19 4.8q-0.79-0.4-1.6-0.8c0.1-1.5 0.1-1.5 0.8-3.2 2.3-0.9 2.3-0.9 4.8-1.6q1.18-0.78 2.39-1.59z"/>
	<path class="s102" d="m474.32 760.46c2.9 0 5.8 0 8.79 0q-2.8 2.79-5.6 5.59c-1.59-1.45-1.59-1.45-3.19-3.2q0-1.18 0-2.39z"/>
	<path class="s103" d="m760.32 296.3c6.06 0.27 12.13 0.53 18.37 0.8q0 0.4 0 0.8-0.66 0.03-1.34 0.06-3.02 0.14-6.05 0.29c-1.04 0.05-1.04 0.05-2.11 0.1q-1 0.05-2.04 0.1-0.93 0.04-1.88 0.09c-1.72 0.16-3.29 0.49-4.95 0.96q0-1.57 0-3.2z"/>
	<path class="s104" d="m442.36 907.45q0 0.4 0 0.8c-2.9 0.26-5.8 0.53-8.78 0.8 3.36-1.68 5.11-1.74 8.78-1.6zm-15.97 1.6c2.37 0 4.74 0 7.19 0q0 0.39 0 0.8c-1.12 0.12-1.12 0.12-2.25 0.25-2.57 0.55-3.37 0.93-4.94 2.94q-0.4-0.78-0.8-1.59 0.39-1.18 0.8-2.4z"/>
	<path class="s105" d="m582.97 827.56c1.17 3.57-0.09 5.41-1.6 8.79q-0.49 2.38-0.8 4.79-0.39 0-0.8 0c-0.46-5.5 0.42-8.81 3.2-13.58z"/>
	<path class="s106" d="m515.86 687.76q0 0.39 0 0.8-2.92 0.83-5.84 1.64c-0.83 0.24-0.83 0.24-1.67 0.49-4.2 1.15-4.2 1.15-6.87 0.26 1.59-2.28 2.58-2.43 5.39-2.94 3.01-0.28 5.98-0.31 8.99-0.25z"/>
	<path class="s107" d="m541.43 473.66c1.59 0 1.59 0 3.29 1.59q0.74 0.79 1.5 1.6 0.79-0.79 1.6-1.6 0.78 1.97 1.59 4-1.18 1.18-2.39 2.4-1.4-1.77-2.8-3.55-0.77-0.98-1.57-1.99c-1.22-1.65-1.22-1.65-1.22-2.45z"/>
	<path class="s108" d="m586.96 356.22c-3.22 2.15-5.55 2.5-9.38 2.45q-0.96-0.01-1.94-0.03-0.72-0.01-1.46-0.02 0.39-1.18 0.8-2.4c8.43-1.06 8.43-1.06 11.98 0z"/>
	<path class="s109" d="m461.54 757.26q2.32 0.17 4.64 0.35c1.29 0.1 1.29 0.1 2.61 0.2 2.33 0.25 2.33 0.25 4.73 1.05q0 0.79 0 1.6-0.81-0.2-1.65-0.4c-3.19-0.55-6.57-1.09-9.53 0.4q-0.4-1.58-0.8-3.2z"/>
	<path class="s110" d="m467.93 880.29q-0.79 1.97-1.6 3.99c-2.39-0.79-3.19-1.36-4.79-3.19q0-0.4 0-0.8c2.62-0.64 3.76-0.88 6.39 0z"/>
	<path class="s111" d="m509.47 825.97c0 2.66-0.36 4.04-1.6 6.39-1.95 1.34-1.95 1.34-3.99 2.39q-1.18 0.79-2.4 1.6c1.21-2.78 2.86-4.76 4.89-6.99q0.87-0.95 1.76-1.93c0.66-0.73 0.66-0.73 1.34-1.46z"/>
	<path class="s112" d="m271.4 764.45q0.79 0.39 1.6 0.8 0 1.97 0 3.99-1.18 0-2.4 0-2.4 0.38-4.79 0.8c1.06-3.19 2.79-3.86 5.59-5.59z"/>
	<path class="s113" d="m435.97 540.76q1.18 0.4 2.4 0.8-0.22 1.48-0.45 3c-0.31 2.4-0.42 4.27 0.45 6.59-2.45-2.35-3.17-3.32-3.3-6.84 0.1-2.75 0.1-2.75 0.9-3.55z"/>
	<path class="s114" d="m265.01 768.45q0.39 0.78 0.8 1.59 0.79 0 1.6 0-0.4 1.18-0.8 2.4-2.36 0-4.79 0 0-0.79 0-1.6-0.79-0.39-1.6-0.8 2.36-0.78 4.79-1.59z"/>
	<path class="s115" d="m730.76 754.86q1.58 0.4 3.2 0.8c-1.85 1.85-3.69 3.69-5.6 5.6q-0.39-1.58-0.79-3.2c1.34-1.85 1.34-1.85 3.19-3.2z"/>
	<path class="s116" d="m756.33 324.26c0.92 2.29 0.79 3.21 0 5.61-0.57 1.28-0.57 1.28-1.15 2.58q-0.57 1.29-1.15 2.61-0.44 0.98-0.9 1.99-0.39-0.79-0.8-1.6 0.37-0.91 0.75-1.85c0.88-2.23 0.98-3.77 0.85-6.14q1.18-0.39 2.4-0.8 0-1.18 0-2.4z"/>
	<path class="s117" d="m590.96 852.33q1.94-0.06 3.89-0.1 1.08-0.03 2.19-0.06c1.91 0.16 1.91 0.16 3.5 1.76-2.11 1.05-3.73 0.87-6.09 0.85q-1.19-0.02-2.43-0.03-0.92-0.01-1.86-0.02 0.39-1.19 0.8-2.4z"/>
	<path class="s118" d="m488.7 637.43q0.64 0.19 1.3 0.4c2.26 0.47 4.38 0.45 6.69 0.4q-0.4 1.18-0.8 2.39-1.18 0-2.4 0 0.4 0.79 0.8 1.6c-2.69-1.11-3.98-2.38-5.59-4.79z"/>
	<path class="s119" d="m447.16 986.54q0.78 0.39 1.59 0.8 0 2.36 0 4.79 1.58 0.4 3.2 0.8-2.75 0.4-5.59 0.8c-0.1-5.39-0.1-5.39 0.8-7.19z"/>
	<path class="s120" d="m521.45 808.39q2.76 0.39 5.6 0.8 0 0.79 0 1.6-1.33 0.12-2.7 0.25-1.43 0.27-2.9 0.55c-0.79 1.18-0.79 1.18-1.59 2.39q-0.79-0.39-1.6-0.8 1.57-2.36 3.19-4.79z"/>
	<path class="s121" d="m481.51 452.09q-2.12 1.03-4.25 2.04c-1.18 0.57-1.18 0.57-2.38 1.16-2.16 0.79-2.16 0.79-4.56-0.01q1.89-1.04 3.8-2.05 1.05-0.56 2.13-1.15c2.23-0.86 3.08-0.84 5.26 0.01z"/>
	<path class="s122" d="m365.67 877.09c3.43 0.79 6.85 1.59 10.39 2.4-2.4 1.6-2.4 1.6-4 1.6q0-0.79 0-1.6-1.18 0.39-2.4 0.8c-2.14-0.75-2.14-0.75-3.99-1.6q0-0.79 0-1.6z"/>
	<path class="s123" d="m625.31 750.87q0.39 0.79 0.8 1.6c-1.45 3.7-3.16 5.71-6.39 7.99q-0.79-0.4-1.6-0.8c0.89-0.84 0.89-0.84 1.8-1.7 2.18-2.28 3.72-4.43 5.39-7.09z"/>
	<path class="s65" d="m298.56 718.91q0.79 0 1.6 0c0.27 2.11 0.53 4.22 0.8 6.4q-2.75 0-5.59 0c1.1-1.2 1.1-1.2 2.4-2.4q0.78 0 1.59 0-0.39-1.97-0.8-4z"/>
	<path class="s124" d="m555.81 583.9c0 2.4 0 2.4-1.4 3.86q-0.89 0.73-1.8 1.49-0.89 0.74-1.8 1.5-0.69 0.56-1.4 1.14-0.78-0.39-1.59-0.8c2.63-2.37 5.27-4.74 7.99-7.19z"/>
	<path class="s125" d="m435.17 483.24q0.4 0.79 0.8 1.6-1.12 2.44-2.39 4.79-0.4-0.78-0.8-1.59c-1.58 0.79-1.58 0.79-3.2 1.59 1.19-3.03 3-4.48 5.59-6.39z"/>
	<path class="s126" d="m497.49 789.22q2.82 0.72 5.59 1.59 0.39 0.79 0.8 1.6-3.2 0-6.39 0-0.4-1.18-0.8-2.39 0.39-0.4 0.8-0.8z"/>
	<path class="s127" d="m547.82 480.85c1.84 1.31 3.69 2.63 5.59 3.99q-0.39 0.79-0.8 1.6-1.18 0.39-2.4 0.8c-2.39-4.6-2.39-4.6-2.39-6.39z"/>
	<path class="s128" d="m728.36 369.8q0.79 0.39 1.6 0.8c-3.16 2.77-3.16 2.77-6.39 5.59q-0.79-0.39-1.6-0.8c3.39-4.59 3.39-4.59 6.39-5.59z"/>
	<path class="s129" d="m779.49 326.66c2.64 0 5.28 0 7.99 0q-0.39 1.18-0.8 2.4c-2.69 0.15-2.69 0.15-5.59 0q-0.79-1.18-1.6-2.4z"/>
	<path class="s130" d="m713.19 779.63q2.36 0 4.79 0 0.39 1.18 0.8 2.4c-1.34 0.17-1.34 0.17-2.7 0.35-2.75 0.27-2.75 0.27-4.49 1.24q0.79-1.96 1.6-3.99z"/>
	<path class="s131" d="m290.58 738.09c-1.06 2.11-2.11 4.22-3.2 6.39q-0.39-0.79-0.8-1.6c0.75-2.1 0.75-2.1 1.6-3.99q-1.58-0.4-3.2-0.8c2.4-0.8 2.4-0.8 5.6 0z"/>
	<path class="s132" d="m283.39 662.19q0.39 0 0.79 0c0.1 1.9 0.1 1.9 0 4q-0.78 0.78-1.59 1.6-1.18 0-2.4 0c0.86-2.33 1.42-3.82 3.2-5.6z"/>
	<path class="s133" d="m417.6 501.62q0.78 0.39 1.6 0.8c-1.32 2.11-2.64 4.21-4 6.39-0.8-1.6-0.8-1.6-0.8-4 1.6-1.74 1.6-1.74 3.2-3.19z"/>
	<path class="s134" d="m475.57 880.24c0.96 0.02 0.96 0.02 1.94 0.05-2.09 3.89-2.09 3.89-4.79 4.79q-0.05-1.99 0-3.99c0.8-0.8 0.8-0.8 2.85-0.85z"/>
	<path class="s135" d="m522.25 71.02q1.18 0.39 2.4 0.8-0.76 0.12-1.55 0.25c-0.81 0.27-0.81 0.27-1.65 0.55q-0.39 1.18-0.8 2.39-1.96 0.4-3.99 0.8c3.79-3.89 3.79-3.89 5.59-4.79z"/>
	<path class="s136" d="m340.9 735.69q2.41 0.34 4.8 0.8 0 0.39 0 0.8-1.97 0-4 0-0.39 2.36-0.8 4.79-0.39 0-0.79 0-0.05-2.79 0-5.59 0.39-0.39 0.79-0.8z"/>
	<path class="s137" d="m470.32 730.9q0.4 0 0.8 0 0.4 2.75 0.8 5.59 1.58-0.39 3.2-0.8-0.4 0.79-0.8 1.6c-2.05 0.5-2.05 0.5-4 0.8 0-2.37 0-4.75 0-7.19z"/>
	<path class="s138" d="m497.49 690.95q0.78 0.4 1.59 0.8 1.18-0.39 2.4-0.8 0.39 0.79 0.8 1.6c-2.77 1.19-2.77 1.19-5.59 2.4q-0.4-0.79-0.8-1.6 0.79-1.18 1.6-2.4z"/>
	<path class="s139" d="m484.7 635.83c3.53 1.08 5.07 2.61 7.19 5.59-3.13-1.04-5.01-2.29-7.19-4.79q0-0.39 0-0.8z"/>
	<path class="s140" d="m391.23 329.86q1.19 0 2.4 0c-0.84 2.09-1.32 3.03-3.29 4.19q-0.74 0.3-1.5 0.6c1.5-3.89 1.5-3.89 2.39-4.79z"/>
	<path class="s141" d="m376.06 299.5q0.39 0 0.79 0c0.38 6.54 0.38 6.54-1.19 9.24q-0.59 0.56-1.2 1.14-0.05-1.99 0-3.99 0.39-0.39 0.8-0.8 0.44-2.79 0.8-5.59z"/>
	<path class="s142" d="m870.57 284.32q0.39 0.79 0.8 1.6-1.97 2.36-4 4.79-0.79-0.39-1.6-0.8c3-4.69 3-4.69 4.8-5.59z"/>
	<path class="s143" d="m474.32 268.34c0.98 2.95 0.51 4.96 0 7.99q-0.79-0.79-1.6-1.6c0.46-5.25 0.46-5.25 1.6-6.39z"/>
	<path class="s144" d="m650.87 228.4q0.79 0.39 1.6 0.8c-1.36 2.22-1.98 3.08-4.54 3.79-0.92 0.1-0.92 0.1-1.85 0.2q2.4-2.4 4.79-4.79z"/>
	<path class="s145" d="m486.3 849.93q-1.96 1.58-3.99 3.2-0.79-0.4-1.6-0.8 0-1.18 0-2.4c3.79-0.9 3.79-0.9 5.59 0z"/>
	<path class="s146" d="m471.12 729.3c2.4 2.9 2.4 2.9 2.4 5.59q0.79 0.4 1.6 0.8-1.58 0.39-3.2 0.8c-1.18-2.36-0.84-4.59-0.8-7.19z"/>
	<path class="s147" d="m427.98 454.48q1.18 0 2.4 0c-0.4 2.95-0.88 4.48-3.2 6.39 0.27-2.1 0.53-4.21 0.8-6.39z"/>
	<path class="s148" d="m594.95 347.43q0.39 0.79 0.8 1.6-1.94 2.45-3.99 4.79-0.79 0-1.6 0c0.98-2.95 2.56-4.27 4.79-6.39z"/>
	<path class="s149" d="m551.81 265.95c-1.65 2.23-2.51 2.41-5.34 2.94q-1.3 0.12-2.65 0.25c2.67-2.79 4.12-3.3 7.99-3.19z"/>
	<g id="Layer 1">
	</g>
</svg>