<svg version="1.2" xmlns="http://www.w3.org/2000/svg" viewBox="0 0 1080 1080" width="1080" height="1080">
	<style>
		.s0 { fill: #c5c2bd } 
		.s1 { fill: #feb931 } 
		.s2 { fill: #feba32 } 
		.s3 { fill: #b3b2ad } 
		.s4 { fill: #feba31 } 
		.s5 { fill: #febb32 } 
		.s6 { fill: #adaca8 } 
		.s7 { fill: #696e6d } 
		.s8 { fill: #f4f0e8 } 
		.s9 { fill: #f8f5f0 } 
		.s10 { fill: #f8e3be } 
		.s11 { fill: #6b706f } 
		.s12 { fill: #d07936 } 
		.s13 { fill: #e79a20 } 
		.s14 { fill: #f9f6f0 } 
		.s15 { fill: #f9e3bf } 
		.s16 { fill: #e89a20 } 
		.s17 { fill: #e89a1f } 
		.s18 { fill: #979793 } 
		.s19 { fill: #7c817e } 
		.s20 { fill: #6a706e } 
		.s21 { fill: #e89a21 } 
		.s22 { fill: #858785 } 
		.s23 { fill: #f9e5c2 } 
		.s24 { fill: #7d817e } 
		.s25 { fill: #c6c3be } 
		.s26 { fill: #f8e4c0 } 
		.s27 { fill: #4a4f4e } 
		.s28 { fill: #f39441 } 
		.s29 { fill: #4b504f } 
		.s30 { fill: #fae7c5 } 
		.s31 { fill: #696e6c } 
		.s32 { fill: #959693 } 
		.s33 { fill: #444948 } 
		.s34 { fill: #7f8380 } 
		.s35 { fill: #7e827f } 
		.s36 { fill: #7d817f } 
		.s37 { fill: #fdfcf7 } 
		.s38 { fill: #7f8381 } 
		.s39 { fill: #8b8d8a } 
		.s40 { fill: #9f9f9b } 
		.s41 { fill: #7b807d } 
		.s42 { fill: #7e8280 } 
		.s43 { fill: #808481 } 
		.s44 { fill: #787d7a } 
		.s45 { fill: #7a7f7c } 
		.s46 { fill: #7a7e7b } 
		.s47 { fill: #757b78 } 
		.s48 { fill: #898b89 } 
		.s49 { fill: #7b7f7c } 
		.s50 { fill: #777c7a } 
		.s51 { fill: #ea8f0e } 
		.s52 { fill: #8d8f8b } 
		.s53 { fill: #7a7f7b } 
		.s54 { fill: #f1efeb } 
		.s55 { fill: #858885 } 
		.s56 { fill: #8c8e8b } 
		.s57 { fill: #f9f7f4 } 
		.s58 { fill: #c3c7c6 } 
		.s59 { fill: #363a3a } 
		.s60 { fill: #727774 } 
		.s61 { fill: #565958 } 
		.s62 { fill: #555b5a } 
		.s63 { fill: #747976 } 
		.s64 { fill: #e58b09 } 
		.s65 { fill: #e4860e } 
		.s66 { fill: #818581 } 
		.s67 { fill: #d0ccc7 } 
		.s68 { fill: #6a6e6c } 
		.s69 { fill: #868a86 } 
		.s70 { fill: #8f928e } 
		.s71 { fill: #fdc436 } 
		.s72 { fill: #8e908e } 
		.s73 { fill: #c56829 } 
		.s74 { fill: #858884 } 
		.s75 { fill: #535a58 } 
		.s76 { fill: #fcb120 } 
		.s77 { fill: #9fa09d } 
		.s78 { fill: #c2bfb9 } 
		.s79 { fill: #bfbcb6 } 
		.s80 { fill: #5d6361 } 
		.s81 { fill: #e3921c } 
		.s82 { fill: #707674 } 
		.s83 { fill: #b7b6b2 } 
		.s84 { fill: #fcf5e7 } 
		.s85 { fill: #747977 } 
		.s86 { fill: #555c5b } 
		.s87 { fill: #2b3131 } 
		.s88 { fill: #f3f5f3 } 
		.s89 { fill: #898c88 } 
		.s90 { fill: #8e8f8c } 
		.s91 { fill: #737876 } 
		.s92 { fill: #666b68 } 
		.s93 { fill: #7e807e } 
		.s94 { fill: #6e7370 } 
		.s95 { fill: #737775 } 
		.s96 { fill: #48504f } 
		.s97 { fill: #d18041 } 
		.s98 { fill: #c0beb9 } 
		.s99 { fill: #4b5251 } 
		.s100 { fill: #faedd8 } 
		.s101 { fill: #e38f1c } 
		.s102 { fill: #767a78 } 
		.s103 { fill: #eae9e6 } 
		.s104 { fill: #f8deb1 } 
		.s105 { fill: #6c7370 } 
		.s106 { fill: #ece2d8 } 
		.s107 { fill: #c0ced6 } 
		.s108 { fill: #e38813 } 
		.s109 { fill: #f7f5f0 } 
		.s110 { fill: #49504e } 
		.s111 { fill: #a7a7a3 } 
		.s112 { fill: #e7e7e5 } 
		.s113 { fill: #767b78 } 
		.s114 { fill: #fae9cc } 
		.s115 { fill: #969692 } 
		.s116 { fill: #d7d1cc } 
		.s117 { fill: #2e3333 } 
		.s118 { fill: #515553 } 
	</style>
	<path class="s0" d="m612.16 82.12c9.2 6.28 15.84 15.69 18.36 26.68 0.95 5.06 0.97 10 0.99 15.14 0.02 1.38 0.02 1.38 0.05 2.79 0.04 8.49-1.4 16-5.35 23.55q-0.68 1.32-1.38 2.69c-1.43 2.53-2.96 4.91-4.6 7.3q0.78 1.15 1.58 2.33c7 11.28 11.15 23.73 14.82 36.4 0.35 1.2 0.35 1.2 0.71 2.43q0.68 2.32 1.33 4.66c3.15 10.86 8.89 18.23 18.74 23.66 1.62 1 1.62 1 2.41 2.59 0.63 7.96-1.69 14.6-6.71 20.8-1.65 1.87-3.35 3.62-5.17 5.33 0.78 2.51 1.57 4.73 2.87 7.03 1.81 4.1 1.49 7.56 0.16 11.73q-0.65 1.49-1.34 2.97-0.37 0.8-0.75 1.63c-14.38 30.74-39.59 53.6-70.63 66.92 8.52 8.86 19.46 13.96 31.72 14.52q2.08 0.03 4.17 0.03 1.12 0 2.28 0c5.26-0.07 10.16-0.76 15.29-1.88 12.04-2.61 25.26-3.89 36.2 2.63 6.98 4.75 11.48 12.13 13.29 20.33 1.18 12.19-0.84 22.77-8.71 32.47-9.58 11.04-22.78 16.81-37.22 18.22-22.5 1.58-42.62-4.31-62.56-14.26q0.04 1.48 0.08 3.01c0 4.43-0.63 8.67-1.37 13.03-0.21 1.24-0.21 1.24-0.42 2.5-1.47 8.27-3.61 16.25-6.21 24.23q-0.28 0.85-0.56 1.73c-4.13 12.4-10.09 23.83-18.44 33.9q-0.84 1.02-1.7 2.07c-4.52 5.24-10.26 11.43-16.52 14.56 1.63 4.15 3.42 8.22 5.2 12.3 1.02 2.47 1.91 4.95 2.72 7.5q0.62-0.44 1.25-0.9c11.02-7.66 22.4-11.32 35.9-9 8 2.18 13.53 6.43 17.74 13.61 2.4 5.15 2.08 10.66 0.2 15.94-4.48 9.86-11.04 17.91-18.66 25.49q-0.92 0.92-1.87 1.86c-14.73 13.92-39.12 30.97-60.1 31.8-7.12-0.29-12.31-3.31-17.22-8.32-1.71-2.26-3.16-4.65-4.61-7.08q-1.24-2.02-2.49-4.05-0.61-0.99-1.23-2.02c-6.66-10.78-14.15-21.07-21.77-31.2-3.02 1.32-5.45 3.31-8.01 5.35-4.26 3.34-8.63 6.27-13.37 8.91 1.68 1.78 3.41 3.1 5.45 4.45 4.03 3.02 6.61 6.62 7.57 11.62 0.24 4.46-0.9 8.04-3.51 11.64-5.53 6.12-13.59 10.56-21.86 11.27-9.42 0.37-18.54 0.65-27.24-3.35-1.3-0.59-1.3-0.59-2.63-1.19-6.04-3.01-10.86-6.68-15.59-11.48q-0.78-0.78-1.58-1.58c-7.26-7.74-10.89-17.95-10.57-28.52 1.3-11.17 8.67-18.66 16.86-25.63 8.97-7.82 14.81-16.78 16.23-28.75-0.45-3.37-1.74-4.47-4.31-6.59q-0.7 0.79-1.42 1.6c-6.6 7.38-6.6 7.38-9.66 10.28q-0.62 0.6-1.26 1.22c-20 18.52-46.7 24.84-73.18 24.12-7.64-13.48-7.86-27.99-3.96-42.76 0.83-2.79 1.87-5.31 3.16-7.92q0.45-1.1 0.91-2.24c1.31-2.59 2.26-3.99 4.64-5.68 4.33-0.87 8.84-0.33 13.22-0.07 4.13 0.16 8.1-0.65 12.12-1.51q1.36-0.29 2.77-0.59c11.63-2.78 27.36-8.17 36.03-16.83q0.2-1.78 0.29-3.57c1.01-15.87 3.66-30.95 9.03-45.94 0.7-1.99 1.33-3.88 1.77-5.93-16.58 9.52-25.03 19.63-30.49 38.26-2.54 8.55-6.93 15.39-14.92 19.78-7.58 3.51-16.07 4.37-24.08 1.65-10.33-4.29-17.45-11.17-22.05-21.32-4.85-11.88-3.19-25.27 1.51-36.98 14.51-32.27 41.96-51.38 74.07-63.76 15.38-5.73 15.38-5.73 22.3-5.73q0-0.78 0-1.59-0.82-0.11-1.67-0.22c-14.82-3.66-30.31-18.24-41.1-28.29-0.83-0.76-0.83-0.76-1.68-1.55-4.68-4.47-10.49-10.09-12.08-16.56 0.3-2.48 0.3-2.48 2.38-4.65q1.31-0.93 2.67-1.79 1.07-0.7 2.18-1.43c1.78-0.94 1.78-0.94 3.36-0.94q0-0.78 0-1.58-0.64-0.27-1.3-0.54c-9.13-5.14-16.8-16.41-19.72-26.29-0.34-2.21-0.28-3.5 0.43-5.64 2.77-2.88 5.87-5.24 9.02-7.69 10.41-8.35 15.09-21.36 19.49-33.49q-0.88-0.16-1.79-0.32c-6.9-1.5-11.53-5.96-16.42-10.77q-0.86-0.84-1.75-1.71c-12.35-12.97-14.62-30.97-14.33-48.08 0.5-13.66 6.22-25.52 16.08-34.94 8.3-7.48 18.4-11.42 29.5-11.34q0.98 0.01 2 0.02c12.46 0.24 21.59 5.09 31.06 12.9q1.17 0.85 2.38 1.73c3.83 3.19 6.61 7.7 9.5 11.73 3.03-1.1 5.52-2.53 8.22-4.3 24.96-15.72 53.19-22.81 82.45-22.77 0.96 0 0.96 0 1.93 0 12.76 0.02 24.88 0.82 37.27 4.11q0.49-0.98 0.99-1.98c6.75-13.05 15.8-23.41 30-28.41 11.44-3.21 22.08-1.62 32.22 4.5z"/>
	<path class="s1" d="m734.3 913.31c23.67-0.87 52.09 3.15 71.53 17.74 6.05 6.2 9.46 12.2 9.44 20.96q0.01 0.86 0.01 1.75 0.01 1.83 0.01 3.65 0 2.77 0.03 5.54 0 1.78 0 3.56 0.01 0.82 0.03 1.66c-0.06 6.03-2.57 11.3-6.65 15.69-14.92 12.54-35.75 16.85-54.64 19.01-1.14 0.13-1.14 0.13-2.31 0.27-28.38 2.73-63.67-0.18-86.96-18.61-5.45-5.04-8.14-10.3-8.52-17.8q-0.08-3.28-0.03-6.57 0.02-2.53-0.02-5.06c-0.02-8.83 1.57-14.79 7.64-21.26 9.02-8.73 20.5-12.64 32.39-15.71q1.31-0.35 2.67-0.71c11.55-2.9 23.52-3.6 35.38-4.11z"/>
	<path class="s1" d="m558.55 847.59c19.6-0.69 41.53 1.56 59.3 10.36q0.92 0.43 1.87 0.88c7.94 4 15.06 10.35 17.93 18.92 0.32 3.56 0.33 7.12 0.33 10.69q0.03 2.57 0.09 5.14c0.09 7.33-0.71 13.38-5.82 19.01-18.44 17.81-50.31 20.22-74.34 20.13-21.94-0.41-48.69-4.56-64.99-20.72-5.63-6.11-6.16-11.7-6.13-19.84q-0.01-2.37-0.07-4.75c-0.02-7.98 1.5-13.63 6.8-19.66 6.52-6 14.7-9.98 22.96-12.97q1.12-0.41 2.28-0.83c12.86-4.33 26.31-5.86 39.79-6.36z"/>
	<path class="s2" d="m501.3 765.51c4.78 4.53 7.47 8.85 7.66 15.54q0 0.83 0 1.69 0.02 0.88 0.03 1.79 0.02 1.86 0.02 3.72 0.01 2.82 0.09 5.64c0.07 6.05 0.02 11.14-3.99 16.03-16.35 16.49-43.81 20.43-65.95 20.55-12.5 0.04-24.46-0.62-36.71-3.41-0.96-0.21-0.96-0.21-1.93-0.43-11.87-2.81-26.74-8.11-33.71-18.72-2.97-5.07-2.6-10.39-2.65-16.14q-0.02-1.62-0.07-3.23c-0.23-8.22 0.74-13.88 5.81-20.43 13.15-11.52 31.46-15.75 48.39-17.86q0.89-0.11 1.81-0.23c25.44-2.88 60.27-1.31 81.2 15.49z"/>
	<path class="s3" d="m405.62 344.79q1.94 0.77 3.89 1.52c1.11 0.43 1.11 0.43 2.23 0.87 14.62 5.66 29.44 9.7 44.86 12.51 1.26 0.23 1.26 0.23 2.56 0.46 13.87 2.39 27.67 3.16 41.73 3.1q1.17 0 2.37 0c11.41-0.04 22.6-0.28 33.81-2.62 1.18-0.25 1.18-0.25 2.39-0.49 10.45-2.21 20.62-5.1 30.71-8.61q0.88-0.3 1.79-0.61c1.68-0.59 1.68-0.59 3.63-1.79 1.87-0.38 1.87-0.38 4.55 1.23q1.5 1.18 2.96 2.4c9.63 7.49 18.84 10.56 31.04 10.54q1.12 0 2.28 0c5.26-0.07 10.16-0.76 15.29-1.88 12.04-2.61 25.26-3.89 36.2 2.63 6.98 4.75 11.48 12.13 13.29 20.33 1.18 12.19-0.84 22.77-8.71 32.47-9.58 11.04-22.78 16.81-37.22 18.22-22.5 1.58-42.62-4.31-62.56-14.26-0.02-0.76-0.02-0.76-0.03-1.54-0.5-19.5-3.72-37.56-11.85-55.48-2.39 1.15-4.62 2.46-6.88 3.87-10.78 6.46-21.76 8.39-34.15 9.35q-0.92 0.07-1.87 0.15c-37.51 2.96-70.27-1.3-103.97-18.07-7.86-3.88-15.81-7.6-24.43-9.4-1.29-0.28-1.29-0.28-2.61-0.56q-0.93-0.19-1.89-0.38c2.4-2.4 5.29-2.85 8.51-3.76q0.94-0.29 1.92-0.59c4-1.14 6.25-1.38 10.16 0.39z"/>
	<path class="s2" d="m628.85 674.49c5.31 6.71 6.26 12.68 6.12 21.12q0.03 1.42 0.05 2.89c-0.04 7.62-1.7 13.48-7.12 18.98-8.59 6.82-19.29 10.52-29.85 12.97q-0.96 0.23-1.95 0.47c-19.82 4.59-43.92 5.17-63.78 0.32q-0.96-0.23-1.95-0.46c-11.76-2.9-26.64-7.56-34.1-17.83-3.3-5.71-3.37-11.27-3.3-17.74q-0.03-1.48-0.06-3.01c0.02-6.62 1.11-11.23 5.36-16.39 28.9-28.29 101.05-27.65 130.58-1.32z"/>
	<path class="s4" d="m731.89 591.07q0.89 0.16 1.81 0.33c13.49 2.44 30.04 6.13 38.57 17.89 3.53 5.77 3.63 11.24 3.52 17.87q0.01 1.39 0.01 2.83c-0.04 5.95-0.4 10.81-3.9 15.81-11.82 11.32-28.27 14.94-43.97 17.34q-1.3 0.21-2.64 0.42c-2.92 0.37-5.73 0.49-8.66 0.5q-0.8 0.01-1.62 0.01-2.58 0.01-5.15 0.01-0.88 0-1.78 0c-19.97-0.06-46.36-1.33-61.72-15.99-6-6.07-6.67-11.07-6.72-19.52q-0.03-2.39-0.11-4.79c-0.06-6.86 0.78-11.54 5.24-16.87 20.04-19.61 61.44-20.57 87.12-15.84z"/>
	<path class="s5" d="m829.39 500.75c3.74 3.31 5.92 7.06 6.55 12.02 0.14 2.86 0.16 5.7 0.13 8.57q0.03 1.44 0.06 2.93c-0.01 7.08-1.29 11.71-5.96 17.04-7.54 5.75-16.44 9.02-25.48 11.6q-0.79 0.23-1.61 0.47c-10.33 2.77-20.83 3.15-31.45 3.1q-0.94 0-1.9-0.01c-9.13-0.03-17.85-0.43-26.76-2.62q-1.49-0.31-3.03-0.64c-10.12-2.34-23.55-7.24-29.78-16.13-2.57-4.63-2.26-9.07-2.31-14.25q-0.04-2.36-0.11-4.72c-0.05-6.08 0.23-10.3 4.35-14.94q0.78-0.9 1.58-1.84c26.1-23.55 88.9-22.86 115.72-0.58z"/>
	<path class="s6" d="m404.82 513.47q1.29 0.96 2.58 1.93 0.87 0.65 1.77 1.32 2.05 1.54 4.08 3.12c4.45 3.43 8.96 6.53 13.75 9.46 13.72 8.44 24.66 18.52 34.84 30.89-2.76 4.01-6.36 6.45-10.29 9.21q-1.91 1.35-3.81 2.7-0.84 0.59-1.7 1.19-2.42 1.73-4.79 3.53c0.78 0.46 0.78 0.46 1.57 0.93 5.22 3.35 8.81 6.68 11.1 12.53 0.93 4.36 0.12 8.1-2.07 11.95-4.81 6.65-12.89 11.1-20.89 12.6-9.89 0.84-20.15 1.04-29.3-3.17q-1.29-0.58-2.63-1.19c-6.04-3.01-10.86-6.68-15.59-11.48q-0.78-0.78-1.58-1.58c-7.26-7.74-10.89-17.95-10.57-28.52 1.3-11.17 8.67-18.66 16.86-25.63 9.57-8.35 14.37-17.29 16.67-29.79z"/>
	<path class="s7" d="m374.14 104.59q0.98 0.01 2 0.02c12.46 0.24 21.59 5.09 31.06 12.9q1.17 0.85 2.38 1.73c3.83 3.19 6.61 7.7 9.5 11.73-1.2 3-2.92 4.43-5.45 6.39-24.32 19.46-39.31 45.4-49.98 74.39-8.17-0.82-13.34-5.51-19.01-11.09q-0.86-0.84-1.75-1.71c-12.35-12.97-14.62-30.97-14.33-48.08 0.5-13.66 6.22-25.52 16.08-34.94 8.3-7.48 18.4-11.42 29.5-11.34z"/>
	<path class="s8" d="m581.42 257.68c8.25 6.44 13.73 14.76 15.05 25.34 0.98 15.25-3.16 29.43-12.97 41.2-8.11 9.18-17.99 15.55-29.8 18.99q-0.88 0.26-1.79 0.53c-6.65 1.66-13.59 1.25-20.38 1.05q-1.04-0.02-2.11-0.04c-9.09-0.58-17.59-5-24.81-10.26q-0.78-0.55-1.58-1.13c-8.2-6.43-12.66-16.44-14.26-26.58-1.06-13.82 3.48-24.81 12.33-35.23 4.39-4.55 9.14-7.9 15.38-9.12q0.18 0.66 0.36 1.34c3.12 10.62 10.94 16.76 20.32 22.02 4.92 2.56 9.44 3.86 14.96 4.36 0.35 6.76 0.26 15.18-4.35 20.48-3.44 2.93-6.04 2.75-10.46 2.7-7.09-0.59-13.03-3.52-17.66-8.93-1.5-2.3-2.79-4.64-3.96-7.13q-2.37-0.05-4.75 0c-1.21 1.22-1.01 2.33-1.09 4.01 0.07 4.94 2.19 8.02 5.48 11.56 7.66 7.12 16.81 9.33 27.01 9.19 4.45-0.35 7.63-1.68 11.36-4.17q2.65-0.22 5.3-0.29c6.82-0.43 10.59-1.77 15.2-6.83 3.11-3.71 4.28-6.18 4.05-11.09-1.8-0.53-1.8-0.53-3.96 0-1.13 1.48-1.99 3.04-2.9 4.66-1.82 2.89-4.34 4.9-7.39 6.43q-1.83 0.08-3.66 0.05-0.97-0.01-1.96-0.03-0.74-0.01-1.51-0.02c-1.08-4.12-0.35-7.52 0.4-11.65 0.34-2.24 0.38-4.22 0.34-6.47 0.17-1.7 0.17-1.7 0.85-3.27 2.02-1.65 4.12-2.88 6.4-4.17 7.75-4.59 12.83-12.78 15.77-21.17 0.35-1.74 0.35-1.74 0.49-3.41 0.15-1.45 0.15-1.45 0.3-2.92z"/>
	<path class="s9" d="m486.94 208.18c8.6 6.72 13.79 15.92 16.08 26.53 1.13 15.05-0.36 27.07-10.2 39.03-5.92 6.4-13.75 9.94-22.46 10.32-7.87-0.23-14.23-2.58-20.4-7.38q-1.22-0.85-2.47-1.73c-6.85-5.95-11.24-16.32-11.9-25.29-0.69-14.24 1.55-25.91 10.99-37.16 11.2-11.9 26.86-13.38 40.36-4.32z"/>
	<path class="s10" d="m493.52 819.15c1.97 1.82 3.57 3.7 5.1 5.89 8.19 10.99 18.73 18.34 30.54 24.99q0 0.39 0 0.79-1.27 0.32-2.58 0.64-1.66 0.42-3.31 0.85c-0.84 0.2-0.84 0.2-1.7 0.41q-2.16 0.58-4.29 1.27c-0.4 0.78-0.4 0.78-0.8 1.58q-2.12 0.96-4.3 1.79c-9.3 3.78-19.16 9.16-23.52 18.69-1.49 5.43-1.41 11.14-1.48 16.74-4.44-1.23-8.11-3.37-12.02-5.74-1.04-0.62-1.04-0.62-2.09-1.26-9.86-6.05-19.39-12.82-27.82-20.77-1.53-1.44-3.12-2.77-4.74-4.1-8.58-7.54-16.97-18.16-20.64-29.1q0-1.17 0-2.38 1.27 0.02 2.58 0.04c19.99 0.26 37.92-0.22 57.15-6.13 3.04-0.92 6.02-1.41 9.17-1.83 2.64-1.15 2.64-1.15 4.75-2.37z"/>
	<path class="s11" d="m612.16 82.12c9.2 6.28 15.84 15.69 18.36 26.68 0.95 5.06 0.97 10 0.99 15.14q0.02 1.38 0.05 2.79c0.04 8.49-1.43 16.02-5.3 23.59-0.67 1.35-0.67 1.35-1.35 2.72-1.56 2.56-3.28 4.42-5.48 6.44q-0.47-0.7-0.96-1.42c-16.79-24.48-40.35-40.8-68.73-49.26 2.98-11.71 11.3-20.71 21.24-27.17 13.48-7.53 27.99-7.47 41.18 0.49z"/>
	<path class="s10" d="m638.44 895.96c3.74 0.5 7.14 1.53 10.68 2.82q1.77 0.63 3.54 1.26 0.93 0.33 1.88 0.68 16.52 5.95 33.25 11.33 0.88 0.28 1.79 0.57 4.92 1.58 9.84 3.14 0 1.17 0 2.37-1.05 0.25-2.13 0.5c-13.89 3.46-27.17 8.1-36.41 19.65-1.06 1.24-1.06 1.24-2.64 2.03-1.9 3.46-1.79 6.91-1.74 10.75 0 0.97 0 0.97 0.01 1.96q0.01 3.07 0.04 6.15 0.02 2.09 0.03 4.18 0.02 5.11 0.07 10.22c-3.79-1.21-7.16-2.79-10.64-4.7-24.6-13.23-50.58-24.46-76.47-34.9 2.39-2.05 4.04-2.71 7.16-3.01q1.17-0.13 2.36-0.25c1.24-0.13 1.24-0.13 2.51-0.25 18.77-2.12 40.08-6.8 53.7-21.04 2.5-4.32 2.88-8.57 3.17-13.46z"/>
	<path class="s12" d="m575.91 248.33c2.83 2.6 5.05 5.43 5.51 9.35q0.2 1.31 0.4 2.67c-0.13 7.84-6.07 15.59-11.27 20.99-6.33 5.91-6.33 5.91-9.84 6.92-1.82 1.11-1.82 1.11-2.09 4.15q-0.18 1.88-0.31 3.78-0.17 1.87-0.33 3.74-0.08 0.91-0.15 1.85c-0.25 2.73-0.6 5.44-0.96 8.16 3.71 0.3 6.38 0.39 9.75-1.33 2.79-2.4 4.76-4.74 6.44-8.02 0.61-0.86 0.61-0.86 1.23-1.73 2.08-0.3 2.08-0.3 3.96 0 0.8 0.79 0.8 0.79 1.09 2.82-0.64 5.91-4.63 9.7-8.96 13.46-3.6 2.52-6.69 2.9-11.03 3.02-4.74 0.27-7.33 0.98-11.19 3.66-7.86 2.68-17.16 0.85-24.55-2.37-5.93-3.32-11.6-7.82-14.25-14.26-0.21-1.81-0.21-1.81-0.2-3.66q-0.01-0.92-0.01-1.86c0.21-1.6 0.21-1.6 1.79-3.19 2.23-0.49 2.23-0.49 4.75 0 1.63 1.93 2.74 4.14 3.96 6.34 2.95 4.14 5.72 6.02 10.3 7.92q1.07 0.48 2.17 0.99c4.41 1.01 9.42 1.37 13.81 0.08 3.23-2.41 3.93-5.96 4.57-9.75q0.3-2.15 0.58-4.29 0.15-1.1 0.31-2.23 0.38-2.69 0.73-5.39c-1.45 0.04-1.45 0.04-2.93 0.07-9.88-0.01-19.3-7.55-26.18-14.02-3.8-4.05-6.72-8.15-7.12-13.82 0.32-4.56 2.28-7.73 5.35-11.04 14.41-12.5 39.35-14.89 54.67-3.01z"/>
	<path class="s13" d="m657.45 945.06q0.39 0 0.79 0 0.01 1 0.03 2.03c0.25 5.92 0.77 10.08 4.72 14.6q0.56 0.67 1.14 1.36c14.38 14.65 43.37 19.25 62.77 19.44q3.12 0.01 6.24 0 3.14-0.01 6.29 0.01c12.63 0.01 24.76-0.9 36.95-4.38q1.31-0.36 2.66-0.74c9.51-2.71 18.54-5.67 26.49-11.73q1.1-0.78 2.23-1.58c5-4.57 5.69-9.38 6.48-15.84q0.39 0 0.8 0 0.08 5.09 0.13 10.18 0.01 1.73 0.05 3.46 0.04 2.5 0.05 4.99c0.02 1.5 0.02 1.5 0.04 3.03-0.57 6.05-3.65 11.49-8.29 15.39-15.33 11.17-34.41 15.47-52.96 17.59-1.14 0.13-1.14 0.13-2.31 0.27-28.38 2.73-63.67-0.18-86.96-18.61-5.04-4.66-7.79-9.41-8.4-16.34-0.09-2.79-0.08-5.58-0.02-8.38q0.05-2.63 0.06-5.27c0.08-8.55 0.08-8.55 1.02-9.48z"/>
	<path class="s14" d="m603.32 189.32c9.85 5.54 14.82 15.44 18.29 25.78 3.14 11.59 1.13 24.14-4.56 34.51-2.95 4.73-6.91 8.38-12.29 10.1-6.59 1.16-13.51 1.39-19.38-2.03q-1.31-0.64-2.67-1.29c-3.42-1.97-5.04-4.62-6.93-8.02q-0.5-0.88-1.02-1.79c-6.72-12.28-8.52-24.03-5.19-37.8 2.48-8.34 7.16-15.69 14.87-20.05 6.4-2.82 12.59-2.26 18.88 0.59z"/>
	<path class="s15" d="m492.73 694.02c0.04 1.5 0.04 1.5 0.09 3.04q0.07 1.97 0.15 3.94 0.03 0.99 0.06 2 0.04 0.95 0.08 1.93 0.03 0.87 0.07 1.77c0.42 1.97 1.21 2.65 2.71 3.95 1.03 1.37 1.99 2.78 2.95 4.19 3.44 4.62 8.03 7.42 13.14 9.87q0.76 0.37 1.55 0.76 1.87 0.91 3.75 1.81 0 0.78 0 1.59-1.65 1.34-3.37 2.57c-9.96 7.82-16.43 17.86-21.97 29.1q-0.77-0.35-1.55-0.72c-10.56-4.7-21.85-7.4-33.3-8.78q0-0.39 0-0.79c-3.61-0.69-7.09-0.94-10.76-1.04-0.83-0.03-0.83-0.03-1.68-0.05q-2.64-0.08-5.28-0.15-1.8-0.05-3.6-0.1-4.38-0.13-8.77-0.25c2.2-4.8 4.78-8.67 8.16-12.72 0.65-0.79 0.65-0.79 1.31-1.6 4.43-5.39 9.2-10.18 14.73-14.43q0.71-0.55 1.45-1.12 2.21-1.7 4.44-3.39 0.66-0.5 1.35-1.02c7.84-5.93 16.21-10.82 24.78-15.61q0.75-0.41 1.51-0.84c6.99-3.91 6.99-3.91 8-3.91z"/>
	<path class="s16" d="m633.69 871.41c2.94 2.54 3.85 5.15 4.2 8.99q0.08 4.02 0.09 8.04 0.03 2.57 0.09 5.14c0.09 7.33-0.71 13.38-5.82 19.01-18.44 17.81-50.31 20.22-74.34 20.13-21.81-0.41-48.92-4.49-65.02-20.78-3.42-3.77-5.13-7.05-5.07-12.26q0.01-1.15 0.02-2.34 0.02-1.19 0.04-2.42 0.01-1.21 0.02-2.46 0.03-3 0.08-6c1.65 2.05 3.26 4.09 4.8 6.23 2.96 3.56 7.09 5.71 11.03 8.02q1.29 0.79 2.62 1.6c3.13 1.78 6.39 2.9 9.81 4 0.86 0.28 0.86 0.28 1.74 0.58 24.65 8.07 50.84 8.51 76.11 3.33q0.94-0.19 1.9-0.39c13.54-2.84 29.72-8.04 38.25-19.67 2.73-5.62 1.26-12.98-0.55-18.75z"/>
	<path class="s17" d="m507.77 777.17q0.39 0 0.8 0 0.17 5.56 0.26 11.12 0.03 1.88 0.09 3.77c0.41 12.73 0.41 12.73-3.81 17.86-16.92 17.02-45.02 20.49-67.82 20.56-11.86 0.03-23.23-0.77-34.84-3.42q-0.95-0.21-1.93-0.43c-11.85-2.81-26-8.02-33.48-18.1-2.66-4.41-2.24-8.94-2.06-13.93q0.03-1.37 0.06-2.78 0.07-3.36 0.19-6.73 0.34 0.73 0.7 1.47c5.55 10.7 17.01 15.46 27.81 19.12 21.29 6.6 46.15 8.11 68.1 3.96q1.36-0.24 2.77-0.49c14.28-2.8 31.41-7.29 40.79-19.31 1.86-2.78 1.88-4.36 2.08-7.67q0.08-1.39 0.18-2.83c0.05-1.07 0.05-1.07 0.11-2.17z"/>
	<path class="s13" d="m494.31 691.65q2.14 2.84 4.21 5.74c11.49 13.22 34.79 16.64 51.22 18.01 4.7 0.27 9.41 0.27 14.11 0.25q0.93 0 1.89 0c8.79-0.03 17.35-0.32 25.96-2.26q2.5-0.55 5.01-1.03c11.58-2.36 26.14-6.39 33.61-16.19 0.92-1.47 1.76-2.99 2.58-4.52q0.39 0 0.79 0 0.16 4.15 0.25 8.31c0.05 1.17 0.05 1.17 0.1 2.36 0.1 6.18-1.37 9.8-5.47 14.37-7.63 7.75-20.21 11.37-30.52 13.76q-0.96 0.23-1.95 0.47c-19.82 4.59-43.92 5.17-63.78 0.32q-0.96-0.23-1.95-0.46c-12.6-3.11-26.64-8.01-34.81-18.67-1.97-3.81-1.59-7.92-1.45-12.1q0.02-1.2 0.05-2.44 0.05-2.96 0.15-5.92z"/>
	<path class="s13" d="m640.02 621.17c1.59 2.37 1.59 2.37 2.77 4.95 2.32 4.03 6 6.16 9.9 8.51q1.01 0.61 2.05 1.24c23.24 12.76 54.95 13.58 80.31 8.26q0.99-0.2 2.01-0.41c11.35-2.4 25.56-5.64 33.63-14.63 1.58-2.55 2.84-5.14 3.96-7.92q0.39 0 0.79 0 0.1 3.96 0.15 7.92 0.03 1.1 0.06 2.24c0.06 5.49-0.52 9.85-3.75 14.47-11.82 11.32-28.27 14.94-43.97 17.34q-1.3 0.21-2.64 0.42c-2.92 0.37-5.73 0.49-8.66 0.5q-0.8 0.01-1.62 0.01-2.58 0.01-5.15 0.01-0.88 0-1.78 0c-19.97-0.06-46.36-1.33-61.72-15.99-3.38-3.42-6.08-6.57-6.52-11.55q0.02-1.06 0.03-2.15 0.01-1.15 0.01-2.34 0.02-1.19 0.04-2.42 0.01-1.21 0.03-2.46 0.02-3 0.07-6z"/>
	<path class="s18" d="m405.62 344.79q1.94 0.77 3.89 1.52c1.11 0.43 1.11 0.43 2.23 0.87 14.62 5.66 29.44 9.7 44.86 12.51 1.26 0.23 1.26 0.23 2.56 0.46 13.87 2.39 27.67 3.16 41.73 3.1q1.17 0 2.37 0c11.41-0.04 22.6-0.28 33.81-2.62 1.18-0.25 1.18-0.25 2.39-0.49 10.45-2.21 20.62-5.1 30.71-8.61q0.88-0.3 1.78-0.61c1.69-0.61 1.69-0.61 3.75-1.71 1.76-0.46 1.76-0.46 3.71 0.6q0.92 0.79 1.86 1.61 0.94 0.79 1.9 1.6c0.7 0.63 0.7 0.63 1.42 1.27-1.97 0.99-2.7 0.62-4.75 0q0-1.17 0-2.37c-4.04 0.45-7.46 1.36-11.29 2.82-5.09 1.93-5.09 1.93-7.72 1.93 0.5 3.06 1.42 5.6 2.72 8.41q0.51 1.11 1.04 2.26c1 2.11 1 2.11 2.58 4.37q0.44 1.98 0.79 3.96 0.59 2.11 1.24 4.21 0.31 1.04 0.64 2.12c0.25 0.79 0.25 0.79 0.49 1.59-0.78 0.79-0.78 0.79-1.58 1.59q-0.23-0.68-0.47-1.37-1.07-3.1-2.15-6.21-0.37-1.05-0.74-2.14c-1.38-3.97-2.85-7.83-4.56-11.67-2.39 1.15-4.62 2.46-6.88 3.87-10.78 6.46-21.76 8.39-34.15 9.35q-0.92 0.07-1.87 0.15c-37.51 2.96-70.27-1.3-103.97-18.07-7.86-3.88-15.81-7.6-24.43-9.4-1.29-0.28-1.29-0.28-2.61-0.56q-0.93-0.19-1.89-0.38c2.4-2.4 5.29-2.85 8.51-3.76q0.94-0.29 1.92-0.59c4-1.14 6.25-1.38 10.16 0.39z"/>
	<path class="s19" d="m566.38 534.85c4.83 2.53 7.21 6.18 9.5 11.08 0.52 1.94 0.7 3.53 0.79 5.55 0.76-0.2 0.76-0.2 1.53-0.4 4.29-0.7 8.53-0.8 12.72 0.4-1.01 8.05-5.95 14.54-11.08 20.59q-0.81 0.95-1.63 1.92c-14.97 17.13-41.78 38.22-65.53 40.24-1.64 0.01-3.27-0.08-4.91-0.19-0.94-5.96 2.16-10.35 5.55-15.05 4.57-5.88 9.56-11.57 15.04-16.63q0.66-0.6 1.33-1.22c6.37-5.72 13.16-11.12 20.05-16.2-0.43-3.33-1.52-5.29-3.51-7.97-1.7-2.3-3.21-4.48-4.4-7.08 1.41-0.53 1.41-0.53 3.16-0.79 1.36 0.89 1.36 0.89 2.68 2.28q0.64 0.65 1.3 1.33c2.33 2.87 4.31 5.97 6.32 9.06q3.71-2.12 7.42-4.25 1.05-0.6 2.14-1.22c1.01-0.58 1.01-0.58 2.04-1.18 0.93-0.53 0.93-0.53 1.88-1.08 1.66-0.96 1.66-0.96 3.15-2.56q-0.71-2.08-1.44-4.16-0.39-1.15-0.8-2.34c-0.83-2.22-0.83-2.22-2.22-3.92-1.53-2.06-1.26-3.71-1.08-6.21z"/>
	<path class="s20" d="m292.37 475.45c1.9 1.27 3.72 2.59 5.55 3.96q-0.81 0.61-1.64 1.24c-8.99 7.47-13.65 15.95-16.58 27.27q-0.21 0.73-0.42 1.49c-0.72 3.29-0.52 6.69-0.52 10.05q0 1.16 0 2.36c0.04 5.27 0.37 10.3 1.73 15.4-11.04-1.74-22.34-11.42-29.3-19.79-6.09-8.88-9.16-16.86-7.92-27.72 2.18-8.15 6.39-14.06 13.52-18.51 12.37-6.85 24.1-2.89 35.58 4.25z"/>
	<path class="s21" d="m713.67 501.59c0 3.17-1.39 4.55-3.17 7.13-1.07 3.22-1.2 6.13-0.79 9.5 4.49 8.97 14.91 12.84 23.89 15.94 12.01 3.69 24.04 4.93 36.54 4.9q2.88 0 5.77 0.03c12.26 0.06 23.9-1.6 35.51-5.63q1.21-0.41 2.45-0.83c7.71-2.72 15.51-5.87 19.38-13.62q0.09-3.02 0.05-6.04c-0.01-0.84-0.01-0.84-0.01-1.69q-0.02-2.08-0.04-4.15c3.66 4.01 2.78 8.86 2.77 14.01q0.04 1.47 0.07 2.98c0.01 7.16-1.19 11.79-5.92 17.19-7.54 5.75-16.44 9.02-25.48 11.6q-0.79 0.23-1.61 0.47c-10.33 2.77-20.83 3.15-31.45 3.1q-0.94 0-1.9-0.01c-9.13-0.03-17.85-0.43-26.76-2.62q-1.49-0.31-3.03-0.64c-10.12-2.34-23.55-7.24-29.78-16.13-2.57-4.63-2.26-9.07-2.31-14.25q-0.04-2.36-0.11-4.72c-0.05-6.03 0.23-10.34 4.35-14.94q0.78-0.78 1.58-1.58z"/>
	<path class="s22" d="m383.44 130.18c8.32 4.34 13.62 9.68 17.43 18.21q-0.59 0.61-1.2 1.24c-8.5 9.06-15.57 19.3-21.64 30.13-1.44 2.54-2.79 4.63-4.88 6.65q-1.21 1.56-2.38 3.16c-10.42-7.46-18.87-15.42-21.38-28.51-0.93-8.59-0.46-16.87 4.54-24.17 3.45-4.25 6.92-6.58 12.09-8.29 5.87-1.96 11.83-0.78 17.42 1.58z"/>
	<path class="s23" d="m807.91 553.06c1.26 17.72-6.55 32.75-17.9 45.99-4.35 4.95-8.97 9.85-14.57 13.41q-1.17 0-2.38 0-1.1-1.67-2.17-3.35c-5.97-8.42-17.45-12.48-27.13-14.87 1-2.98 1.88-3.2 4.56-4.75 13.31-8.22 21.35-18.39 27.91-32.47-3.4 0-6.79 0-10.29 0q0-0.39 0-0.79 0.8-0.02 1.63-0.05c17.01-0.31 17.01-0.31 33.71-3.27 2.7-0.65 3.99-0.48 6.63 0.15z"/>
	<path class="s24" d="m345.43 485.75q-0.24 0.84-0.49 1.71-0.32 1.13-0.65 2.3-0.31 1.11-0.64 2.25c-3.91 16.04-0.58 30.42 6.22 45.08 1.1 2.51 1.1 2.51 1.1 4.09q-2.96 0.78-5.93 1.54-0.83 0.21-1.68 0.44c-6.88 1.75-13.42 2.09-20.5 2.03q-1.2 0-2.43-0.01-2.94-0.01-5.88-0.04c-7.64-13.48-7.86-27.99-3.96-42.76 0.83-2.79 1.87-5.31 3.16-7.92q0.45-1.1 0.91-2.24c1.32-2.59 2.25-3.99 4.64-5.68 4.34-0.88 8.77-0.38 13.15-0.06 2.53 0.08 4.94-0.21 7.44-0.54 1.86-0.22 3.67-0.25 5.54-0.19z"/>
	<path class="s25" d="m298.36 480.26c2.35 0.64 4.52 1.4 6.78 2.27 4.64 1.76 9.26 2.57 14.16 3.22-0.48 2.59-1.37 4.07-2.97 6.14-2.32 3.37-3.61 6.71-4.8 10.59q-0.25 0.79-0.5 1.6c-4.06 13.84-2.39 28.07 3.52 41.06-11.91 0.97-23.9-2.77-34.85-7.12-3.87-16.4-2.46-33.04 6.34-47.52 7.98-10.35 7.98-10.35 12.32-10.24z"/>
	<path class="s26" d="m639.23 633.84q0.19 2.36 0.39 4.71c0.5 2 1.26 2.64 2.78 4q0.55 0.7 1.11 1.42c5.26 6.69 12.42 10.02 20.27 12.83 0.39 0.79 0.39 0.79 0.79 1.59q2.35 0.86 4.75 1.58c-2.08 2.5-4.51 3.46-7.47 4.72q-0.75 0.32-1.52 0.65-2.4 1.04-4.82 2.05-1.58 0.68-3.16 1.36-3.09 1.33-6.2 2.63-2.88 1.22-5.74 2.5c-1.26 0.55-1.26 0.55-2.54 1.12q-1.1 0.49-2.23 1c-2.2 0.68-3.03 0.74-5.12-0.19-1.55-1.33-1.55-1.33-3.2-2.98-3.94-3.62-7.94-5.38-12.94-7.17-1.14-0.43-1.14-0.43-2.31-0.88-9.52-3.57-18.54-5.31-28.65-6.25q-1.27-0.13-2.57-0.27-1.14-0.1-2.32-0.22c-1.86-0.45-1.86-0.45-3.44-2.82q12.18-4.98 24.59-9.36 0.86-0.3 1.73-0.61 12.87-4.54 25.94-8.44 0.77-0.23 1.56-0.47c8.4-2.5 8.4-2.5 10.32-2.5z"/>
	<path class="s27" d="m484.21 225.16c5.67 4.25 10.3 9.61 11.68 16.68 0.79 8.07 1.18 16.62-3.16 23.76q-0.64 1.09-1.29 2.22c-4.21 3.89-8.81 5.93-14.55 6.24-5.84-0.28-10.09-2.64-14.13-6.8-5.91-7.34-6.56-15.29-5.9-24.41 0.87-6.65 4.66-11.66 9.71-15.81 5.35-3.45 11.61-3.62 17.64-1.88z"/>
	<path class="s0" d="m367.6 477.83q-0.02 0.8-0.05 1.62c-0.39 14.75-0.65 31.05 10.18 42.66 1.38 1.21 1.38 1.21 3.34 2.44-1.17 3.58-3.96 4.85-7.08 6.54q-0.82 0.45-1.66 0.92c-6.63 3.57-13.58 6.39-20.56 9.17-7.66-7.65-10.47-23.2-10.6-33.55 0.04-6.51 1.03-12.41 2.68-18.71q0.41-1.98 0.79-3.96 1.11-0.28 2.26-0.56c6.01-1.51 11.64-3.27 17.31-5.81 1.81-0.76 1.81-0.76 3.39-0.76z"/>
	<path class="s28" d="m575.91 248.33c2.83 2.6 5.05 5.43 5.51 9.35q0.03 3.17 0 6.33c-1.11 0.11-1.11 0.11-2.24 0.21-6.17 0.64-12.02 1.69-18 3.36-12.62 3.47-25.23 4.35-38.27 3.3q-0.85-0.06-1.72-0.13c-1.92-0.5-2.67-1.26-3.91-2.78-1.5-3-1.27-6.24-0.8-9.5 3.12-7.47 9.51-10.93 16.59-14.06 13.84-5.42 30.66-5.52 42.84 3.92z"/>
	<path class="s29" d="m594.88 207.79c6.39 2.64 10.41 7.63 13.42 13.76 2.81 7.35 2.99 16.52 0.44 24-2.06 4.28-5.66 7.63-9.9 9.75-6.08 0.69-10.96 0.61-15.89-3.25-5.76-5.65-8.71-12.43-8.95-20.46 0.21-7.14 2.19-13.4 6.63-19.05 4.45-4.13 8.24-5.55 14.25-4.75z"/>
	<path class="s30" d="m645.02 459.42c21.11 0.3 42.33 7.49 62.32 13.66q1.06 0.33 2.16 0.67c8.08 2.51 15.97 5.36 23.77 8.63q1.08 0.45 2.19 0.91 0.99 0.42 2.01 0.86c0.88 0.38 0.88 0.38 1.77 0.76 1.36 0.84 1.36 0.84 2.15 3.22q-0.78 0-1.59 0 0 0.78 0 1.58c-6.65 1.52-6.65 1.52-9.45 1.88-2.36 0.48-4.15 1.24-6.33 2.23-2.72 1.1-3.85 1.45-6.83 1.14-2.22-1.05-3.95-2.09-5.93-3.49-17.54-11.79-39.96-17.7-60.24-22.88-4.26-1.12-7.51-2.29-11-5.01 0.83-3.67 1.22-4.09 5-4.16z"/>
	<path class="s31" d="m384.23 467.54c0.12 1.12 0.12 1.12 0.24 2.26 1.48 12.72 5.37 25.46 14.04 35.23 0.77 1.31 0.77 1.31 0.7 2.8-2.88 6.7-9.96 13.91-16.56 17.07q-0.78 0.22-1.58 0.45c-7.39-4.93-11.13-13.93-13.47-22.28-1.44-7.36-2.73-18.86 0-26.03 1.21-0.98 1.21-0.98 2.74-1.79q0.83-0.45 1.68-0.91 0.87-0.45 1.77-0.91 1.72-0.92 3.43-1.84 0.8-0.43 1.62-0.87c1.62-0.92 3.56-3.18 5.39-3.18z"/>
	<path class="s32" d="m607.55 100.88c4.77 3.08 6.17 6.58 7.92 11.88 0.4 1.17 0.4 1.17 0.8 2.37 1.1 10.03-2.18 19.89-7.13 28.51-2.44-1.07-3.92-2.23-5.69-4.2-7.69-7.88-17.08-14.41-26.78-19.55 2.95-8.77 8.01-16.19 16.14-20.89 5.38-1.28 9.85-0.8 14.74 1.88z"/>
	<path class="s33" d="m558.46 289.35c0.25 6.95-0.7 13.72-1.59 20.59 3.71 0.3 6.38 0.39 9.75-1.33 2.79-2.4 4.76-4.74 6.44-8.02q0.61-0.85 1.23-1.73c2.08-0.3 2.08-0.3 3.96 0 0.8 0.79 0.8 0.79 1.09 2.82-0.64 5.91-4.63 9.7-8.96 13.46-3.6 2.52-6.69 2.9-11.03 3.02-4.74 0.27-7.33 0.98-11.19 3.66-7.86 2.68-17.16 0.85-24.55-2.37-5.93-3.32-11.6-7.82-14.25-14.26-0.21-1.81-0.21-1.81-0.2-3.66q-0.01-0.92-0.01-1.86c0.21-1.6 0.21-1.6 1.79-3.19 2.23-0.49 2.23-0.49 4.75 0 1.63 1.93 2.74 4.14 3.96 6.34 2.95 4.14 5.72 6.02 10.3 7.92q1.07 0.48 2.17 0.99c4.41 1.01 9.42 1.37 13.81 0.08 3.23-2.41 3.93-5.96 4.57-9.75q0.3-2.15 0.58-4.29 0.15-1.1 0.31-2.23 0.38-2.69 0.73-5.39c5.45-0.8 5.45-0.8 6.34-0.8z"/>
	<path class="s34" d="m500.27 118.11c1.55 0.75 2.93 1.57 4.34 2.57q1.09 0.75 2.22 1.53c3.15 2.97 4.26 5.19 4.46 9.5-0.12 3.74-0.96 5.93-3.52 8.77-3.89 2.45-8.23 2.1-12.67 1.58-5.52-1.73-9.42-4.74-12.67-9.5-1.47-2.95-1.24-6.3-0.79-9.51 3.7-6.91 11.72-7.01 18.63-4.94z"/>
	<path class="s35" d="m517.49 425.9c2.38 2.18 3.59 4.26 4.12 7.45 0.06 5.54-0.44 9.47-4.33 13.6-3.61 3.29-7.45 3.66-12.21 3.47-4.01-0.6-6.02-2.63-8.68-5.5-2.05-4.34-2.08-8.98-0.6-13.55 1.19-2.45 2.87-3.97 4.86-5.81q0.78-0.78 1.58-1.58c5.64-1.82 10.33-1.28 15.26 1.92z"/>
	<path class="s36" d="m459.07 135.48c0.98 0.9 0.98 0.9 1.98 1.83q0.93 0.83 1.88 1.68c1.91 3.38 1.89 6.41 1.29 10.2-2.21 4.5-5.64 7.66-10.2 9.75-4.7 1.03-7.98 1.28-12.17-1.14-2.83-2-4.72-3.81-6.14-7.03-0.33-4.75 0.88-8.22 3.96-11.88 5.38-5.2 12.46-6.76 19.4-3.41z"/>
	<path class="s37" d="m461.05 560.98c2.59 1.1 3.89 2.24 5.51 4.52 0.63 0.89 0.63 0.89 1.28 1.79q0.65 0.94 1.33 1.91 0.67 0.95 1.37 1.93 5.3 7.49 10.31 15.19c-0.39 0.79-0.39 0.79-0.79 1.59q-0.39-0.39-0.8-0.8-2.81-0.1-5.62-0.07-0.83 0-1.7 0-2.7 0.01-5.4 0.03-1.82 0-3.65 0.01-4.48 0.01-8.97 0.03-0.39 1.17-0.79 2.38-0.47-0.77-0.96-1.57c-3.27-5.02-6.48-8.18-11.71-11.1 1.61-1.7 3.24-3.05 5.19-4.35q0.8-0.54 1.63-1.1 1.67-1.12 3.35-2.24c3.7-2.5 7.08-5.19 10.42-8.15z"/>
	<path class="s38" d="m541.83 117.51c6.38 2.49 10.77 5.05 14.32 10.93 1.47 3.55 1.15 7.49 0.72 11.24-1.43 2.44-2.26 3.51-4.75 4.75-3.75 0.42-6.95 0.42-10.44-1.08-3.17-2.96-5.46-6.36-7.77-10q-0.66-0.98-1.33-1.98c-1.72-3.25-1.76-6.33-1.05-9.9 2.44-3.89 5.97-4.73 10.3-3.96z"/>
	<path class="s36" d="m431.75 431.9c3.27 2 5.69 4.33 7.13 7.92 0.65 4.62 0.09 8.66-2.38 12.67-2.97 2.75-5.94 4.2-10 4.4-3.46-0.2-5.56-1.33-8.21-3.61-3.14-3.56-3.45-6.88-3.39-11.48 0.44-3.9 2.61-6.03 5.42-8.56 3.75-2.6 7.14-2.51 11.43-1.34z"/>
	<path class="s24" d="m469.76 388.34c3.85 1.65 5.72 3.96 7.36 7.7 1.03 3.31 1.3 6.33 0.56 9.73-1.65 2.98-3.73 4.92-6.63 6.68-4.12 0.88-7.59 1.1-11.39-0.79-2.88-1.91-4.72-4.16-5.74-7.48-0.61-3.95-0.98-7.74 1.02-11.32 4.28-5.09 8.36-5.1 14.82-4.52z"/>
	<path class="s39" d="m466.99 462.54c11.56 0.39 23.8 7.62 32.07 15.29q0.57 0.52 1.15 1.06c6.48 6.06 13.21 12.62 16.27 21.11q-1.02-0.9-2.07-1.83-1.73-1.46-3.47-2.92-1.19-1-2.42-2.03c-12.44-10.24-26.08-16.04-41.8-19.48-2.23-0.86-3.39-1.96-4.88-3.83 0.16-4.43 0.33-6.94 5.15-7.37z"/>
	<path class="s40" d="m423.04 397.06c-1.91 12.77-18.07 27.55-27.82 35.2q-3.08 2.25-6.23 4.39c-0.88-2.62-0.7-4.25 0.06-6.89q0.3-1.06 0.61-2.16 0.33-1.1 0.66-2.23 0.31-1.09 0.62-2.2c3.31-11.41 3.31-11.41 7.81-14.41q1.54-0.71 3.11-1.36 1.69-0.77 3.38-1.56c0.87-0.39 0.87-0.39 1.76-0.8 3.59-1.72 7.01-3.77 10.45-5.77 3.85-2.21 3.85-2.21 5.59-2.21z"/>
	<path class="s41" d="m387.4 366.96c3.45 1.72 5.96 3.8 7.92 7.13 0.49 3.87 0.44 5.5-1.38 8.96-2.29 2.72-3.96 4.17-7.33 5.29-5.23 0.26-8.42 0.09-12.47-3.51-2.48-2.83-2.94-5.3-2.91-9.05 0.61-3.12 2.72-5.22 5.09-7.23 3.51-2.18 7.07-2.1 11.08-1.59z"/>
	<path class="s19" d="m419.87 286.19c3.77 1.3 6.84 3.6 8.71 7.12 0.48 3 0.53 5.73 0 8.72-2.02 2.74-4.02 4.23-7.13 5.54-3.88 0.55-7.03 0.42-10.59-1.29-3.34-3.02-5.4-5.57-5.74-10.14 0.15-3.65 1.58-5.54 4.05-8.12 3.07-2.67 6.84-2.25 10.7-1.83z"/>
	<path class="s42" d="m419.08 177.7c3.41 1.77 5.75 3.48 7.13 7.12 0.41 3.55-0.13 6.14-2.13 9.12-3.67 4.31-6.35 6.43-12.08 7.07-3.76-0.08-5.39-1.67-7.97-4.31-1.26-2.53-1.07-5.16-0.79-7.92 1.68-4.49 4.45-7.27 8.22-10.14 2.77-1.26 4.61-1.32 7.62-0.94z"/>
	<path class="s34" d="m499.06 511.88c3.27 1.49 4.45 2.64 6.24 5.74 1.23 4.1 1.7 7.42-0.05 11.49-3.78 4.68-3.78 4.68-7.45 5.28-3.7 0.18-5.93 0.17-9.03-1.97-3.08-4.51-4.47-7.93-3.63-13.35 1.95-6.97 7.65-7.96 13.92-7.19z"/>
	<path class="s35" d="m548.16 392.3c3.68 2.22 5.46 4.43 6.75 8.52 0.91 4.33 1.36 8.66-1.11 12.52-1.84 2.11-2.45 2.63-5.18 2.94-6.22 0.22-6.22 0.22-9.22-2.05-3.39-4.7-4.41-8.16-3.91-14.01 2.4-6.05 5.97-9.26 12.67-7.92z"/>
	<path class="s35" d="m397.75 239.07c4.52 0.02 6.62 1.32 9.8 4.42 2.48 3.05 3.14 5.42 3.01 9.42-0.31 2.56-1.09 4.24-2.57 6.35-3.42 2.34-6.19 2.89-10.29 2.38-3.53-1.83-6.99-4.24-8.71-7.92-0.62-3.66-1.09-7.66 0.87-10.97 1.06-1.06 1.06-1.06 3.09-2.49 1.34-1.35 2.95-1.09 4.8-1.19z"/>
	<path class="s19" d="m345.43 393.1c2.42 1.38 4.28 3 5.54 5.54 0.42 4.21 0.53 7.66-1.38 11.48-3.31 3.68-5.42 4.76-10.35 5.15-2.96 0-4.82-0.87-7.07-2.72-2.46-3.07-2.13-7.02-1.79-10.74 2.51-6.35 8.25-10.4 15.05-8.71z"/>
	<path class="s43" d="m453.13 495.25c3.27 1.42 5.41 3.21 7.13 6.34 0.58 4.21 0.94 8.66-1.44 12.37-1.92 2.09-3.24 3.35-6.1 3.73-6.1 0.09-6.1 0.09-9.14-1.65-3.19-3.71-3.46-6.73-3.37-11.53 0.44-3.72 2.34-5.72 4.8-8.37 2.68-1.33 5.23-1.31 8.12-0.89z"/>
	<path class="s35" d="m549.74 450.91c2.79 2.14 3.71 3.35 4.34 6.78 0.28 5.31-0.81 9.01-4.34 13.01-1.93 1.77-3.07 2.34-5.68 2.45-2.82-0.18-4.93-0.61-7.43-1.95-1.9-3.47-1.68-6.94-1.14-10.79 2.21-6.68 7.28-10.72 14.25-9.5z"/>
	<path class="s35" d="m586.17 142.85c3.53 1.98 6.57 4.47 8.71 7.92 0.48 2.42 0.42 4.7 0 7.13-1.48 1.98-2.56 2.86-4.75 3.96-4.59 0.45-7.54-0.33-11.08-3.17-2.24-2.58-3.08-4.14-3.57-7.52 0.47-3.27 1.5-4.98 3.57-7.53 2.54-1.27 4.3-1.11 7.12-0.79z"/>
	<path class="s24" d="m485.6 168.98c2.52 1.54 2.52 1.54 3.96 3.96 0.54 2.5 0.58 4.64 0 7.13-1.73 2.18-3.07 3.51-5.54 4.75-4.84 0.41-7.23 0.06-11.09-3.17-2.01-3.01-2.13-4.35-1.58-7.91 3.4-5.16 8.48-5.91 14.25-4.76z"/>
	<path class="s34" d="m632.75 253.37c2.52 0.35 2.52 0.35 4.8 1.78 2.46 3.69 2.27 6.93 1.68 11.24-1.04 2.77-1.04 2.77-2.37 4.75q-0.49 0.73-0.99 1.49c-2.37 1.52-4.22 1.27-6.93 0.89-2.34-1.74-3.04-3.1-3.47-5.97-0.22-5.06 0.51-8.15 3.47-12.25 1.58-1.58 1.58-1.58 3.81-1.93z"/>
	<path class="s24" d="m522.82 167.4c2.34 0.7 3.02 1.4 4.55 3.32 1.26 2.83 1.38 4.69 0.99 7.77-1.18 2.32-1.18 2.32-3.16 3.96-3.12 0.5-5.04 0.76-7.78-0.84-1.72-1.4-3.1-2.71-4.1-4.71-0.45-5.58-0.45-5.58 1.18-8.31 2.81-1.69 5.13-1.62 8.32-1.19z"/>
	<path class="s35" d="m678.83 402.6c0.39 0.78 0.39 0.78 0.79 1.58-0.68 1.81-0.68 1.81-1.73 3.91q-0.51 1.04-1.03 2.1c-2.57 4.08-6.05 5.07-10.53 6.21-6.56 1.17-12.51 1.44-18.39-1.92q0.39-1.56 0.79-3.17 1.4 0.04 2.84 0.08c10.16 0.22 17.74-0.23 25.67-7.21q0.78-0.78 1.59-1.58z"/>
	<path class="s24" d="m567.17 164.23c1.88 1.09 1.88 1.09 3.16 3.17 0.74 4.06 0.67 6.94-1.68 10.39-2.68 1.75-3.89 2.09-7.03 1.49-1.88-1.09-1.88-1.09-3.16-3.17-0.74-4.06-0.67-6.94 1.68-10.39 2.68-1.75 3.89-2.09 7.03-1.49z"/>
	<path class="s44" d="m338.3 451.7c1.69 0.29 1.69 0.29 3.17 0.79-0.03 1.15-0.03 1.15-0.05 2.32-0.09 6.05 0.08 11.58 1.64 17.48-3.14 0.39-3.14 0.39-6.34 0.79-3.17-4.62-2.9-9.61-2.38-15.05 1.06-2.82 1.87-4.24 3.96-6.33z"/>
	<path class="s45" d="m415.91 589.49c2.08 0.29 2.95 0.53 4.32 2.17q0.48 0.83 0.98 1.69 0.49 0.83 1 1.68c2.43 4.64 2.4 10.49 1.09 15.5-0.55 1.46-1.19 2.88-1.85 4.3-2.09 0-4.18 0-6.33 0q0.78-1 1.58-2.03c2.65-4.6 2.2-10.27 1.59-15.39q-1.14-2.4-2.38-4.75 0-1.56 0-3.17z"/>
	<path class="s46" d="m317.71 444.57q1.17 0 2.38 0c-0.7 5.94-0.7 5.94-1.21 8.23-0.42 2.31-0.48 4.47-0.47 6.82q-0.01 1.19-0.01 2.42c0.1 2.18 0.41 4.16 0.9 6.29-2.37-1.1-4.46-2.14-6.34-3.96-1.11-6.4-0.35-12.72 3.17-18.22q0.78-0.78 1.58-1.58z"/>
	<path class="s47" d="m434.13 586.32c2.07-0.1 2.07-0.1 4.75 0.79 3.5 4.58 5.66 8.77 5.74 14.51 0.03 1.34 0.03 1.34 0.06 2.71-0.29 2.84-0.91 4.29-2.64 6.54-2.12 1.04-2.12 1.04-3.95 1.59q0.39-0.88 0.79-1.79c1.91-7.16 1.16-13.16-2.38-19.6q-0.68-1.39-1.38-2.82-0.49-0.95-0.99-1.93z"/>
	<path class="s48" d="m576.67 348.75q1.76 1.13 3.51 2.28c0.98 0.63 0.98 0.63 1.98 1.28 1.64 1.19 1.64 1.19 2.43 2.77q-2.34-0.39-4.75-0.79 0-1.17 0-2.37c-4.04 0.45-7.46 1.36-11.29 2.82-5.09 1.93-5.09 1.93-7.72 1.93 0.5 3.06 1.42 5.6 2.72 8.41q0.51 1.11 1.04 2.26c1 2.11 1 2.11 2.58 4.37q0.44 1.98 0.79 3.96 0.59 2.11 1.24 4.21 0.31 1.04 0.64 2.12 0.25 0.78 0.49 1.59-0.78 0.78-1.58 1.59c-0.5-1.48-0.5-1.48-1.02-2.99-3.06-8.91-6.37-17.65-10.07-26.31q0.78-0.28 1.58-0.57 3.52-1.28 7.04-2.55 1.22-0.44 2.47-0.9 1.17-0.42 2.37-0.86 1.08-0.39 2.19-0.79c1.77-0.63 1.77-0.63 3.36-1.46z"/>
	<path class="s49" d="m669.32 388.34c-0.28 1.97-0.43 2.9-2.06 4.12-5.33 2.45-10.16 4.26-16.15 3.8q-1.17-0.78-2.38-1.58 0-1.56 0-3.17 1.17-0.13 2.38-0.26c6.77-0.72 6.77-0.72 13.26-2.66 2.58-1.04 2.58-1.04 4.95-0.25z"/>
	<path class="s50" d="m542.62 549.1c3.16 0.29 4.44 1.92 6.43 4.26q0.81 0.93 1.64 1.9c1.78 2.19 2.94 3.63 3.36 6.46-0.35 2.43-0.35 2.43-2.33 4.31q-0.97 0.63-1.98 1.29-0.78-0.39-1.58-0.8 0.78-0.78 1.58-1.58c-0.23-3.32-1.55-5.34-3.51-7.97-1.7-2.3-3.21-4.48-4.4-7.08q0.39-0.39 0.79-0.79z"/>
	<path class="s51" d="m713.67 501.59c0 3.17-1.39 4.55-3.17 7.13-1.07 3.22-1.21 6.13-0.79 9.5 1.3 2.61 1.3 2.61 3.17 4.75 0.88 1.13 0.88 1.13 1.78 2.28q0.68 0.83 1.39 1.68c-2.3-1.03-3.81-2.15-5.55-3.96-0.77 7.8-0.77 7.8 2.18 14.75q1.25 1.38 2.57 2.67 0.93 0.98 1.89 1.98 0.63 0.59 1.28 1.19c-4.1-1.09-6.38-3.73-8.71-7.13-2.35-4.9-1.91-9.97-1.93-15.29q-0.04-1.53-0.08-3.11c-0.03-6 0.3-10.28 4.39-14.86q0.78-0.78 1.58-1.58z"/>
	<path class="s52" d="m569.54 385.18q0.78 0 1.59 0 0.14 1.43 0.29 2.92c0.33 2.69 1.06 4.85 2.08 7.37q0.05 1.98 0 3.96 0.39 1.17 0.79 2.38 0 2.77 0 5.54 0.2 0.92 0.4 1.87c0.68 3.59 0.44 7.16 0.4 10.8 2.61 1.31 5.22 2.61 7.92 3.96-2.38 0.79-2.38 0.79-4.34 0-1.07-0.56-1.07-0.56-2.15-1.14q-1.06-0.56-2.16-1.13-0.81-0.44-1.65-0.9-0.02-0.76-0.03-1.54c-0.24-9.38-0.6-18.46-2.65-27.64-0.44-2.24-0.59-4.19-0.49-6.45z"/>
	<path class="s53" d="m678.83 402.6q0.39 0.78 0.79 1.58c-0.68 1.81-0.68 1.81-1.73 3.91-0.51 1.04-0.51 1.04-1.03 2.1-1.28 2.03-2.32 3.06-4.37 4.29-2.97 0.54-2.97 0.54-5.54 0.79q1.17-0.39 2.37-0.79c-1.36-2.58-1.36-2.58-3.96-3.17q0.96-0.44 1.94-0.9c6.41-3.04 6.41-3.04 11.53-7.81z"/>
	<path class="s54" d="m482.09 234.02c1.93 0.69 1.93 0.69 3.51 3.07-0.44 4.4-0.44 4.4-1.58 5.54-2.33 0.15-2.33 0.15-4.76 0-1.58-1.58-1.58-1.58-1.83-3.91 0.25-2.42 0.25-2.42 1.19-3.96 1.44-0.84 1.44-0.84 3.47-0.74z"/>
	<path class="s55" d="m503.81 483.37c5.69 4.13 10.31 9.98 12.67 16.63q-1.97-1.69-3.94-3.39-1.56-1.33-3.15-2.62-0.72-0.6-1.47-1.21c-0.67-0.54-0.67-0.54-1.35-1.1-2.59-2.61-2.76-4.75-2.76-8.31z"/>
	<path class="s56" d="m558.46 356.67q1.17 0 2.37 0 0.14 0.84 0.28 1.7c0.55 2.42 1.4 4.46 2.44 6.71 0.52 1.12 0.52 1.12 1.04 2.26 1 2.11 1 2.11 2.58 4.37q0.44 1.98 0.79 3.96 0.59 2.11 1.24 4.21 0.31 1.04 0.64 2.12 0.25 0.78 0.49 1.59-0.78 0.78-1.58 1.59-0.21-0.63-0.43-1.28c-2.73-8.01-5.54-15.91-9.02-23.63-0.84-2.02-0.84-2.02-0.84-3.6z"/>
	<path class="s57" d="m594.09 216.5c2.33 0.29 3.06 0.68 4.75 2.37 0.2 2.38 0.2 2.38 0 4.76q-0.78 0.78-1.58 1.58c-3.61-0.44-3.61-0.44-4.75-1.58-0.15-2.73-0.15-2.73 0-5.55q0.78-0.78 1.58-1.58z"/>
	<path class="s58" d="m568.75 237.88c3.48 3.3 6.26 6.56 7.92 11.09-0.96-0.49-0.96-0.49-1.94-0.99q-1.26-0.63-2.56-1.29-1.25-0.63-2.54-1.28c-2.11-1.03-4.23-1.94-6.42-2.78 1.58-1.58 1.58-1.58 3.21-2.37 1.67-0.67 1.67-0.67 2.33-2.38z"/>
	<path class="s59" d="m558.46 289.35c0.14 7.46 0.14 7.46-0.8 11.09q-0.39 0-0.79 0-0.39-2.73-0.79-5.54c-2 1.82-2.68 2.98-3.96 5.54 0-3.4 0-6.79 0-10.29 5.45-0.8 5.45-0.8 6.34-0.8z"/>
	<path class="s60" d="m566.38 534.85c3.65 2.16 5.86 4.06 7.91 7.92q-0.39 1.17-0.79 2.37-0.34-0.75-0.69-1.53c-0.76-1.76-0.76-1.76-2.48-2.43 0.89 2.95 0.89 2.95 3.17 4.75q-0.39 1.96-0.79 3.96c-1.76-1.76-2.53-3.35-3.61-5.59-1.11-2.52-1.11-2.52-2.72-4.7q-0.05-2.38 0-4.75z"/>
	<path class="s61" d="m556.08 290.94q0.39 0 0.79 0c0.26 4.18 0.52 8.36 0.79 12.67q-1.17 0.39-2.37 0.79-0.39-1.56-0.79-3.17-1.56 0-3.17 0c-0.25-1.83-0.25-1.83 0-3.96q1.97-1.21 3.96-2.37c0.7-2.05 0.7-2.05 0.79-3.96z"/>
	<path class="s62" d="m281.29 469.91c-2.65 0.88-2.99 0.67-5.55 0q-2.86-0.26-5.74-0.44-1.49-0.1-3.03-0.21-1.14-0.07-2.31-0.14 0 0.78 0 1.58c-2.62 0.53-5.23 1.05-7.92 1.59 6.96-6.97 16.06-5.41 24.55-2.38z"/>
	<path class="s63" d="m440.46 598.2q0.39 0 0.79 0c0.26 2.35 0.53 4.71 0.79 7.13q0.78 0 1.59 0c0-2.09 0-4.18 0-6.34q0.39 0 0.79 0c0.37 7 0.37 7-0.94 10.3-1.66 1.83-3.04 2.47-5.39 3.17q0.36-0.88 0.74-1.79c1.16-4.11 1.37-8.21 1.63-12.47z"/>
	<path class="s64" d="m640.02 621.17c1.58 2.36 2.33 4.43 3.17 7.12q-0.39 0-0.79 0c0 4.71 0 9.41 0 14.26-1.89-1.89-2.34-3.18-2.47-5.83q0.01-1.07 0.02-2.17 0-1.17 0-2.36 0.01-1.21 0.02-2.46 0.01-1.22 0.01-2.49 0.02-3.03 0.04-6.07z"/>
	<path class="s65" d="m612.31 724.12q0.39 0.78 0.79 1.58c-17.06 5.89-17.06 5.89-23.76 5.54 1.85-0.95 3.56-1.71 5.54-2.37 0.96-1.59 0.96-1.59 1.59-3.17q0.39 1.56 0.79 3.17 3.32-0.97 6.63-1.93 0.94-0.28 1.91-0.56 0.9-0.26 1.82-0.53 0.83-0.24 1.69-0.49c1.47-0.43 1.47-0.43 3-1.24z"/>
	<path class="s66" d="m312.96 453.28c1.96 0.79 1.96 0.79 3.96 1.58 0 2.62 0 5.23 0 7.92q-1.17-0.78-2.37-1.58-0.78 1.56-1.59 3.17c0-3.66 0-7.32 0-11.09z"/>
	<path class="s67" d="m294.75 482.58q0.78 0.39 1.58 0.79-0.84 0.83-1.7 1.68-1.09 1.08-2.21 2.18-1.08 1.07-2.2 2.18c-1.82 1.71-1.82 1.71-2.6 3.47q-0.78 0-1.58 0-0.39 1.17-0.79 2.37-0.39-1.17-0.8-2.37c2.55-4.42 5.88-7.82 10.3-10.3z"/>
	<path class="s68" d="m316.92 454.07q0.39 0 0.79 0 0.08 1.04 0.15 2.12 0.1 1.37 0.2 2.78c0.1 1.37 0.1 1.37 0.2 2.76 0.21 2.25 0.54 4.39 1.04 6.6-1.98-0.96-3.71-1.95-5.55-3.17-0.14-2.47-0.14-2.47 0-4.75 1.18 0.78 1.18 0.78 2.38 1.58 0.26-2.61 0.52-5.22 0.79-7.92z"/>
	<path class="s69" d="m649.53 412.89c4.96 0 9.93 0 15.04 0q0.39 1.17 0.79 2.38c-7.44 0.39-7.44 0.39-15.04 0.79q-0.39-1.56-0.79-3.17z"/>
	<path class="s70" d="m423.04 397.06c-0.45 3.1-1.35 5.14-3.12 7.72q-0.62 0.92-1.26 1.86c-1.16 1.5-1.16 1.5-2.75 2.29q0.32-0.61 0.64-1.23c1.2-2.46 2.26-4.96 3.32-7.48q-0.9 0.61-1.83 1.24-1.05 0.56-2.13 1.14-1.17-0.39-2.37-0.79 1.92-1.2 3.86-2.38c1.07-0.66 1.07-0.66 2.17-1.34 1.88-1.03 1.88-1.03 3.47-1.03z"/>
	<path class="s71" d="m512.52 904.67q0.73 0.1 1.48 0.2c0.96 0.12 0.96 0.12 1.94 0.25q0.95 0.12 1.92 0.25c1.93 0.21 1.93 0.21 4.17-0.7q0 1.17 0 2.38c4.31 1.17 4.31 1.17 8.71 2.37q0 0.39 0 0.8c-6.06-0.42-11.76-1.73-17.42-3.96q-0.39-0.78-0.8-1.59z"/>
	<path class="s72" d="m415.91 522.97c2.73 1.01 5.05 2.19 7.47 3.82 0.94 0.63 0.94 0.63 1.91 1.28q0.96 0.66 1.96 1.33 0.98 0.67 2 1.36 2.44 1.64 4.88 3.3-1.56 0.39-3.17 0.79-0.39-1.17-0.79-2.38-1.96-0.84-3.96-1.58-2.51-1.53-4.95-3.17-1.25-0.83-2.54-1.68c-2.02-1.49-2.02-1.49-2.81-3.07z"/>
	<path class="s73" d="m577.91 263.96q1.34 0.03 2.72 0.05-0.51 1.71-1.04 3.42-0.29 0.94-0.58 1.92c-0.79 1.87-1.61 2.85-3.13 4.17q0.78-2.73 1.58-5.55-1.17-0.39-2.37-0.79-0.39-1.17-0.8-2.37c0.8-0.8 0.8-0.8 3.62-0.85z"/>
	<path class="s74" d="m441.25 595.83q1.56 0.39 3.17 0.79c-0.26 2.87-0.52 5.75-0.79 8.71q-0.78 0-1.59 0-0.39 0.78-0.79 1.58c0-3.66 0-7.31 0-11.08z"/>
	<path class="s75" d="m346.22 114.34q0.78 0.39 1.59 0.79c-2.37 3.97-5.1 6.65-8.71 9.51 0.38-3.5 1.46-5 4-7.38q0.87-0.82 1.77-1.67 0.66-0.62 1.35-1.25z"/>
	<path class="s76" d="m666.95 930.81q0.78 0.39 1.58 0.79c-1.71 3.15-3.73 5.45-6.33 7.92q-1.17-0.39-2.38-0.8 1.34-1.53 2.67-3.06 0.74-0.85 1.51-1.73 1.43-1.61 2.95-3.12z"/>
	<path class="s77" d="m451.55 598.99q0.39 1.17 0.79 2.38c-1.02 1.56-1.02 1.56-2.52 3.22q-0.73 0.81-1.47 1.66c-1.55 1.45-1.55 1.45-4.72 3.04 0.26-3.14 0.52-6.27 0.79-9.5q0.39 0 0.79 0 0.39 2.34 0.79 4.75c3.04-1.15 4.06-2.72 5.55-5.55z"/>
	<path class="s78" d="m674.08 413.69c-1.03 2.28-2.11 3.85-3.96 5.54q-1.17-0.39-2.38-0.79 0.39-0.78 0.79-1.59-1.95 0.39-3.96 0.79-0.39-0.78-0.79-1.58 2.13-0.6 4.26-1.19 1.18-0.33 2.39-0.66c2.06-0.52 2.06-0.52 3.65-0.52z"/>
	<path class="s79" d="m349.59 290.34c0.68 0.3 0.68 0.3 1.38 0.6-0.75 0.61-0.75 0.61-1.53 1.24-2.07 2.45-2.18 4.32-2.42 7.47q-0.79-0.39-1.59-0.79c-0.69-2.63-0.69-2.63-0.79-5.55 2.21-3.27 2.21-3.27 4.95-2.97z"/>
	<path class="s80" d="m342.26 486.54c-3.24 1.74-5.9 2.53-9.59 2.28q-0.89-0.06-1.81-0.11-0.91-0.07-1.86-0.14-0.94-0.06-1.9-0.12-2.32-0.16-4.63-0.32 0-0.39 0-0.8c6.61-0.49 13.16-0.93 19.79-0.79z"/>
	<path class="s81" d="m813.45 955.35q0.39 0 0.79 0c0 3.92 0 7.84 0 11.88q-0.39 0-0.79 0-0.39-2.73-0.79-5.54-1.56 1.56-3.17 3.17-0.78-0.39-1.58-0.79 0.5-0.65 1.01-1.31 0.65-0.84 1.32-1.71 0.64-0.84 1.3-1.7c1.25-1.65 1.25-1.65 1.91-4z"/>
	<path class="s82" d="m550.54 556.23c2.19 1.78 3.08 2.72 3.61 5.54-0.45 2.38-0.45 2.38-2.43 4.26q-0.97 0.63-1.98 1.29-0.78-0.39-1.58-0.8 0.78-0.78 1.58-1.58c0.14-2.05 0.14-2.05 0-3.96q1.17 0 2.38 0-0.78-2.34-1.58-4.75z"/>
	<path class="s83" d="m585.38 321.03q0.39 0.78 0.79 1.59c-3.43 4.1-6.94 7.7-11.08 11.08q-0.78-0.39-1.59-0.79 0.89-0.78 1.8-1.59 1.18-1.06 2.36-2.12c1.16-1.04 1.16-1.04 2.34-2.09 2-1.92 3.71-3.87 5.38-6.08z"/>
	<path class="s84" d="m732.68 491.29q-2.84 1.46-5.69 2.87-0.8 0.42-1.62 0.85c-2.63 1.28-4.06 1.96-6.94 1.2q-0.78-0.47-1.59-0.96c0.62-0.13 0.62-0.13 1.26-0.26 3.38-0.94 6.58-2.4 9.83-3.73 2.37-0.76 2.37-0.76 4.75 0.03z"/>
	<path class="s85" d="m415.91 589.49c1.39 0.1 1.39 0.1 3.17 0.79 1.83 2.28 1.83 2.28 3.17 4.75q-0.39 1.17-0.8 2.38c-1.56-2.74-1.56-2.74-3.16-5.54q0.39 2.73 0.79 5.54c-2.24-2.54-2.79-4.58-3.17-7.92z"/>
	<path class="s86" d="m378.25 472.48q0.61 0.3 1.23 0.6c-1.98 2.42-3.88 2.97-6.88 3.71q-1.17 0.3-2.38 0.6-0.9 0.22-1.82 0.44c2.58-2.73 5.89-5.75 9.85-5.35z"/>
	<path class="s87" d="m591.32 207.59q0.89-0.01 1.81-0.01c1.94 0.23 3.24 0.83 4.92 1.79-2.96 1.48-6.7 1.04-9.9 0.4q-0.58-0.2-1.19-0.4-0.39 0.78-0.79 1.59-0.78-0.78-1.58-1.59c2.34-1.34 4.04-1.8 6.73-1.78z"/>
	<path class="s88" d="m581.42 257.68c1.83 1.57 3.66 3.13 5.54 4.75q-1.97 0-3.95 0c-0.79 2.09-1.57 4.18-2.38 6.34-0.78-3.13-0.73-4.31-0.05-7.33q0.23-1.05 0.47-2.14 0.18-0.8 0.37-1.62z"/>
	<path class="s89" d="m419.08 601.37q0.39 0 0.79 0 0.15 0.95 0.3 1.93 0.24 1 0.49 2.03 0.78 0.39 1.59 0.79 0 2.34 0 4.75c-0.79 0.39-0.79 0.39-1.59 0.79-1.78-3.56-1.71-6.39-1.58-10.29z"/>
	<path class="s90" d="m404.82 513.47q1.54 1.1 3.07 2.22 0.85 0.62 1.73 1.26c1.54 1.27 1.54 1.27 3.12 3.64q-3.16-1.58-6.33-3.16-0.78 0.78-1.59 1.58 0-2.73 0-5.54z"/>
	<path class="s82" d="m648.73 411.31c3.66 0.52 7.32 1.04 11.09 1.58q0 0.39 0 0.8-1.9 0.03-3.81 0.04c-1.06 0.02-1.06 0.02-2.14 0.03-1.97-0.07-1.97-0.07-4.34-0.87q0 0.78 0 1.59 0.78 0.39 1.58 0.79-1.56-0.39-3.17-0.79 0.39-1.56 0.79-3.17z"/>
	<path class="s91" d="m564.89 164.13q1.12 0.05 2.28 0.1 0.39 0.78 0.79 1.59c-0.75 0.24-0.75 0.24-1.5 0.49q-0.97 0.32-1.97 0.64-0.96 0.32-1.94 0.65c-1.73 0.55-1.73 0.55-3.3 1.38 2.2-4.71 2.2-4.71 5.64-4.85z"/>
	<path class="s92" d="m678.83 402.6q0.39 0.78 0.79 1.58-1.11 2.81-2.38 5.55-0.78-0.78-1.58-1.59c-1.67 0.25-1.67 0.25-3.17 0.79q3.17-3.16 6.34-6.33z"/>
	<path class="s93" d="m576.67 348.75q1.76 1.13 3.51 2.28c0.98 0.63 0.98 0.63 1.98 1.28 1.64 1.19 1.64 1.19 2.43 2.77-2.35-0.39-2.35-0.39-4.75-0.79q0-1.17 0-2.37-1.56-0.39-3.17-0.8 0-1.17 0-2.37z"/>
	<path class="s94" d="m393.74 239.46c8.04-0.49 8.04-0.49 10.84 1.59q0.51 0.78 1.04 1.58c-2.36-0.39-2.36-0.39-4.75-0.79q0-0.78 0-1.58c-2.62 0.26-5.23 0.52-7.92 0.79q0.39-0.78 0.79-1.59z"/>
	<path class="s95" d="m319.3 486.54q1.56 0 3.17 0c0 1.59 0 1.59-1.89 3.61-2.07 1.93-2.07 1.93-3.66 2.73 0.44-2.68 0.84-4.03 2.38-6.34z"/>
	<path class="s96" d="m268.62 468.33q0 0.39 0 0.79-1.95 0-3.96 0 0 0.78 0 1.58c-2.62 0.53-5.23 1.05-7.92 1.59 3.78-3.79 6.59-4.17 11.88-3.96z"/>
	<path class="s97" d="m521.24 271.93q1.95 0 3.96 0 0.39 1.17 0.79 2.38 0.78 0.39 1.58 0.79c-0.78 1.18-0.78 1.18-1.58 2.38-1.57-1.83-3.14-3.66-4.75-5.55z"/>
	<path class="s98" d="m371.56 566.52q0.39 0 0.8 0c1.26 3.86 1.75 6.98 1.58 11.09q-1.17-0.78-2.38-1.58c-0.23-2.24-0.23-2.24-0.14-4.85q0.03-1.3 0.06-2.63 0.04-1 0.08-2.03z"/>
	<path class="s99" d="m586.96 77.12q-1.17 0.39-2.37 0.79 0 0.78 0 1.59c-2.88 0.26-5.75 0.52-8.71 0.79 3.11-3.11 6.85-3.37 11.08-3.17z"/>
	<path class="s100" d="m666.16 930.01q0.78 0.39 1.58 0.8c-2.09 2.09-4.18 4.18-6.34 6.33 0-2.51 0.25-3.47 1.59-5.54 1.58-1.04 1.58-1.04 3.17-1.59z"/>
	<path class="s101" d="m770.69 629.09q0.39 1.17 0.79 2.37c-2.6 2.31-4.43 3.56-7.92 3.96 2.26-2.32 4.48-4.47 7.13-6.33z"/>
	<path class="s102" d="m511.73 492.88c2.44 2.19 3.72 4.01 4.75 7.12q-1.36-1.13-2.72-2.27-0.75-0.63-1.53-1.28c-1.29-1.2-1.29-1.2-2.08-2.78q0.78-0.39 1.58-0.79z"/>
	<path class="s103" d="m575.88 218.08q0.78 0.39 1.58 0.79c-0.78 2.62-1.57 5.23-2.37 7.92-1.59-3.16-1.59-3.16-1.59-6.33q0.78 0 1.59 0 0.39-1.17 0.79-2.38z"/>
	<path class="s104" d="m437.29 733.62c0 2.85-0.64 3.49-2.37 5.69q-0.66 0.85-1.34 1.72-0.51 0.64-1.04 1.3-0.78-0.39-1.58-0.79c2.09-2.62 4.18-5.23 6.33-7.92z"/>
	<path class="s105" d="m317.71 444.57q1.17 0 2.38 0c-0.59 6.04-0.59 6.04-2.38 8.71 0.27-2.35 0.53-4.7 0.8-7.13q-0.78-0.39-1.59-0.79 0.39-0.39 0.79-0.79z"/>
	<path class="s106" d="m550.19 290.1c0.96 0.02 0.96 0.02 1.93 0.05q0 0.78 0 1.58-0.78 0-1.58 0c0 2.61 0 5.23 0 7.92q-0.39 0-0.8 0c0-2.61 0-5.23 0-7.92q-1.17-0.39-2.37-0.79c0.79-0.79 0.79-0.79 2.82-0.84z"/>
	<path class="s107" d="m564.79 241.05c2.38 0.1 2.38 0.1 4.75 0.79q0.78 1.56 1.59 3.17c-2.62-0.79-5.23-1.57-7.92-2.38q0.78-0.78 1.58-1.58z"/>
	<path class="s108" d="m631.31 710.65q0.39 0.78 0.79 1.59-1.95 2.34-3.96 4.75-0.78-0.39-1.58-0.79c2.97-4.66 2.97-4.66 4.75-5.55z"/>
	<path class="s34" d="m435.71 587.11c1.96 0.4 1.96 0.4 3.96 0.8q0.39 1.95 0.79 3.96-1.17 0-2.37 0-1.17-2.34-2.38-4.76z"/>
	<path class="s109" d="m506.19 267.18c0 2.38 0 2.38-1.88 4.51-2.08 1.83-2.08 1.83-3.66 1.83 1.18-3.01 2.97-4.45 5.54-6.34z"/>
	<path class="s110" d="m333.55 130.97q0.39 0 0.79 0 0 2.34 0 4.75-0.78 0-1.58 0-0.39 1.95-0.79 3.96c-0.76-1.71-0.91-2.82-0.32-4.61q0.91-2.07 1.9-4.1z"/>
	<path class="s111" d="m514.9 495.25q0.39 0.78 0.79 1.59 1.17 0 2.38 0 0 3.16 0 6.33c-1.79-1.78-2.36-3.17-3.17-5.54q0-1.17 0-2.38z"/>
	<path class="s112" d="m597.26 207.79c5.4 2.75 5.4 2.75 6.12 4.86q0.1 0.73 0.22 1.47-1.59-1.13-3.17-2.27-0.88-0.63-1.78-1.28-0.69-0.59-1.39-1.2 0-0.78 0-1.58z"/>
	<path class="s60" d="m514.9 168.98c0.82 2.21 0.83 3.07 0.05 5.35q-0.41 0.88-0.84 1.78-0.39 0-0.79 0c-0.1-2.67-0.1-2.67 0-5.54q0.78-0.78 1.58-1.59z"/>
	<path class="s113" d="m328.8 146.02q1.17 0 2.38 0 0.39 2.34 0.79 4.75-1.17 0.78-2.38 1.58c-0.26-2.09-0.52-4.18-0.79-6.33z"/>
	<path class="s114" d="m486.39 823.1q-0.39 1.17-0.79 2.38-2.73-0.39-5.54-0.79c1.47-2.94 3.6-2.43 6.33-1.59z"/>
	<path class="s115" d="m400.07 529.3c0.74 2.39 0.83 3.07 0 5.55-1.63 0.54-1.63 0.54-3.16 0.79 0.89-2.35 1.76-4.22 3.16-6.34z"/>
	<path class="s116" d="m343.06 518.22q0.39 0.78 0.79 1.58 1.17 0.39 2.37 0.79c-0.78 0.4-0.78 0.4-1.58 0.8q0.39 2.34 0.79 4.75c-2.38-2.38-2.05-4.61-2.37-7.92z"/>
	<path class="s117" d="m549.74 307.57c0 2.07-0.24 3.57-0.79 5.54q-1.95 0-3.96 0c1.57-1.83 3.14-3.66 4.75-5.54z"/>
	<path class="s118" d="m577.46 299.65q0 1.17 0 2.38-1.95 0.78-3.96 1.58-0.39-1.56-0.79-3.17c2.38-0.79 2.38-0.79 4.75-0.79z"/>
	<g id="Layer 1">
	</g>
</svg>