<svg version="1.2" xmlns="http://www.w3.org/2000/svg" viewBox="0 0 1024 1024" width="1024" height="1024">
	<style>
		.s0 { fill: #e1e0da } 
		.s1 { fill: #fefdf9 } 
		.s2 { fill: #fcf3e4 } 
		.s3 { fill: #404141 } 
		.s4 { fill: #7c7f7d } 
		.s5 { fill: #767b7b } 
		.s6 { fill: #767a7a } 
		.s7 { fill: #7c807e } 
		.s8 { fill: #7b7f7d } 
		.s9 { fill: #383838 } 
		.s10 { fill: #feaa0f } 
		.s11 { fill: #e1dfd9 } 
		.s12 { fill: #fbfcf6 } 
		.s13 { fill: #b36500 } 
		.s14 { fill: #c6c4bc } 
		.s15 { fill: #616462 } 
		.s16 { fill: #939796 } 
		.s17 { fill: #c6c5bd } 
		.s18 { fill: #c7c6bd } 
		.s19 { fill: #f9f8f4 } 
		.s20 { fill: #f8f7f3 } 
		.s21 { fill: #fc7a1e } 
		.s22 { fill: #82837e } 
		.s23 { fill: #82847f } 
		.s24 { fill: #595c5b } 
		.s25 { fill: #81837e } 
		.s26 { fill: #585b5a } 
		.s27 { fill: #575b5a } 
		.s28 { fill: #575a59 } 
		.s29 { fill: #fcfbf9 } 
		.s30 { fill: #fbfbf7 } 
		.s31 { fill: #5b5e5d } 
		.s32 { fill: #5c5f5e } 
		.s33 { fill: #787a76 } 
		.s34 { fill: #292928 } 
		.s35 { fill: #777974 } 
		.s36 { fill: #ebeae3 } 
		.s37 { fill: #2c2c2b } 
		.s38 { fill: #fda104 } 
		.s39 { fill: #797b76 } 
		.s40 { fill: #7a7c77 } 
		.s41 { fill: #515453 } 
		.s42 { fill: #7b7c78 } 
		.s43 { fill: #7b7c77 } 
		.s44 { fill: #797a76 } 
	</style>
	<g id="Layer 1">
		<path class="s0" d="m377 84q1.31 0.96 2.66 1.95c14.74 11.46 27.99 26.67 35.34 44 0 0.66 0 1.37 0 2.05 0.82-0.21 0.82-0.21 1.66-0.43q3.88-0.98 7.78-1.94 1.28-0.34 2.6-0.68c14.2-3.48 28.85-4.3 43.4-5.08q1.13-0.06 2.3-0.12c29.87-1.65 29.67-0.57 34.76-0.27 2.71 0.17 5.51 0.77 8.22 0.91q1.73 0.1 3.52 0.2 1.88 0.11 3.82 0.22c27.2 1.68 54 5.03 80.7 10.52q3.94 0.81 7.89 1.56c9.78 2.03 19.16 5.27 28.6 8.49q1.02 0.34 2.07 0.69c8.3 2.83 16.17 5.93 24 9.91 2.54 1.17 4.79 3.36 7.09 3.09 2.34-1.12 1.23-4.62 2.87-6.64 17.03-20.34 37.88-36.27 64.72-40.43 22.08-1.84 42.35 1.48 59.83 15.96 20.66 19.4 28.1 44.71 29.39 72.25 0.91 29.33-8.05 58.08-25.22 81.79q-0.99 1.48-2 3-0.99 0-2 0-0.36 0.87-0.73 1.77c-1.49 2.62-3.22 4-5.52 5.92-2.86 2.7-2.86 2.7-4 6.3 0.52 2.46 1.32 4.67 2.25 7.01q1.15 3.18 2.25 6.37 0.32 0.92 0.65 1.87c4.56 13.66 7.13 28.12 9.64 42.28 1.71 9.62 4.21 18.52 7.75 27.64q1.58 4.12 3.08 8.28c0.48 1.26 0.48 1.26 0.97 2.56 0.66 2 0.77 1.8 2 3.92 0.57 0.99 0.86 1.08 1.46 2.24 4.71 9.14 10.51 17.74 18.26 24.4 8.54 7.34 9.16 7.26 9.5 12.38 0.29 4.27-2.49 6.52-4.56 10.06-0.73 1.25-1.2 1.99-2 3-1.01 1.27-2.22 2.37-3.4 3.48-1.83 1.73-3.55 3.55-5.28 5.38-7.92 8.22-15.66 15.32-25.44 21.26-3.06 1.73-3.06 1.73-4.88 4.88q0.96 0.38 1.94 0.77 4.03 1.61 8.06 3.23 1.08 0.43 2.19 0.86c4.7 1.91 5.39 1.69 5.81 4.14 0.64 3.72-0.46 6.31-2 10-1.32 3.17-6.59 9.4-8.44 11.75-0.92 1.2-0.92 1.2-1.87 2.42q-0.83 0.9-1.69 1.83c-0.66 0-29.66 25.27-43 33q-0.96 0.56-1.95 1.13c-18.75 10.81-38.98 17.31-60.05 21.87 21.17 11.4 43.06 10.45 66.39 10.1q9.85-0.15 19.71-0.23 3.39-0.04 6.78-0.11c16.06-0.21 32.31 3.1 44.8 13.83 10.55 10.97 14.95 25.04 14.8 40-0.77 18.89-9.75 34.51-23.21 47.42-6.93 6.07-14.93 10.17-23.27 13.99q-1.2 0.55-2.44 1.12c-41.2 16.91-93.98 7.92-134.56-6.12q-0.15 1.66-0.3 3.37c-1.8 19.02-5.84 37.7-16.25 54.01-2.45 4.43-2.62 7.99-1.78 12.92q0.25 1.53 0.51 3.11 0.28 1.65 0.57 3.34c1.47 9.03 2.77 18.04 3.81 27.12 1 8.71 2.16 17.37 3.53 26.03 0.48 3.07 0.91 5.99 0.91 9.1q0.81 0.22 1.65 0.45c11.97 3.55 22.13 11.67 28.35 22.55q0 0.99 0 2 0.99 0 2 0c5.08 9.85 8.12 19.86 8 31 1.36 0.07 1.36 0.07 2.75 0.14 83.61 4.22 83.61 4.22 94.25 14.86-0.02 2.96-0.02 2.96-1 6-2.45 1.57-2.45 1.57-5.69 2.69q-1.54 0.56-3.13 1.13c-12.16 3.63-24.42 5.05-36.99 6.18-1.35 0.12-1.35 0.12-2.73 0.25-23.12 2.13-46.27 3.56-69.46 4.75q-1.45 0.07-2.94 0.15c-50.81 2.58-101.69 2.16-152.55 2.11q-12.77-0.01-25.53 0c-105.27 0.1-105.27 0.1-152.98-2.26q-1.7-0.08-3.46-0.17c-32.05-1.57-64.03-3.25-95.6-9.33q-1.48-0.28-3-0.57c-6.04-1.27-11.41-3.18-16.94-5.93q0-2.96 0-6c28.32-9.75 60.15-11.48 89.92-12.79 2.78-0.19 5.36-0.59 8.08-1.21q0.25-1.53 0.52-3.11c3.06-17.82 8.81-33.24 23.48-44.89 5.33-3.3 11.05-6.02 17-8 2.97-6.89 3.58-14.59 4-22q-0.95 1.02-1.94 2.06c-22.11 21.75-53.64 27.21-83.48 27.19-27.33-0.27-55.07-7.33-75.58-26.25q-0.94-0.82-1.91-1.67c-13.52-12.47-20.9-29.76-22.03-47.91-0.57-14.92 3.58-26.3 13.25-37.67 10.2-10.9 22.59-16.07 37.35-16.97 13.43-0.31 25.69 1.51 38.07 6.84 5.74 2.42 11.6 4.48 17.46 6.57q1.8 0.65 3.65 1.32c19.56 7 36.54 6.61 55.72-1.52 2.44-0.99 2.44-0.99 4.44-0.99-0.51-5.71-1.19-11.38-2-17.06-2.22-16.62-2.13-33.2-2-49.94q-1.59 0.41-3.22 0.84-2.14 0.55-4.28 1.1-1.04 0.27-2.11 0.55c-9.75 2.48-19.17 2.71-29.2 2.7q-1.03 0-2.09 0c-43.33-0.11-83.37-12.93-119.6-36.63-0.98-0.64-0.98-0.64-1.98-1.29-1.55-1.03-11.17-8.64-13.33-10.96-2.59-2.7-5.2-5.22-8.07-7.62-23.39-20.34-41.35-53.12-44.35-84.03-1.33-19.81 4.59-39.52 17.54-54.79q0.83-0.92 1.69-1.87 0.74-0.89 1.5-1.81c3.61-4.05 7.83-6.8 12.5-9.5 0.87-0.51 0.87-0.51 1.76-1.03 6.41-3.55 12.98-5.09 20.24-5.66 1-0.08 1-0.08 2.02-0.16 8.1-0.33 16.32 1.61 23.98 4.16-0.52-1.21-0.52-1.21-1.06-2.45q-0.68-1.59-1.38-3.24c-0.68-1.58-0.68-1.58-1.37-3.2-1.82-4.76-2.38-9.09-2.5-14.17-0.06-1.54-0.06-1.54-0.12-3.1 0.43-2.84 0.43-2.84 1.97-5.19 3.33-2.23 6.23-2.13 10.08-1.96q1.02 0.01 2.07 0.03c4.97 0.11 4.97 0.11 7.31 1.28-4.13-6.41-8.58-12.47-13.24-18.5-1.76-2.5-22.65-34.61-17.76-48.5 1.58-4.47 7.23-6.06 11.37-8.5 19.55-11.88 32.85-27.71 44-47.5q0.85-1.5 1.73-3.05c3.69-6.59 7.04-13.25 10.14-20.13 2.61-5.72 5.76-10.93 9.19-16.18 1.9-3.14 1.9-3.14 2.57-6.64-0.92-1.89-0.92-1.89-2.44-3.75-4.7-6.64-8.08-13.92-11.56-21.25-0.73-1.5-0.73-1.5-1.48-3.03-12.11-26.52-11.63-61.15-1.67-88.29 10.49-26.37 28.44-48.15 54.3-60.47 24.11-10.27 52.02-5.55 72.85 9.79zm-120.31 403.13q-0.22 1.5 0.47 3.33zm0.47 3.33l2.3 16.36c0.31 12.61 76.8 54.26 92.54 53.18 0-0.64-87.25-49.3-94.84-69.54z"/>
		<path class="s1" d="m447.85 274.2c14.43 12.49 23.75 29.48 25.39 48.6 0.93 16.03 1.06 40.6-10.29 53.54q-1.11 1-2.26 2.04c-6.78 6.6-11 11.11-11.38 20.93 0.7 15.16 9.16 26.62 19.81 36.88 9.35 8.11 19.73 13.89 31.47 17.74q1.18 0.53 2.41 1.07 0.49 1.48 1 3c-3.16 4.58-3.16 4.58-6 6-9.7 1.16-18.16-1.53-25.81-7.5q-2.1-1.74-4.19-3.5c-2.76-2.16-5.14-3.82-8.63-4.56-3.45 0.82-4.47 2.65-6.37 5.56-3.11 9.32-0.63 19.2 3 28 6.76 13.35 19.03 20.35 32.61 25.32 18.41 5.45 39.03 4.75 56.14-4.01 11.34-6.22 17.59-14.32 22.25-26.31 1.13-4.44 2.07-8.14-0.29-12.24-1.72-2.12-1.72-2.12-5.21-2.32-4.82 0.21-8.73 2.24-12.98 4.37-4.69 2.22-8.77 2.4-13.96 2.5-1.94 0.06-1.94 0.06-3.93 0.12-4.25-0.5-5.84-1.2-8.63-4.43-0.81-3.75-0.81-3.75-1-7q0.96-0.17 1.95-0.35c22.69-4.14 46.04-10.63 60.05-30.65 5.25-8.32 5.25-8.32 5.55-17.92-0.96-3.64-2.6-6.84-4.36-10.14q-0.52-1-1.04-2.03c-1.98-3.89-1.98-3.89-4.34-7.55-3.88-5.55-2.83-10.67-1.87-17.11q0.22-1.65 0.45-3.35c1.43-9.86 3.54-19.42 6.61-28.9q0.32-1 0.65-2.02c5.85-17.52 17.34-34.75 33.83-43.77 20.8-9.95 47.79-9.84 69.52-2.21 19.75 8.19 33.22 22.41 41.69 41.94 9.95 24.92 8.15 51.67-1.93 76.24-6.3 14.29-16.4 26.69-29.76 34.82q-1.09 0.69-2.22 1.4c-16.25 9.2-37.92 10.05-55.64 5.25-12.17-3.68-23.94-8.64-35.14-14.65q0.14 1 0.28 2.04c3.9 29.47 6.29 57.62-11.48 83.12-11.46 14.56-26.81 25.1-44.8 29.84q-1.46 0.39-2.96 0.78c-9.39 2.27-18.26 2.7-27.85 2.6q-1.12-0.01-2.27-0.02c-10.92-0.08-21.32-0.54-31.92-3.36-1.22-0.3-1.22-0.3-2.46-0.6-16.42-4.04-31.11-9.94-44.54-20.4q-0.93-0.68-1.88-1.38c-13.68-10.72-20.87-28.26-23.67-44.91-2.97-24.73 3.72-47.1 15.55-68.71q-1.71 0.41-3.47 0.84-2.3 0.55-4.59 1.1c-1.13 0.27-1.13 0.27-2.28 0.55-26.57 6.33-54.17 1.25-77.66-12.49-3.54-2.46-6.8-5.11-10-8-0.95-0.83-0.95-0.83-1.92-1.68-11.52-10.67-18.73-26.85-19.42-42.49-0.45-27.92 5.52-54.74 25.06-75.65 29.51-30.22 82.6-29.07 115.13-3.98z"/>
		<path class="s2" d="m489.83 794.88q1.19 0 2.41 0.01 1.35 0 2.73 0 1.47 0 2.97 0.01 1.49 0 3.02 0.01 4.8 0.01 9.6 0.03 3.25 0.01 6.49 0.01 7.98 0.02 15.95 0.05c3.62 8.64 5.3 17.3 6.69 26.5q0.35 2.23 0.7 4.46 0.92 5.83 1.81 11.67 0.9 5.86 1.82 11.71 0.36 2.29 0.72 4.59 0.52 3.37 1.05 6.74c1.08 6.85 2.15 13.7 3.04 20.58q0.18 1.32 0.37 2.69 0.31 2.32 0.57 4.65c0.68 4.95 2.38 7.28 6.23 10.41 2.85 1.42 2.67 1.94 5.64 2.83 0.97 0.33 1.49 0.51 2.58 0.9 0.77 0.28 1.63 0.64 2.39 0.87l1.39 0.4q6.62 0.72 13.25 1.4 5.28 0.55 10.55 1.14c14.57 1.56 29.04 1.74 43.67 1.67q5.98-0.03 11.96-0.02c25.55 1.1 25.55 1.1 49.57-5.88 2.06-2.38 2.45-3.48 3.13-6.45q0.43-1.9 0.87-3.86c87.17 4.17 87.17 4.17 98 15-0.02 2.96-0.02 2.96-1 6-2.45 1.57-2.45 1.57-5.69 2.69q-1.54 0.56-3.13 1.13c-12.16 3.63-24.42 5.05-36.99 6.18q-1.35 0.12-2.73 0.25c-23.12 2.13-46.27 3.56-69.46 4.75q-1.45 0.07-2.94 0.15c-50.81 2.58-101.69 2.16-152.55 2.11q-12.77-0.01-25.53 0c-105.27 0.1-105.27 0.1-152.98-2.26q-1.7-0.08-3.46-0.17c-32.05-1.57-64.03-3.25-95.6-9.33-1.48-0.28-1.48-0.28-3-0.57-6.04-1.27-11.41-3.18-16.94-5.93q0-2.95 0-6c28.32-9.75 60.15-11.48 89.92-12.79 2.78-0.19 5.36-0.59 8.08-1.21 0.33-2.64 0.66-5.28 1-8q0.49 0 1 0-0.05 1.08-0.11 2.2c-0.32 7.9-0.32 7.9 3.11 14.8 11.33 8.55 30.54 7.15 44.01 7.2q1.66 0.01 3.37 0.02 5.37 0.03 10.75 0.03 1.81 0 3.69 0.01c18.93 0.01 37.57-0.73 56.36-2.98 2.63-0.26 5.18-0.33 7.82-0.28 0-2.64 0-5.28 0-8q0.49 0 1 0c0 2.31 0 4.62 0 7q2.35-0.61 4.69-1.25 1.3-0.35 2.63-0.7c3.3-1.29 5.22-2.47 7.68-5.05 1.06-2.96 1.77-5.57 2.38-8.62q0.29-1.38 0.59-2.79c5.36-26.14 10.77-53.32 11.59-80.03q0.09-2.71 0.19-5.43c0.04-1.16 0.04-1.16 0.08-2.34 0.23-2.46 0.54-2.75 3-2.91z"/>
		<path class="s0" d="m728 587q15.11-0.11 30.23-0.16 7.02-0.02 14.04-0.07 6.79-0.04 13.57-0.05 2.58-0.01 5.16-0.04c17.45-0.16 34.91 2.09 48.68 13.91 10.55 10.97 14.95 25.04 14.8 40-0.77 18.89-9.75 34.51-23.21 47.42-6.93 6.07-14.93 10.17-23.27 13.99q-1.2 0.55-2.44 1.12c-40.85 16.76-92.02 7.62-132.56-5.12q0-0.49 0-1c2.31 0.33 4.62 0.66 7 1q0.48-3.47 0.94-6.94 0.26-1.92 0.52-3.9c1.9-16.81 1.83-33.78 2.07-50.68q0.08-5.17 0.16-10.34 0.16-10.07 0.31-20.14 0.98-0.3 1.99-0.6 4.52-1.36 9.04-2.73c1.55-0.47 1.55-0.47 3.13-0.95 14.64-4.3 14.64-4.3 27.84-11.72q0.99 0 2 0 0-1.48 0-3z"/>
		<path class="s3" d="m555.83 360.95c2.48 1.94 4.84 3.94 7.17 6.05q1.02 0.88 2.07 1.79c11.25 10.37 19.96 26.85 24.93 41.21 0.17 9.64-5.67 17.85-12.06 24.69-14.32 13.39-34.71 22.84-54.47 23.41q-1.22-0.05-2.47-0.1c0.98 4.77 0.98 4.77 3.64 8.7 6.04 3.33 14.74 2.05 21.16 0.21 3.83-1.47 7.53-3.08 11.2-4.91 7.07-0.68 7.07-0.68 10.56 1.88 2.18 4.72 1.78 8.15 0.44 13.12-5.74 14.95-14.84 23.67-29.21 30.22-16.08 7.02-37.5 5.74-53.79-0.22-12.55-4.92-23.85-12.67-30-25-3.77-9.15-6.21-18.99-2.69-28.56q0.83-1.2 1.69-2.44 0.62-0.95 1.25-1.94c2.29-1.39 4.07-1.39 6.67-0.9 3.69 1.49 6.45 4.21 9.45 6.77 7.32 5.77 14.97 8.48 24.21 8.43 2.74-0.21 2.74-0.21 5.54-2.73 2.07-2.36 2.07-2.36 1.88-4.63q-1.14-0.38-2.32-0.78c-21.79-7.79-40.12-21.87-50.24-43.09-2.55-7.37-3.38-15.87-0.1-23.08 2.03-2.93 4.22-5.45 6.66-8.05q0.7-0.78 1.43-1.59c25.01-27.67 64.44-41.22 97.4-18.46z"/>
		<path class="s4" d="m180.02 447.84c7.2-0.3 13.99 1.61 20.98 3.16 5.36 1.19 20.45 10.73 25.6 18.38 3.4 5.92 3.4 5.92 3.4 8.62q0.92-0.52 1.87-1.06c7.14-3.83 12.88-6.14 20.88-3.88 5.73 3.42 9.59 8.46 11.25 14.94 0.36 4.82 0.28 9.61 0.19 14.44q-0.02 1.94-0.04 3.95-0.06 4.8-0.15 9.61l-2 7q-0.72 1.71-1.47 3.48c-5.93 13.84-12.75 25.96-22.53 37.52q-0.77 0.99-1.57 2.01c-9.42 11.67-23.8 22.07-38.73 24.74-17.65 1.61-34.68-0.61-48.86-12.22-16.79-15-24.7-35.85-26.21-58.15-0.83-19.96 5.95-39.47 19.37-54.38q0.74-0.89 1.5-1.81c3.61-4.05 7.83-6.8 12.5-9.5q0.87-0.51 1.76-1.03c7.09-3.93 14.3-5.18 22.26-5.82z"/>
		<path class="s5" d="m377 84q1.31 0.96 2.66 1.95c14.01 10.89 35.84 35.72 35.69 45.96 0 0-1.35 1.09-3.41 2.3q-1.34 0.58-2.73 1.17-1.48 0.66-3.02 1.34c-1.61 0.69-1.61 0.69-3.25 1.4-13.05 5.82-25.64 11.89-36.92 20.76-2.02 1.12-2.02 1.12-3.98 0.87-3.46-1.27-5.32-4.39-7.54-7.19-9.79-11.82-23.05-24.36-38.77-26.93-7.17-0.23-11.3 2.3-16.54 6.99-10.61 10.99-14.63 25.04-14.55 39.89 0.3 13.52 4.36 24.47 10.75 36.26 1.61 3.23 1.61 3.23 1.61 6.23-1.55 1.92-1.55 1.92-3.75 4.19-9.07 9.76-26.47 33.16-26.47 33.16-1.58-3.93-3.99-6.54-6.15-10.54q-0.59-1.06-1.19-2.15c-3.77-7-10.75-23.08-11.25-24.31-11.44-28.05-7.92-63.22 5.68-90.03 11.95-23.57 30.73-44.13 55.86-53.32 22.95-7.24 48.07-2.15 67.27 12z"/>
		<path class="s6" d="m798.69 126.19c18.99 15.73 28.09 39.14 30.84 63.13 3.8 33.15-4.84 65.48-24.53 92.68-0.66 0.99-2 3-2 3-0.89 0.84-1.83 1.52-2.27 2.06-1.9 2.3-3.61 4.09-5.73 6.19q-1.05 1.05-2.13 2.14c-1.87 1.61-1.08 2.08-2.11 3.84 0 0-2.21-3.26-2.67-4.32-7.88-18.03-7.88-18.03-16.09-35.91q0.74-0.73 1.5-1.48c13.56-14.14 18.14-31.66 17.97-50.75-0.34-11.61-2.91-22.56-10.47-31.77-5.84-4.5-13-3.85-20-3-16.46 3.57-27.76 13.04-39 25-3.68-3.07-7.16-6.13-10.44-9.63-9.43-9.51-20.89-16.88-32.45-23.53-2.52-1.49-4.82-3.02-7.11-4.84 2.19-6.69 7.36-10.91 12.25-15.75q0.74-0.74 1.51-1.5c7.48-7.43 14.83-13.85 24.24-18.75q1.58-0.86 3.2-1.74c27.45-14.4 60.16-13.19 85.49 4.93z"/>
		<path class="s7" d="m277 721c2.65 1.04 5.32 2.02 8 3-1.34 3.6-2.99 6.96-4.77 10.37-9.89 19-13.84 37.97-13.73 59.26q0 1.23 0 2.51c0.02 12.49 1.13 23.96 4.95 35.93 0.84 2.95 1.39 7.44 1.74 10.49-21.26 1.54-44.2-8.46-60.43-22.13q-1.36-1.2-2.76-2.43-1.11-0.96-2.26-1.96c-14.36-13.37-22.02-31.29-22.76-50.74-0.19-15.42 5.19-26.84 15.66-38.04 20.49-19.64 52.25-17.43 76.36-6.26z"/>
		<path class="s8" d="m644.31 833.5q1.6-0.03 3.25-0.06c14.02 0.11 26.28 5.32 36.32 15.06 8.12 8.53 10.12 12.5 10.12 12.5 5.79 11.21 9.8 23.35 7 36-1.87 4.62-4.66 6.63-9 9-14.91 5.15-33.06 3.19-48.56 3.19q-5.95 0-11.91 0.03c-21.53 0.05-42.32-1.55-63.53-5.22-0.56-18.21 7.25-35.79 19.23-49.31 15.8-15.35 35.57-20.97 57.08-21.19z"/>
		<path class="s8" d="m419.42 841.68c16.94 8.18 27.33 21.75 33.58 39.32 2.45 7.89 2.21 15.81 2 24-20.62 3.41-41.34 4.34-62.21 4.26q-5.33-0.01-10.65 0.01c-44.35 0.03-44.35 0.03-53.76-8.71-4.27-7.95-2.33-17.99 0.12-26.27 4.5-13.87 12.75-26.5 25.95-33.37q4.23-2.07 8.55-3.92 1.15-0.52 2.34-1.06c15.93-5.61 38.95-1.06 54.08 5.74z"/>
		<path class="s9" d="m665.62 327.22c9 6.72 15.09 16.76 17.38 27.78 1.5 20.52-0.56 39.09-14.25 55.31-4.4 4.66-9 7.9-14.75 10.69q-1 0.51-2.04 1.03c-8.88 3.71-20.96 3.37-30.02 0.34-12.79-5.53-20.76-15.67-25.94-28.37-5.18-15.63-2.14-34.51 4.5-49.22 6.22-11.54 16.13-19.51 28.5-23.78 12.95-3.24 25.52-0.89 36.62 6.22z"/>
		<path class="s9" d="m436.55 299.14c9.66 7.32 15.72 17.13 18.45 28.86 1.57 16.8 0.21 34.94-10 49-8.47 10.04-18.09 17.05-31.51 18.34-13.73 0.14-24.43-2.5-34.35-12.15-12.02-12.77-12.72-27.28-12.46-43.98 0.56-15.52 6.07-28.46 17.32-39.21 2.54-2.02 5.1-3.57 8-5q0.92-0.48 1.87-0.96c13.52-5.72 30.71-2.51 42.68 5.1z"/>
		<path class="s0" d="m285 725c4.55 0.61 8.52 1.81 12.81 3.44 5.38 1.97 10.57 3.49 16.19 4.56q-0.99 0.49-2 1-0.41 2.91-0.72 5.82c-0.41 3.18-1.41 6.13-2.34 9.18-1.94 7.09-2.38 13.99-2.44 21.31q-0.03 1.48-0.05 3c0.07 9.33 2.3 18.43 8.93 25.32 4.17 3.53 8.07 4.64 13.43 4.37 6.4-0.93 12.32-3.1 16.93-7.76 3.73-5.19 3.83-10.04 3.26-16.24-0.76-3.56-1.82-6.98-2.94-10.44-4.02-13.35-4.11-24.77-3.06-38.56 3.47-0.5 3.47-0.5 7-1 8.44 31.32 15.35 61.8 7 94q0.99 0.49 2 1c-15.63 9.46-30.88 15.4-49 18q-0.98 0.14-1.99 0.29c-6.83 0.89-13.64 0.86-20.51 0.84q-1.75 0-3.55 0.01c-6.4-0.01-10.95-2.14-10.95-2.14q-0.26-1-0.53-2.03-1.21-4.58-2.41-9.16-0.41-1.57-0.84-3.19-0.4-1.53-0.81-3.1-0.37-1.4-0.75-2.84c-1.32-5.33-1.84-10.32-1.9-15.81q-0.01-1.17-0.03-2.38c-0.33-33.13-0.33-33.13 4.27-46.49q0.42-1.24 0.86-2.52c3.6-10.2 7.71-19.72 14.14-28.48z"/>
		<path class="s10" d="m555.83 360.95c2.48 1.94 4.84 3.94 7.17 6.05q1.02 0.88 2.07 1.79c10.01 9.23 24.43 30.06 25.05 44.02q-0.06 1.08-0.12 2.19c-1.29-0.02-1.29-0.02-2.61-0.04q-1.76-0.01-3.58-0.02c-1.72-0.02-1.72-0.02-3.48-0.04-3.52 0.03-6.99 0.3-10.5 0.59-41.21 3.33-82.55-4.16-120.83-19.49 1.68-11.63 13.55-22.15 22.65-29.29 25.6-18.71 56.87-24.62 84.18-5.76z"/>
		<path class="s11" d="m374 767c2.73 3.38 5.28 6.81 7.75 10.38 17.46 23.88 53.14 32.66 80.98 37.03 7.72 1.12 15.5 1.86 23.27 2.59-0.39 12.32-2.15 24.23-4.27 36.35q-0.81 4.61-1.58 9.23-1.5 8.72-3.15 17.42-0.24 1.28-0.48 2.6-0.67 3.54-1.41 7.06-0.18 1.01-0.37 2.06c-1.19 5.35-3.4 7.27-7.74 10.28-3.95 1.64-7.8 2.32-12 3q-0.13-1.91-0.26-3.88c-1.52-19.71-6.93-36.23-21.74-50.12-7.26-5.68-15.27-9.2-24-12q-1.45-0.48-2.95-0.97c-12.64-3.42-26.88-2.65-39.84-2.39 0.09-0.62 0.77-0.8 1.08-1.52 1.12-2.61 0.85-5.62 1.27-8.43q0.23-1.46 0.46-2.96 0.21-1.4 0.42-2.84 0.2-1.29 0.4-2.62c0.32-2.44 0.32-2.44-0.84-5.27q0.99 0 2 0c2.32-9.35 2.44-18.54 2.62-28.13q0.06-2.46 0.12-4.92 0.14-5.97 0.26-11.95z"/>
		<path class="s0" d="m654 781q0.49 0 1 0 0.16 1.29 0.32 2.62 0.74 6.07 1.49 12.13 0.14 1.08 0.27 2.2c1.21 9.79 6.03 34.25 4.94 37.54-0.55-0.16-2.75-0.41-2.75-0.41-21.12-1.99-43.32 1.04-61.27 11.92-16.77 10.89-29.07 49.03-29.41 49.03-0.33 2.64-1.25 4.25-1.59 6.97-5.85-0.99-10.27-2.19-15-6-2.28-3.41-2.6-5.61-3.22-9.64q-0.16-1-0.32-2.03-0.52-3.33-1.03-6.65-0.36-2.32-0.72-4.64-0.95-6.11-1.89-12.23-0.76-4.96-1.54-9.93-0.93-5.94-1.85-11.89-0.17-1.12-0.35-2.27-0.5-3.22-0.99-6.43-0.28-1.82-0.57-3.69-0.83-5.79-1.52-11.6c1.41-0.1 1.41-0.1 2.85-0.21 36.65-2.77 75.4-6.6 107.46-26.19 2.69-1.6 2.69-1.6 5.69-2.6q0-2.96 0-6z"/>
		<path class="s12" d="m489.83 794.88q1.19 0 2.41 0.01 1.35 0 2.73 0 1.47 0 2.97 0.01 1.49 0 3.02 0.01 4.8 0.01 9.6 0.03 3.25 0.01 6.49 0.01 7.98 0.02 15.95 0.05c3.64 8.69 5.34 17.42 6.76 26.68q0.36 2.24 0.72 4.49 0.74 4.68 1.47 9.37 0.92 5.95 1.87 11.89 0.74 4.63 1.47 9.27 0.34 2.19 0.69 4.38 0.49 3.08 0.96 6.17 0.27 1.73 0.55 3.52c0.73 6.05 1.08 12.15 1.51 18.23-24.42 0-48.84 0-74 0 1.12-10.12 1.12-10.12 1.82-14.08q0.23-1.33 0.46-2.7 0.25-1.39 0.5-2.82 0.53-3.06 1.05-6.12 0.83-4.74 1.66-9.49c4.18-23.98 4.18-23.98 6.07-48.23q0.09-2.71 0.19-5.43 0.04-1.15 0.08-2.34c0.23-2.46 0.54-2.75 3-2.91z"/>
		<path class="s13" d="m449 396c5.99 1.53 11.85 3.27 17.69 5.31 14.63 5 29.76 8.43 45 11 1.41 0.24 1.41 0.24 2.85 0.49 11.63 1.85 23.2 2.37 34.96 2.33q1.67 0 3.39 0.01c6.79-0.01 13.47-0.35 20.23-0.92 3.42-0.26 6.76-0.32 10.19-0.28q1.63 0.01 3.3 0.02c1.18 0.02 1.18 0.02 2.39 0.04-1.17 10.14-8.27 18.68-16 25-18.11 13.21-41.21 22.37-64 19-5.61-1.33-10.79-3.59-16-6q-1.58-0.68-3.21-1.38c-8.16-3.75-14.94-8.89-21.79-14.62q-1.01-0.84-2.06-1.71c-7.78-7.09-16.5-19.5-17.1-30.22q-0.04-4.04 0.16-8.07z"/>
		<path class="s14" d="m354.88 724.99c0.2 0.54 2.52 2.1 2.73 2.66 9.02 24.16 22.75 44.3 46.39 56.35 17.45 7.79 33.32 10.04 52.25 10.5 10.28 0.25 20.49 0.69 30.75 1.5 0 6.93-1.39 14.49-1.39 21.63-32.24 1.03-73.28-9.42-97.61-31.63-5.2-5.22-9.2-10.72-13-17q-0.02 1.41-0.04 2.87-0.1 5.34-0.22 10.68-0.05 2.3-0.09 4.6c-0.13 8.63-1.48 18.99-4.72 27.14-0.66 0-5.86 6.68-9.82 9.01 0 0-2.26 2.06-4 2.39 0.29-1.28 0.47-4.25 0.77-5.57 5.78-29.1 1.41-55.7-5.88-84.12-0.67-2.67-2.68-6.14-3.35-8.8 2.91-1.26 4.03-2.21 7.23-2.21z"/>
		<path class="s15" d="m227.01 512.78c5.87 6.49 6.53 12.85 6.31 21.42-0.66 7.92-3.61 14.22-9.32 19.8-8.72 7.3-18.92 9.71-30.18 9.34-6.44-0.78-11.07-2.97-15.19-8.03-5.48-8.27-6.64-16.49-5.63-26.31 1.64-8.03 4.55-14.74 11-20 13.34-8.1 31.29-6.58 43.01 3.78z"/>
		<path class="s16" d="m341.93 729.21c0.01 0.55 0.1 1.91 0.11 2.48 0.42 14.32 1.65 27.42 6.15 41.12 1.98 6.28 3.38 12.07 0.96 18.41-3.57 6.5-8.88 9.47-15.59 12.15-5.78 1.02-10.45 0.67-15.75-1.93-6.91-5.99-10.97-12.89-12.14-22.03-0.18-2.83-0.24-5.63-0.23-8.47q-0.01-1.53-0.01-3.11c0.24-11.7 3.27-24.77 6.64-35.92 0.71-0.08 8.48 1.05 11.68 0.65q1.66-0.2 3.37-0.41c1.6-0.19 1.6-0.19 3.24-0.4q1.47-0.18 2.98-0.36c2.93-0.43 5.64-2.18 8.59-2.18z"/>
		<path class="s17" d="m653.15 757.09c0.49 0.99-0.89 3.97-0.93 4.95-0.1 2.15 1.2 8.61 1.78 12.96 0.26 1.63 0.26 1.63 0.52 3.29 0.3 3.21 0.35 5.6-0.52 8.71-3.13 3.4-6.84 5.09-11 7q-1.81 0.88-3.62 1.77c-15.7 7.4-32.41 11.89-49.38 15.23q-1.04 0.21-2.12 0.43c-16.48 3.27-32 6.11-48.81 5.65-0.67-2.75-2.41-6.58-3.07-9.33q-0.28-1.16-0.58-2.36-0.27-1.12-0.54-2.28-0.26-1.03-0.51-2.1c-0.37-2.01-1.34-2.02-1.34-6.02 1.22-0.01 3.42-0.01 4.68-0.02q6.97-0.06 13.94-0.18 2.98-0.04 5.97-0.06c33.02-0.25 64.99-8.38 89.13-32.29 0.74-0.81 5.63-4.52 6.4-5.35z"/>
		<path class="s18" d="m712.04 581.69c5.1 2.26 10.51 3.24 15.96 4.31q0 1.97 0 4c-11.08 10.03-29.79 13.26-44 16q0 1.05 0.01 2.13 0.03 10.03 0.04 20.07 0.01 5.15 0.03 10.31c0.12 39.21 0.12 39.21-2.64 52.55q-0.21 1.03-0.42 2.08c-0.33 1.62-0.57 5.39-0.91 7-2.97-0.33-6.14-1.7-9.11-3.14-4.2-2.03-1.12-9-1.1-13.66q0.01-1.91 0.01-3.89 0.01-1.01 0.01-2.05 0.02-3.23 0.03-6.45 0.02-8.03 0.06-16.06c2.5-37.65 2.5-37.65-11.01-70.89q-0.49-0.99-1-2 0.89-0.07 1.8-0.15c14.01-1.17 14.01-1.17 27.95-2.98 9.55-1.39 15.55-1.59 24.29 2.82z"/>
		<path class="s19" d="m448 595c5.44 3.16 7.98 8.2 10 14 1.25 7.74-0.7 14.04-4.56 20.69-5.42 5.14-11.22 7.61-18.69 7.81-4.6-0.21-7.88-0.85-11.75-3.5q-1.29-0.86-2.62-1.75c-5.05-4.78-7.11-10.12-7.69-16.94 0.09-6.39 3.05-11.41 6.5-16.62 8.35-7.98 18.69-8.78 28.81-3.69z"/>
		<path class="s20" d="m597.35 592.88c5.91 3.46 10.48 8.19 13.02 14.56 1.58 8.99 0.47 15.21-4.5 22.81-4.9 4.69-10.07 6.93-16.87 7.25-6.92-0.33-12.63-2.64-17.38-7.75-3.97-5.18-6.33-10.97-6.03-17.61 1.34-7.01 5.1-12.55 10.57-16.98 6.28-3.94 14.17-4.9 21.19-2.28z"/>
		<path class="s21" d="m495.06 483.69q1.51 0 3.05 0.01c16.98 0.27 32.32 3.42 45.12 15.21 1.77 2.09 1.77 2.09 1.77 5.09q-2.46 1.2-4.94 2.38-1.37 0.65-2.77 1.33c-17.34 6.8-39.26 4.97-56.13-2.32-6.48-2.99-12.05-6.4-17.16-11.39 1-3 1-3 2.97-4.32q1.25-0.61 2.53-1.24 1.22-0.62 2.47-1.26c7.6-2.96 14.98-3.54 23.09-3.49z"/>
		<path class="s20" d="m525 620c5.85 5.23 8.92 10.35 9.38 18.25-0.17 5.95-1.93 11.71-5.7 16.39-4.76 4.33-10.3 6.09-16.55 6.8-5.85-0.28-11.59-2.23-16.03-6.09-5.35-5.98-6.58-11.41-6.4-19.35 0.66-6.53 3.45-10.46 8.18-14.88 8.45-6.84 18.09-6.92 27.12-1.12z"/>
		<path class="s22" d="m481.31 149c5.85 3.27 8.96 7.77 12.06 13.56 1.51 5.86 0.82 10.31-2.04 15.51-3.71 5.37-8.07 8.23-14.33 9.93-8.18 0.89-15.89 0.41-23-4-3.89-3.5-6.66-6.84-7.24-12.2-0.21-7.1 0.94-12.2 5.82-17.52 8.28-7.6 18.31-9.93 28.73-5.28z"/>
		<path class="s22" d="m634.94 165.75c5.7 2.97 9.63 5.98 12.33 11.91 1.86 5.97 1.64 12.08-0.96 17.78-2.94 5.06-6.81 7.73-12.31 9.56-7.82 0.73-15.93 0.8-23-3-5-4.24-8.63-8.4-9.31-15.06 0.58-7.3 2.8-13.01 8.31-17.94 7.43-6.04 15.99-7.06 24.94-3.25z"/>
		<path class="s23" d="m623 668c2.5 2.5 2.5 2.5 4 5q0.53 0.87 1.07 1.77c2.53 6.07 1.75 14.15-0.63 20.17-2.83 5.44-6.87 8.86-12.38 11.43-7.89 1.62-14.03 0.58-21.06-3.37-4.21-3.67-6.82-7.91-7.3-13.46q-0.01-1.93-0.01-3.92-0.03-1.91-0.05-3.89c0.63-6.47 3.45-10.6 8.36-14.73 8.97-5.2 19.16-4.09 28 1z"/>
		<path class="s23" d="m429 667c4.23 3.81 7.64 7.5 8.24 13.35 0.21 7.63-0.7 14.6-5.89 20.54-5.43 4.9-10.34 6.66-17.65 6.49-5.54-0.78-10.53-3.1-14.4-7.17-5.25-7.09-5.22-14.76-4.3-23.21 1.92-4.75 4.57-7.91 8.62-11 7.96-3.35 17.77-3.28 25.38 1z"/>
		<path class="s22" d="m407.31 166.19c3.52 2.37 5.8 5.02 7.69 8.81 0.85 8.79-0.62 15.36-6.19 22.25-4.45 4.82-10.39 8.27-17.01 8.99-6.17 0.18-10.72-0.6-15.8-4.24-4.33-4.55-5.44-8.46-5.34-14.6 1.08-7.72 7.48-12.91 13.34-17.4 7.15-4.94 15.03-6.78 23.31-3.81z"/>
		<path class="s24" d="m453.78 208.99c5.84 3.54 9.75 8.67 12.22 15.01 1.12 6.28 0.14 11.5-3 17-4.44 4.16-8.99 4.34-14.82 4.28-10-0.88-19.94-4.52-26.68-12.09-1.82-3.88-2.27-7.02-1.5-11.19 2.61-6.59 6.87-9.64 13-13 6.32-2.11 14.46-2.26 20.78-0.01z"/>
		<path class="s25" d="m695 201c9.26 3.85 15.57 11.13 20 20 0.49 5.83 0.83 11.18-1.63 16.56-4.56 4.69-7.63 6.69-14.25 6.94-7.88-0.31-12.58-2.56-17.93-8.31-5.9-7.34-7.11-13.94-6.19-23.19 1.18-5.1 3.65-8.1 8-11 3.84-1.92 7.83-1.67 12-1z"/>
		<path class="s24" d="m649 235c4.43 2.81 7.33 5.99 9 11 0.64 5.23 0.8 10.21-1.63 15-2.93 3.71-5.67 5.61-10.46 6.3-2.37 0.14-4.72 0.17-7.1 0.14q-1.25-0.01-2.54-0.02c-8.13-0.2-14.29-2.27-21.39-6.11-2.87-3.53-3.24-6.83-2.88-11.31 1.71-6.17 5.63-10.65 11-14 9.05-4.29 16.87-5.64 26-1z"/>
		<path class="s22" d="m318.86 409.61c6.29 4.08 10.51 10.09 12.14 17.39 0.58 5.48-0.4 9.15-3 14-4.2 4.98-7.38 6.74-13.81 7.37-6.01-0.16-10.44-2.9-14.94-6.68-5.79-6.92-7.62-13.08-7.54-21.99 0.51-4.78 2.86-7.44 6.35-10.51 6.54-4.01 14.22-2.85 20.8 0.42z"/>
		<path class="s25" d="m556 158c4.65 1.58 7.77 4.21 10.44 8.31 2.63 5.45 3.14 10.45 1.62 16.25-2.23 5.95-6.83 9.9-12.49 12.6-5.36 1.75-10.88 1.95-16.14-0.22-5.32-3.24-8.79-6.87-10.43-12.94-1.05-6.35-0.24-10.98 3.5-16.24 6.83-7.99 13.25-8.74 23.5-7.76z"/>
		<path class="s23" d="m723.38 458.13c3.24 2.31 5.37 4.09 6.62 7.87 1.18 8.18 0.69 15-4.09 21.88-5.48 6.09-12.28 9.62-20.41 10.5-5.48-0.59-8.25-3-11.87-7-2.55-5.29-2.54-10.11-0.97-15.74 2.77-6.94 7.43-12.96 13.65-17.14 5.9-2.4 11.05-2.38 17.07-0.37z"/>
		<path class="s25" d="m781.38 404.69c3.42 1.97 5.31 3.45 6.62 7.31 0.89 7.2 0.26 13.04-4 19-4.78 6.04-10.47 10.02-18.14 11.38-5.1 0.3-8.07-1.1-11.86-4.38-4.39-5.7-5.6-9.84-5-17 2.48-8.01 8.33-12.93 15.44-16.94 6.04-1.8 11.12-2 16.94 0.63z"/>
		<path class="s22" d="m269 344c6.78 3.49 11.3 9.11 14.31 16 1.42 6.19 0.98 10.67-2.03 16.2-2.62 3.69-6.09 5.4-10.28 6.8-6.01 0.59-10.12-0.62-15-4-4.9-4.46-8.51-9.73-9.28-16.45-0.19-5.25 0.2-9.13 3.28-13.55 5.89-5.93 11.02-6.91 19-5z"/>
		<path class="s23" d="m729.38 610.06c4.25 3.15 7.79 6.11 9.32 11.34 0.81 5.67 0.46 10.72-2.7 15.6-4.91 5.26-8.87 8.11-16.19 8.38-5.78-0.08-9.62-1.34-13.81-5.38-3.87-4.85-4.75-10.14-4.52-16.25 1.12-5.94 4.47-10.14 9.15-13.81 6.23-1.73 12.56-1.83 18.75 0.12z"/>
		<path class="s23" d="m790.38 613.63c3.73 2.16 5.75 4.41 7.62 8.37 1.21 4.59 1.25 8.09 0 12.69-2.94 4.87-6.55 8.49-12 10.31-5.96 0.53-10.96 0.55-16-3-4.13-4.11-6.68-7.25-7.37-13.19 0.56-5.75 2.89-9.54 7.13-13.43 6.43-4.61 13.42-4.92 20.62-1.75z"/>
		<path class="s25" d="m344 205c3.74 2.73 4.99 5.54 6 10 0.84 6.72-0.31 12.28-4 18-3.74 4.05-7.08 6.78-12.74 7.2q-1.55 0.03-3.13 0.05c-1.55 0.04-1.55 0.04-3.12 0.08-3.42-0.37-5.25-1.33-8.01-3.33-2.26-2.91-2.48-6.09-2.38-9.72 1.3-7.85 6.23-14.47 12.38-19.28 5.07-3.46 8.88-4.88 15-3z"/>
		<path class="s23" d="m543 710c4.16 1.67 6.35 4.1 8.94 7.69 1.82 5.69 1.86 10.95-0.06 16.62-2.62 3.75-5.51 6.69-9.82 8.5q-1.01 0.09-2.06 0.19c-1.61 0.15-1.61 0.15-3.25 0.31-5.92-0.49-10.1-2.57-14.19-6.87-3.14-4.9-3.17-9.79-2.56-15.44 1.29-3.89 3.54-6.54 6.44-9.44 5.49-2.4 10.67-2.4 16.56-1.56z"/>
		<path class="s22" d="m291 275c3 1.76 4.53 3.22 6.31 6.19 1.82 7.41 0.93 14.9-2.31 21.81-3.44 4.71-7.15 7.9-13 9-4.98 0.44-8.1 0.25-12-3-2.92-4.44-3.68-7.74-3-13 2.59-8.45 6.16-15.57 13.97-20.16 3.3-1.37 6.56-1.4 10.03-0.84z"/>
		<path class="s22" d="m514.07 210.65c4.61 2.33 7.34 5.53 8.93 10.35 0.92 5.93 0.02 10.76-3 16-3.88 4.09-7.6 6.12-13.25 6.31-5.06-0.07-7.69-1.29-11.75-4.31-4.13-5.33-5.46-9.26-5-16 1.83-4.99 4.88-8.7 9-12 4.87-1.62 10.13-1.9 15.07-0.35z"/>
		<path class="s22" d="m290.14 594.65c3.75 1.9 6.33 4.53 8.2 8.3 1.71 5.32 1.6 10.88-0.9 15.93-3.53 4.52-6.52 6.71-12.13 7.5-5.94 0.25-9.74-0.26-14.31-4.38-4.08-4.52-5.32-7.79-5.21-13.95 0.49-4.76 2.74-7.84 6.27-10.86 5.42-4.04 11.55-4.52 18.08-2.54z"/>
		<path class="s22" d="m772 333c5.82 2.73 9.01 7.48 12 13 2.08 5.96 2.34 14.3 0.2 20.21-2.22 3.12-4.91 4.27-8.51 4.98-4.41 0.18-7.33-0.91-10.9-3.46-5.23-5.05-7.86-11.79-8.1-18.98 0.07-5.9 2.19-10.41 6.12-14.75 3.28-1.5 5.62-1.43 9.19-1z"/>
		<path class="s25" d="m742 254c6.57 1.96 9.83 7.22 13 13 1.15 3.44 1.24 6.25 1.31 9.88q0.06 1.81 0.12 3.67c-0.5 4.03-1.6 5.6-4.43 8.45-3.5 1.75-7.27 0.81-11 0-6.63-3.5-10.37-8.6-13.23-15.39-1.44-4.88-1.58-9.6-0.77-14.61 3.5-6.07 8.62-6.04 15-5z"/>
		<path class="s22" d="m584.04 219.97c4.04 2.68 6.4 5.34 7.96 10.03 0.56 5.87-0.07 9.74-3 15-5.09 4.72-8.44 5.37-15.24 5.27-3.98-0.39-5.91-1.49-8.76-4.27-3.68-5.22-4.71-9.7-4-16 1.86-5.27 4.6-7.79 9-11 4.75-1.58 9.49-1.2 14.04 0.97z"/>
		<path class="s26" d="m622 862.94c3.77 1.33 4.73 2.8 7 6.06 1.45 3.16 1.45 3.16 2.69 6.5q0.62 1.65 1.26 3.34c1.49 4.49 2.18 8.52 2.15 13.24q-0.01 1.39-0.01 2.82-0.01 1.44-0.03 2.91 0 1.46-0.01 2.97c-0.01 2.41-0.08 6.03-0.1 8.44 0 0-7.41-0.22-17.95-0.22-0.33-4.33-0.66-8.66-1-13.13-0.16-2-0.16-2-0.32-4.04-0.45-6.16-0.81-12.33-0.99-18.51q-0.06-1.67-0.12-3.39c0.43-2.93 0.43-2.93 2.26-5.32 2.17-1.61 2.17-1.61 5.17-1.67z"/>
		<path class="s27" d="m410 863c2 2 2 2 2.23 4.94q-0.02 1.78-0.04 3.62-0.01 1.76-0.02 3.57c-0.12 2.76-0.32 5.41-0.65 8.14-0.62 5.26-0.86 10.51-1.08 15.79-0.15 3.28-0.29 6.56-0.44 9.94-12.21 0-18.07 0.26-18.07 0.26-0.06-2.87-0.05-6.99-0.12-9.95-0.06-13.08 1.79-23.82 10.19-34.31 3.22-2.15 4.27-2.38 8-2z"/>
		<path class="s28" d="m365.06 864.19c2.94 0.81 2.94 0.81 4.94 3.81 0.67 5.19 0.02 10.33-0.94 15.44-1.56 8.44-1.65 17.24-1.99 25.8-5.28 0-10.63-0.24-16.07-0.24-3.67-28.57-3.67-28.57 2.65-37.27 6.69-7.83 6.69-7.83 11.41-7.54z"/>
		<path class="s28" d="m662.31 862.5c3.89 0.72 6.15 2.61 8.69 5.5 8.6 12.74 7.56 40.87 7.56 40.87-5.73 0.59-11.49 0.59-17.61 0.59-0.12-1.55-0.19-4.57-0.32-6.17q-0.25-3.12-0.5-6.23-0.12-1.52-0.24-3.09c-0.46-5.49-1.17-10.7-2.46-16.05-0.55-2.45-0.73-4.79-0.74-7.29q-0.03-1.22-0.05-2.47c0.59-3.51 2.25-4.92 5.67-5.66z"/>
		<path class="s23" d="m468.96 725.69c3.03 1.53 4.97 3.22 6.98 5.93 1.43 4.57 1.77 8.64 1.06 13.38-2.46 4.66-4.95 8.32-10 10-4.99 0.52-8.88 0.55-13.44-1.69-4.43-3.99-5.75-6.74-6.06-12.69 0.14-4.7 0.95-7.66 4.02-11.25 4.96-4.59 11.08-5.92 17.44-3.68z"/>
		<path class="s22" d="m231.91 606.94c3.67 1.72 6.46 3.38 9.22 6.37 1.19 3.68 1.7 6.87 0.87 10.69-2.8 3.68-5.51 5.85-10 7-6.36 0.63-10.73-0.32-16-4-3.08-2.59-5.5-5.09-6.54-9.05-0.28-3.99 0.42-5.8 2.92-8.89 5.67-4.45 12.76-4.31 19.53-2.12z"/>
		<path class="s29" d="m632 331c3 1.8 4.45 2.9 6 6 0.56 5.96 0.5 10.93-3 16-2.29 2.64-3.9 3.82-7.37 4.38-4.23 0.19-6.9 0.03-10.63-2.07-3.07-3.55-3.89-6.08-4.31-10.75 0.44-5.07 2.06-8.07 5.31-11.94 4.57-2.47 8.92-2.4 14-1.62z"/>
		<path class="s30" d="m399 302c3.59 1.64 4.79 2.69 7 6 0.85 6.28 0.14 11.51-3 17-3.87 3.63-7.18 3.55-12.3 3.43-4.21-0.67-5.87-2.3-8.7-5.43-1.54-3.07-1.23-5.6-1-9 3-8.64 8.96-13.31 18-12z"/>
		<path class="s31" d="m186.31 464.56c4.58 0.55 5.84 1.92 8.69 5.44 2.23 4.46 1.62 10.17 1 15-1.68 3.07-2.68 3.43-6 5-3.63 0.19-3.63 0.19-7-1-4.6-5.45-5.49-9.99-5-17 2.07-4.23 3.48-6.8 8.31-7.44z"/>
		<path class="s32" d="m152 515c3.67 1.86 6.26 4.13 7.79 8 0.7 3.64 0.39 5.7-1.48 8.88-3.52 3.24-4.92 4.17-9.81 3.99-3.92-0.98-5.13-1.65-7.5-4.87-1.96-3.64-3.02-6.1-2.94-10.25 0.94-2.75 0.94-2.75 2.44-4.63 3.89-1.75 7.32-1.97 11.5-1.12z"/>
		<path class="s31" d="m162 482c3.01 2.05 4.57 3.57 5.63 7.09 0.89 5.49 0.08 9.09-2.63 13.91-2.82 1.41-4.87 1.25-8 1-4.13-1.83-6.27-3.81-8-8-0.59-4.43-0.5-7.91 1.38-12 3.24-3.99 7-3.26 11.62-2z"/>
		<path class="s33" d="m331 207q0.99 0.49 2 1-1.13 1.05-2.3 2.13c-7.12 6.73-11.15 11.92-12.7 21.87q-0.49 0-1 0c-0.73-6.69 1.4-11.4 5-17 2.64-3.13 5.31-6.15 9-8z"/>
		<path class="s34" d="m389 297q0.49 0.99 1 2-0.76 0.63-1.54 1.29c-6.49 5.52-11.99 10.8-15.46 18.71-1-3-1-3-0.1-5.2 3.99-6.73 8.93-13.21 16.1-16.8z"/>
		<path class="s35" d="m386 169q0.99 0.49 2 1-1.01 0.88-2.05 1.79c-1.33 1.19-1.33 1.19-2.7 2.4q-1.32 1.16-2.67 2.35c-2.46 2.35-4.5 4.78-6.58 7.46q-0.99 0.99-2 2c0.86-6.39 4.82-10.52 9.8-14.4q2.06-1.36 4.2-2.6z"/>
		<path class="s36" d="m307 126q1.48 0.49 3 1-1.17 0.68-2.38 1.38c-5.19 3.41-9.33 8.17-13.62 12.62 0-4.33 2.22-5.95 5.05-9.05 2.53-2.53 4.78-4.29 7.95-5.95z"/>
		<path class="s37" d="m615 328q0.99 0.49 2 1-1.02 0.99-2.06 2c-3.51 3.49-6.71 7.25-9.94 11q-0.49-1.48-1-3c1.29-1.94 1.29-1.94 3.19-4q0.91-1.02 1.85-2.06c1.88-1.86 3.81-3.41 5.96-4.94z"/>
		<path class="s38" d="m467 371q0.99 0.49 2 1-2.43 2.76-4.88 5.5-0.68 0.78-1.39 1.59c-1.2 1.34-2.46 2.63-3.73 3.91q-0.99 0-2 0c1.48-3.45 3.44-5.65 6.13-8.25q1.08-1.05 2.19-2.14 0.83-0.79 1.68-1.61z"/>
		<path class="s39" d="m275 595q0.99 0.49 2 1-5 5-10 10c0.09-2.91 0.58-4.57 2.63-6.67q2.62-2.24 5.37-4.33z"/>
		<path class="s40" d="m703 461q1.48 0.49 3 1c-2.64 2.64-5.28 5.28-8 8q-0.99-0.49-2-1c2.31-2.64 4.62-5.28 7-8z"/>
		<path class="s33" d="m681 203q0.99 0 2 0c-1.38 2.97-3.04 5.39-5 8q-1.05 1.97-2 4c-0.35-2.93-0.51-5.14 1.04-7.73 1.33-1.64 1.33-1.64 3.96-4.27z"/>
		<path class="s41" d="m622 237c0 3 0 3-2.5 5.69q-1.23 1.14-2.5 2.31-0.99-0.49-2-1c4.75-5.88 4.75-5.88 7-7z"/>
		<path class="s42" d="m460 149q0.99 0.49 2 1c-3.96 3.47-3.96 3.47-8 7q-0.99-0.99-2-2c2.64-1.98 5.28-3.96 8-6z"/>
		<path class="s43" d="m455 727q0.99 0.49 2 1c-2.31 2.64-4.62 5.28-7 8q-0.49-1.48-1-3c3.16-4.58 3.16-4.58 6-6z"/>
		<path class="s44" d="m614 166q0.99 0.49 2 1c-1.98 1.98-3.96 3.96-6 6q-1.48-0.49-3-1c2.31-1.98 4.62-3.96 7-6z"/>
	</g>
</svg>