<svg version="1.2" xmlns="http://www.w3.org/2000/svg" viewBox="0 0 1000 1000" width="1000" height="1000">
	<style>
		.s0 { fill: #dcdbd5 } 
		.s1 { fill: #fdd039 } 
		.s2 { fill: #fdfdf8 } 
		.s3 { fill: #e7b200 } 
		.s4 { fill: #5f6160 } 
		.s5 { fill: #d5d5ce } 
		.s6 { fill: #d5d5cf } 
		.s7 { fill: #7e8383 } 
		.s8 { fill: #dd9111 } 
		.s9 { fill: #7f8484 } 
		.s10 { fill: #383a3c } 
		.s11 { fill: #808585 } 
		.s12 { fill: #d5d6cf } 
		.s13 { fill: #fdc20f } 
		.s14 { fill: #fed0cd } 
		.s15 { fill: #bdbfb7 } 
		.s16 { fill: #505150 } 
		.s17 { fill: #bdbeb7 } 
		.s18 { fill: #fed833 } 
		.s19 { fill: #7e827d } 
		.s20 { fill: #a6ddf9 } 
		.s21 { fill: #f6f4f0 } 
		.s22 { fill: #5c6162 } 
		.s23 { fill: #5d5f5e } 
		.s24 { fill: #80857f } 
		.s25 { fill: #818680 } 
		.s26 { fill: #5b5d5b } 
		.s27 { fill: #bcbeb7 } 
		.s28 { fill: #bebfb8 } 
		.s29 { fill: #fabe23 } 
		.s30 { fill: #cbccd5 } 
		.s31 { fill: #cfd0c8 } 
	</style>
	<path class="s0" d="m399.94 101.56q3.06 2.69 6.06 5.44c0.98 0.86 0.98 0.86 1.98 1.73 6.32 5.84 11.06 13.3 16.02 20.27q1.05-0.28 2.13-0.56c38.65-10.16 77.55-15.55 117.55-15.64 1.21-0.01 1.21-0.01 2.46-0.01q6.45-0.02 12.91-0.03 5.23-0.01 10.47-0.04c20.71-0.13 40.94 0.24 61.48 3.28q1.61 0.24 3.27 0.48c40.94 6.13 40.94 6.13 53.73 12.52 0.77-1.18 0.77-1.18 1.55-2.39 15.35-23.01 36.3-40.25 63.83-46.42 20.25-3.67 41.09-0.1 58.62 10.81 13.05 9.19 23.24 21.11 31 35q0.81 1.43 1.65 2.89c4.47 8.32 7.01 17.01 9.35 26.11q0.37 1.36 0.75 2.76c6.35 27.6-1.51 58.98-16.24 82.63-8.25 12.5-8.25 12.5-12.31 16.3-1.79 1.71-3.09 3.09-4.2 5.31 0.23 3.62 1.62 6.68 3 10q1.02 2.97 2.02 5.94 6.6 18.73 13.78 37.25 0.81 2.08 1.61 4.17c2.87 7.47 5.98 14.7 9.73 21.78q0.49 0.91 0.98 1.84c3.02 5.54 6.67 10.34 10.88 15.02q0.82 0.93 1.67 1.88c4.22 4.48 8.99 7.73 14.17 11.03 2.16 2.09 2.16 2.09 2.66 4.98-2.68 16.63-22.24 35.38-34.5 46.11q-0.99 0-2 0 0 0.99 0 2 0.9 0.06 1.84 0.11c15.49 1.22 15.49 1.22 20.16 5.89-1.76 22.22-31.22 46.98-47.01 60.67q-3.94 3.23-7.99 6.33c-1.42 1.14-1.42 1.14-2.86 2.3-11.06 8.79-22.97 16.54-35.14 23.7 5.47 1.75 10.71 2.59 16.42 3.1 1.41 0.12 1.41 0.12 2.85 0.25 15.38 1.24 30.85 1.04 46.27 1.11q5.24 0.02 10.48 0.08 2.9 0.02 5.81 0.02c14.48 0.16 26.41 4.65 37.05 14.75 12.13 12.97 16.65 28.21 16.4 45.49-0.25 6.86-1.76 12.8-4.28 19.2q-0.6 1.53-1.21 3.1c-7.24 16.24-21.49 27.58-37.79 33.9-45.83 14.91-101.62 0.72-144-19-0.18 1.71-0.18 1.71-0.37 3.46-2.54 20.14-10.52 40.49-19.97 58.33-1.4 2.7-2.59 5.36-3.66 8.21q1.53 1.14 3.11 2.31c7.39 5.5 14.69 11.04 21.75 16.95 2.22 1.86 2.22 1.86 5.14 3.74q1.25-1.06 2.54-2.16c15.21-12.65 32.16-20.59 52.46-18.84 8.83 1.23 15.72 3.88 23 9q1.35 0.89 2.75 1.81c7.69 7.48 11.36 15.91 11.69 26.5-0.45 19.78-14.98 34.72-28.52 47.77-1.81 1.81-3.47 3.67-5.12 5.61-3.9 4.48-8.03 8.69-12.24 12.87q-1.06 1.07-2.16 2.17c-4.08 4.08-8.27 7.97-12.64 11.74-2.17 1.88-4.24 3.87-6.32 5.84-8.98 8.08-23.45 20.38-36.13 19.88-24.81-4.24-48.16-20.79-67.31-36.19q-1.43-1.14-2.89-2.31c-5.42-4.37-10.64-8.9-15.79-13.58q-3.06-2.78-6.19-5.48c-24.89-21.74-24.89-21.74-30.25-30.88-1.53-2.17-1.53-2.17-3.88-3.75-2.57-0.13-4.71-0.05-7.24 0.23q-2.3 0.2-4.6 0.38-1.24 0.1-2.51 0.21c-4.79 0.33-9.58 0.4-14.37 0.5q-1.5 0.03-3.05 0.06-4.65 0.09-9.29 0.18-3.21 0.07-6.42 0.13-7.76 0.16-15.52 0.31c-1.31 5.52-2.35 10.96-2.96 16.61-0.12 1.06-0.12 1.06-0.24 2.15q-0.38 3.49-0.74 6.99c-0.12 1.22-0.12 1.22-0.25 2.46-2.68 25.87-4.85 51.96-5.31 77.98q-0.05 1.32-0.09 2.69c-0.01 5.82 1.56 9.86 4.39 14.93 2.5 4.55 3.29 8.79 3.24 13.9q-0.01 1.21-0.02 2.44-0.01 0.91-0.02 1.85c1.55-0.01 1.55-0.01 3.14-0.01q37.78-0.13 75.56-0.2 18.27-0.03 36.54-0.09 15.93-0.06 31.85-0.08 8.43 0 16.87-0.04 7.93-0.04 15.87-0.03 2.91 0 5.82-0.03 3.98-0.02 7.96 0c1.15-0.02 1.15-0.02 2.33-0.04 6.41 0.07 9.75 2.51 14.44 6.58 2.51 4.54 2.36 8.87 1.62 13.94-2 4-4.18 6.66-8 9-3.36 1.12-5.89 1.13-9.44 1.13-0.99 0.01-0.99 0.01-2 0.01q-3.33 0.01-6.67 0.01-2.41 0-4.82 0.01-6.64 0.01-13.27 0.01-7.15 0.01-14.3 0.03-17.28 0.02-34.56 0.04-8.13 0-16.26 0.01-27.03 0.03-54.06 0.04-7.02 0-14.03 0.01c-1.75 0-1.75 0-3.53 0q-28.25 0.01-56.51 0.06-29 0.05-58 0.06-16.28 0-32.57 0.03-13.87 0.04-27.74 0.02-7.07-0.01-14.15 0.02-6.48 0.03-12.96 0-2.34 0-4.69 0.02c-14.71 0.1-14.71 0.1-21.44-4.51-2.9-3.42-4.22-6.57-4.44-11.06 0.61-5.43 1.92-8.53 5.94-12.25 4.02-2.72 7.06-2.81 11.81-2.8q1.94 0 3.94 0 2.13 0 4.26 0.01 2.18 0.01 4.36 0.01 5.73 0 11.47 0.02 5.85 0.02 11.7 0.02 11.48 0.02 22.96 0.05c-0.49-1.66-0.49-1.66-0.98-3.35-0.81-2.91-1.29-5.06-1.27-8.03q-0.01-0.99-0.02-2.02c0.24-2.35 0.69-4.44 1.25-6.73 1.18-5.15 1.43-10.16 1.58-15.43q0.06-1.54 0.11-3.13 0.18-5.65 0.33-11.31c0.03-1.22 0.03-1.22 0.07-2.46q0.5-18.77 0.93-37.54-0.75 0.78-1.52 1.59c-6.23 6.39-12.77 10.97-20.48 15.41q-1.6 0.93-3.25 1.88c-26.43 13.69-62.91 18.08-91.61 9.5-15.2-4.89-28.26-14.26-36.14-28.38-5.2-10.67-6.15-23.77-2.31-35.06 6.36-14.73 16.81-24.98 31.76-31.03 10.08-3.6 19.94-4.32 30.55-4.41 17.11-0.32 33.41-2.22 49.95-6.73 3.05-0.77 3.05-0.77 6.05-0.77q0.49 2.96 1 6c0-2.31 0-4.62 0-7q1.53-0.76 3.11-1.54 5.45-2.7 10.87-5.44 2.46-1.24 4.93-2.47c9.76-5.04 20.45-11.56 28.09-19.55-1.41-4.6-3.29-8.8-5.5-13.06-5.5-10.69-5.5-10.69-5.5-14.94q-1.94-0.18-3.95-0.37c-4.73-0.53-9.26-1.49-13.89-2.63q-1.23-0.3-2.49-0.61-2.65-0.64-5.3-1.28-7.07-1.72-14.15-3.41-1.42-0.35-2.88-0.7-13.13-3.16-26.28-6.19c-1.06-0.24-1.06-0.24-2.14-0.49-11.5-2.63-23.04-4.98-34.61-7.25-11.64-2.28-23.19-4.82-34.73-7.51-10.8-2.52-21.63-4.83-32.5-7-13.46-2.71-26.88-5.55-40.24-8.73q-2.44-0.57-4.88-1.14-3.38-0.79-6.75-1.61c-1.91-0.46-1.91-0.46-3.86-0.93-4.1-1.41-7.36-3.18-9.35-7.15 0.05-8.92 1.76-17.41 4-26q-1.39-0.06-2.81-0.12c-11.78-1.74-22.8-11.5-29.88-20.5-13.8-19.47-17.28-39.04-14.91-62.33 2.91-16.65 13.07-33.95 26.6-44.05q1.14-0.87 2.32-1.77c12.63-8.85 27.55-12.03 42.68-13.23q0.24-1 0.49-2.03 1.11-4.58 2.26-9.16 0.38-1.57 0.77-3.19c2.7-10.72 2.7-10.72 6.48-13.62 5.72-0.34 10.73 0.37 16.27 1.68q1.14 0.26 2.31 0.52 3.62 0.83 7.23 1.67 4.76 1.1 9.52 2.18c1.14 0.26 1.14 0.26 2.29 0.53q8.64 1.97 17.38 3.42-1.16-1.43-2.35-2.91c-25.19-31.75-25.19-31.75-27.05-43.64 0.4-2.45 0.4-2.45 2.24-4.12q1.25-0.75 2.54-1.52c10.6-6.96 17.65-15.69 23.62-26.81q0.91-1.68 1.85-3.41c11.76-22.87 18.76-48.86 26.4-73.33 0.75-2.26 0.75-2.26 1.75-4.26-0.8-0.93-0.8-0.93-1.62-1.88-15.34-18.23-25.96-37.83-31.38-61.12q-0.27-1.14-0.54-2.31c-0.87-5.12-0.69-10.31-0.7-15.49q-0.02-3.05-0.07-6.11c-0.24-29.44 12.37-54.7 32.62-75.46 9.38-8.85 20.55-14.57 32.69-18.63q1.03-0.35 2.09-0.71c27.03-8.46 58.02 2.59 78.85 20.27z"/>
	<path class="s1" d="m212 413q3.75 0.64 7.46 1.5 1.04 0.24 2.1 0.48 2.24 0.52 4.48 1.04 6.09 1.41 12.18 2.78c1.25 0.28 1.25 0.28 2.52 0.57q11.51 2.59 23.07 4.94 0.97 0.2 1.98 0.41 15.22 3.1 30.47 6.13 1.86 0.37 3.78 0.75 9.43 1.89 18.87 3.76 3.48 0.69 6.96 1.38 1.61 0.32 3.27 0.65c1.49 0.3 1.49 0.3 3.01 0.6q1.3 0.25 2.63 0.52c2.22 0.49 2.22 0.49 5.22 1.49q-0.49-1.26-1-2.56c-1.52-5.23-1.86-8.78 0.69-13.69 2.94-3.5 4.92-5.33 9.5-6.14 7.19-0.5 12.35 1.77 17.81 6.39 4.69 5.59 7.15 10.33 7.06 17.69q-0.01 1.48-0.02 3.01c-0.02 1.14-0.02 1.14-0.04 2.3q1.95 0.19 3.96 0.4c4.61 0.51 9.11 1.32 13.65 2.28q1.21 0.25 2.47 0.51 4.05 0.84 8.11 1.68 4.42 0.92 8.84 1.83 3.12 0.65 6.24 1.29 11.5 2.38 23.02 4.7 18.67 3.77 37.33 7.61 3.4 0.7 6.79 1.4 9.84 2.02 19.66 4.09 3.03 0.64 6.06 1.26 4.16 0.86 8.32 1.76 1.21 0.24 2.46 0.49c3.32 0.73 5.75 1.48 8.62 3.34 3.31 5.32 1.31 12.41 0.22 18.27q-0.2 1.11-0.4 2.25-0.67 3.67-1.35 7.34-0.48 2.62-0.96 5.25c-2.93 15.99-6.11 31.93-9.34 47.87q-2.17 10.72-4.3 21.44c-4.35 21.89-8.73 43.76-13.25 65.61q-0.64 3.1-1.28 6.21-0.88 4.29-1.78 8.58-0.25 1.23-0.51 2.49-1.32 6.31-3.02 12.52-0.34 1.22-0.68 2.48c-0.88 2.05-0.88 2.05-3.88 4.05-1.97 0.03-1.97 0.03-4.18-0.28q-1.19-0.16-2.42-0.33-5.31-0.86-10.58-1.96-1.13-0.23-2.3-0.46-3.7-0.76-7.39-1.53-1.28-0.27-2.59-0.54c-13.73-2.83-27.39-5.87-41.04-9.04q-13.39-3.1-26.87-5.8c-10.95-2.2-21.79-4.75-32.63-7.43-17.86-4.42-35.79-8.36-53.79-12.16q-5.36-1.14-10.71-2.28-15.29-3.25-30.59-6.47c-20.28-4.27-40.53-8.64-60.74-13.23q-3.25-0.73-6.5-1.46-6.06-1.37-12.11-2.78c-1.8-0.4-1.8-0.4-3.64-0.82q-1.65-0.39-3.35-0.79-1.44-0.33-2.91-0.67c-3.76-1.37-6.84-3.33-8.66-6.97 0.05-8.92 1.76-17.41 4-26q-1.39-0.06-2.81-0.12c-11.78-1.74-22.8-11.5-29.88-20.5-13.8-19.47-17.28-39.04-14.91-62.33 2.91-16.65 13.07-33.95 26.6-44.05q1.14-0.87 2.32-1.77c12.63-8.85 27.55-12.03 42.68-13.23q0.24-1 0.49-2.03 1.11-4.58 2.26-9.16c0.38-1.58 0.38-1.58 0.77-3.19 2.38-9.46 3.88-14.37 14.48-13.62z"/>
	<path class="s2" d="m471.55 270.11c1.22 0.93 1.22 0.93 2.45 1.89 1.27 0.98 1.27 0.98 2.57 1.99 14.85 12.42 21.26 28.66 25.43 47.01q0.26 0.91 0.53 1.85c3.15 14.57 1.35 32.15-3.53 46.15q-0.52 1.55-1.05 3.16c-1.39 3.99-2.94 7.84-4.76 11.65-1.66 4.44-1.17 6.91 0.68 11.21 10.14 20.06 31.49 32.75 51.13 41.98q2 0.99 4 2 0.08 3.44 0.12 6.87 0.04 1.91 0.08 3.87c-0.2 3.26-0.2 3.26-2.2 5.26-10.37 1.23-18.24-0.14-26.77-6.27-2.49-1.99-4.58-4.13-6.67-6.54-2.48-2.52-2.48-2.52-6.25-2.69q-1.63 0.25-3.31 0.5c-2.06 3.1-2.45 4.37-1.78 7.98 3.26 8.43 12.08 14.06 19.78 18.02 11.62 4.92 23.72 6.38 36.25 6.31q1.62-0.01 3.3-0.01c16.36-0.25 31.58-2.93 43.89-14.65 3.31-3.5 4.71-6.04 4.93-10.84q-0.18-1.88-0.37-3.81c-2.76-2.21-2.76-2.21-5.63-2.13-4.37 1.46-6.74 4-10.06 7.12-6.38 5.55-13.56 7.5-21.89 7.33-2.42-0.32-2.42-0.32-5.55-2.07-2.84-4.93-2.27-9.69-1.87-15.25q1.12-0.37 2.28-0.74c13.81-4.86 25.6-12.82 36.72-22.26q0.85-0.65 1.73-1.32c4.28-3.31 7.28-7.23 10.27-11.68q0.73-1.08 1.49-2.2c2.8-4.52 4.07-8.14 4.08-13.46-0.69-2.82-2.08-4.97-3.56-7.43-1.68-3.17-2.41-6.5-3.2-9.97-0.24-1.02-0.24-1.02-0.5-2.07-2.01-8.49-2.49-16.36-2.5-25.06q-0.02-1.74-0.03-3.54c-0.04-21.57 6.92-41.02 21.22-57.27 1.02-1.16 1.02-1.16 2.05-2.34 10.62-11.36 25.82-19.68 41.51-20.85q4.06-0.11 8.13-0.06 1.44 0.01 2.92 0.02c23.48 0.34 42.65 7.19 59.89 23.29 16.62 17.15 23.03 39.58 22.85 62.97-0.49 21.58-7.02 41.65-21.94 57.71-18.95 17.73-41.18 23.25-66.54 22.43-15.77-0.92-30.63-7.88-43.87-16.17q0.61 1.41 1.24 2.86c8.96 21.12 9.29 44.5 0.7 65.95-8.7 20.4-24.77 34.97-44.96 43.69-12.43 4.96-25.87 6.7-39.17 6.69q-1.52 0-3.1 0c-9.62-0.08-18.54-1.27-27.71-4.19 0.62-8.49 1.96-16.68 3.63-25.01 1.04-5.43 1.86-10.47 1.37-15.99-2.2-2.97-4.37-3.58-7.91-4.32q-1.49-0.32-3.03-0.65-1.61-0.32-3.26-0.66-1.66-0.35-3.37-0.71-5.34-1.12-10.68-2.22-5.32-1.11-10.64-2.23-3.31-0.7-6.62-1.38c-11.19-2.33-11.19-2.33-15.49-3.83-3.03-5.14-2.38-11.81-2.38-17.62q0.01-1.65 0.01-3.34c0.2-13.78 2.37-26.59 8.37-39.04q-0.99 0.67-2.02 1.36c-14.67 9.62-27.93 14.22-45.54 14.08q-0.98-0.01-2-0.01c-10.98-0.07-20.98-1.12-31.44-4.43q-1.77-0.56-3.59-1.13c-17.72-6.24-30.97-18.25-39.48-34.87-2.69-5.78-4.38-11.83-5.93-18q-0.37-1.39-0.74-2.82c-4.77-21.37-0.35-46.11 10.92-64.77 12.73-20.04 29.38-31.94 52.14-38.03 21.18-3 46.43 0.23 64.23 12.73z"/>
	<path class="s3" d="m204 413c5.44-0.14 10.12 0.26 15.46 1.5q1.04 0.24 2.1 0.48 2.24 0.52 4.48 1.04 6.09 1.41 12.18 2.78 1.24 0.28 2.52 0.57 11.51 2.59 23.07 4.94 0.97 0.2 1.98 0.41 15.22 3.1 30.47 6.13 1.86 0.37 3.78 0.75 9.43 1.89 18.87 3.76 3.48 0.69 6.96 1.38 1.61 0.32 3.27 0.65c1.49 0.3 1.49 0.3 3.01 0.6q1.3 0.25 2.63 0.52c2.22 0.49 2.22 0.49 5.22 1.49q-0.49-1.26-1-2.56c-1.52-5.23-1.86-8.78 0.69-13.69 2.94-3.5 4.92-5.33 9.5-6.14 7.19-0.5 12.35 1.77 17.81 6.39 4.69 5.59 7.15 10.33 7.06 17.69q-0.01 1.48-0.02 3.01c-0.02 1.14-0.02 1.14-0.04 2.3q1.95 0.19 3.96 0.4c4.61 0.51 9.11 1.32 13.65 2.28q1.21 0.25 2.47 0.51 4.05 0.84 8.11 1.68 4.42 0.92 8.84 1.83 3.12 0.65 6.24 1.29 11.5 2.38 23.02 4.7 18.67 3.77 37.33 7.61 3.4 0.7 6.79 1.4 9.84 2.02 19.66 4.09 3.03 0.64 6.06 1.26 4.16 0.86 8.32 1.76 1.21 0.24 2.46 0.49c4.45 0.98 7.23 1.89 10.09 5.7 0.46 2 0.46 2 0.38 4-0.02 0.99-0.02 0.99-0.04 2-0.34 2-0.34 2-2.34 6 0-2.97 0-5.94 0-9q-0.99 0.41-2.02 0.84c-16.7 6.89-33.49 13.45-50.4 19.81q-8.74 3.3-17.45 6.66-1.62 0.62-3.29 1.27-8.39 3.22-16.71 6.61c-6.48 2.61-13.04 4.92-19.64 7.2-14.69 5.06-14.69 5.06-28.99 11.11-6.19 2.88-12.54 5.23-18.95 7.56q-4.47 1.66-8.92 3.36-3.38 1.26-6.75 2.52-1.62 0.62-3.28 1.25-1.53 0.57-3.11 1.15-1.36 0.51-2.77 1.04c-3.25 0.74-5.5 0.45-8.72-0.38-2.01-1.78-2.01-1.78-3.69-3.94-2.08-2.63-3.47-4.16-6.31-6.06q0-0.98 0-2-0.99 0-2 0 0-0.98 0-2-0.82-0.33-1.67-0.68c-3.06-1.73-5.18-3.94-7.64-6.45q-1.35-1.35-2.74-2.75c-2.16-2.25-4.21-4.56-6.24-6.92-4.02-4.63-8.34-8.91-12.71-13.2-5.02-4.94-9.89-9.91-14.48-15.25-1.91-2.19-3.94-4.23-6.02-6.25-3.49-3.44-6.75-6.99-9.93-10.71-1.44-1.64-2.93-3.16-4.51-4.67-2.06-2.12-2.06-2.12-2.06-4.12q-1.48-0.49-3-1c-1.54-1.57-1.54-1.57-3.19-3.56-2.49-2.95-5.05-5.74-7.81-8.44-2.54-2.5-4.94-5.04-7.25-7.75-3.7-4.32-7.74-8.27-11.84-12.21q-2-1.98-3.91-4.04 0-0.99 0-2-0.99 0-2 0c-1.41-1.47-1.41-1.47-3.06-3.5-3.93-4.64-8.32-8.57-12.94-12.5q0.49-0.99 1-2z"/>
	<path class="s4" d="m508.44 852.69c9.04 8.03 16.34 18.2 18.56 30.31q0.06 2.34 0.03 4.69c0 1.21 0 1.21-0.01 2.45q-0.01 0.92-0.02 1.86 1.55-0.01 3.14-0.01 37.78-0.13 75.56-0.2 18.27-0.03 36.54-0.09 15.93-0.06 31.85-0.08 8.43 0 16.87-0.04 7.93-0.04 15.87-0.03 2.91 0 5.82-0.03 3.98-0.02 7.96 0 1.15-0.02 2.33-0.04c6.41 0.07 9.75 2.51 14.44 6.58 2.51 4.54 2.36 8.87 1.62 13.94-2 4-4.18 6.66-8 9-3.36 1.12-5.89 1.13-9.44 1.13-0.99 0.01-0.99 0.01-2 0.01q-3.33 0.01-6.67 0.01-2.41 0-4.82 0.01-6.64 0.01-13.27 0.01-7.15 0.01-14.3 0.03-17.28 0.02-34.56 0.04-8.13 0-16.26 0.01-27.03 0.03-54.06 0.04-7.02 0-14.03 0.01c-1.75 0-1.75 0-3.53 0q-28.25 0.01-56.51 0.06-29 0.05-58 0.06-16.28 0-32.57 0.03-13.87 0.04-27.74 0.02-7.07-0.01-14.15 0.02-6.48 0.03-12.96 0-2.34 0-4.69 0.02c-14.71 0.1-14.71 0.1-21.44-4.51-2.9-3.42-4.22-6.57-4.44-11.06 0.61-5.43 1.92-8.53 5.94-12.25 4.02-2.72 7.06-2.81 11.81-2.8q1.94 0 3.94 0 2.13 0 4.26 0.01 2.18 0.01 4.36 0.01 5.73 0 11.47 0.02 5.85 0.02 11.7 0.02 11.48 0.02 22.96 0.05-0.48-1.65-0.98-3.36c-2.4-8.57-0.9-15.69 2.98-23.64 9.78-15.91 26.29-21.71 43.52-26.02 22.19-5.16 43.06-0.19 60.92 13.71z"/>
	<path class="s5" d="m807.24 526.93q1.92 0.02 3.91 0.03 2.11 0.03 4.23 0.06 2.18 0.02 4.35 0.05 4.57 0.05 9.15 0.12 5.82 0.08 11.64 0.12 4.5 0.05 9 0.11 2.15 0.03 4.29 0.05c15.77 0.11 28.37 3.74 40.06 14.84 12.14 12.97 16.66 28.21 16.41 45.49-0.25 6.86-1.76 12.8-4.28 19.2q-0.6 1.53-1.21 3.1c-7.24 16.24-21.49 27.58-37.79 33.9-42.3 13.76-95.29 2.62-135-15-0.26-6.21 0.76-11.96 1.87-18.06 3.23-18.56 4.4-37.14 5.13-55.94q0.91-0.26 1.86-0.53c28.95-8.31 28.95-8.31 54.35-24.15 4.09-3.4 6.88-3.44 12.03-3.39z"/>
	<path class="s6" d="m220.94 448.83c15.26 10.53 24.98 25.04 29.06 43.17 0.4 3.95 0.43 7.85 0.38 11.81-0.02 1.59-0.02 1.59-0.04 3.22-0.49 23.3-11.96 43.37-28.4 59.5-12.9 12.18-28.7 18.99-46.47 18.81-10.3-1.01-19.18-6.47-27.47-12.34q-1.54-1.08-3.13-2.19c-13.09-11.62-21.72-30.14-23.08-47.44-1.12-22.95 4.09-42.69 19.21-60.37 2.5-2.61 5.11-4.84 8-7q1.14-0.87 2.32-1.77c8.12-5.69 17.23-8.52 26.68-11.23q0.95-0.27 1.94-0.56c14.04-3.02 28.9-1.15 41 6.39z"/>
	<path class="s7" d="m399.94 101.56q3.06 2.69 6.06 5.44 0.98 0.85 1.98 1.73c6.32 5.84 11.06 13.3 16.02 20.27-2.65 2.65-5.67 3.42-9.12 4.62-8.66 3.14-16.77 7.04-24.88 11.38q-1.58 0.84-3.21 1.71c-8.78 4.91-17.87 10.91-24.79 18.29-3.46-1.47-5.47-3.38-8-6.13-8.53-8.7-18.53-15.6-30.94-16.37-6.55 0.24-12.16 2.69-16.88 7.26-8.78 10.87-10.22 23.78-9.18 37.24 1.2 8.77 3.72 16.71 8.73 24.08 1.27 1.92 1.27 1.92 2.27 4.92q1.48 0.49 3 1c-1.44 3.03-3.11 5.89-4.82 8.77-6.77 11.59-11.94 23.89-17.18 36.23-17.03-13.69-27.52-36.19-33-57-0.29-1.1-0.29-1.1-0.59-2.22-1.62-6.95-1.75-13.83-1.73-20.96q0-2.98-0.04-5.97c-0.02-29.44 12.43-54.46 32.67-75.22 9.38-8.85 20.55-14.57 32.69-18.63 1.03-0.35 1.03-0.35 2.09-0.71 27.03-8.46 58.02 2.59 78.85 20.27z"/>
	<path class="s7" d="m815.43 93.52c11.41 9.18 20.42 19.67 27.57 32.48q0.81 1.43 1.65 2.89c4.47 8.32 7.01 17.01 9.35 26.11q0.37 1.36 0.75 2.76c6.35 27.6-1.51 58.98-16.24 82.63-10.32 15.63-10.32 15.63-16.51 21.61q-0.98 0-2 0-0.43-0.97-0.87-1.97c-5.22-11.77-10.44-23.32-17.35-34.2-1.41-2.24-2.66-4.44-3.78-6.83q1.12-1.28 2.27-2.6c9.24-11.12 13.57-26.1 13.08-40.45-1.31-11.09-3.79-22.1-12.41-29.79-6.18-4.83-11.15-5.91-18.94-5.16-13.84 3.13-23.56 13.07-33 23q-1.32-1.2-2.69-2.44c-15.53-13.23-33.48-22.07-52.31-29.56q-1.5-0.6-3.05-1.22c-0.97-0.39-0.97-0.39-1.95-0.78 2.22-12.96 18.7-26.66 28.97-33.97 29.08-19.45 68.06-24.91 97.46-2.51z"/>
	<path class="s8" d="m591.79 347.91c2.5 1.94 4.86 3.96 7.21 6.09q1.3 1.12 2.63 2.28c6 5.53 10.6 11.54 15.06 18.34q0.79 1.18 1.6 2.39c3.36 5.36 4.85 9.67 3.71 15.99-8.21 20.93-31.09 35.26-50.7 44.24-2.3 0.76-2.3 0.76-6.3 0.76q0.09 2.88 0.25 5.75 0.07 1.59 0.14 3.23c0.73 3.63 1.65 4.85 4.61 7.02 6.97 1.66 13.9-0.66 20-4 3.15-2.17 6.07-4.54 9-7 3.61-3.02 3.61-3.02 7.13-2.81 2.87 0.81 2.87 0.81 4.87 2.81 0.69 4.99 0.49 7.9-2.44 12.06-9.86 11.69-22.71 16.13-37.56 17.94-4.09 0.27-8.15 0.33-12.25 0.31-1.63 0-1.63 0-3.29-0.01-12-0.17-23.79-1.37-34.46-7.3q-1.24-0.66-2.52-1.34c-6.88-3.88-14.44-9.05-17.48-16.66 0.32-6.32 0.32-6.32 3-9 3.98-0.45 6.21-0.51 9.63 1.69q2.39 2.33 4.68 4.75c6.49 6.18 12.38 8.74 21.32 8.68q1.03 0.01 2.1 0.02c3.42 0.29 3.42 0.29 6.27-1.14q0.1-3.53 0.06-7.06-0.01-1.93-0.02-3.91-0.02-1.49-0.04-3.03-1.05-0.38-2.13-0.78c-21.28-8.25-44.35-24.76-54.05-45.77-1.39-4.15-0.38-7.52 1.18-11.45 10.83-19.81 27.9-36.95 49.56-44.31 17.91-5.08 34.47 1.08 49.23 11.22z"/>
	<path class="s9" d="m807 706c1.36 0.9 1.36 0.9 2.75 1.81 7.69 7.48 11.36 15.91 11.69 26.5-0.45 19.78-14.98 34.72-28.52 47.77-1.81 1.81-3.47 3.67-5.12 5.61-3.9 4.48-8.03 8.69-12.24 12.87q-1.06 1.07-2.16 2.17c-4.08 4.08-8.27 7.97-12.64 11.74-2.17 1.88-4.24 3.87-6.32 5.84-8.46 7.62-20.21 16.98-31.44 19.69-6.84-2-11.54-10.59-15-16.31-9.82-18.64-12.41-40.26-7.5-60.88 7.68-23.61 24.22-45.95 46.27-57.95 19.49-9.9 41.73-11.86 60.23 1.14z"/>
	<path class="s7" d="m331 731q-0.22 1.2-0.44 2.44c-4.05 25.65-1.08 50.11 14.44 71.56 4.57 6.14 9.47 11.71 15 17q2 2 4 4c-28.81 9.26-60.49 13.19-88.81-0.34-12.75-7.17-23.3-18.06-27.53-32.25-2.48-12.82-0.95-24.26 5.65-35.6 9.47-14.01 22.65-21.49 38.95-25.16 6.57-1.14 13.15-1.23 19.8-1.34q2.1-0.05 4.2-0.1 7.37-0.2 14.74-0.21z"/>
	<path class="s10" d="m695.69 300.81q2.18 1.56 4.31 3.19 0.9 0.68 1.84 1.38c8.44 7.32 14.22 20.65 15.38 31.68 0.88 15.4-1.07 30.7-11.22 42.94-9.54 10.24-19.91 14.7-33.81 15.38-10.82-0.26-20.79-4.62-28.82-11.69-12.93-14.64-15.33-28.92-14.57-48.03 0.4-5.34 1.85-9.89 4.2-14.66q0.59-1.23 1.2-2.5c6.36-12.23 16.53-19.88 29.61-24.08 11.91-2.28 21.78 0.07 31.88 6.39z"/>
	<path class="s10" d="m466.75 300.81q2.16 1.56 4.25 3.19 0.92 0.71 1.87 1.45c9.24 8.15 14.52 22.27 15.41 34.3 0.56 15.65-2.5 31.29-13.41 43.13-7.52 6.97-16.69 11.07-26.87 12.12q-1.18 0.12-2.39 0.25c-11.81 0.61-23.73-4.26-32.57-11.96-9.58-9.93-13.44-23.57-13.35-37.04q0-1.31 0.01-2.67c0.26-14.63 4.72-26.58 14.84-37.25 15.17-14.37 34.21-16.82 52.21-5.52z"/>
	<path class="s11" d="m508.44 852.69c9.82 8.73 16.86 19.51 18.93 32.67 0.4 6.87-1.65 14.09-5.84 19.57-6.35 6.05-14.08 7.14-22.53 7.07q0.02-1.35 0.03-2.73 0.05-5.07 0.08-10.13 0.01-2.18 0.04-4.37 0.03-3.15 0.05-6.31 0.01-1.88 0.03-3.82c-0.25-3.9-1.03-6.94-2.23-10.64-4.93-0.48-4.93-0.48-9.2 1.66-2.23 2.9-2.32 4.47-2.37 8.1q-0.05 1.67-0.09 3.39-0.01 1.74-0.03 3.54-0.06 3.44-0.13 6.88-0.04 1.63-0.07 3.31c-0.14 4.09-0.58 8.07-1.11 12.12-10.05 0.16-19.98-0.34-30-1q0.03-1.45 0.06-2.93 0.11-5.42 0.16-10.84 0.03-2.34 0.08-4.68 0.07-3.37 0.09-6.75 0.03-1.03 0.06-2.09c0.01-5.01-1.24-7.89-4.45-11.71-2.54-0.75-2.54-0.75-5 0-1.77 0.99-1.77 0.99-3 3-0.33 2.72-0.49 5.22-0.51 7.95q-0.03 1.15-0.06 2.34-0.07 3.7-0.12 7.4-0.05 2.51-0.1 5.02-0.13 6.14-0.21 12.29c-12.3 0.15-25.39-0.77-34.83-9.74-2.71-3.52-3.85-6.86-4.17-11.26q-0.49 0-1 0c-2.32-8.97-1.04-16.72 3-25 9.78-15.91 26.29-21.71 43.52-26.02 22.19-5.16 43.06-0.19 60.92 13.71z"/>
	<path class="s12" d="m705 702c3.75 0.54 5.99 1.41 8.92 3.8q1.04 0.84 2.11 1.71 1.06 0.89 2.16 1.8 1.08 0.87 2.19 1.77c3.39 2.78 5.85 4.84 7.62 8.92q-1.05 1.07-2.13 2.17c-16.53 17.22-26.53 38.08-26.31 62.14 0.01 1.78 0.01 1.78 0.03 3.6 0.39 20.2 7.92 36.27 21.41 51.09-3.99 1.33-6.8 0.22-10.69-0.94q-1.12-0.33-2.28-0.68c-8.16-2.56-15.55-6.29-23.03-10.38q-0.89-0.48-1.82-0.96c-18.71-9.95-35.46-23.79-51.03-38.07q-2.98-2.72-6.02-5.35-5.32-4.64-10.57-9.37-0.79-0.7-1.61-1.43c-2.49-2.25-3.87-3.58-4.95-6.82q1.36-0.31 2.76-0.63c17.6-4.13 34.38-9.62 50.24-18.37q1.37-0.75 2.79-1.52c18.14-10.41 31.16-23.72 40.21-42.48z"/>
	<path class="s13" d="m591.79 347.91c2.5 1.94 4.86 3.96 7.21 6.09q1.3 1.12 2.63 2.28c6.08 5.61 10.65 11.67 15.12 18.59 0.81 1.24 0.81 1.24 1.63 2.49 0.73 1.18 0.73 1.18 1.48 2.38q0.65 1.05 1.33 2.12c1.03 2.73 0.59 4.38-0.19 7.14-8.14 3.05-16.44 4.66-25 6-1.01 0.16-1.01 0.16-2.04 0.33-23.3 3.53-48.67 2.97-71.96-0.33q-1.13-0.16-2.3-0.32c-9.54-1.4-18.57-3.55-27.7-6.68q-0.49 0.98-1 2c2.04-16.94 17.26-31.88 30-42 23.73-16.64 47.07-16.39 70.79-0.09z"/>
	<path class="s14" d="m197 662c7.2 4.13 13.57 10.8 19 17q0 0.99 0 2 0.87 0.37 1.77 0.75c2.56 1.43 4.03 3.02 5.92 5.25 0.9 1.05 0.9 1.05 1.82 2.13 2.52 3.17 2.69 5.57 2.92 9.6-1.11 5.87-6.26 10.41-10.33 14.47q-0.84 0.84-1.7 1.71-1.76 1.78-3.54 3.54-2.7 2.7-5.37 5.42-1.73 1.73-3.45 3.46-0.8 0.8-1.61 1.63c-2.93 2.9-5.38 5.07-9.43 6.04-3.81-0.29-5.85-1.32-8.63-3.89q-1.02-0.94-2.08-1.91-6.68-6.43-13.23-13.01-1.45-1.45-2.9-2.89-1.35-1.36-2.75-2.76-1.23-1.23-2.5-2.5c-3.15-3.37-3.41-6.02-3.28-10.52 1.24-8.46 11.12-15.54 16.97-21.32q2.5-2.48 4.99-4.97 1.59-1.58 3.18-3.16 0.74-0.74 1.5-1.5c4.3-4.24 6.57-5.35 12.73-4.57z"/>
	<path class="s15" d="m698 691q0.12 0.88 0.25 1.8c0.98 2.88 2.34 3.72 4.81 5.45q1.1 0.78 2.23 1.58 0.84 0.58 1.71 1.17-0.65 1.06-1.31 2.15-1.63 2.74-3.13 5.54c-14.67 26.95-43.09 42.57-71.56 51.31q-5.84 1.71-11.76 3.15c-3.14 0.74-3.14 0.74-5.63 1.85-1.98 0.81-1.98 0.81-5.61 1-3.57-2.53-6.24-5.63-9-9q-0.95-1.12-1.94-2.28c-3.06-3.81-3.06-3.81-4.06-5.72q0.49-1.48 1-3 1.9-0.22 3.86-0.45c34.01-4.21 66.11-16.61 90.83-40.86q0.75-0.74 1.53-1.49c2.85-2.89 4.48-5.38 5.78-9.2q0.99-1.48 2-3z"/>
	<path class="s16" d="m507.31 438.63c5.35 0.54 7.41 3.02 11 6.81 6.49 6.18 12.38 8.74 21.31 8.69q1.04 0 2.11 0.01c3.42 0.29 3.42 0.29 6.27-1.14q0.35-3.53 0.56-7.06c0.15-2.29 0.29-4.58 0.44-6.94 5.28 0 10.56 0 16 0q0.12 2.59 0.25 5.25c0.33 3.35 0.59 5.46 2.19 8.44 4.9 2.51 9.89 2 15.12 0.65 6.41-2.31 11.26-6 16.44-10.34 3.61-3.02 3.61-3.02 7.12-2.81 2.88 0.81 2.88 0.81 4.88 2.81 0.69 4.99 0.49 7.9-2.44 12.06-9.86 11.69-22.71 16.13-37.56 17.94-4.09 0.27-8.15 0.33-12.25 0.31-1.63 0-1.63 0-3.29-0.01-12-0.17-23.79-1.37-34.46-7.3q-1.24-0.66-2.52-1.34c-6.88-3.88-14.44-9.05-17.48-16.66 0.44-8.71 0.44-8.71 6.31-9.37z"/>
	<path class="s17" d="m774.91 523.2q1.06 0.3 2.15 0.6c4.98 1.26 9.89 1.84 15 2.32q1.29 0.13 2.63 0.27 3.15 0.31 6.31 0.61c-13.78 11.5-29.71 18.68-46.56 24.37q-1.58 0.54-3.22 1.09-1.49 0.49-3.04 1-1.34 0.44-2.73 0.9c-2.45 0.64-2.45 0.64-6.45 0.64 0.05 1.75 0.05 1.75 0.11 3.54 0.46 23.4-2.42 46.57-7.11 69.46-6.75-1.63-6.75-1.63-9-5 0.03-2.32 0.03-2.32 0.43-5.05q0.2-1.51 0.41-3.06 0.23-1.58 0.47-3.2c2.33-16.44 2.83-32.49 2.75-49.07q-0.01-3.01-0.01-6.02-0.02-7.3-0.05-14.6 0.99-0.34 2.01-0.7c10.6-3.71 35.47-19.2 45.9-18.1z"/>
	<path class="s18" d="m183 275q2.59 2.41 5 5 1.75 1.75 3.52 3.48 1.86 1.85 3.73 3.71 0.95 0.94 1.93 1.9 0.9 0.9 1.84 1.83 0.82 0.81 1.66 1.65c2.55 2.76 2.85 5.51 2.78 9.22-0.93 4.43-4.32 7.16-7.46 10.21q-1.13 1.15-2.29 2.33-2.3 2.33-4.64 4.62-1.83 1.8-3.54 3.69c-2.05 2.29-3.56 3.37-6.47 4.42-6.77-0.14-11.76-6.45-16.25-11q-0.92-0.9-1.86-1.84c-7.56-7.59-7.56-7.59-8.39-13.16 1.08-7.54 7.89-12.78 13.07-17.87q1.15-1.16 2.35-2.35c7.64-7.59 7.64-7.59 15.02-5.84z"/>
	<path class="s19" d="m393 710q1.58 3.09 3.01 6.26c2.25 4.89 4.45 8.34 8.37 12.05 2.26 2.49 3.5 3.92 4.01 7.26-0.19 2.75-0.55 5.41-1.03 8.12-0.45 2.88-0.77 5.77-1.09 8.67q-0.74 6.77-1.55 13.53-0.17 1.43-0.35 2.91c-0.37 2.2-0.37 2.2-1.37 3.2-4.78 0.55-8.8 0.56-13.19-1.5-10.19-9.06-15.63-20.13-19.75-32.94q-0.31-0.97-0.64-1.97c-1.29-4.29-1.61-8.12-1.42-12.59q1.57-0.78 3.18-1.57c7.37-3.66 14.7-7.32 21.82-11.43z"/>
	<path class="s19" d="m492 145c4.32 2.75 7.32 6.13 9 11 0.86 5.92 0.78 11.39-2.68 16.44-5.16 6.07-10.79 9.85-18.77 10.88-7.56 0.36-12.52-1.84-18.3-6.57-4.09-5-7.07-10.1-6.7-16.73 1.33-5.96 5.39-10.8 10.45-14.02 8.92-5.11 17.75-5.8 27-1z"/>
	<path class="s19" d="m642.64 143.73c5.76 3.09 10.28 6.92 12.36 13.27 0.96 6.42 0.23 11.02-3.59 16.32-4.43 5.27-9.85 8.01-16.61 9-7.65 0.39-13.77-2.48-19.67-7.19-4.49-4.19-6.28-8-6.5-14.13 0.19-5.2 1.21-8.73 4.88-12.59 8.96-8.24 18.16-9.52 29.13-4.68z"/>
	<path class="s19" d="m568 142c2.88 2.44 2.88 2.44 5 5q0.89 1.05 1.81 2.13c2.23 5.39 2.34 10.95 0.19 16.41-3.58 6.08-8.27 9.44-15 11.46-6.16 0.96-11.68 0.55-17.14-2.59-3.97-3.02-7.62-6.93-9.86-11.41-0.5-5.5-0.76-10.39 1.63-15.44 9.54-10.3 21.15-12.88 33.37-5.56z"/>
	<path class="s20" d="m115 373c3.68 2.66 6.81 5.79 10 9 1.07 1.03 1.07 1.03 2.16 2.09 5.64 5.49 5.64 5.49 6.34 10.54-0.05 5.68-3.71 8.55-7.5 12.37q-1.3 1.61-2.56 3.25c-3.33 3.76-6.32 6.23-11.25 7.44-4.96-1.07-8.6-4.17-12.19-7.69q0-0.99 0-2-1.48-0.49-3-1c-1.57-1.56-1.57-1.56-3.13-3.44q-0.77-0.92-1.57-1.87c-2.53-3.28-2.7-5.57-2.3-9.69 2.78-4.77 6.21-8.49 10.13-12.31q0.8-0.8 1.62-1.63c4.06-4.01 7.36-6.74 13.25-5.06z"/>
	<path class="s21" d="m653.44 567.56c5.26 5.01 8.07 9.32 8.93 16.57-0.59 6.16-2.88 11.43-7.34 15.81-5.6 4.35-9.88 5.54-17.03 5.06-6.21-1.22-9.62-4.2-13.65-8.96-2.72-4.1-2.68-8.21-2.35-13.04 2.19-6.56 5.53-11.81 11.56-15.37 6.36-2.87 13.57-2.94 19.88-0.07z"/>
	<path class="s21" d="m569.31 580.75c4.16 3.48 7.22 6.97 8.69 12.25 0.57 7.05-0.84 11.68-4.75 17.69-4.93 5.06-8.7 6.59-15.69 6.93-6.52-0.2-10.12-1.92-14.56-6.62q-1.23-1.26-2.5-2.56c-2.36-5.41-2.22-10.64-1.5-16.44 2.81-6.19 8.16-10.79 14.38-13.44 5.92-0.92 10.59-0.63 15.93 2.19z"/>
	<path class="s22" d="m663.44 208.06c5.05 2.88 8.95 6.72 11.56 11.94 0.42 3.72 0.13 5.73-1.5 9.12-6.04 6.95-14.6 8.38-23.46 9.02-14.03 0.78-14.03 0.78-20.04-4.14-2.87-4.3-2.83-7.96-2-13 3.07-6.82 7.54-10.92 14.3-14.07 6.86-2.36 14.57-1.89 21.14 1.13z"/>
	<path class="s22" d="m468.25 208.44c5.66 3.11 9.41 6.46 11.75 12.56 0.71 3.52 0.83 6.5 0 10-2.57 3.42-5.1 5.34-9 7-3.2 0.41-6.4 0.33-9.63 0.31q-1.34 0-2.72-0.01c-8.51-0.15-16.43-0.89-22.65-7.3-2.21-2.95-2.61-6.18-2.5-9.84 1.19-5.12 5.33-8.79 9.64-11.52 8.63-4.42 16.09-5.27 25.11-1.2z"/>
	<path class="s19" d="m603.25 642.06c4.06 2.86 7.52 6.47 9.75 10.94 0.75 6.93 0.71 12.63-3.5 18.38-3.44 3.72-7.45 6.32-12.55 6.82-6.61 0.14-10.53-1.12-15.64-5.51-4.2-4.89-5.91-8.98-5.65-15.39 0.71-4.76 2.49-8.6 6.06-11.87 6.59-4.88 13.67-5.94 21.53-3.37z"/>
	<path class="s19" d="m764 417c3.11 1.7 5.39 3.78 7 7 0.89 8.73 0.24 15.8-5 23-5.14 5.68-9.81 8.55-17.5 9.38-4.3-0.47-6.24-1.57-9.5-4.38-2.94-4.41-3.61-7.75-3-13 2.35-8.54 6.91-15.51 14.31-20.5 4.72-1.92 8.67-2.48 13.69-1.5z"/>
	<path class="s23" d="m757.44 740.75c3.9 1.9 6.02 4.8 8.56 8.25q0.65 0.84 1.32 1.71c8.79 12.6 10.05 28.48 11.68 43.29q1.97-1.48 4-3c-1.35 2.99-2.84 5.1-5.15 7.42q-0.92 0.91-1.86 1.86-0.95 0.94-1.93 1.91-0.94 0.95-1.92 1.94c-0.92 0.92-0.92 0.92-1.85 1.85q-0.84 0.83-1.7 1.68c-1.59 1.34-1.59 1.34-4.59 2.34-1.24-2.48-1.22-4.33-1.36-7.1-0.89-15.13-2.13-28.46-9.95-41.77-2.93-5.03-4.07-9.38-2.69-15.13 2.25-3.28 3.42-4.84 7.44-5.25z"/>
	<path class="s19" d="m701.94 173.63c8.21 0.06 13.79 2.52 19.93 7.87 7.45 8.76 7.45 8.76 7.34 16.25-0.29 3.12-1.18 4.87-3.21 7.25-5.48 3.91-10.48 3.74-17 3-7.79-2.13-13.52-8.43-18-14.87-1.42-4.44-1.85-8.53-1-13.13 2.44-3.06 2.44-3.06 5-5 1.82-1.82 4.48-1.3 6.94-1.37z"/>
	<path class="s24" d="m226.15 471.68c8.04 2.78 16.12 6.94 21.85 13.32 2.74 6.44 2.19 13.1 2 20q-1.02-0.65-2.08-1.32c-9.59-5.46-19.32-7.57-30.14-9.55-11.24-2.13-11.24-2.13-15.78-6.13-2.51-3.77-2.53-5.53-2-10 5.55-9.26 16.6-8.39 26.15-6.32z"/>
	<path class="s25" d="m207 531c5.11 1.17 10.04 2.75 15 4.44q3.81 1.25 7.63 2.49 1.65 0.56 3.35 1.13c2.67 0.83 5.27 1.45 8.02 1.94q-1.55 2.79-3.12 5.56c-0.88 1.55-0.88 1.55-1.76 3.13q-1.05 1.63-2.12 3.31-0.61 0.98-1.24 1.99c-1.46 2.05-2.72 3.54-4.76 5.01-3.36 0.55-6.32-0.04-9.63-0.75q-1.32-0.24-2.68-0.49c-9.2-1.82-17.54-4.5-24.69-10.76-2.32-3.48-3-5.43-3-9.63 2.72-9.16 11.05-8.28 19-7.37z"/>
	<path class="s19" d="m820 361c4.41 2.16 7.2 4.4 9 9 0.95 6.78 0.12 12.46-4 18-4.56 4.83-8.95 8.5-15.72 9.34-7.53 0.1-7.53 0.1-11.34-2.15-4.24-4.79-4.38-7.92-4.24-14.12 0.75-7.62 4.59-11.83 10.3-16.62 5.2-3.76 9.68-4.26 16-3.45z"/>
	<path class="s19" d="m459.88 744.63c4.19 3.19 6.46 6.38 8.12 11.37 0.79 6.36 0.27 11.06-3.52 16.31-3.41 3.9-6.81 5.8-11.85 6.69-5.06 0.32-8.66-0.85-12.63-4-4.21-4.33-6.38-8.49-6.69-14.56 0.39-6.27 2.56-10.64 7.23-14.82 5.74-3.9 13.18-4.14 19.34-0.99z"/>
	<path class="s19" d="m304.15 362.66c5.23 2.33 8.57 5.72 11.85 10.34q0.92 1.29 1.88 2.62c1.91 5.74 2.77 12.91 0.1 18.52-2.09 2.6-3.82 3.81-6.98 4.86-6.35 0.54-10.79-0.22-16-4-5.04-4.77-9.37-9.37-10.34-16.46-0.1-6.88 1.39-10.26 6.03-15.42 4.34-2.11 8.89-1.86 13.46-0.46z"/>
	<path class="s19" d="m412 175c5.46 2.93 5.46 2.93 7 6 0.83 5.55 0.51 9.94-2.5 14.75-4.43 5.9-10.13 10.78-17.5 12.25-5.12 0.54-8.83 0.58-13.5-1.75-3.52-3.17-4.27-4.79-5-9.44 0.81-6.19 3.88-10.62 8.66-14.61 7.04-4.86 14.09-8.68 22.84-7.2z"/>
	<path class="s26" d="m788.86 716.43c4.38 1.16 7.14 4.32 10.14 7.57q0.93 0.99 1.88 2.01c7.27 8.51 10.47 19.07 12.12 29.99q1.48-1.48 3-3c-1.35 3.84-3.05 6.61-5.63 9.75q-1.05 1.28-2.13 2.6-5.02 5.91-10.24 11.65 0-1.48 0-3c-0.67-15.98-3.67-29.27-15-41q-1.17-0.95-2.38-1.94c-2.16-2.74-2.2-4.73-2-8.15 0.38-1.91 0.38-1.91 1.88-4.41 2.81-1.69 5.06-2.25 8.36-2.07z"/>
	<path class="s19" d="m783.44 560.13c4.83 3.53 7.63 6.42 8.56 12.37 0.24 4.28-0.48 6.93-3 10.5-3.95 3.97-7.54 6.12-13.19 6.38-5.32-0.07-8.78-2.02-12.81-5.38-3.91-4.31-5.37-6.99-5.28-12.91 0.62-4.64 3.51-7.36 6.78-10.46 6.11-2.84 12.58-2.58 18.94-0.5z"/>
	<path class="s19" d="m598.38 201.13c3.72 2.65 6.55 5.73 8.62 9.87 0.55 5.72-0.36 8.57-4 13-5.28 4.65-8.32 5.3-15.24 5.21-5.22-0.4-8.25-2.42-11.57-6.27-2.83-3.8-3.6-5.98-3.53-10.78 0.79-5.01 4.02-8.18 7.97-11.1 5.96-1.88 11.8-1.92 17.75 0.07z"/>
	<path class="s19" d="m360 219c2.63 1.75 2.63 1.75 4 5 1.26 7.63 0.19 13.34-4.14 19.73-3.47 4.23-8.15 9.83-13.88 10.51-6.39 0.2-6.39 0.2-9.48-2.12-3.21-4.54-3.06-8.69-2.5-14.12 2.19-7.29 7.67-13.12 13.31-18 4.24-1.58 8.23-1.75 12.69-1z"/>
	<path class="s19" d="m758 218c7.13 3.24 11.27 8.27 15 15q0.56 0.94 1.14 1.9c1.83 4.45 1.36 9.4 0.86 14.1-1.5 3.25-1.5 3.25-4 5-4.59 0.67-6.84 0.56-11-1.44-8.11-6.92-13.84-14.05-15.5-24.81 0.66-3.65 2.22-5.87 4.5-8.75 3.23-1.61 5.41-1.4 9-1z"/>
	<path class="s19" d="m359.66 419.03c7.13 3.87 11.77 9.25 14.34 16.97q0.1 2.84 0.06 5.69-0.01 1.48-0.02 3.01-0.02 1.13-0.04 2.3-9.65-1.68-19.28-3.49-2.45-0.46-4.91-0.9c-3.39-0.6-6.65-1.21-9.81-2.61-1.75-2.75-1.75-2.75-2-6q-0.18-1.72-0.38-3.5c0.56-5.15 2.67-7.99 6.5-11.37 5.31-2.08 10.2-2.17 15.54-0.1z"/>
	<path class="s19" d="m672.19 635.56c4.06 3.53 7.49 7.19 8.04 12.75-0.37 5.12-1.79 8.78-5.23 12.69-4.73 3.3-9.39 3.9-15 3-4.83-2.37-7.73-5.12-10-10-0.8-4.94-1.18-9.72 1.18-14.26 5.85-7.22 12.74-8.23 21.01-4.18z"/>
	<path class="s19" d="m502 637c6.77 0.33 11.99 3.78 16.44 8.69 3.48 5.15 3.22 10.22 2.56 16.31-1.85 5.17-5.1 8.95-10.04 11.38-4.95 1.57-9.38 1.39-14.02-0.88q-0.96-0.74-1.94-1.5c0.56-7.51 1.86-14.72 3.5-22.06q0.34-1.56 0.68-3.16c1.69-7.65 1.69-7.65 2.82-8.78z"/>
	<path class="s19" d="m796.13 291.63c4.37 0.06 6.92 0.99 10.3 3.74 5.36 5.57 7.72 11.32 7.88 19.01q0.06 1.67 0.12 3.39c-0.52 3.91-1.65 5.49-4.43 8.23-3.38 1.17-5.61 1.51-9.02 0.25-6.85-3.77-10.63-9.7-13.35-16.87-1.01-5.42-1.5-8.86 1.31-13.75 3-3.82 3-3.82 7.19-4z"/>
	<path class="s19" d="m854.3 568.81c3.29 2.31 5.35 4.23 6.08 8.3 0.21 4.07-0.22 6.55-2 10.27-3.77 4.15-7.21 5.76-12.75 6.06-5.59-0.22-10.18-2.05-14.2-5.97-2.53-2.95-4.24-5.32-4.87-9.16 0.63-4.73 2.97-7.16 6.44-10.31 6.35-4.06 15.06-2.83 21.3 0.81z"/>
	<path class="s19" d="m319 292c2.75 2.29 3.86 3.57 5 7 0.7 8.71-2.03 15.64-7.46 22.34-3.15 3.4-5.47 4.51-10.04 5.16-4.44-0.63-5.79-1.99-8.5-5.5-0.81-1.88-0.81-1.88-1-4q-0.15-1.57-0.31-3.19c0.64-7.78 4.46-14.65 10.31-19.81 3.91-2.51 7.53-3.81 12-2z"/>
	<path class="s19" d="m529.38 201.63c3.49 3.15 5.46 5.72 5.75 10.55-0.32 5.82-1.93 8.81-6.13 12.82-4.46 2.72-8.92 2.66-14 2-4.03-2.05-6.59-4.21-9-8-0.91-4.22-0.93-8.3 1.17-12.14 5.77-7.09 13.83-9.27 22.21-5.23z"/>
	<path class="s19" d="m486 792c3.57 2.2 5.44 4.14 7 8 0.71 6.07 0.79 11.95-3 17-4.02 2.68-7.2 3.7-12 3-4.61-2.62-8.3-4.91-10-10-0.99-8.99-0.99-8.99 0.98-12.98 4.93-6.11 9.75-6.83 17.02-5.02z"/>
	<path class="s27" d="m415 694q0.99 0 2 0c1.52 5.02 0.85 7.87-1.19 12.69-3.68 8.78-5.14 17.97-6.81 27.31-6.78-5.45-13.63-12.16-14.94-21.19q-0.03-1.38-0.06-2.81 1.03-0.74 2.09-1.5c9.85-6.77 9.85-6.77 18.91-14.5z"/>
	<path class="s28" d="m503 747c8.25 0.66 16.5 1.32 25 2-1.13 11.25-1.13 11.25-2 15-5.78-2.15-11.01-4.29-16-8q-1.35-0.95-2.75-1.94c-2.25-2.06-2.25-2.06-4.25-7.06z"/>
	<path class="s29" d="m564 337c-1.53 1.53-3.01 1.22-5.15 1.32q-1.25 0.06-2.55 0.12-1.32 0.06-2.67 0.12-1.31 0.07-2.66 0.13c-3.33 0.16-6.64 0.31-9.97 0.31 1-2 1-2 4.38-3.13 6.14-1.4 13.23-2.46 18.62 1.13z"/>
	<path class="s30" d="m241 471c3.18 3.59 4.02 5.08 5 10-3.96-2.31-7.92-4.62-12-7q1.48-0.49 3-1 2.01-0.97 4-2z"/>
	<path class="s31" d="m145 459q1.97 0.49 4 1c-2.64 2.64-5.28 5.28-8 8q-0.49-1.97-1-4c2.19-2.81 2.19-2.81 5-5z"/>
	<g id="Layer 1">
	</g>
</svg>